<svg width="21" height="21" viewBox="0 0 21 21" fill="none" xmlns="http://www.w3.org/2000/svg">
<path d="M15.1177 10.7352C15.1177 11.1982 15.493 11.5734 15.9559 11.5734C16.4188 11.5734 16.7941 11.1982 16.7941 10.7352C16.7941 10.2723 16.4188 9.89697 15.9559 9.89697C15.493 9.89697 15.1177 10.2723 15.1177 10.7352Z" fill="#707070"/>
<path d="M10.0882 10.7352C10.0882 11.1982 10.4635 11.5734 10.9265 11.5734C11.3894 11.5734 11.7647 11.1982 11.7647 10.7352C11.7647 10.2723 11.3894 9.89697 10.9265 9.89697C10.4635 9.89697 10.0882 10.2723 10.0882 10.7352Z" fill="#707070"/>
<path d="M5.05884 10.7352C5.05884 11.1982 5.43413 11.5734 5.89707 11.5734C6.36002 11.5734 6.73531 11.1982 6.73531 10.7352C6.73531 10.2723 6.36002 9.89697 5.89707 9.89697C5.43413 9.89697 5.05884 10.2723 5.05884 10.7352Z" fill="#707070"/>
<path d="M15.1177 10.7352C15.1177 11.1982 15.493 11.5734 15.9559 11.5734C16.4188 11.5734 16.7941 11.1982 16.7941 10.7352C16.7941 10.2723 16.4188 9.89697 15.9559 9.89697C15.493 9.89697 15.1177 10.2723 15.1177 10.7352Z" stroke="#707070" stroke-linecap="round" stroke-linejoin="round"/>
<path d="M10.0882 10.7352C10.0882 11.1982 10.4635 11.5734 10.9265 11.5734C11.3894 11.5734 11.7647 11.1982 11.7647 10.7352C11.7647 10.2723 11.3894 9.89697 10.9265 9.89697C10.4635 9.89697 10.0882 10.2723 10.0882 10.7352Z" stroke="#707070" stroke-linecap="round" stroke-linejoin="round"/>
<path d="M5.05884 10.7352C5.05884 11.1982 5.43413 11.5734 5.89707 11.5734C6.36002 11.5734 6.73531 11.1982 6.73531 10.7352C6.73531 10.2723 6.36002 9.89697 5.89707 9.89697C5.43413 9.89697 5.05884 10.2723 5.05884 10.7352Z" stroke="#707070" stroke-linecap="round" stroke-linejoin="round"/>
</svg>
