<svg width="1440" height="249" viewBox="0 0 1440 249" fill="none" xmlns="http://www.w3.org/2000/svg">
<g clip-path="url(#clip0_163_204)">
<path d="M1172.75 1.59411H1106.59V247.406H1172.75V1.59411Z" fill="#F7F6F5"/>
<path d="M1064.82 1.59411H1041.81V247.406H1106.59V1.59411H1064.82Z" fill="#FBFBFA"/>
<path d="M1307.76 1.59411H1241.6V247.406H1307.76H1372.45V1.59411H1307.76Z" fill="#FBFBFA"/>
<path d="M1241.6 1.59411H1172.75V247.406H1241.6V1.59411Z" fill="#FBFBFA"/>
<path d="M1438.61 82.6812V1.59411H1372.45V247.406H1438.61V82.6812Z" fill="#F7F6F5"/>
<path d="M1041.81 247.406V1.59411H975.648V247.406H1041.81Z" fill="#F7F6F5"/>
<path d="M523.031 180.985V247.406H589.196V1.59411H523.031V180.985Z" fill="#FBFBFA"/>
<path d="M523.031 202.346V1.59411H454.095V247.406H523.031V202.346Z" fill="#F7F6F5"/>
<path d="M720.046 1.59411V247.406H786.211V1.59411H720.046Z" fill="#FBFBFA"/>
<path d="M653.882 1.59411V247.406H720.046V1.59411H653.882Z" fill="#F7F6F5"/>
<path d="M653.882 25.2932V1.59411H589.196V247.406H653.882V25.2932Z" fill="#FBFBFA"/>
<path d="M850.896 1.59411H786.211V247.406H850.896H917.061V1.59411H850.896Z" fill="#FBFBFA"/>
<path d="M975.648 1.59411H917.061V247.406H975.648V1.59411Z" fill="#F7F6F5"/>
<path d="M39.5508 1.59411H1.38614V247.406H67.5505V1.59411H39.5508Z" fill="#FBFBFA"/>
<path d="M198.493 1.59411H132.236V247.406H198.493V1.59411Z" fill="#FBFBFA"/>
<path d="M132.236 202.452V1.59411H67.5505V247.406H132.236V202.452Z" fill="#F7F6F5"/>
<path d="M257.08 1.59411H198.493V247.406H257.08V1.59411Z" fill="#F7F6F5"/>
<path d="M323.245 1.59411H257.08V247.406H323.245H387.93V1.59411H323.245Z" fill="#FBFBFA"/>
<path d="M454.095 247.406V1.59411H387.93V247.406H454.095Z" fill="#F7F6F5"/>
<path d="M323.245 50.2676C322.478 50.2676 321.858 49.5556 321.858 48.6735V1.59411C321.858 0.712036 322.478 0 323.245 0C324.012 0 324.631 0.712036 324.631 1.59411V48.6735C324.631 49.5556 324.012 50.2676 323.245 50.2676Z" fill="#E3E1E1"/>
<path d="M1064.82 3.18822H1041.81C1041.05 3.18822 1040.43 2.47618 1040.43 1.59411C1040.43 0.712036 1041.05 0 1041.81 0H1064.82C1065.59 0 1066.21 0.712036 1066.21 1.59411C1066.21 2.47618 1065.59 3.18822 1064.82 3.18822Z" fill="#E3E1E1"/>
<path d="M1106.59 3.18822H1082.75C1081.98 3.18822 1081.36 2.47618 1081.36 1.59411C1081.36 0.712036 1081.98 0 1082.75 0H1106.59C1107.36 0 1107.98 0.712036 1107.98 1.59411C1107.98 2.47618 1107.36 3.18822 1106.59 3.18822Z" fill="#E3E1E1"/>
<path d="M1307.76 180.985C1307 180.985 1306.38 180.273 1306.38 179.391V1.59411C1306.38 0.712036 1307 0 1307.76 0C1308.53 0 1309.15 0.712036 1309.15 1.59411V179.391C1309.15 180.273 1308.53 180.985 1307.76 180.985Z" fill="#E3E1E1"/>
<path d="M1307.76 3.18822H1241.6C1240.83 3.18822 1240.21 2.47618 1240.21 1.59411C1240.21 0.712036 1240.83 0 1241.6 0H1307.76C1308.53 0 1309.15 0.712036 1309.15 1.59411C1309.15 2.47618 1308.53 3.18822 1307.76 3.18822Z" fill="#E3E1E1"/>
<path d="M1241.6 3.18822H1172.75C1171.99 3.18822 1171.37 2.47618 1171.37 1.59411C1171.37 0.712036 1171.99 0 1172.75 0H1241.6C1242.37 0 1242.99 0.712036 1242.99 1.59411C1242.99 2.47618 1242.37 3.18822 1241.6 3.18822Z" fill="#E3E1E1"/>
<path d="M1438.61 64.0832C1437.85 64.0832 1437.23 63.3712 1437.23 62.4891V3.18822H1372.45C1371.68 3.18822 1371.06 2.47618 1371.06 1.59411C1371.06 0.712036 1371.68 0 1372.45 0H1438.61C1439.38 0 1440 0.712036 1440 1.59411V62.4891C1440 63.3712 1439.38 64.0832 1438.61 64.0832Z" fill="#E3E1E1"/>
<path d="M1372.45 3.18822H1307.76C1307 3.18822 1306.38 2.47618 1306.38 1.59411C1306.38 0.712036 1307 0 1307.76 0H1372.45C1373.22 0 1373.84 0.712036 1373.84 1.59411C1373.84 2.47618 1373.22 3.18822 1372.45 3.18822Z" fill="#E3E1E1"/>
<path d="M1438.61 249H1372.45C1371.68 249 1371.06 248.288 1371.06 247.406C1371.06 246.524 1371.68 245.812 1372.45 245.812H1437.23V82.6812C1437.23 81.7991 1437.85 81.0871 1438.61 81.0871C1439.38 81.0871 1440 81.7991 1440 82.6812V247.406C1440 248.288 1439.38 249 1438.61 249Z" fill="#E3E1E1"/>
<path d="M1307.76 249H1241.6C1240.83 249 1240.21 248.288 1240.21 247.406C1240.21 246.524 1240.83 245.812 1241.6 245.812H1307.76C1308.53 245.812 1309.15 246.524 1309.15 247.406C1309.15 248.288 1308.53 249 1307.76 249Z" fill="#E3E1E1"/>
<path d="M1172.75 249H1106.59C1105.82 249 1105.2 248.288 1105.2 247.406C1105.2 246.524 1105.82 245.812 1106.59 245.812H1172.75C1173.52 245.812 1174.14 246.524 1174.14 247.406C1174.14 248.288 1173.52 249 1172.75 249Z" fill="#E3E1E1"/>
<path d="M1106.59 249H1041.81C1041.05 249 1040.43 248.288 1040.43 247.406C1040.43 246.524 1041.05 245.812 1041.81 245.812H1106.59C1107.36 245.812 1107.98 246.524 1107.98 247.406C1107.98 248.288 1107.36 249 1106.59 249Z" fill="#E3E1E1"/>
<path d="M1241.6 249H1172.75C1171.99 249 1171.37 248.288 1171.37 247.406C1171.37 246.524 1171.99 245.812 1172.75 245.812H1241.6C1242.37 245.812 1242.99 246.524 1242.99 247.406C1242.99 248.288 1242.37 249 1241.6 249Z" fill="#E3E1E1"/>
<path d="M1372.45 249H1307.76C1307 249 1306.38 248.288 1306.38 247.406C1306.38 246.524 1307 245.812 1307.76 245.812H1372.45C1373.22 245.812 1373.84 246.524 1373.84 247.406C1373.84 248.288 1373.22 249 1372.45 249Z" fill="#E3E1E1"/>
<path d="M1372.45 249C1371.68 249 1371.06 248.288 1371.06 247.406V1.59411C1371.06 0.712036 1371.68 0 1372.45 0C1373.22 0 1373.84 0.712036 1373.84 1.59411V247.406C1373.84 248.288 1373.22 249 1372.45 249Z" fill="#E3E1E1"/>
<path d="M1172.75 249C1171.99 249 1171.37 248.288 1171.37 247.406V1.59411C1171.37 0.712036 1171.99 0 1172.75 0C1173.52 0 1174.14 0.712036 1174.14 1.59411V247.406C1174.14 248.288 1173.52 249 1172.75 249Z" fill="#E3E1E1"/>
<path d="M1241.6 249C1240.83 249 1240.21 248.288 1240.21 247.406V1.59411C1240.21 0.712036 1240.83 0 1241.6 0C1242.37 0 1242.99 0.712036 1242.99 1.59411V247.406C1242.99 248.288 1242.37 249 1241.6 249Z" fill="#E3E1E1"/>
<path d="M1041.81 249C1041.05 249 1040.43 248.288 1040.43 247.406V1.59411C1040.43 0.712036 1041.05 0 1041.81 0C1042.58 0 1043.2 0.712036 1043.2 1.59411V247.406C1043.2 248.288 1042.58 249 1041.81 249Z" fill="#E3E1E1"/>
<path d="M1106.59 249C1105.82 249 1105.2 248.288 1105.2 247.406V1.59411C1105.2 0.712036 1105.82 0 1106.59 0C1107.36 0 1107.98 0.712036 1107.98 1.59411V247.406C1107.98 248.288 1107.36 249 1106.59 249Z" fill="#E3E1E1"/>
<path d="M1307.76 249C1307 249 1306.38 248.288 1306.38 247.406V202.665C1306.38 201.782 1307 201.07 1307.76 201.07C1308.53 201.07 1309.15 201.782 1309.15 202.665V247.406C1309.15 248.288 1308.53 249 1307.76 249Z" fill="#E3E1E1"/>
<path d="M523.032 182.579C522.265 182.579 521.645 181.867 521.645 180.985V1.59411C521.645 0.712036 522.265 0 523.032 0C523.799 0 524.418 0.712036 524.418 1.59411V180.985C524.418 181.867 523.799 182.579 523.032 182.579Z" fill="#E3E1E1"/>
<path d="M523.031 3.18822H454.095C453.328 3.18822 452.709 2.47618 452.709 1.59411C452.709 0.712036 453.328 0 454.095 0H523.031C523.798 0 524.418 0.712036 524.418 1.59411C524.418 2.47618 523.798 3.18822 523.031 3.18822Z" fill="#E3E1E1"/>
<path d="M786.211 3.18822H720.046C719.279 3.18822 718.66 2.47618 718.66 1.59411C718.66 0.712036 719.279 0 720.046 0H786.211C786.978 0 787.597 0.712036 787.597 1.59411C787.597 2.47618 786.978 3.18822 786.211 3.18822Z" fill="#E3E1E1"/>
<path d="M653.882 26.8873C653.115 26.8873 652.496 26.1753 652.496 25.2932V1.59411C652.496 0.712036 653.115 0 653.882 0C654.649 0 655.268 0.712036 655.268 1.59411V25.2932C655.268 26.1753 654.649 26.8873 653.882 26.8873Z" fill="#E3E1E1"/>
<path d="M653.882 3.18822H589.196C588.429 3.18822 587.81 2.47618 587.81 1.59411C587.81 0.712036 588.429 0 589.196 0H653.882C654.649 0 655.268 0.712036 655.268 1.59411C655.268 2.47618 654.649 3.18822 653.882 3.18822Z" fill="#E3E1E1"/>
<path d="M720.046 3.18822H653.882C653.115 3.18822 652.496 2.47618 652.496 1.59411C652.496 0.712036 653.115 0 653.882 0H720.046C720.813 0 721.432 0.712036 721.432 1.59411C721.432 2.47618 720.813 3.18822 720.046 3.18822Z" fill="#E3E1E1"/>
<path d="M589.196 3.18822H523.032C522.265 3.18822 521.645 2.47618 521.645 1.59411C521.645 0.712036 522.265 0 523.032 0H589.196C589.963 0 590.582 0.712036 590.582 1.59411C590.582 2.47618 589.963 3.18822 589.196 3.18822Z" fill="#E3E1E1"/>
<path d="M850.896 200.114C850.129 200.114 849.51 199.402 849.51 198.52V1.59411C849.51 0.712036 850.129 0 850.896 0C851.663 0 852.283 0.712036 852.283 1.59411V198.52C852.283 199.402 851.663 200.114 850.896 200.114Z" fill="#E3E1E1"/>
<path d="M850.896 3.18822H786.211C785.444 3.18822 784.824 2.47618 784.824 1.59411C784.824 0.712036 785.444 0 786.211 0H850.896C851.663 0 852.283 0.712036 852.283 1.59411C852.283 2.47618 851.663 3.18822 850.896 3.18822Z" fill="#E3E1E1"/>
<path d="M975.648 3.18822H917.061C916.294 3.18822 915.675 2.47618 915.675 1.59411C915.675 0.712036 916.294 0 917.061 0H975.648C976.415 0 977.034 0.712036 977.034 1.59411C977.034 2.47618 976.415 3.18822 975.648 3.18822Z" fill="#E3E1E1"/>
<path d="M917.061 3.18822H850.896C850.129 3.18822 849.51 2.47618 849.51 1.59411C849.51 0.712036 850.129 0 850.896 0H917.061C917.828 0 918.447 0.712036 918.447 1.59411C918.447 2.47618 917.828 3.18822 917.061 3.18822Z" fill="#E3E1E1"/>
<path d="M67.5505 249H1.38613C0.619136 249 0 248.288 0 247.406V1.59411C0 0.712036 0.619136 0 1.38613 0H20.8843C21.6513 0 22.2704 0.712036 22.2704 1.59411C22.2704 2.47618 21.6513 3.18822 20.8843 3.18822H2.77225V245.812H67.5505C68.3175 245.812 68.9367 246.524 68.9367 247.406C68.9367 248.288 68.3175 249 67.5505 249Z" fill="#E3E1E1"/>
<path d="M67.5505 3.18822H39.5508C38.7838 3.18822 38.1647 2.47618 38.1647 1.59411C38.1647 0.712036 38.7838 0 39.5508 0H67.5505C68.3175 0 68.9367 0.712036 68.9367 1.59411C68.9367 2.47618 68.3175 3.18822 67.5505 3.18822Z" fill="#E3E1E1"/>
<path d="M198.493 3.18822H132.236C131.469 3.18822 130.85 2.47618 130.85 1.59411C130.85 0.712036 131.469 0 132.236 0H198.493C199.26 0 199.879 0.712036 199.879 1.59411C199.879 2.47618 199.26 3.18822 198.493 3.18822Z" fill="#E3E1E1"/>
<path d="M132.236 204.046C131.469 204.046 130.85 203.334 130.85 202.452V1.59411C130.85 0.712036 131.469 0 132.236 0C133.003 0 133.623 0.712036 133.623 1.59411V202.452C133.623 203.334 133.003 204.046 132.236 204.046Z" fill="#E3E1E1"/>
<path d="M257.08 3.18822H198.493C197.726 3.18822 197.107 2.47618 197.107 1.59411C197.107 0.712036 197.726 0 198.493 0H257.08C257.847 0 258.466 0.712036 258.466 1.59411C258.466 2.47618 257.847 3.18822 257.08 3.18822Z" fill="#E3E1E1"/>
<path d="M1172.75 3.18822H1106.59C1105.82 3.18822 1105.2 2.47618 1105.2 1.59411C1105.2 0.712036 1105.82 0 1106.59 0H1172.75C1173.52 0 1174.14 0.712036 1174.14 1.59411C1174.14 2.47618 1173.52 3.18822 1172.75 3.18822Z" fill="#E3E1E1"/>
<path d="M387.93 3.18822H323.245C322.478 3.18822 321.858 2.47618 321.858 1.59411C321.858 0.712036 322.478 0 323.245 0H387.93C388.697 0 389.317 0.712036 389.317 1.59411C389.317 2.47618 388.697 3.18822 387.93 3.18822Z" fill="#E3E1E1"/>
<path d="M323.245 3.18822H257.08C256.313 3.18822 255.694 2.47618 255.694 1.59411C255.694 0.712036 256.313 0 257.08 0H323.245C324.012 0 324.631 0.712036 324.631 1.59411C324.631 2.47618 324.012 3.18822 323.245 3.18822Z" fill="#E3E1E1"/>
<path d="M132.236 3.18822H67.5505C66.7835 3.18822 66.1644 2.47618 66.1644 1.59411C66.1644 0.712036 66.7835 0 67.5505 0H132.236C133.003 0 133.623 0.712036 133.623 1.59411C133.623 2.47618 133.003 3.18822 132.236 3.18822Z" fill="#E3E1E1"/>
<path d="M387.93 249H323.245C322.478 249 321.858 248.288 321.858 247.406C321.858 246.524 322.478 245.812 323.245 245.812H387.93C388.697 245.812 389.317 246.524 389.317 247.406C389.317 248.288 388.697 249 387.93 249Z" fill="#E3E1E1"/>
<path d="M132.236 249C131.469 249 130.85 248.288 130.85 247.406V225.195C130.85 224.313 131.469 223.601 132.236 223.601C133.003 223.601 133.623 224.313 133.623 225.195V247.406C133.623 248.288 133.003 249 132.236 249Z" fill="#E3E1E1"/>
<path d="M198.493 249H132.236C131.469 249 130.85 248.288 130.85 247.406C130.85 246.524 131.469 245.812 132.236 245.812H198.493C199.26 245.812 199.879 246.524 199.879 247.406C199.879 248.288 199.26 249 198.493 249Z" fill="#E3E1E1"/>
<path d="M257.08 249H198.493C197.726 249 197.107 248.288 197.107 247.406C197.107 246.524 197.726 245.812 198.493 245.812H257.08C257.847 245.812 258.466 246.524 258.466 247.406C258.466 248.288 257.847 249 257.08 249Z" fill="#E3E1E1"/>
<path d="M323.245 249H257.08C256.313 249 255.694 248.288 255.694 247.406C255.694 246.524 256.313 245.812 257.08 245.812H323.245C324.012 245.812 324.631 246.524 324.631 247.406C324.631 248.288 324.012 249 323.245 249Z" fill="#E3E1E1"/>
<path d="M132.236 249H67.5505C66.7835 249 66.1644 248.288 66.1644 247.406C66.1644 246.524 66.7835 245.812 67.5505 245.812H132.236C133.003 245.812 133.623 246.524 133.623 247.406C133.623 248.288 133.003 249 132.236 249Z" fill="#E3E1E1"/>
<path d="M975.648 249H917.061C916.294 249 915.675 248.288 915.675 247.406C915.675 246.524 916.294 245.812 917.061 245.812H975.648C976.415 245.812 977.034 246.524 977.034 247.406C977.034 248.288 976.415 249 975.648 249Z" fill="#E3E1E1"/>
<path d="M850.896 249C850.129 249 849.51 248.288 849.51 247.406V219.881C849.51 218.999 850.129 218.287 850.896 218.287C851.663 218.287 852.283 218.999 852.283 219.881V247.406C852.283 248.288 851.663 249 850.896 249Z" fill="#E3E1E1"/>
<path d="M850.896 249H786.211C785.444 249 784.824 248.288 784.824 247.406C784.824 246.524 785.444 245.812 786.211 245.812H850.896C851.663 245.812 852.283 246.524 852.283 247.406C852.283 248.288 851.663 249 850.896 249Z" fill="#E3E1E1"/>
<path d="M917.061 249H850.896C850.129 249 849.51 248.288 849.51 247.406C849.51 246.524 850.129 245.812 850.896 245.812H917.061C917.828 245.812 918.447 246.524 918.447 247.406C918.447 248.288 917.828 249 917.061 249Z" fill="#E3E1E1"/>
<path d="M786.211 249H720.046C719.279 249 718.66 248.288 718.66 247.406C718.66 246.524 719.279 245.812 720.046 245.812H786.211C786.978 245.812 787.597 246.524 787.597 247.406C787.597 248.288 786.978 249 786.211 249Z" fill="#E3E1E1"/>
<path d="M653.882 249H589.196C588.429 249 587.81 248.288 587.81 247.406C587.81 246.524 588.429 245.812 589.196 245.812H653.882C654.649 245.812 655.268 246.524 655.268 247.406C655.268 248.288 654.649 249 653.882 249Z" fill="#E3E1E1"/>
<path d="M720.046 249H653.882C653.115 249 652.496 248.288 652.496 247.406C652.496 246.524 653.115 245.812 653.882 245.812H720.046C720.813 245.812 721.432 246.524 721.432 247.406C721.432 248.288 720.813 249 720.046 249Z" fill="#E3E1E1"/>
<path d="M523.031 249H454.095C453.328 249 452.709 248.288 452.709 247.406C452.709 246.524 453.328 245.812 454.095 245.812H523.031C523.798 245.812 524.418 246.524 524.418 247.406C524.418 248.288 523.798 249 523.031 249Z" fill="#E3E1E1"/>
<path d="M589.196 249H523.032C522.265 249 521.645 248.288 521.645 247.406C521.645 246.524 522.265 245.812 523.032 245.812H589.196C589.963 245.812 590.582 246.524 590.582 247.406C590.582 248.288 589.963 249 589.196 249Z" fill="#E3E1E1"/>
<path d="M917.061 249C916.294 249 915.675 248.288 915.675 247.406V1.59411C915.675 0.712036 916.294 0 917.061 0C917.828 0 918.447 0.712036 918.447 1.59411V247.406C918.447 248.288 917.828 249 917.061 249Z" fill="#E3E1E1"/>
<path d="M975.648 249C974.881 249 974.262 248.288 974.262 247.406V1.59411C974.262 0.712036 974.881 0 975.648 0C976.415 0 977.034 0.712036 977.034 1.59411V247.406C977.034 248.288 976.415 249 975.648 249Z" fill="#E3E1E1"/>
<path d="M720.046 249C719.279 249 718.66 248.288 718.66 247.406V1.59411C718.66 0.712036 719.279 0 720.046 0C720.813 0 721.432 0.712036 721.432 1.59411V247.406C721.432 248.288 720.813 249 720.046 249Z" fill="#E3E1E1"/>
<path d="M786.211 249C785.444 249 784.824 248.288 784.824 247.406V1.59411C784.824 0.712036 785.444 0 786.211 0C786.978 0 787.597 0.712036 787.597 1.59411V247.406C787.597 248.288 786.978 249 786.211 249Z" fill="#E3E1E1"/>
<path d="M589.196 249C588.429 249 587.81 248.288 587.81 247.406V1.59411C587.81 0.712036 588.429 0 589.196 0C589.963 0 590.582 0.712036 590.582 1.59411V247.406C590.582 248.288 589.963 249 589.196 249Z" fill="#E3E1E1"/>
<path d="M454.095 249C453.328 249 452.709 248.288 452.709 247.406V1.59411C452.709 0.712036 453.328 0 454.095 0C454.862 0 455.481 0.712036 455.481 1.59411V247.406C455.481 248.288 454.862 249 454.095 249Z" fill="#E3E1E1"/>
<path d="M257.08 249C256.313 249 255.694 248.288 255.694 247.406V1.59411C255.694 0.712036 256.313 0 257.08 0C257.847 0 258.466 0.712036 258.466 1.59411V247.406C258.466 248.288 257.847 249 257.08 249Z" fill="#E3E1E1"/>
<path d="M387.93 249C387.163 249 386.544 248.288 386.544 247.406V1.59411C386.544 0.712036 387.163 0 387.93 0C388.697 0 389.317 0.712036 389.317 1.59411V247.406C389.317 248.288 388.697 249 387.93 249Z" fill="#E3E1E1"/>
<path d="M198.493 249C197.726 249 197.107 248.288 197.107 247.406V1.59411C197.107 0.712036 197.726 0 198.493 0C199.26 0 199.879 0.712036 199.879 1.59411V247.406C199.879 248.288 199.26 249 198.493 249Z" fill="#E3E1E1"/>
<path d="M67.5505 249C66.7835 249 66.1644 248.288 66.1644 247.406V1.59411C66.1644 0.712036 66.7835 0 67.5505 0C68.3175 0 68.9367 0.712036 68.9367 1.59411V247.406C68.9367 248.288 68.3175 249 67.5505 249Z" fill="#E3E1E1"/>
<path d="M323.245 249C322.478 249 321.858 248.288 321.858 247.406V69.0781C321.858 68.196 322.478 67.484 323.245 67.484C324.012 67.484 324.631 68.196 324.631 69.0781V247.406C324.631 248.288 324.012 249 323.245 249Z" fill="#E3E1E1"/>
<path d="M653.882 249C653.115 249 652.496 248.288 652.496 247.406V47.8233C652.496 46.9412 653.115 46.2292 653.882 46.2292C654.649 46.2292 655.268 46.9412 655.268 47.8233V247.406C655.268 248.288 654.649 249 653.882 249Z" fill="#E3E1E1"/>
<path d="M523.032 249C522.265 249 521.645 248.288 521.645 247.406V202.346C521.645 201.464 522.265 200.752 523.032 200.752C523.799 200.752 524.418 201.464 524.418 202.346V247.406C524.418 248.288 523.799 249 523.032 249Z" fill="#E3E1E1"/>
<path d="M454.095 3.18822H387.93C387.163 3.18822 386.544 2.47618 386.544 1.59411C386.544 0.712036 387.163 0 387.93 0H454.095C454.862 0 455.481 0.712036 455.481 1.59411C455.481 2.47618 454.862 3.18822 454.095 3.18822Z" fill="#E3E1E1"/>
<path d="M454.095 249H387.93C387.163 249 386.544 248.288 386.544 247.406C386.544 246.524 387.163 245.812 387.93 245.812H454.095C454.862 245.812 455.481 246.524 455.481 247.406C455.481 248.288 454.862 249 454.095 249Z" fill="#E3E1E1"/>
<path d="M1041.81 3.18822H975.648C974.881 3.18822 974.262 2.47618 974.262 1.59411C974.262 0.712036 974.881 0 975.648 0H1041.81C1042.58 0 1043.2 0.712036 1043.2 1.59411C1043.2 2.47618 1042.58 3.18822 1041.81 3.18822Z" fill="#E3E1E1"/>
<path d="M1041.81 249H975.648C974.881 249 974.262 248.288 974.262 247.406C974.262 246.524 974.881 245.812 975.648 245.812H1041.81C1042.58 245.812 1043.2 246.524 1043.2 247.406C1043.2 248.288 1042.58 249 1041.81 249Z" fill="#E3E1E1"/>
</g>
<g clip-path="url(#clip1_163_204)">
<path d="M1275.58 30.5317C1273.94 28.946 1272.02 28.0811 1269.73 28.0811H1159.27C1156.98 28.0811 1155.06 28.946 1153.49 30.5317C1151.85 32.1894 1151.07 34.1355 1151.07 36.4419V208.558C1151.07 210.865 1151.85 212.883 1153.49 214.468C1155.06 216.126 1156.98 216.919 1159.27 216.919H1269.73C1272.02 216.919 1273.94 216.126 1275.58 214.468C1277.15 212.883 1277.93 210.865 1277.93 208.558V36.4419C1277.93 34.1355 1277.15 32.1894 1275.58 30.5317Z" fill="white"/>
<path d="M1269.73 218H1159.27C1156.67 218 1154.47 217.063 1152.72 215.218C1150.93 213.488 1150 211.232 1150 208.558V36.4419C1150 33.8472 1150.92 31.6056 1152.74 29.7677C1154.55 27.9298 1156.75 27 1159.27 27H1269.73C1272.22 27 1274.43 27.9226 1276.32 29.7533L1276.36 29.7893C1278.12 31.6489 1279.01 33.8904 1279.01 36.4491V208.565C1279.01 211.167 1278.09 213.474 1276.34 215.24C1274.52 217.077 1272.31 218.007 1269.74 218.007L1269.73 218ZM1159.27 29.1623C1157.33 29.1623 1155.65 29.883 1154.25 31.2957C1152.83 32.73 1152.14 34.4166 1152.14 36.4419V208.558C1152.14 210.619 1152.84 212.342 1154.23 213.69C1155.62 215.146 1157.25 215.838 1159.27 215.838H1269.73C1271.74 215.838 1273.41 215.139 1274.82 213.704C1276.18 212.335 1276.86 210.605 1276.86 208.558V36.4419C1276.86 34.4382 1276.19 32.7516 1274.82 31.2957C1273.33 29.8614 1271.67 29.1623 1269.73 29.1623H1159.27Z" fill="#BBBBBB"/>
<path d="M1265.89 80.3358C1265.89 78.0294 1265.1 76.0834 1263.53 74.4257C1261.9 72.84 1259.97 71.9751 1257.69 71.9751H1172.45C1170.17 71.9751 1168.17 72.84 1166.61 74.4257C1164.97 76.0834 1164.18 78.0294 1164.18 80.3358V152.339C1164.18 154.574 1164.97 156.592 1166.61 158.177C1168.17 159.835 1170.17 160.628 1172.45 160.628H1257.69C1259.97 160.628 1261.9 159.835 1263.53 158.177C1265.17 156.52 1265.89 154.574 1265.89 152.339V80.3358Z" fill="#F1F1EF"/>
<path d="M1199.46 177.277L1199.39 177.205V177.061H1197.47V177.205C1197.4 177.205 1197.32 177.205 1197.32 177.277C1197.25 178.358 1197.25 179.44 1197.25 180.521C1197.25 181.025 1197.18 181.242 1197.11 181.097C1196.54 180.665 1195.83 180.449 1195.04 180.305C1194.05 180.232 1193.19 180.377 1192.62 180.809C1191.84 181.314 1191.27 182.106 1190.91 183.115V183.764H1190.77C1190.77 184.557 1190.84 185.422 1190.84 186.215H1190.91C1191.05 188.233 1192.05 189.458 1193.9 189.746H1194.05C1194.26 189.891 1194.69 189.891 1195.19 189.818V189.746C1196.11 189.674 1196.82 189.314 1197.25 188.737C1197.18 189.242 1197.32 189.602 1197.75 189.602C1198.04 189.818 1198.46 189.818 1198.96 189.674V189.602C1199.6 189.602 1199.89 189.098 1199.75 188.233C1199.68 187.728 1199.6 187.296 1199.6 186.791C1199.6 184.125 1199.6 181.458 1199.68 178.791C1199.75 178.142 1199.6 177.71 1199.46 177.277ZM1195.61 182.178H1195.76C1196.33 182.323 1196.75 182.683 1197.04 183.188C1197.04 183.236 1197.06 183.26 1197.11 183.26C1197.25 184.125 1197.25 185.134 1197.18 186.215V186.359C1196.97 186.863 1196.61 187.296 1196.25 187.656H1196.11C1195.54 187.872 1194.97 187.872 1194.4 187.728C1194.4 187.656 1194.33 187.656 1194.26 187.656C1193.76 187.296 1193.4 186.647 1193.33 185.854V183.692C1193.4 183.404 1193.55 183.115 1193.69 182.971C1193.76 182.971 1193.76 182.899 1193.76 182.827C1194.12 182.323 1194.76 182.106 1195.61 182.178Z" fill="#BBBBBB"/>
<path d="M1204.02 176.845C1203.24 176.701 1202.53 176.701 1201.89 176.845V177.205H1201.74C1201.74 177.638 1201.81 178.142 1201.81 178.647H1201.89C1201.89 178.719 1201.96 178.791 1202.03 178.863C1202.08 178.911 1202.12 178.935 1202.17 178.935C1202.67 179.079 1203.31 179.079 1204.02 179.007V178.935C1204.09 178.863 1204.17 178.791 1204.24 178.719C1204.31 178.719 1204.31 178.647 1204.31 178.647H1204.38C1204.45 177.998 1204.45 177.566 1204.31 177.205C1204.24 176.917 1204.17 176.845 1204.02 176.845Z" fill="#BBBBBB"/>
<path d="M1202.17 180.521C1202.1 180.521 1202.03 180.521 1202.03 180.593C1201.96 180.593 1201.89 180.665 1201.89 180.665C1201.89 183.332 1201.81 185.998 1201.81 188.665C1201.81 189.098 1201.89 189.314 1202.03 189.458C1202.24 189.602 1202.6 189.674 1203.1 189.602C1203.45 189.602 1203.81 189.53 1204.17 189.458V189.314C1204.31 188.809 1204.38 188.161 1204.38 187.44C1204.31 185.494 1204.31 183.476 1204.31 181.53V181.386C1204.38 180.881 1204.31 180.665 1204.02 180.521C1203.38 180.449 1202.74 180.449 1202.17 180.449V180.521Z" fill="#BBBBBB"/>
<path d="M1184.21 182.251V182.178C1185.71 182.106 1186.42 182.611 1186.49 183.908V184.052C1186.49 185.854 1186.56 187.584 1186.56 189.314H1186.63C1186.7 189.458 1186.78 189.458 1186.85 189.602H1186.92C1187.35 189.818 1187.99 189.818 1188.63 189.674L1188.7 189.602C1188.91 189.602 1189.06 189.458 1189.06 189.17V186.503C1189.13 185.206 1189.06 184.052 1188.84 182.971C1188.63 181.89 1188.13 181.097 1187.2 180.593C1187.13 180.521 1186.99 180.521 1186.92 180.521C1185.56 180.16 1184.42 180.16 1183.57 180.665C1183.35 180.809 1183.28 180.881 1183.21 180.953C1182.86 181.602 1182.64 181.53 1182.64 180.809C1182.57 180.593 1182.43 180.521 1182.21 180.521C1181.5 180.377 1180.86 180.449 1180.36 180.521V180.665H1180.22C1180.22 183.332 1180.22 185.998 1180.15 188.665C1180.15 188.954 1180.22 189.17 1180.36 189.314C1180.72 189.602 1181.22 189.818 1182 189.746C1182.29 189.674 1182.5 189.602 1182.64 189.458C1182.78 188.593 1182.86 187.656 1182.86 186.647C1182.78 185.566 1182.78 184.557 1182.78 183.476C1183 182.899 1183.5 182.467 1184.21 182.251Z" fill="#BBBBBB"/>
<path d="M1198.04 194.575V194.72C1197.94 194.72 1197.89 194.744 1197.89 194.792C1197.04 196.666 1196.33 198.612 1195.61 200.558C1194.83 202.432 1194.12 204.378 1193.33 206.252C1193.33 206.468 1193.4 206.684 1193.4 206.9H1193.48C1193.76 207.045 1194.19 207.117 1194.69 206.972V206.9C1195.19 206.18 1195.61 205.315 1195.83 204.306C1195.9 204.306 1195.9 204.234 1195.9 204.234H1201.67C1202.03 205.098 1202.38 206.035 1202.74 206.828C1202.74 206.9 1202.81 206.9 1202.81 206.9C1203.1 207.045 1203.52 207.117 1204.02 206.972V206.9C1204.17 206.828 1204.24 206.756 1204.17 206.54C1203.52 204.522 1202.81 202.504 1202.1 200.63C1202.03 200.63 1202.03 200.486 1202.03 200.414C1201.6 199.549 1201.24 198.54 1200.89 197.531C1200.6 196.522 1200.1 195.585 1199.6 194.72V194.648C1199.11 194.648 1198.54 194.575 1198.04 194.575ZM1198.68 196.666V196.522C1199.46 198.323 1200.25 200.269 1200.89 202.215C1200.96 202.36 1201.03 202.504 1201.1 202.576C1199.96 202.576 1198.75 202.576 1197.61 202.648C1197.18 202.648 1196.82 202.576 1196.54 202.432V202.288C1197.32 200.414 1197.97 198.54 1198.68 196.666Z" fill="#BBBBBB"/>
<path d="M1221.84 182.034H1221.98C1222.48 182.106 1222.77 182.611 1222.77 183.26C1222.77 183.692 1222.7 183.836 1222.34 183.908C1220.13 183.98 1218.49 184.485 1217.28 185.566C1217.21 185.566 1217.21 185.638 1217.21 185.638C1217.07 185.926 1216.99 186.143 1216.85 186.359V187.656C1216.99 188.017 1217.14 188.233 1217.21 188.521C1217.21 188.521 1217.21 188.593 1217.28 188.665C1217.78 189.17 1218.49 189.53 1219.42 189.746H1219.56C1219.77 189.891 1220.2 189.891 1220.7 189.818L1220.77 189.746C1221.7 189.602 1222.34 189.314 1222.77 188.737C1222.7 189.242 1222.91 189.602 1223.27 189.602C1223.69 189.818 1224.26 189.818 1224.91 189.674V189.602C1224.98 189.602 1225.05 189.53 1225.12 189.458V189.314C1225.17 189.266 1225.19 189.218 1225.19 189.17C1225.26 187.872 1225.26 186.503 1225.33 185.134C1225.4 184.557 1225.26 184.125 1225.12 183.764V182.611C1224.62 181.169 1223.48 180.377 1221.7 180.232C1220.99 180.232 1220.34 180.305 1219.85 180.449C1219.77 180.449 1219.7 180.449 1219.63 180.521C1218.56 180.809 1217.85 181.386 1217.35 182.323C1217.35 182.611 1217.35 182.755 1217.49 182.899L1217.56 182.971C1218.06 183.115 1218.63 183.115 1219.42 183.043V182.827C1219.7 182.611 1220.13 182.251 1220.49 182.034H1221.84ZM1222.34 185.422H1222.48C1222.77 185.422 1222.84 185.566 1222.77 185.926V186.071C1222.7 186.071 1222.7 186.215 1222.7 186.215C1222.62 187.296 1222.13 187.8 1221.13 188.017H1219.92C1219.35 187.8 1219.06 187.296 1219.13 186.503C1219.35 186.287 1219.63 186.071 1219.92 185.926V185.854C1220.77 185.638 1221.56 185.566 1222.34 185.422Z" fill="#BBBBBB"/>
<path d="M1206.59 180.521V181.097H1206.45C1206.45 183.764 1206.38 186.431 1206.38 189.098C1206.3 189.242 1206.45 189.314 1206.59 189.314C1206.59 189.53 1206.73 189.602 1207.02 189.602H1207.09C1207.44 189.818 1207.87 189.818 1208.44 189.674V189.602C1208.94 189.53 1209.15 189.17 1209.08 188.521C1209.01 187.656 1208.94 186.791 1209.01 185.926V183.476C1209.23 182.899 1209.72 182.467 1210.44 182.251V182.178C1211.86 182.106 1212.65 182.611 1212.72 183.908V184.052C1212.72 185.854 1212.72 187.584 1212.79 189.314H1212.86C1212.86 189.53 1213 189.602 1213.22 189.602H1213.36C1213.79 189.818 1214.29 189.818 1214.86 189.674V189.602C1215.07 189.602 1215.21 189.458 1215.21 189.17C1215.28 188.377 1215.28 187.512 1215.36 186.647C1215.64 183.62 1214.93 181.602 1213.36 180.521C1213.22 180.521 1213.07 180.449 1212.86 180.449C1211.58 180.16 1210.51 180.232 1209.65 180.809C1209.58 180.881 1209.44 180.881 1209.44 181.025C1209.08 181.602 1208.87 181.53 1208.87 180.809C1208.8 180.809 1208.73 180.665 1208.73 180.665C1208.66 180.593 1208.58 180.521 1208.58 180.521C1207.8 180.377 1207.16 180.449 1206.59 180.521Z" fill="#BBBBBB"/>
<path d="M1206.3 194.575V194.72C1206.26 194.72 1206.21 194.744 1206.16 194.792C1206.16 194.864 1206.09 194.864 1206.02 194.864V202.864C1206.02 204.089 1206.09 205.387 1206.09 206.612C1206.09 206.684 1206.16 206.756 1206.16 206.756C1206.3 206.9 1206.59 206.972 1207.02 206.9H1207.09C1207.66 207.045 1207.87 206.612 1207.87 205.675C1207.8 204.45 1207.73 203.225 1207.8 202.071H1210.87C1211.72 203.729 1212.65 205.315 1213.72 206.828C1213.72 206.876 1213.74 206.9 1213.79 206.9C1214.07 207.045 1214.43 207.117 1214.93 206.972L1215 206.9C1215.07 206.396 1214.93 205.891 1214.64 205.387C1213.86 204.234 1213.07 202.936 1212.43 201.639C1213.79 201.351 1214.57 200.558 1214.86 199.188V199.044H1214.93C1215 198.468 1215 198.107 1214.86 197.747V197.603C1214.57 196.017 1213.72 195.152 1212.15 194.864C1212.01 194.72 1211.86 194.72 1211.65 194.72H1211.51V194.648C1209.8 194.648 1208.01 194.575 1206.3 194.575ZM1207.87 200.558C1207.8 199.116 1207.73 197.675 1207.8 196.233H1211.79C1212.5 196.522 1213 197.026 1213.22 197.747V199.044C1213.07 199.405 1212.79 199.765 1212.43 200.053C1212.15 200.269 1211.72 200.414 1211.22 200.414C1210.3 200.486 1209.3 200.558 1208.3 200.558H1207.87Z" fill="#BBBBBB"/>
<path d="M1216.35 194.72H1216.21C1216 195.585 1216.14 196.017 1216.64 196.233H1219.13C1219.49 196.161 1219.77 196.233 1219.92 196.377V196.522H1219.77C1219.77 199.188 1219.77 201.783 1219.7 204.45C1219.7 205.315 1219.77 205.963 1219.92 206.54C1219.92 206.684 1219.99 206.756 1220.13 206.828C1220.13 206.876 1220.15 206.9 1220.2 206.9C1220.49 207.045 1220.77 207.117 1221.27 206.972V206.9C1221.48 206.972 1221.56 206.9 1221.56 206.756V206.612C1221.7 206.684 1221.77 206.54 1221.77 206.396C1221.7 203.729 1221.7 201.062 1221.77 198.395C1221.77 197.603 1221.7 197.026 1221.56 196.522V196.233H1224.34C1225.26 196.305 1225.55 195.801 1225.26 194.792C1225.21 194.744 1225.17 194.72 1225.12 194.72C1224.98 194.575 1224.62 194.503 1224.19 194.503C1221.56 194.575 1218.92 194.575 1216.35 194.575V194.72Z" fill="#BBBBBB"/>
<path d="M1172.24 177.277C1171.88 177.205 1171.74 177.349 1171.67 177.566C1170.88 179.44 1170.24 181.386 1169.53 183.332C1168.89 185.278 1168.1 187.224 1167.32 189.098C1167.25 189.386 1167.32 189.53 1167.53 189.602H1167.68C1168.17 189.818 1168.74 189.818 1169.39 189.674V189.602C1169.96 189.026 1170.31 188.233 1170.53 187.296H1170.6C1170.88 187.152 1171.31 187.08 1171.81 187.08C1173.09 187.152 1174.37 187.152 1175.73 187.152C1176.01 187.872 1176.3 188.593 1176.58 189.458C1176.66 189.602 1176.8 189.602 1177.01 189.602C1177.44 189.818 1178.01 189.818 1178.65 189.674V189.602C1178.79 189.602 1178.94 189.602 1178.94 189.458V189.242C1178.72 188.737 1178.51 188.089 1178.29 187.44C1178.01 186.647 1177.72 185.926 1177.51 185.134C1176.8 183.115 1176.09 181.169 1175.37 179.295C1175.3 179.007 1175.16 178.719 1175.09 178.503C1174.94 177.926 1174.66 177.566 1174.23 177.277V177.205H1172.24V177.277ZM1173.09 179.872H1173.16C1173.8 181.53 1174.37 183.188 1175.02 184.845V184.989H1171.31V184.773C1171.95 183.188 1172.52 181.53 1173.09 179.872Z" fill="#BBBBBB"/>
<path d="M1247.28 174.394C1246.14 174.322 1245.15 174.322 1244.22 174.466C1243.29 174.611 1242.37 174.755 1241.58 175.043C1239.94 175.475 1238.52 176.124 1237.24 176.989C1236.02 177.782 1234.81 178.791 1233.81 179.872C1232.82 180.953 1231.89 182.251 1231.11 183.548C1230.32 184.845 1229.82 186.431 1229.47 188.233C1229.47 188.377 1229.4 188.665 1229.4 188.882C1229.32 189.458 1229.25 189.891 1229.11 190.251C1228.97 192.485 1229.11 194.503 1229.47 196.089C1229.97 197.819 1230.54 199.332 1231.32 200.702C1232.1 202.071 1233.03 203.225 1234.03 204.234C1234.81 205.098 1235.67 205.819 1236.59 206.468C1237.81 207.333 1239.16 208.054 1240.73 208.63C1241.08 208.774 1241.51 208.918 1241.94 208.991C1242.58 209.135 1243.15 209.279 1243.79 209.351C1244.15 209.351 1244.51 209.423 1244.86 209.423C1245.22 209.495 1245.5 209.495 1245.79 209.639V209.495H1247.5C1249.14 209.423 1250.63 209.135 1251.92 208.702C1253.49 208.198 1254.84 207.477 1256.12 206.684C1257.4 205.819 1258.55 204.81 1259.54 203.729C1260.47 202.576 1261.32 201.351 1262.04 199.909C1262.75 198.468 1263.25 196.954 1263.61 195.224C1263.96 193.278 1264.03 191.332 1263.75 189.458C1263.46 187.512 1263.04 185.926 1262.39 184.485C1261.68 183.043 1260.9 181.746 1259.9 180.593C1258.97 179.44 1257.83 178.431 1256.62 177.566C1255.41 176.701 1253.98 175.98 1252.49 175.403C1250.99 174.755 1249.28 174.466 1247.28 174.394ZM1253.06 185.638V185.71C1252.63 185.494 1252.27 185.494 1251.85 185.71H1251.77C1250.92 187.008 1250.06 188.305 1249.35 189.674C1248.57 190.972 1247.85 192.413 1247.14 193.783C1246.5 194.936 1245.79 196.089 1245 197.098C1244.79 197.458 1244.43 197.747 1243.93 197.891C1242.58 197.963 1241.8 197.386 1241.58 196.305H1241.51V195.44C1242.22 193.999 1243.01 192.702 1243.79 191.332C1244.01 191.044 1244.22 190.683 1244.43 190.395C1245.29 189.098 1246 187.728 1246.79 186.431C1247.21 185.71 1247.64 185.134 1248.21 184.629C1248.78 184.052 1249.57 183.836 1250.49 183.908C1251.13 184.052 1251.7 184.197 1252.06 184.629C1252.42 184.917 1252.77 185.278 1253.06 185.638ZM1258.97 196.089V196.161C1258.9 196.377 1258.83 196.738 1258.76 197.026V197.098C1258.4 197.603 1257.98 197.891 1257.41 198.107H1256.41C1255.98 197.891 1255.55 197.603 1255.27 197.242C1255.12 197.098 1255.05 196.954 1254.98 196.738C1254.84 196.666 1254.84 196.522 1254.77 196.377C1254.06 195.152 1253.34 193.855 1252.7 192.629C1252.63 192.485 1252.56 192.413 1252.49 192.341H1252.42C1252.06 191.476 1251.63 190.683 1251.2 189.963H1255.62C1256.05 190.611 1256.55 191.332 1256.98 192.053V192.197C1257.05 192.341 1257.12 192.485 1257.19 192.629C1257.55 193.062 1257.83 193.566 1258.12 193.999C1258.47 194.648 1258.76 195.296 1258.97 196.089ZM1241.16 186.791H1241.3C1241.73 187.008 1242.15 187.296 1242.51 187.512C1242.56 187.512 1242.58 187.536 1242.58 187.584C1242.65 187.8 1242.72 188.017 1242.87 188.377H1242.94V189.458C1242.22 190.755 1241.44 192.125 1240.66 193.422C1240.23 194.143 1239.8 194.792 1239.44 195.44C1239.09 195.945 1238.8 196.449 1238.45 197.026C1238.16 197.458 1237.73 197.819 1237.24 198.107H1236.1C1235.38 197.819 1234.88 197.386 1234.67 196.666L1234.6 196.594V195.585C1235.31 194.287 1236.17 192.918 1236.95 191.62C1237.31 190.9 1237.73 190.251 1238.09 189.602C1238.45 188.882 1238.87 188.233 1239.16 187.584C1239.66 187.08 1240.3 186.791 1241.16 186.791Z" fill="#E1DEDC"/>
<path d="M1253.06 185.71V185.638C1252.77 185.278 1252.42 184.917 1252.06 184.629C1251.7 184.197 1251.13 184.052 1250.49 183.908C1249.57 183.836 1248.78 184.052 1248.21 184.629C1247.64 185.134 1247.21 185.71 1246.79 186.431C1246 187.728 1245.29 189.098 1244.43 190.395C1244.22 190.683 1244.01 191.044 1243.79 191.332C1243.01 192.702 1242.22 193.999 1241.51 195.44V196.305H1241.58C1241.8 197.386 1242.58 197.963 1243.93 197.891C1244.43 197.747 1244.79 197.458 1245 197.098C1245.79 196.089 1246.5 194.936 1247.14 193.783C1247.85 192.413 1248.57 190.972 1249.35 189.674C1250.06 188.305 1250.92 187.008 1251.77 185.71H1251.85C1252.27 185.494 1252.63 185.494 1253.06 185.71Z" fill="#FBFDFE"/>
<path d="M1258.97 196.161V196.089C1258.76 195.296 1258.47 194.648 1258.12 193.999C1257.83 193.566 1257.55 193.062 1257.19 192.629H1253.27V192.702L1253.2 192.774C1253.06 192.846 1253.06 192.774 1253.13 192.629H1252.7C1253.34 193.855 1254.06 195.152 1254.77 196.377C1254.84 196.522 1254.84 196.666 1254.98 196.738C1255.05 196.954 1255.12 197.098 1255.27 197.242C1255.55 197.603 1255.98 197.891 1256.41 198.107H1257.4C1257.98 197.891 1258.4 197.603 1258.76 197.098V197.026C1258.83 196.738 1258.9 196.377 1258.97 196.161Z" fill="#FBFDFE"/>
<path d="M1256.98 192.197V192.053C1256.55 191.332 1256.05 190.611 1255.62 189.963H1251.2C1251.63 190.683 1252.06 191.476 1252.42 192.341H1252.49C1252.56 192.413 1252.63 192.485 1252.7 192.629H1253.13C1253.06 192.774 1253.06 192.846 1253.2 192.774L1253.27 192.702V192.629H1257.19C1257.12 192.485 1257.05 192.341 1256.98 192.197Z" fill="#F1F1EF"/>
<path d="M1241.3 186.791H1241.16C1240.3 186.791 1239.66 187.08 1239.16 187.584C1238.87 188.233 1238.45 188.882 1238.09 189.602C1237.73 190.251 1237.31 190.9 1236.95 191.62C1236.17 192.918 1235.31 194.287 1234.6 195.585V196.594L1234.67 196.666C1234.88 197.386 1235.38 197.819 1236.1 198.107H1237.24C1237.73 197.819 1238.16 197.458 1238.45 197.026C1238.8 196.449 1239.09 195.945 1239.44 195.44C1239.8 194.792 1240.23 194.143 1240.66 193.422C1241.44 192.125 1242.22 190.755 1242.94 189.458V188.377H1242.87C1242.72 188.017 1242.65 187.8 1242.58 187.584C1242.58 187.536 1242.56 187.512 1242.51 187.512C1242.15 187.296 1241.73 187.008 1241.3 186.791Z" fill="#F1F1EF"/>
<path d="M1247.5 209.495H1245.79V209.639H1247.5V209.495Z" fill="#A5C6E0"/>
<path d="M1214.57 61.0917H1213.86C1211.29 61.0917 1209.08 62.0287 1207.3 63.9026C1205.95 65.2 1205.16 66.7136 1204.74 68.3713C1201.46 69.6687 1198.39 71.6147 1195.68 74.2094C1194.19 75.5789 1192.98 76.9483 1191.98 78.4619L1190.7 80.48C1188.7 83.9396 1187.63 87.9038 1187.56 92.1562H1191.05H1185.56C1184.57 92.1562 1183.71 92.5166 1183.07 93.2374C1182.36 93.886 1182 94.7509 1182 95.6879C1182 96.697 1182.36 97.5619 1183.07 98.2826C1183.71 98.9313 1184.78 99.4359 1186.28 99.7242H1201.39H1191.98V99.8683H1188.99C1187.06 99.8683 1185.42 100.517 1184 101.958C1182.64 103.328 1181.93 104.986 1181.93 107.004C1181.93 108.878 1182.64 110.608 1184 111.977C1185.42 113.346 1187.06 114.067 1188.99 114.067H1191.98V103.688V114.139C1192.05 114.644 1192.12 115.22 1192.19 115.725C1192.83 120.122 1194.9 124.014 1198.32 127.257C1199.32 128.194 1200.32 128.987 1201.39 129.708V137.636C1201.81 147.654 1206.3 152.339 1214.93 151.835C1221.98 152.555 1226.19 148.159 1227.69 138.645V130.14C1229.04 129.347 1230.25 128.41 1231.39 127.257C1235.31 123.581 1237.45 119.185 1237.81 114.067H1240.37C1242.3 114.067 1243.93 113.346 1245.29 111.977C1246.71 110.608 1247.36 108.878 1247.36 107.004C1247.36 104.986 1246.71 103.328 1245.29 101.958C1244.36 101.022 1243.36 100.373 1242.15 100.085H1242.08L1239.16 99.8683H1237.81L1237.38 99.7242H1203.67H1237.81L1240.37 99.8683C1240.94 99.8683 1241.51 99.9404 1242.08 100.085H1242.15C1242.3 100.085 1242.58 100.012 1243.08 99.7962C1243.65 99.58 1244.29 99.0755 1245.08 98.3547C1245.79 97.5619 1246.22 96.697 1246.22 95.6879C1246.14 94.7509 1245.79 93.886 1245.15 93.2374C1244.58 92.5887 1243.86 92.3004 1243.08 92.1562C1243.01 86.6064 1241.23 81.6332 1237.81 77.3087C1236.95 76.2276 1236.02 75.2185 1234.95 74.2094C1231.6 70.966 1227.76 68.8038 1223.48 67.5785L1221.2 63.9026C1219.35 62.0287 1217.14 61.0917 1214.57 61.0917Z" fill="white"/>
<path d="M1169.81 157.745C1169.17 160.484 1168.82 163.439 1168.74 166.682H1182.71V156.375V162.069H1214.93V151.835C1206.3 152.339 1201.81 147.654 1201.39 137.636C1193.83 136.987 1187.63 137.852 1182.71 140.086C1177.94 142.321 1174.37 145.925 1172.09 150.898C1171.1 152.988 1170.38 155.222 1169.81 157.745Z" fill="white"/>
<path d="M1247 162.069V166.682H1261.04C1261.25 153.42 1256.55 144.771 1247 140.879V162.069Z" fill="white"/>
<path d="M1247 166.682V162.069H1214.93V166.682H1247Z" fill="white"/>
<path d="M1247 162.069V140.879C1241.94 138.789 1235.52 138.068 1227.69 138.645C1226.19 148.159 1221.98 152.555 1214.93 151.835V162.069H1247Z" fill="white"/>
<path d="M1182.71 162.069V166.682H1214.93V162.069H1182.71Z" fill="white"/>
<path d="M1168.74 167.763C1168.74 167.763 1168.73 167.763 1168.72 167.763C1168.13 167.749 1167.66 167.259 1167.68 166.661C1167.75 163.338 1168.11 160.34 1168.77 157.5C1169.39 154.747 1170.15 152.498 1171.13 150.429C1173.5 145.269 1177.25 141.456 1182.26 139.106C1182.8 138.854 1183.43 139.092 1183.68 139.632C1183.93 140.173 1183.7 140.814 1183.16 141.067C1178.62 143.193 1175.22 146.652 1173.06 151.352C1172.14 153.283 1171.45 155.381 1170.85 157.983C1170.22 160.686 1169.88 163.533 1169.81 166.704C1169.8 167.295 1169.32 167.763 1168.74 167.763Z" fill="#BBBBBB"/>
<path d="M1204.66 81.6332C1204.13 81.6332 1203.67 81.2368 1203.6 80.689L1203.58 80.5305C1203.52 79.9971 1203.45 79.4854 1203.45 78.8943V70.6057C1203.45 69.7552 1203.53 68.9551 1203.69 68.1623C1203.8 67.5785 1204.37 67.1965 1204.95 67.3118C1205.53 67.4271 1205.9 67.9965 1205.79 68.5875C1205.66 69.2506 1205.6 69.8921 1205.6 70.6129V78.9016C1205.6 79.3556 1205.65 79.7737 1205.71 80.2638L1205.73 80.4295C1205.8 81.0206 1205.39 81.5611 1204.81 81.6404C1204.76 81.6404 1204.71 81.6476 1204.67 81.6476L1204.66 81.6332Z" fill="#BBBBBB"/>
<path d="M1223.84 81.6332C1223.79 81.6332 1223.74 81.6332 1223.7 81.626C1223.12 81.5539 1222.7 81.0134 1222.77 80.4151C1222.84 79.9034 1222.84 79.4565 1222.84 78.8943V70.6057C1222.84 69.6398 1222.71 68.7245 1222.46 67.8956C1222.29 67.3262 1222.6 66.7208 1223.17 66.5406C1223.74 66.3604 1224.33 66.6848 1224.51 67.2541C1224.82 68.292 1224.98 69.4164 1224.98 70.5985V78.8871C1224.98 79.4781 1224.98 80.0331 1224.91 80.6818C1224.83 81.2296 1224.38 81.626 1223.84 81.626L1223.84 81.6332Z" fill="#BBBBBB"/>
<path d="M1191.98 79.543C1191.77 79.543 1191.57 79.4854 1191.39 79.3628C1190.9 79.0313 1190.76 78.361 1191.09 77.8637C1192.1 76.3285 1193.37 74.8725 1194.96 73.4094C1197.71 70.7786 1200.87 68.7389 1204.34 67.3695C1204.89 67.1532 1205.51 67.4271 1205.73 67.9821C1205.94 68.5371 1205.67 69.1642 1205.12 69.3804C1201.91 70.6489 1198.98 72.5445 1196.41 74.9951C1194.91 76.3717 1193.78 77.6619 1192.86 79.0601C1192.66 79.37 1192.32 79.543 1191.97 79.543H1191.98Z" fill="#BBBBBB"/>
<path d="M1191.05 93.2374H1187.56C1186.97 93.2374 1186.49 92.7544 1186.49 92.1562C1186.49 91.558 1186.97 91.0751 1187.56 91.0751H1191.05C1191.64 91.0751 1192.12 91.558 1192.12 92.1562C1192.12 92.7544 1191.64 93.2374 1191.05 93.2374Z" fill="#BBBBBB"/>
<path d="M1191.98 100.805H1186.28C1186.21 100.805 1186.14 100.805 1186.08 100.784C1184.4 100.459 1183.13 99.8755 1182.31 99.0466C1181.39 98.1169 1180.93 96.9925 1180.93 95.6879C1180.93 94.3834 1181.42 93.3022 1182.31 92.4733C1183.15 91.558 1184.27 91.0751 1185.56 91.0751H1187.56C1188.15 91.0751 1188.63 91.558 1188.63 92.1562C1188.63 92.7544 1188.15 93.2374 1187.56 93.2374H1185.56C1184.85 93.2374 1184.3 93.4752 1183.87 93.9581C1183.84 93.9869 1183.82 94.0158 1183.79 94.0374C1183.32 94.4626 1183.08 95.032 1183.08 95.6807C1183.08 96.4087 1183.32 96.9925 1183.83 97.5114C1184.17 97.8574 1184.9 98.3331 1186.38 98.6358H1191.99C1192.58 98.6358 1193.05 99.1187 1193.05 99.7169C1193.05 100.315 1192.58 100.798 1191.99 100.798L1191.98 100.805Z" fill="#BBBBBB"/>
<path d="M1191.98 115.148H1188.99C1186.83 115.148 1184.91 114.348 1183.26 112.763C1181.69 111.17 1180.86 109.188 1180.86 107.004C1180.86 104.82 1181.66 102.795 1183.24 101.194C1184.82 99.5944 1186.72 98.7872 1188.99 98.7872H1191.44C1191.6 98.6935 1191.79 98.643 1191.98 98.643C1192.57 98.643 1193.05 99.1259 1193.05 99.7242V99.8683C1193.05 100.467 1192.57 100.949 1191.98 100.949H1188.99C1187.3 100.949 1185.95 101.512 1184.75 102.722C1183.55 103.933 1183 105.317 1183 107.004C1183 108.597 1183.6 110.053 1184.75 111.213C1185.98 112.402 1187.38 112.986 1188.99 112.986H1191.98C1192.57 112.986 1193.05 113.469 1193.05 114.067C1193.05 114.665 1192.57 115.148 1191.98 115.148Z" fill="#BBBBBB"/>
<path d="M1201.39 100.805H1191.98C1191.39 100.805 1190.91 100.322 1190.91 99.7242C1190.91 99.1259 1191.39 98.643 1191.98 98.643H1201.39C1201.98 98.643 1202.46 99.1259 1202.46 99.7242C1202.46 100.322 1201.98 100.805 1201.39 100.805Z" fill="#BBBBBB"/>
<path d="M1218.85 93.2374H1215.93C1215.33 93.2374 1214.86 92.7544 1214.86 92.1562C1214.86 91.558 1215.33 91.0751 1215.93 91.0751H1218.85C1219.44 91.0751 1219.92 91.558 1219.92 92.1562C1219.92 92.7544 1219.44 93.2374 1218.85 93.2374Z" fill="#BBBBBB"/>
<path d="M1187.56 93.2374H1187.54C1186.95 93.2302 1186.48 92.7328 1186.49 92.1346C1186.56 87.6803 1187.67 83.5792 1189.77 79.9322C1190.07 79.4133 1190.72 79.2403 1191.23 79.543C1191.74 79.8457 1191.91 80.5088 1191.61 81.0206C1189.7 84.3432 1188.69 88.0912 1188.62 92.1706C1188.61 92.7617 1188.14 93.2302 1187.55 93.2302L1187.56 93.2374Z" fill="#BBBBBB"/>
<path d="M1243.08 93.2374C1242.5 93.2374 1242.02 92.7617 1242.01 92.1706C1241.95 86.9019 1240.25 82.1233 1236.97 77.9862C1236.14 76.9411 1235.25 75.9681 1234.23 75.0023C1231.09 71.9679 1227.38 69.82 1223.19 68.6236C1222.62 68.4578 1222.29 67.8596 1222.45 67.2902C1222.62 66.7136 1223.21 66.382 1223.77 66.5478C1228.31 67.8452 1232.31 70.166 1235.7 73.4382C1236.79 74.4689 1237.75 75.5212 1238.64 76.6456C1242.22 81.1719 1244.07 86.3902 1244.15 92.1562C1244.16 92.7545 1243.69 93.2446 1243.09 93.2518H1243.08V93.2374Z" fill="#BBBBBB"/>
<path d="M1242.15 101.166C1241.56 101.166 1241.08 100.683 1241.08 100.085C1241.08 99.4863 1241.53 99.0322 1242.1 99.0034C1242.15 98.9962 1242.31 98.953 1242.66 98.8016C1243.17 98.607 1243.81 98.0592 1244.32 97.5907C1244.88 96.9637 1245.14 96.3726 1245.15 95.7312C1245.08 95.0393 1244.83 94.441 1244.39 94.0086C1244.01 93.5689 1243.57 93.3527 1242.89 93.2302C1242.3 93.122 1241.92 92.5599 1242.02 91.976C1242.13 91.385 1242.69 91.003 1243.26 91.1039C1244.42 91.313 1245.27 91.767 1245.94 92.531C1246.7 93.3022 1247.18 94.3834 1247.28 95.6159C1247.28 95.6447 1247.28 95.6735 1247.28 95.6951C1247.28 96.9204 1246.81 98.0304 1245.86 99.0899C1245.84 99.1187 1245.81 99.1403 1245.79 99.162C1244.78 100.092 1244.1 100.567 1243.45 100.812C1242.73 101.13 1242.37 101.173 1242.15 101.173L1242.15 101.166ZM1242.15 99.0034C1242.15 99.0034 1242.14 99.0034 1242.13 99.0034C1242.14 99.0034 1242.15 99.0034 1242.16 99.0034H1242.15Z" fill="#BBBBBB"/>
<path d="M1243.08 93.2374H1241.37C1240.78 93.2374 1240.3 92.7544 1240.3 92.1562C1240.3 91.558 1240.78 91.0751 1241.37 91.0751H1243.08C1243.67 91.0751 1244.15 91.558 1244.15 92.1562C1244.15 92.7544 1243.67 93.2374 1243.08 93.2374Z" fill="#BBBBBB"/>
<path d="M1237.81 100.949C1237.69 100.949 1237.58 100.935 1237.47 100.892L1237.04 100.748C1236.48 100.56 1236.18 99.9476 1236.37 99.3782C1236.55 98.8088 1237.16 98.5061 1237.72 98.6935L1238.15 98.8376C1238.71 99.025 1239.01 99.6377 1238.82 100.207C1238.67 100.661 1238.26 100.949 1237.81 100.949H1237.81Z" fill="#BBBBBB"/>
<path d="M1237.81 100.805H1237.38C1236.79 100.805 1236.31 100.322 1236.31 99.7242C1236.31 99.1259 1236.79 98.643 1237.38 98.643H1237.81C1238.4 98.643 1238.87 99.1259 1238.87 99.7242C1238.87 100.322 1238.4 100.805 1237.81 100.805Z" fill="#BBBBBB"/>
<path d="M1239.16 100.949H1237.81C1237.21 100.949 1236.74 100.467 1236.74 99.8683C1236.74 99.2701 1237.21 98.7872 1237.81 98.7872H1239.16C1239.75 98.7872 1240.23 99.2701 1240.23 99.8683C1240.23 100.467 1239.75 100.949 1239.16 100.949Z" fill="#BBBBBB"/>
<path d="M1237.81 100.949C1237.21 100.949 1236.74 100.467 1236.74 99.8683V99.7242C1236.74 99.1259 1237.21 98.643 1237.81 98.643C1238.4 98.643 1238.87 99.1259 1238.87 99.7242V99.8683C1238.87 100.467 1238.4 100.949 1237.81 100.949Z" fill="#BBBBBB"/>
<path d="M1239.16 100.949C1239.12 100.949 1239.08 100.949 1239.05 100.949L1237.69 100.805C1237.11 100.74 1236.68 100.214 1236.74 99.616C1236.81 99.025 1237.34 98.5926 1237.92 98.6574L1239.27 98.8016C1239.86 98.8665 1240.29 99.3926 1240.22 99.9908C1240.16 100.546 1239.7 100.957 1239.16 100.957V100.949Z" fill="#BBBBBB"/>
<path d="M1242.08 101.166C1242 101.166 1241.91 101.158 1241.82 101.13C1241.33 101.007 1240.85 100.942 1240.36 100.942H1239.15C1238.56 100.942 1238.08 100.459 1238.08 99.8611C1238.08 99.2629 1238.56 98.78 1239.15 98.78H1240.36C1241.02 98.78 1241.68 98.8665 1242.33 99.0322C1242.9 99.1764 1243.25 99.7674 1243.11 100.344C1242.99 100.834 1242.55 101.166 1242.07 101.166H1242.08Z" fill="#BBBBBB"/>
<path d="M1242.15 101.166C1241.56 101.166 1241.05 100.683 1241.05 100.085C1241.05 99.4863 1241.49 99.0034 1242.08 99.0034H1242.15C1242.74 99.0034 1243.22 99.4863 1243.22 100.085C1243.22 100.683 1242.74 101.166 1242.15 101.166Z" fill="#BBBBBB"/>
<path d="M1240.37 115.148H1237.81C1237.21 115.148 1236.74 114.665 1236.74 114.067C1236.74 113.469 1237.21 112.986 1237.81 112.986H1240.37C1241.99 112.986 1243.35 112.409 1244.53 111.213C1245.7 110.089 1246.29 108.676 1246.29 107.004C1246.29 105.231 1245.74 103.876 1244.55 102.744C1243.69 101.865 1242.85 101.36 1241.91 101.137C1241.33 101 1240.98 100.416 1241.11 99.8395C1241.25 99.2557 1241.82 98.9025 1242.4 99.0322C1243.72 99.3494 1244.92 100.056 1246.04 101.194C1247.64 102.73 1248.42 104.632 1248.42 107.004C1248.42 109.375 1247.6 111.256 1246.02 112.763C1244.46 114.341 1242.55 115.148 1240.37 115.148Z" fill="#BBBBBB"/>
<path d="M1242.08 101.166C1242.08 101.166 1242.03 101.166 1242 101.166L1239.08 100.949C1238.49 100.906 1238.05 100.387 1238.09 99.789C1238.13 99.1908 1238.65 98.7583 1239.24 98.7872L1242.16 99.0034C1242.75 99.0466 1243.19 99.5656 1243.15 100.164C1243.11 100.733 1242.64 101.166 1242.09 101.166H1242.08Z" fill="#BBBBBB"/>
<path d="M1237.78 101.162H1204.07C1203.48 101.162 1203 100.679 1203 100.081C1203 99.483 1203.48 99.0001 1204.07 99.0001H1237.78C1238.37 99.0001 1238.85 99.483 1238.85 100.081C1238.85 100.679 1238.37 101.162 1237.78 101.162Z" fill="#BBBBBB"/>
<path d="M1228.61 93.2374H1227.11C1226.52 93.2374 1226.05 92.7544 1226.05 92.1562C1226.05 91.558 1226.52 91.0751 1227.11 91.0751H1228.61C1229.2 91.0751 1229.68 91.558 1229.68 92.1562C1229.68 92.7544 1229.2 93.2374 1228.61 93.2374Z" fill="#BBBBBB"/>
<path d="M1204.74 69.4525C1204.65 69.4525 1204.56 69.438 1204.47 69.4164C1203.89 69.2651 1203.55 68.674 1203.7 68.0974C1204.22 66.1009 1205.16 64.472 1206.57 63.117C1208.51 61.0701 1210.98 60.0106 1213.86 60.0106H1214.57C1217.42 60.0106 1219.9 61.0629 1221.95 63.1386C1223.07 64.263 1223.89 65.5964 1224.48 67.2037C1224.69 67.7659 1224.41 68.3857 1223.85 68.5948C1223.29 68.8038 1222.68 68.5155 1222.48 67.9533C1222 66.6415 1221.33 65.5676 1220.44 64.6666C1218.78 62.9873 1216.87 62.1728 1214.57 62.1728H1213.86C1211.58 62.1728 1209.64 63.0089 1208.07 64.6522C1206.92 65.755 1206.18 67.0451 1205.77 68.6452C1205.64 69.1281 1205.21 69.4525 1204.74 69.4525Z" fill="#BBBBBB"/>
<path d="M1237.81 115.148C1237.21 115.148 1236.74 114.665 1236.74 114.067V103.905C1236.74 103.306 1237.21 102.823 1237.81 102.823C1238.4 102.823 1238.87 103.306 1238.87 103.905V114.067C1238.87 114.665 1238.4 115.148 1237.81 115.148Z" fill="#BBBBBB"/>
<path d="M1227.69 131.221C1227.31 131.221 1226.96 131.027 1226.76 130.681C1226.46 130.162 1226.64 129.506 1227.15 129.203C1228.43 128.453 1229.57 127.567 1230.64 126.493C1234.36 122.997 1236.4 118.803 1236.74 113.995C1236.78 113.397 1237.29 112.943 1237.88 112.993C1238.47 113.036 1238.91 113.548 1238.87 114.146C1238.49 119.523 1236.22 124.201 1232.11 128.05C1230.95 129.232 1229.66 130.226 1228.21 131.077C1228.04 131.178 1227.86 131.221 1227.68 131.221H1227.69Z" fill="#BBBBBB"/>
<path d="M1247 168.917C1246.41 168.917 1245.93 168.434 1245.93 167.835V162.069C1245.93 161.471 1246.41 160.988 1247 160.988C1247.59 160.988 1248.07 161.471 1248.07 162.069V167.835C1248.07 168.434 1247.59 168.917 1247 168.917Z" fill="#BBBBBB"/>
<path d="M1247 163.151C1246.41 163.151 1245.93 162.668 1245.93 162.069V140.879C1245.93 140.281 1246.41 139.798 1247 139.798C1247.59 139.798 1248.07 140.281 1248.07 140.879V162.069C1248.07 162.668 1247.59 163.151 1247 163.151Z" fill="#BBBBBB"/>
<path d="M1261.04 168.917C1260.45 168.917 1259.97 168.434 1259.97 167.835V166.682C1260.18 153.918 1255.68 145.579 1246.6 141.881C1246.05 141.658 1245.79 141.031 1246.01 140.476C1246.23 139.921 1246.85 139.654 1247.4 139.877C1257.38 143.942 1262.33 152.974 1262.11 166.704V167.843C1262.11 168.441 1261.63 168.924 1261.04 168.924V168.917Z" fill="#BBBBBB"/>
<path d="M1217.21 134.392C1216.64 134.392 1216.16 133.931 1216.14 133.347C1216.12 132.749 1216.58 132.252 1217.17 132.23C1221 132.086 1224.25 131.106 1227.1 129.232C1227.59 128.908 1228.26 129.044 1228.58 129.549C1228.9 130.046 1228.77 130.717 1228.27 131.048C1225.09 133.146 1221.48 134.241 1217.25 134.392C1217.24 134.392 1217.22 134.392 1217.21 134.392Z" fill="#BBBBBB"/>
<path d="M1227.69 139.726C1227.09 139.726 1226.62 139.243 1226.62 138.645V130.14C1226.62 129.542 1227.09 129.059 1227.69 129.059C1228.28 129.059 1228.75 129.542 1228.75 130.14V138.645C1228.75 139.243 1228.28 139.726 1227.69 139.726Z" fill="#BBBBBB"/>
<path d="M1201.39 130.789C1201.18 130.789 1200.97 130.731 1200.79 130.608C1199.66 129.844 1198.61 129.008 1197.59 128.05C1193.99 124.626 1191.81 120.54 1191.14 115.883C1191.1 115.617 1191.06 115.328 1191.02 115.047L1190.92 114.291C1190.92 114.24 1190.92 114.19 1190.92 114.139V114.067C1190.92 113.469 1191.39 112.986 1191.99 112.986C1192.58 112.986 1193.05 113.469 1193.05 114.067L1193.15 114.759C1193.18 115.033 1193.22 115.314 1193.25 115.566C1193.86 119.718 1195.81 123.387 1199.06 126.464C1199.99 127.336 1200.94 128.107 1201.98 128.807C1202.48 129.138 1202.61 129.808 1202.28 130.306C1202.08 130.616 1201.74 130.789 1201.39 130.789H1201.39Z" fill="#BBBBBB"/>
<path d="M1201.39 138.717C1200.79 138.717 1200.32 138.234 1200.32 137.636V129.708C1200.32 129.109 1200.79 128.626 1201.39 128.626C1201.98 128.626 1202.46 129.109 1202.46 129.708V137.636C1202.46 138.234 1201.98 138.717 1201.39 138.717Z" fill="#BBBBBB"/>
<path d="M1191.98 115.148C1191.39 115.148 1190.91 114.665 1190.91 114.067V103.688C1190.91 103.09 1191.39 102.607 1191.98 102.607C1192.57 102.607 1193.05 103.09 1193.05 103.688V114.067C1193.05 114.665 1192.57 115.148 1191.98 115.148Z" fill="#BBBBBB"/>
<path d="M1182.71 154.141C1182.12 154.141 1181.64 153.658 1181.64 153.06V140.086C1181.64 139.488 1182.12 139.005 1182.71 139.005C1183.3 139.005 1183.78 139.488 1183.78 140.086V153.06C1183.78 153.658 1183.3 154.141 1182.71 154.141Z" fill="#BBBBBB"/>
<path d="M1182.71 168.917C1182.12 168.917 1181.64 168.434 1181.64 167.835V162.069C1181.64 161.471 1182.12 160.988 1182.71 160.988C1183.3 160.988 1183.78 161.471 1183.78 162.069V167.835C1183.78 168.434 1183.3 168.917 1182.71 168.917Z" fill="#BBBBBB"/>
<path d="M1182.71 163.151C1182.12 163.151 1181.64 162.668 1181.64 162.069V156.375C1181.64 155.777 1182.12 155.294 1182.71 155.294H1204.24C1204.83 155.294 1205.31 155.777 1205.31 156.375C1205.31 156.974 1204.83 157.457 1204.24 157.457H1183.78V162.069C1183.78 162.668 1183.3 163.151 1182.71 163.151Z" fill="#BBBBBB"/>
<path d="M1214.93 168.917C1214.34 168.917 1213.86 168.434 1213.86 167.835V162.069C1213.86 161.471 1214.34 160.988 1214.93 160.988C1215.52 160.988 1216 161.471 1216 162.069V167.835C1216 168.434 1215.52 168.917 1214.93 168.917Z" fill="#BBBBBB"/>
<path d="M1214.93 163.151C1214.34 163.151 1213.86 162.668 1213.86 162.069V151.835C1213.86 151.236 1214.34 150.754 1214.93 150.754C1215.52 150.754 1216 151.236 1216 151.835V162.069C1216 162.668 1215.52 163.151 1214.93 163.151Z" fill="#BBBBBB"/>
<path d="M1182.71 141.168C1182.31 141.168 1181.92 140.93 1181.74 140.526C1181.49 139.978 1181.74 139.344 1182.27 139.099C1187.42 136.757 1193.88 135.906 1201.47 136.555C1202.06 136.605 1202.5 137.131 1202.45 137.722C1202.4 138.313 1201.87 138.753 1201.29 138.71C1194.07 138.09 1187.96 138.883 1183.15 141.067C1183.01 141.131 1182.86 141.16 1182.71 141.16V141.168Z" fill="#BBBBBB"/>
<path d="M1214.93 163.151H1182.71C1182.12 163.151 1181.64 162.668 1181.64 162.069C1181.64 161.471 1182.12 160.988 1182.71 160.988H1214.93C1215.52 160.988 1216 161.471 1216 162.069C1216 162.668 1215.52 163.151 1214.93 163.151Z" fill="#BBBBBB"/>
<path d="M1213.07 134.392H1213.06C1208.48 134.32 1204.47 133.081 1200.79 130.608C1200.3 130.277 1200.17 129.607 1200.5 129.109C1200.82 128.612 1201.49 128.482 1201.98 128.807C1205.29 131.041 1208.93 132.158 1213.09 132.23C1213.68 132.237 1214.15 132.735 1214.14 133.326C1214.14 133.917 1213.66 134.392 1213.07 134.392Z" fill="#BBBBBB"/>
<path d="M1216.4 152.995C1215.88 152.995 1215.36 152.966 1214.82 152.909C1214.24 152.851 1213.81 152.318 1213.87 151.727C1213.92 151.136 1214.46 150.696 1215.03 150.761C1217.39 150.999 1224.54 151.734 1226.63 138.479C1226.72 137.888 1227.28 137.492 1227.86 137.578C1228.44 137.672 1228.84 138.227 1228.75 138.818C1227.26 148.238 1223.12 152.995 1216.4 152.995H1216.4Z" fill="#BBBBBB"/>
<path d="M1213.72 152.952C1210 152.952 1207.02 151.943 1204.83 149.939C1202.07 147.424 1200.55 143.301 1200.32 137.686C1200.29 137.088 1200.75 136.584 1201.34 136.562C1201.92 136.533 1202.43 137.002 1202.45 137.593C1202.66 142.609 1203.94 146.22 1206.26 148.339C1208.26 150.163 1211.14 150.977 1214.86 150.761C1215.46 150.732 1215.96 151.179 1215.99 151.777C1216.02 152.375 1215.58 152.887 1214.98 152.916C1214.55 152.945 1214.13 152.952 1213.71 152.952H1213.72Z" fill="#BBBBBB"/>
<path d="M1247 163.151H1214.93C1214.34 163.151 1213.86 162.668 1213.86 162.069C1213.86 161.471 1214.34 160.988 1214.93 160.988H1247C1247.59 160.988 1248.07 161.471 1248.07 162.069C1248.07 162.668 1247.59 163.151 1247 163.151Z" fill="#BBBBBB"/>
<path d="M1240.51 157.168H1223.84C1223.24 157.168 1222.77 156.685 1222.77 156.087C1222.77 155.489 1223.24 155.006 1223.84 155.006H1240.51C1241.11 155.006 1241.58 155.489 1241.58 156.087C1241.58 156.685 1241.11 157.168 1240.51 157.168Z" fill="#BBBBBB"/>
<path d="M1247 141.96C1246.86 141.96 1246.73 141.932 1246.59 141.881C1241.7 139.856 1235.54 139.149 1227.76 139.726C1227.2 139.769 1226.67 139.322 1226.62 138.724C1226.58 138.126 1227.02 137.614 1227.61 137.571C1235.72 136.973 1242.2 137.73 1247.41 139.885C1247.96 140.108 1248.22 140.742 1248 141.297C1247.83 141.715 1247.43 141.968 1247.01 141.968L1247 141.96Z" fill="#BBBBBB"/>
<path d="M1253.91 38.8925V40.8385C1253.7 40.8385 1253.41 40.8385 1253.2 40.9106C1253.13 40.4781 1253.13 40.1177 1253.13 39.8294C1253.13 39.4691 1253.06 39.1808 1253.06 38.8925C1253.06 38.7483 1252.84 38.6762 1252.63 38.6042C1252.34 38.5321 1252.06 38.5321 1251.7 38.5321C1251.42 38.5321 1251.06 38.6042 1250.78 38.6762C1250.56 38.7483 1250.42 38.8925 1250.35 39.0366C1250.35 39.2528 1250.35 39.7574 1250.42 40.406C1250.42 40.9826 1250.49 41.7034 1250.56 42.3521C1250.63 43.0728 1250.71 43.7215 1250.78 44.226C1250.85 44.8026 1250.99 45.163 1251.06 45.163C1251.28 45.2351 1251.63 45.3072 1252.13 45.3072C1252.63 45.2351 1252.84 45.163 1252.91 45.0909C1252.99 45.0189 1252.99 44.8026 1253.06 44.5864C1253.06 44.2981 1253.06 44.0098 1253.13 43.5774C1253.27 43.5774 1253.41 43.5774 1253.56 43.5053C1253.77 43.5053 1253.91 43.5053 1254.06 43.4332C1254.13 43.8657 1254.2 44.226 1254.2 44.5143C1254.27 44.8026 1254.34 44.9468 1254.34 45.0189C1254.41 45.163 1254.7 45.2351 1255.2 45.2351C1255.69 45.3072 1256.05 45.2351 1256.26 45.163C1256.34 45.0909 1256.41 44.8026 1256.48 44.226C1256.55 43.6494 1256.55 43.0008 1256.62 42.3521C1256.62 41.6313 1256.69 40.9826 1256.69 40.334V39.0366C1256.62 38.8925 1256.48 38.7483 1256.19 38.6762C1255.91 38.5321 1255.62 38.5321 1255.27 38.5321C1254.91 38.46 1254.63 38.5321 1254.41 38.6042C1254.13 38.6762 1253.98 38.7483 1253.91 38.8925Z" fill="#BBBBBB"/>
<path d="M1258.19 39.2528C1257.48 39.8294 1257.12 40.5502 1256.98 41.343C1256.83 42.28 1256.98 43.1449 1257.55 43.8657C1258.12 44.5864 1258.83 45.0909 1259.76 45.2351C1260.75 45.3792 1261.61 45.163 1262.32 44.5864C1263.04 44.0819 1263.53 43.2891 1263.68 42.3521C1263.82 41.343 1263.61 40.4781 1263.04 39.7574C1262.39 39.0366 1261.61 38.6041 1260.54 38.5321C1259.61 38.3879 1258.83 38.6762 1258.19 39.2528ZM1259.47 41.7755C1259.47 41.5592 1259.61 41.343 1259.76 41.1989C1259.97 41.0547 1260.18 40.9826 1260.47 41.0547C1260.68 41.0547 1260.9 41.1989 1261.04 41.343C1261.18 41.5592 1261.18 41.7755 1261.18 41.9917C1261.11 42.2079 1261.04 42.3521 1260.9 42.4962C1260.83 42.6404 1260.61 42.7125 1260.4 42.7125C1260.11 42.7845 1259.9 42.7125 1259.69 42.4962C1259.47 42.28 1259.4 41.9917 1259.47 41.7755Z" fill="#BBBBBB"/>
<path d="M1248.85 40.8385H1249.21C1249.35 40.8385 1249.42 40.7664 1249.49 40.6943C1249.71 40.4781 1249.78 40.1898 1249.64 39.7574C1249.57 39.3249 1249.49 39.0366 1249.35 38.8204C1249.21 38.6762 1249 38.5321 1248.85 38.5321C1247.71 38.3879 1246.79 38.6762 1246 39.2528C1245.29 39.9015 1244.86 40.7664 1244.79 41.8475C1244.65 42.5683 1244.79 43.217 1245.15 43.7215C1245.43 44.226 1245.93 44.6585 1246.5 44.9468C1247 45.163 1247.5 45.3072 1248.07 45.3072C1248.64 45.3072 1249.14 45.163 1249.64 45.0189C1249.78 44.9468 1249.92 44.8747 1249.99 44.6585C1250.06 44.4423 1250.06 44.154 1250.06 43.7936C1249.99 43.4332 1249.92 43.217 1249.78 43.0008C1249.64 42.8566 1249.57 42.7125 1249.42 42.7125C1249.35 42.6404 1249.21 42.6404 1249.07 42.7125C1248.92 42.7125 1248.64 42.7125 1248.35 42.7845C1248.07 42.7845 1247.78 42.7125 1247.64 42.5683C1247.5 42.4962 1247.43 42.3521 1247.36 42.2079C1247.36 41.8475 1247.43 41.5592 1247.71 41.343C1247.93 41.1268 1248.21 40.9106 1248.5 40.9106C1248.64 40.8385 1248.71 40.8385 1248.85 40.8385Z" fill="#BBBBBB"/>
<path d="M1251.2 49.4155C1250.78 49.3434 1250.42 49.3434 1250.06 49.4155C1249.64 49.4875 1249.28 49.6317 1248.99 49.8479C1248.42 50.2804 1248.14 50.7849 1248.14 51.4336C1248.07 51.866 1248.07 52.2264 1248.21 52.5147C1248.35 52.803 1248.57 53.0192 1248.71 53.1634C1249.07 53.3796 1249.35 53.5238 1249.71 53.5958C1250.06 53.5958 1250.42 53.6679 1250.71 53.8121C1250.85 53.8121 1250.99 53.8841 1250.99 53.9562C1251.06 54.1004 1250.99 54.1724 1250.85 54.2445C1250.71 54.3166 1250.56 54.3166 1250.49 54.2445C1250.42 54.2445 1250.28 54.1724 1250.28 54.1004V54.0283C1250.28 53.9562 1250.14 53.8841 1249.92 53.8121C1249.78 53.74 1249.57 53.6679 1249.28 53.6679C1249.14 53.74 1248.99 53.74 1248.85 53.74C1248.71 53.8121 1248.57 53.8121 1248.42 53.8841C1248.14 54.0283 1248 54.1724 1248.07 54.4608C1248.21 54.9653 1248.5 55.3977 1248.92 55.7581C1249.49 56.1185 1250.21 56.3347 1250.99 56.2626C1251.7 56.1185 1252.34 55.8302 1252.77 55.3257C1253.2 54.8932 1253.34 54.3887 1253.27 53.8121C1253.2 53.2355 1252.91 52.803 1252.42 52.4426C1252.06 52.1543 1251.56 51.9381 1250.85 51.794H1250.71C1250.66 51.794 1250.61 51.7699 1250.56 51.7219C1250.14 51.6498 1250.06 51.5777 1250.28 51.4336C1250.49 51.2174 1250.71 51.2174 1250.85 51.3615C1250.9 51.4096 1250.92 51.4576 1250.92 51.5057C1250.92 51.5777 1250.99 51.5777 1250.99 51.6498C1251.06 51.6498 1251.13 51.7219 1251.2 51.7219C1251.28 51.7219 1251.42 51.6498 1251.63 51.6498C1251.85 51.5777 1251.99 51.5777 1252.2 51.5057C1252.42 51.4336 1252.56 51.2894 1252.7 51.2174C1252.84 51.0732 1252.84 51.0011 1252.84 50.857C1252.7 50.4245 1252.49 50.1362 1252.2 49.92C1251.92 49.6317 1251.56 49.4875 1251.2 49.4155Z" fill="#BBBBBB"/>
<path d="M1243.93 38.6762C1243.86 38.6041 1243.65 38.6041 1243.22 38.5321H1241.8C1241.3 38.5321 1240.8 38.5321 1240.37 38.6041C1239.94 38.6041 1239.73 38.6762 1239.59 38.6762C1239.52 38.7483 1239.52 38.8204 1239.44 39.0366C1239.44 39.1808 1239.37 39.397 1239.37 39.6132V41.1268C1239.37 41.7034 1239.37 42.3521 1239.44 42.8566C1239.44 43.5053 1239.52 44.0098 1239.59 44.4423C1239.59 44.8747 1239.73 45.163 1239.8 45.163C1239.94 45.2351 1240.23 45.2351 1240.73 45.3072C1241.23 45.3072 1241.73 45.3072 1242.3 45.2351C1242.79 45.2351 1243.29 45.163 1243.72 45.163C1244.15 45.0909 1244.36 44.9468 1244.43 44.8747V43.7936C1244.43 43.2891 1244.36 43.0008 1244.22 43.0008C1244.22 42.8566 1243.93 42.8566 1243.58 42.8566C1243.15 42.9287 1242.65 42.9287 1242.15 42.9287V42.7125C1242.37 42.7125 1242.51 42.7125 1242.65 42.6404C1242.79 42.6404 1242.94 42.6404 1243.01 42.5683C1243.08 42.5683 1243.08 42.4962 1243.15 42.3521V41.8475C1243.08 41.6313 1243.08 41.4872 1243.01 41.2709C1243.01 41.1268 1242.94 41.0547 1242.87 41.0547C1242.65 40.9826 1242.44 40.9826 1242.08 40.9106V40.6943C1242.58 40.6943 1243.01 40.6943 1243.36 40.6223C1243.79 40.6223 1244.01 40.5502 1244.01 40.406C1244.08 40.2619 1244.08 39.9015 1244.08 39.4691C1244.08 39.0366 1244.08 38.7483 1243.93 38.6762Z" fill="#BBBBBB"/>
<path d="M1237.66 39.1087C1237.24 38.8204 1236.81 38.6042 1236.31 38.46C1235.74 38.3879 1235.24 38.3158 1234.67 38.46C1234.17 38.5321 1233.74 38.6762 1233.39 38.8204C1233.32 38.8204 1233.24 39.1808 1233.24 39.8294C1233.24 40.4781 1233.32 41.1989 1233.32 41.9196C1233.39 42.7125 1233.39 43.3611 1233.46 44.0819C1233.53 44.6585 1233.6 45.0189 1233.67 45.163C1233.74 45.163 1233.74 45.2351 1233.81 45.2351C1233.89 45.3072 1234.17 45.3072 1234.53 45.3072C1234.88 45.3072 1235.17 45.2351 1235.45 45.2351C1235.74 45.163 1235.88 45.163 1235.88 45.0189C1235.95 44.9468 1235.95 44.7306 1235.95 44.5143C1235.95 44.4423 1236.09 44.3702 1236.31 44.4423C1236.52 44.5143 1236.81 44.6585 1237.16 44.9468C1237.52 45.163 1237.81 45.2351 1238.02 45.2351L1238.23 45.0189C1238.38 44.8747 1238.45 44.7306 1238.59 44.5864C1238.73 44.4423 1238.87 44.226 1238.95 44.0819C1239.02 43.9377 1239.09 43.7936 1239.09 43.7215C1239.09 43.5774 1238.95 43.3611 1238.73 43.217C1238.52 42.9287 1238.23 42.7125 1237.95 42.4241C1238.38 42.0638 1238.52 41.4872 1238.45 40.6223C1238.38 39.9736 1238.09 39.4691 1237.66 39.1087ZM1235.74 41.6313C1235.52 41.6313 1235.38 41.4872 1235.31 41.0547C1235.24 40.6223 1235.38 40.406 1235.6 40.406C1235.88 40.406 1236.09 40.406 1236.24 40.5502C1236.38 40.6223 1236.45 40.7664 1236.45 40.9106C1236.45 41.0547 1236.38 41.1989 1236.31 41.343C1236.17 41.4872 1235.95 41.5592 1235.74 41.6313Z" fill="#BBBBBB"/>
<path d="M1246.36 52.2985C1246.29 52.1543 1246.22 52.0823 1246.22 52.0102C1246 52.0102 1245.72 51.9381 1245.43 51.9381V51.794C1245.36 51.794 1245.36 51.7219 1245.36 51.7219C1245.86 51.6498 1246.29 51.6498 1246.71 51.6498C1247.07 51.5777 1247.28 51.5777 1247.36 51.4336C1247.36 51.2174 1247.43 50.857 1247.36 50.4245C1247.36 49.9921 1247.36 49.7038 1247.28 49.6317C1247.21 49.6317 1247 49.5596 1246.5 49.5596C1246.07 49.4875 1245.65 49.4875 1245.08 49.4875C1244.58 49.4875 1244.15 49.5596 1243.72 49.5596C1243.22 49.6317 1243.01 49.6317 1242.94 49.7038C1242.87 49.7038 1242.79 49.8479 1242.79 49.9921C1242.72 50.2083 1242.72 50.3525 1242.72 50.5687C1242.65 51.0011 1242.65 51.4336 1242.65 52.0823C1242.65 52.7309 1242.72 53.3075 1242.72 53.8842C1242.79 54.4608 1242.87 54.9653 1242.87 55.3977C1242.94 55.9023 1243.01 56.1185 1243.08 56.1185C1243.22 56.1906 1243.58 56.2626 1244.08 56.2626H1245.57C1246.14 56.1906 1246.57 56.1906 1247 56.1185C1247.43 56.0464 1247.71 55.9743 1247.71 55.9023C1247.78 55.686 1247.78 55.3257 1247.71 54.8211C1247.71 54.3166 1247.64 54.0283 1247.57 53.9562C1247.5 53.8842 1247.28 53.8842 1246.86 53.8842C1246.43 53.8842 1245.93 53.8842 1245.43 53.9562V53.6679H1245.93C1246.14 53.5959 1246.22 53.5959 1246.29 53.5959C1246.36 53.5959 1246.43 53.5238 1246.43 53.3075C1246.5 53.1634 1246.5 53.0192 1246.43 52.803C1246.43 52.6589 1246.36 52.4426 1246.36 52.2985Z" fill="#BBBBBB"/>
<path d="M1242.37 51.4336C1242.37 50.7849 1242.3 50.2804 1242.3 49.8479C1242.22 49.7038 1242.15 49.6317 1241.87 49.5596C1241.58 49.4875 1241.3 49.4875 1241.01 49.4875C1240.66 49.4875 1240.44 49.5596 1240.16 49.6317C1239.87 49.7038 1239.73 49.8479 1239.73 49.9921V51.3615C1239.59 51.1453 1239.37 50.857 1239.09 50.4245C1238.8 50.0642 1238.52 49.7759 1238.38 49.7038C1238.23 49.6317 1238.02 49.6317 1237.81 49.5596C1237.52 49.5596 1237.31 49.4875 1237.02 49.5596C1236.74 49.5596 1236.52 49.5596 1236.31 49.6317C1236.17 49.6317 1236.02 49.7038 1236.02 49.8479C1235.95 50.2083 1235.95 50.7849 1235.95 51.4336C1235.88 52.0823 1235.88 52.803 1235.95 53.4517C1235.95 54.1004 1235.95 54.677 1236.02 55.1815C1236.02 55.686 1236.09 55.9743 1236.17 56.0464C1236.24 56.1906 1236.52 56.2626 1237.02 56.2626C1237.52 56.2626 1237.95 56.2626 1238.16 56.1185C1238.23 56.1185 1238.3 55.9023 1238.3 55.5419C1238.38 55.1815 1238.38 54.7491 1238.45 54.1725C1238.52 54.2445 1238.59 54.3887 1238.73 54.5328C1238.87 54.7491 1239.09 54.9653 1239.3 55.1815C1239.52 55.3977 1239.66 55.614 1239.87 55.8302C1240.09 55.9743 1240.23 56.1185 1240.3 56.1906C1240.37 56.1906 1240.51 56.1906 1240.73 56.2626H1241.3C1241.51 56.2626 1241.73 56.2626 1241.87 56.1906C1242.08 56.1906 1242.15 56.1185 1242.22 56.0464C1242.22 55.9743 1242.3 55.686 1242.3 55.1815C1242.37 54.677 1242.37 54.1004 1242.37 53.4517V51.4336Z" fill="#BBBBBB"/>
<path d="M1231.68 41.8475C1231.68 41.6313 1231.6 41.4872 1231.6 41.2709C1231.53 41.1268 1231.46 41.0547 1231.46 41.0547C1231.25 40.9826 1230.96 40.9826 1230.61 40.9106V40.6943C1231.11 40.6943 1231.53 40.6943 1231.96 40.6223C1232.32 40.6223 1232.53 40.5502 1232.53 40.406C1232.6 40.2619 1232.67 39.9015 1232.6 39.4691C1232.6 39.0366 1232.6 38.7483 1232.53 38.6762C1232.46 38.6041 1232.18 38.6041 1231.75 38.5321H1230.32C1229.82 38.5321 1229.4 38.5321 1228.9 38.6041C1228.47 38.6041 1228.26 38.6762 1228.18 38.6762C1228.04 38.7483 1228.04 38.8204 1228.04 39.0366C1227.97 39.1808 1227.97 39.397 1227.97 39.6132C1227.9 39.9736 1227.9 40.4781 1227.9 41.1268C1227.9 41.7034 1227.97 42.3521 1227.97 42.8566C1228.04 43.5053 1228.04 44.0098 1228.11 44.4423C1228.18 44.8747 1228.26 45.163 1228.33 45.163C1228.47 45.2351 1228.75 45.2351 1229.25 45.3072C1229.75 45.3072 1230.25 45.3072 1230.82 45.2351C1231.32 45.2351 1231.82 45.163 1232.25 45.163C1232.67 45.0909 1232.89 44.9468 1232.96 44.8747C1233.03 44.6585 1233.03 44.2981 1232.96 43.7936C1232.96 43.2891 1232.89 43.0008 1232.82 43.0008C1232.75 42.8566 1232.53 42.8566 1232.1 42.8566C1231.68 42.9287 1231.18 42.9287 1230.68 42.9287V42.7125C1230.89 42.7125 1231.03 42.7125 1231.18 42.6404C1231.32 42.6404 1231.46 42.6404 1231.53 42.5683C1231.6 42.5683 1231.68 42.4962 1231.68 42.3521V41.8475Z" fill="#BBBBBB"/>
<path d="M1226.12 39.2528C1225.69 38.8925 1225.12 38.6762 1224.55 38.5321C1223.91 38.46 1223.34 38.46 1222.77 38.5321C1222.41 38.6041 1222.13 38.6762 1221.98 38.7483C1221.84 38.8204 1221.77 39.2528 1221.7 39.9015C1221.63 40.5502 1221.56 41.2709 1221.63 41.9917C1221.63 42.7125 1221.7 43.4332 1221.84 44.0819C1221.91 44.6585 1222.05 45.0189 1222.2 45.0909C1222.34 45.163 1222.48 45.163 1222.7 45.2351C1222.98 45.2351 1223.2 45.3072 1223.48 45.3072C1224.26 45.3072 1224.98 45.163 1225.69 44.8747C1226.33 44.5864 1226.83 44.0819 1227.19 43.2891C1227.47 42.6404 1227.47 41.8475 1227.33 41.1268C1227.11 40.334 1226.69 39.6853 1226.12 39.2528ZM1224.05 41.1268H1224.34C1224.55 41.1268 1224.76 41.2709 1224.91 41.4151C1225.12 41.5592 1225.19 41.7755 1225.19 41.9917C1225.12 42.2079 1225.05 42.3521 1224.91 42.4962C1224.76 42.5683 1224.55 42.6404 1224.34 42.6404C1224.19 42.6404 1224.12 42.6404 1224.05 42.5683C1223.98 42.4962 1223.91 42.3521 1223.91 42.0638C1223.84 41.7034 1223.84 41.4872 1223.91 41.343C1223.91 41.2709 1223.98 41.1989 1224.05 41.1268Z" fill="#BBBBBB"/>
<path d="M1217.49 40.2619C1217.64 40.1177 1217.71 39.9736 1217.64 39.8294C1217.49 39.4691 1217.35 39.1087 1216.99 38.8925C1216.71 38.6762 1216.42 38.5321 1216 38.46C1215.64 38.3158 1215.28 38.3158 1214.86 38.46C1214.5 38.5321 1214.14 38.6762 1213.79 38.8925C1213.29 39.2528 1213 39.7574 1212.93 40.406C1212.86 40.8385 1212.93 41.2709 1213.07 41.4872C1213.22 41.7755 1213.36 41.9917 1213.57 42.1358C1213.86 42.3521 1214.21 42.4962 1214.5 42.5683C1214.86 42.6404 1215.21 42.7125 1215.57 42.7845C1215.71 42.8566 1215.78 42.8566 1215.78 42.9287C1215.85 43.0728 1215.78 43.217 1215.64 43.217C1215.5 43.2891 1215.43 43.2891 1215.28 43.2891C1215.21 43.217 1215.14 43.217 1215.07 43.0728V43.0008C1215.07 42.9287 1214.93 42.8566 1214.79 42.7845C1214.57 42.7125 1214.36 42.7125 1214.14 42.7125C1214 42.7125 1213.86 42.7125 1213.72 42.7845C1213.5 42.7845 1213.36 42.8566 1213.22 42.8566C1212.93 43.0008 1212.86 43.217 1212.86 43.4332C1213 44.0098 1213.29 44.4423 1213.79 44.8026C1214.36 45.163 1215 45.3072 1215.78 45.2351C1216.57 45.163 1217.14 44.8747 1217.64 44.3702C1217.99 43.9377 1218.21 43.3611 1218.06 42.8566C1217.99 42.28 1217.78 41.7755 1217.28 41.4151C1216.85 41.1268 1216.35 40.9106 1215.71 40.8385C1215.64 40.8385 1215.57 40.8385 1215.5 40.7664H1215.43C1215 40.6943 1214.93 40.5502 1215.07 40.406C1215.36 40.2619 1215.5 40.2619 1215.64 40.334C1215.71 40.406 1215.78 40.4781 1215.78 40.4781C1215.78 40.5502 1215.78 40.6223 1215.85 40.6223C1215.9 40.6703 1215.95 40.6943 1216 40.6943C1216.14 40.6943 1216.28 40.6943 1216.5 40.6223C1216.64 40.6223 1216.85 40.5502 1216.99 40.4781C1217.21 40.406 1217.35 40.334 1217.49 40.2619Z" fill="#BBBBBB"/>
<path d="M1212.36 38.9645C1212.36 38.8204 1212.15 38.7483 1211.93 38.6762H1210.37C1210.08 38.7483 1210.01 38.8204 1210.01 38.8925C1209.94 39.1087 1209.94 39.397 1210.01 39.9015C1210.01 40.2619 1210.01 40.6943 1209.94 41.1268C1209.94 41.5592 1209.8 41.9196 1209.72 42.28C1209.58 42.5683 1209.37 42.7125 1209.08 42.7125C1208.8 42.6404 1208.58 42.4962 1208.51 42.1358C1208.37 41.8475 1208.37 41.4872 1208.3 41.0547C1208.3 40.6943 1208.3 40.2619 1208.37 39.8294V38.8925C1208.37 38.8204 1208.3 38.7483 1208.09 38.6762C1207.87 38.6762 1207.59 38.6041 1207.3 38.6041C1207.09 38.5321 1206.8 38.5321 1206.52 38.6041C1206.23 38.6041 1206.09 38.6762 1206.02 38.7483C1205.95 38.8204 1205.8 39.1087 1205.8 39.4691C1205.73 39.8294 1205.73 40.2619 1205.73 40.6943C1205.73 41.1268 1205.73 41.5592 1205.8 41.9917C1205.8 42.4241 1205.88 42.7845 1205.95 43.0008C1206.23 43.7215 1206.66 44.226 1207.3 44.7306C1207.94 45.163 1208.66 45.3072 1209.44 45.3072C1210.08 45.2351 1210.58 45.0189 1211.08 44.6585C1211.51 44.3702 1211.86 43.9377 1212.15 43.3611C1212.22 43.0728 1212.29 42.7845 1212.36 42.3521C1212.43 41.9196 1212.5 41.4872 1212.5 40.9826V39.7574C1212.43 39.397 1212.43 39.1087 1212.36 38.9645Z" fill="#BBBBBB"/>
<path d="M1222.13 53.1634C1222.13 52.8751 1222.2 52.5868 1222.48 52.2985C1222.7 52.0823 1222.98 51.9381 1223.27 51.866H1223.62C1223.77 51.794 1223.91 51.794 1224.05 51.794C1224.12 51.794 1224.19 51.794 1224.26 51.7219C1224.48 51.5057 1224.55 51.2174 1224.41 50.7128C1224.34 50.2804 1224.26 49.9921 1224.12 49.8479C1223.98 49.6317 1223.77 49.5596 1223.62 49.4875C1222.48 49.4155 1221.56 49.6317 1220.77 50.2804C1220.06 50.857 1219.63 51.7219 1219.56 52.8751C1219.42 53.5238 1219.56 54.1725 1219.92 54.7491C1220.27 55.2536 1220.7 55.686 1221.27 55.9743C1221.77 56.1185 1222.27 56.2626 1222.84 56.2626C1223.41 56.2626 1223.91 56.1906 1224.41 55.9743C1224.55 55.9743 1224.69 55.9023 1224.76 55.686C1224.83 55.4698 1224.83 55.1815 1224.83 54.8211C1224.76 54.4608 1224.69 54.1725 1224.55 53.9562C1224.41 53.8121 1224.34 53.74 1224.26 53.6679H1223.91C1223.69 53.6679 1223.41 53.74 1223.12 53.74C1222.84 53.74 1222.55 53.6679 1222.41 53.5238C1222.27 53.4517 1222.2 53.3075 1222.13 53.1634Z" fill="#BBBBBB"/>
<path d="M1218.63 52.5868C1218.42 51.9381 1218.21 51.3615 1217.99 50.857C1217.78 50.2804 1217.56 49.92 1217.42 49.7759C1217.28 49.7038 1217.07 49.6317 1216.78 49.5596H1215.93C1215.57 49.6317 1215.36 49.6317 1215.07 49.7038C1214.79 49.7759 1214.64 49.8479 1214.64 49.9921C1214.5 50.2083 1214.36 50.5687 1214.14 51.0732C1214 51.6498 1213.79 52.2264 1213.64 52.803C1213.5 53.4517 1213.36 54.0283 1213.29 54.6049C1213.22 55.1815 1213.15 55.614 1213.15 55.9023C1213.15 55.9743 1213.15 56.0464 1213.22 56.1185C1213.29 56.1906 1213.5 56.2626 1214 56.2626H1214.79C1214.86 56.1906 1214.93 56.1906 1214.93 56.1906C1215 56.1185 1215.07 55.9743 1215.14 55.7581C1215.28 55.5419 1215.36 55.3257 1215.43 55.1094C1215.57 54.9653 1215.71 54.8932 1215.93 54.8932H1216.64C1216.71 54.8932 1216.78 54.9653 1216.85 55.0374C1216.92 55.1094 1216.99 55.3257 1217.14 55.686C1217.21 55.9743 1217.35 56.1185 1217.42 56.1906C1217.42 56.2626 1217.49 56.2626 1217.49 56.2626H1218.21C1218.63 56.1906 1218.92 56.1906 1219.2 56.1185C1219.35 56.1185 1219.42 56.1185 1219.49 55.9743C1219.56 55.9743 1219.56 55.8302 1219.56 55.614C1219.49 55.3977 1219.35 54.9653 1219.2 54.3887C1219.06 53.8121 1218.85 53.2355 1218.63 52.5868ZM1215.78 52.7309C1215.85 52.5147 1215.93 52.2985 1216 52.2264C1216.14 52.0823 1216.28 52.2264 1216.5 52.5147C1216.71 52.8751 1216.78 53.0913 1216.78 53.1634C1216.71 53.3075 1216.5 53.3796 1216.21 53.3796C1215.85 53.4517 1215.71 53.3796 1215.64 53.2355C1215.57 53.1634 1215.64 52.9472 1215.78 52.7309Z" fill="#BBBBBB"/>
<path d="M1212.72 52.9472C1212.65 52.8751 1212.58 52.803 1212.36 52.7309H1211.58C1211.29 52.803 1211.01 52.803 1210.79 52.8751C1210.58 52.9472 1210.44 53.0913 1210.44 53.1634C1210.44 53.3075 1210.44 53.5238 1210.37 53.6679C1210.37 53.8842 1210.22 53.9562 1209.94 53.9562C1209.58 53.8842 1209.37 53.8121 1209.15 53.6679C1208.94 53.4517 1208.87 53.2355 1208.87 53.0192C1208.8 52.803 1208.87 52.5147 1209.01 52.2985C1209.08 52.0823 1209.3 51.9381 1209.58 51.794C1209.8 51.7219 1210.01 51.7219 1210.3 51.7219C1210.37 51.7219 1210.44 51.794 1210.37 51.866C1210.37 51.9381 1210.44 52.0102 1210.58 52.0102C1210.65 52.0823 1210.79 52.0823 1211.01 52.0102C1211.22 52.0102 1211.44 51.9381 1211.65 51.9381C1211.86 51.866 1212.01 51.794 1212.15 51.7219C1212.36 51.6498 1212.43 51.5777 1212.36 51.4336C1212.36 50.7128 1212.15 50.2083 1211.65 49.92C1211.15 49.6317 1210.51 49.4875 1209.94 49.4875C1208.94 49.5596 1208.16 49.8479 1207.52 50.4245C1206.95 51.0011 1206.52 51.794 1206.45 52.803C1206.38 53.74 1206.59 54.5328 1207.16 55.1815C1207.8 55.8302 1208.51 56.1906 1209.44 56.2626C1209.94 56.2626 1210.44 56.2626 1210.94 56.1185C1211.01 56.1185 1211.01 56.1906 1211.08 56.1906C1211.22 56.2626 1211.51 56.2626 1211.93 56.2626C1212.36 56.2626 1212.65 56.1906 1212.65 56.1185C1212.72 56.1185 1212.72 55.9743 1212.79 55.686V53.8121C1212.79 53.5238 1212.72 53.1634 1212.72 52.9472Z" fill="#BBBBBB"/>
<path d="M1229.25 54.8932C1229.82 55.614 1230.61 56.0464 1231.46 56.1906C1232.46 56.3347 1233.32 56.1906 1234.03 55.614C1234.81 55.0374 1235.24 54.3166 1235.38 53.3796C1235.6 52.2985 1235.38 51.4336 1234.74 50.7128C1234.17 49.9921 1233.32 49.5596 1232.25 49.4875C1231.32 49.4155 1230.61 49.6317 1229.89 50.2083C1229.25 50.7849 1228.83 51.5057 1228.68 52.3706C1228.54 53.3075 1228.75 54.1004 1229.25 54.8932ZM1232.75 52.3706C1232.89 52.5147 1232.96 52.7309 1232.89 53.0192C1232.89 53.1634 1232.82 53.3075 1232.67 53.5238C1232.53 53.6679 1232.32 53.6679 1232.18 53.74C1231.89 53.74 1231.68 53.6679 1231.46 53.4517C1231.25 53.2355 1231.18 53.0192 1231.18 52.7309C1231.25 52.5147 1231.32 52.2985 1231.53 52.1543C1231.75 52.0102 1231.96 52.0102 1232.18 52.0102C1232.46 52.0823 1232.6 52.1543 1232.75 52.3706Z" fill="#BBBBBB"/>
<path d="M1228.26 49.92C1228.26 49.7758 1228.11 49.6317 1227.76 49.5596C1227.47 49.4875 1227.19 49.4875 1226.76 49.4875C1226.4 49.4875 1226.12 49.5596 1225.76 49.6317C1225.48 49.7038 1225.33 49.8479 1225.26 49.9921V51.3615C1225.33 51.9381 1225.33 52.6589 1225.4 53.3075C1225.48 54.0283 1225.55 54.677 1225.62 55.2536C1225.76 55.8302 1225.83 56.1185 1225.97 56.1185C1226.19 56.2626 1226.54 56.2626 1227.11 56.2626C1227.69 56.2626 1227.97 56.1906 1228.04 56.0464C1228.04 55.9743 1228.11 55.686 1228.18 55.1815C1228.26 54.677 1228.26 54.1004 1228.33 53.4517V51.5057C1228.33 50.857 1228.33 50.3525 1228.26 49.92Z" fill="#BBBBBB"/>
<path d="M1266.17 38.46C1265.74 38.5321 1265.39 38.6762 1265.1 38.8925C1264.53 39.2528 1264.25 39.7574 1264.25 40.406C1264.18 40.8385 1264.18 41.2709 1264.32 41.4872C1264.46 41.7755 1264.6 41.9917 1264.82 42.1358C1265.1 42.3521 1265.46 42.4962 1265.81 42.5683C1266.17 42.6404 1266.46 42.7125 1266.81 42.7845C1266.96 42.8566 1267.03 42.8566 1267.1 42.9287C1267.17 43.0728 1267.1 43.217 1266.96 43.217C1266.81 43.2891 1266.67 43.2891 1266.6 43.2891C1266.46 43.217 1266.39 43.217 1266.39 43.0728V43.0008C1266.31 42.9287 1266.24 42.8566 1266.03 42.7845C1265.81 42.7125 1265.6 42.7125 1265.39 42.7125C1265.24 42.7125 1265.1 42.7125 1264.96 42.7845C1264.75 42.7845 1264.6 42.8566 1264.53 42.8566C1264.25 43.0008 1264.1 43.217 1264.1 43.4332C1264.25 44.0098 1264.6 44.4423 1265.03 44.8026C1265.6 45.163 1266.31 45.3072 1267.03 45.2351C1267.81 45.163 1268.45 44.8747 1268.88 44.3702C1269.24 43.9377 1269.45 43.3611 1269.38 42.8566C1269.31 42.28 1269.02 41.7755 1268.52 41.4151C1268.17 41.1268 1267.67 40.9106 1266.96 40.8385C1266.88 40.8385 1266.81 40.8385 1266.81 40.7664H1266.67C1266.24 40.6943 1266.17 40.5502 1266.39 40.406C1266.6 40.2619 1266.81 40.2619 1266.96 40.334C1267.03 40.406 1267.03 40.4781 1267.03 40.4781C1267.03 40.5502 1267.03 40.6223 1267.1 40.6223C1267.17 40.6943 1267.24 40.6943 1267.31 40.6943C1267.38 40.6943 1267.53 40.6943 1267.74 40.6223C1267.95 40.6223 1268.1 40.5502 1268.31 40.4781C1268.52 40.406 1268.67 40.334 1268.74 40.2619C1268.88 40.1177 1268.95 39.9736 1268.88 39.8294C1268.81 39.4691 1268.59 39.1087 1268.31 38.8925C1268.02 38.6762 1267.67 38.5321 1267.31 38.46C1266.88 38.3158 1266.53 38.3158 1266.17 38.46Z" fill="#BBBBBB"/>
<path d="M1159.19 39.2528C1158.48 39.9015 1158.05 40.7664 1157.98 41.8475C1157.84 42.5683 1157.98 43.217 1158.34 43.7215C1158.7 44.226 1159.12 44.6585 1159.69 44.9468C1160.19 45.163 1160.69 45.3072 1161.26 45.3072C1161.83 45.3072 1162.33 45.163 1162.83 45.0189C1162.97 44.9468 1163.11 44.8747 1163.19 44.6585C1163.26 44.4423 1163.26 44.154 1163.26 43.7936C1163.19 43.4332 1163.11 43.217 1162.97 43.0008C1162.83 42.8566 1162.76 42.7125 1162.61 42.7125C1162.54 42.6404 1162.4 42.6404 1162.33 42.7125C1162.12 42.7125 1161.83 42.7125 1161.55 42.7845C1161.26 42.7845 1160.98 42.7125 1160.83 42.5683C1160.69 42.4962 1160.62 42.3521 1160.55 42.2079C1160.55 41.8475 1160.62 41.5592 1160.9 41.343C1161.12 41.1268 1161.4 40.9106 1161.69 40.9106C1161.83 40.8385 1161.97 40.8385 1162.04 40.8385H1162.47C1162.54 40.8385 1162.61 40.7664 1162.69 40.6943C1162.9 40.4781 1162.97 40.1898 1162.83 39.7574C1162.76 39.3249 1162.69 39.0366 1162.54 38.8204C1162.4 38.6762 1162.19 38.5321 1162.04 38.5321C1160.9 38.3879 1159.98 38.6762 1159.19 39.2528Z" fill="#BBBBBB"/>
<path d="M1205.38 39.9015C1205.45 39.6132 1205.38 39.2528 1205.31 39.0366C1205.23 38.7483 1205.09 38.6041 1204.95 38.6041C1204.59 38.5321 1204.02 38.5321 1203.38 38.5321H1201.46C1200.82 38.6041 1200.25 38.6041 1199.75 38.6762C1199.32 38.6762 1199.03 38.7483 1198.89 38.8204C1198.89 38.8204 1198.82 38.9645 1198.82 39.1808V39.9015C1198.82 40.1177 1198.89 40.406 1198.89 40.6223C1198.89 40.9106 1198.96 41.0547 1199.03 41.1268C1199.03 41.2709 1199.25 41.2709 1199.53 41.343C1199.89 41.343 1200.25 41.4151 1200.6 41.4151C1200.67 42.2079 1200.74 43.0728 1200.89 43.8657C1200.96 44.6585 1201.1 45.0909 1201.17 45.163C1201.31 45.163 1201.46 45.2351 1201.67 45.2351C1201.89 45.3072 1202.17 45.3072 1202.31 45.3072C1202.6 45.2351 1202.81 45.2351 1202.95 45.163C1203.17 45.163 1203.24 45.163 1203.24 45.0909C1203.38 44.9468 1203.45 44.5143 1203.45 43.7215C1203.52 43.0008 1203.52 42.1358 1203.6 41.343C1203.88 41.343 1204.17 41.343 1204.38 41.2709H1204.88C1205.02 41.2709 1205.16 41.1268 1205.23 40.8385C1205.31 40.5502 1205.38 40.2619 1205.38 39.9015Z" fill="#BBBBBB"/>
<path d="M1193.33 37.9555C1193.9 37.6672 1194.19 37.4509 1194.47 37.2347C1194.54 37.2347 1194.54 37.0906 1194.47 36.9464C1194.4 36.8023 1194.33 36.586 1194.19 36.4419C1194.12 36.2977 1194.05 36.1536 1193.9 36.0094C1193.76 35.8653 1193.69 35.7932 1193.62 35.8653C1193.55 35.8653 1193.4 35.9374 1193.19 36.0815C1192.98 36.1536 1192.76 36.2977 1192.55 36.4419C1192.33 36.586 1192.12 36.7302 1191.98 36.9464C1191.84 37.0906 1191.76 37.1626 1191.84 37.2347C1191.84 37.3789 1191.98 37.5951 1192.12 37.8113C1192.26 38.0275 1192.41 38.1717 1192.48 38.1717C1192.55 38.2438 1192.83 38.1717 1193.33 37.9555Z" fill="#BBBBBB"/>
<path d="M1194.33 40.6223C1194.69 40.6223 1194.9 40.5502 1194.9 40.406C1194.97 40.2619 1194.97 39.9015 1194.97 39.4691C1194.97 39.0366 1194.9 38.7483 1194.83 38.6762C1194.76 38.6041 1194.54 38.6041 1194.12 38.5321H1192.69C1192.19 38.5321 1191.69 38.5321 1191.27 38.6041C1190.84 38.6041 1190.62 38.6762 1190.55 38.6762C1190.41 38.8204 1190.34 39.1808 1190.27 39.8294V41.9917C1190.34 42.7845 1190.41 43.5053 1190.41 44.0819C1190.55 44.8026 1190.62 45.163 1190.7 45.163C1190.84 45.2351 1191.12 45.2351 1191.62 45.3072C1192.12 45.3072 1192.62 45.3072 1193.19 45.2351C1193.69 45.2351 1194.19 45.163 1194.62 45.163C1195.04 45.0909 1195.26 44.9468 1195.26 44.8747C1195.33 44.6585 1195.4 44.2981 1195.33 43.7936C1195.33 43.2891 1195.26 43.0008 1195.19 43.0008C1195.04 42.8566 1194.83 42.8566 1194.4 42.8566C1194.05 42.9287 1193.55 42.9287 1193.05 42.9287V42.7125C1193.48 42.6404 1193.76 42.6404 1193.9 42.5683C1193.97 42.5683 1194.05 42.4962 1194.05 42.3521V41.8475C1194.05 41.6313 1193.97 41.4872 1193.97 41.2709C1193.9 41.1268 1193.83 41.0547 1193.83 41.0547C1193.62 40.9826 1193.33 40.9826 1192.98 40.9106V40.6943C1193.48 40.6943 1193.9 40.6943 1194.33 40.6223Z" fill="#BBBBBB"/>
<path d="M1189.13 40.8385C1189.2 40.8385 1189.34 40.7664 1189.41 40.6943C1189.63 40.4781 1189.63 40.1898 1189.56 39.7574C1189.48 39.3249 1189.41 39.0366 1189.2 38.8204C1189.06 38.6762 1188.91 38.5321 1188.7 38.5321C1187.63 38.3879 1186.63 38.6762 1185.92 39.2528C1185.21 39.9015 1184.71 40.7664 1184.64 41.8475C1184.57 42.5683 1184.71 43.217 1185.07 43.7215C1185.35 44.226 1185.78 44.6585 1186.42 44.9468C1186.85 45.163 1187.42 45.3072 1187.99 45.3072C1188.56 45.3072 1189.06 45.163 1189.56 45.0189C1189.7 44.9468 1189.77 44.8747 1189.91 44.6585C1189.98 44.4423 1189.98 44.154 1189.91 43.7936C1189.91 43.4332 1189.77 43.217 1189.63 43.0008C1189.56 42.8566 1189.48 42.7125 1189.34 42.7125C1189.2 42.6404 1189.13 42.6404 1188.99 42.7125C1188.77 42.7125 1188.56 42.7125 1188.2 42.7845C1187.92 42.7845 1187.7 42.7125 1187.49 42.5683C1187.42 42.4962 1187.35 42.3521 1187.27 42.2079C1187.2 41.8475 1187.35 41.5592 1187.56 41.343C1187.84 41.1268 1188.06 40.9106 1188.41 40.9106C1188.56 40.8385 1188.63 40.8385 1188.77 40.8385H1189.13Z" fill="#BBBBBB"/>
<path d="M1196.97 50.0642C1196.9 50.2804 1196.9 50.7128 1196.82 51.3615C1196.82 52.0102 1196.82 52.6589 1196.9 53.3796C1196.9 54.0283 1196.9 54.677 1196.97 55.2536C1197.04 55.8302 1197.11 56.1185 1197.18 56.1185C1197.32 56.1906 1197.54 56.1906 1197.82 56.2626H1200.39C1200.89 56.1906 1201.31 55.9743 1201.67 55.686C1202.03 55.3257 1202.24 54.8932 1202.38 54.4608C1202.46 54.0283 1202.46 53.6679 1202.31 53.3075C1202.17 52.9472 1201.96 52.6589 1201.6 52.3706H1201.53C1201.81 51.9381 1201.89 51.4336 1201.74 50.857C1201.6 50.3525 1201.24 49.9921 1200.74 49.7759C1200.39 49.6317 1199.96 49.4875 1199.53 49.4875H1198.32C1197.97 49.4875 1197.68 49.6317 1197.39 49.7038C1197.11 49.7759 1196.97 49.92 1196.97 50.0642ZM1199.18 51.9381C1199.11 51.9381 1199.03 51.794 1199.03 51.5777C1198.96 51.4336 1199.03 51.2174 1199.03 51.0732C1199.03 51.0011 1199.18 51.0011 1199.32 51.0011C1199.53 51.0011 1199.68 51.0732 1199.75 51.1453C1199.89 51.2174 1199.89 51.2894 1199.89 51.4336C1199.89 51.5777 1199.82 51.7219 1199.68 51.866C1199.53 51.9381 1199.32 52.0102 1199.18 51.9381ZM1199.03 53.8842C1199.03 53.5958 1199.03 53.4517 1199.18 53.3796C1199.39 53.3075 1199.53 53.3075 1199.82 53.4517C1200.03 53.5238 1200.17 53.74 1200.17 53.9562C1200.25 54.2445 1200.1 54.4608 1199.75 54.5328C1199.39 54.6049 1199.18 54.6049 1199.11 54.4608C1199.03 54.3166 1199.03 54.1004 1199.03 53.8842Z" fill="#BBBBBB"/>
<path d="M1194.26 52.803V50.5687C1194.26 50.2083 1194.26 49.92 1194.19 49.7759C1194.19 49.7038 1194.05 49.6317 1193.83 49.5596C1193.55 49.5596 1193.26 49.4875 1192.9 49.4875C1192.62 49.4875 1192.33 49.5596 1192.05 49.6317C1191.76 49.6317 1191.62 49.7038 1191.62 49.8479C1191.62 50.0642 1191.55 50.4966 1191.55 51.0732C1191.55 51.7219 1191.55 52.3706 1191.62 53.0913C1191.62 53.74 1191.62 54.3887 1191.69 54.9653C1191.76 55.5419 1191.84 55.9023 1191.91 55.9743C1191.98 56.1185 1192.26 56.1906 1192.69 56.1906C1193.12 56.2626 1193.55 56.2626 1194.05 56.2626C1194.54 56.2626 1195.04 56.2626 1195.47 56.1906C1195.97 56.1906 1196.25 56.1185 1196.4 56.1185C1196.47 56.0464 1196.54 55.9743 1196.54 55.686C1196.61 55.3977 1196.61 55.1094 1196.61 54.8211C1196.54 54.4608 1196.54 54.1725 1196.47 53.8842C1196.4 53.6679 1196.33 53.5238 1196.18 53.4517H1195.19C1194.97 53.5238 1194.76 53.5238 1194.62 53.5238C1194.4 53.4517 1194.33 53.4517 1194.33 53.3796C1194.33 53.3075 1194.33 53.1634 1194.26 52.803Z" fill="#BBBBBB"/>
<path d="M1191.05 53.3796C1191.27 52.2985 1191.05 51.4336 1190.41 50.7128C1189.84 49.9921 1188.99 49.5596 1187.92 49.4875C1186.99 49.4155 1186.28 49.6317 1185.56 50.2083C1184.92 50.7849 1184.49 51.5057 1184.35 52.3706C1184.21 53.3075 1184.42 54.1004 1184.92 54.8932C1185.49 55.614 1186.28 56.0464 1187.13 56.1906C1188.13 56.3347 1188.99 56.1906 1189.7 55.614C1190.48 55.0374 1190.91 54.3166 1191.05 53.3796ZM1188.41 52.3706C1188.56 52.5147 1188.63 52.7309 1188.56 53.0192C1188.56 53.1634 1188.49 53.3075 1188.34 53.5238C1188.2 53.6679 1187.99 53.6679 1187.84 53.74C1187.56 53.74 1187.35 53.6679 1187.13 53.4517C1186.92 53.2355 1186.85 53.0192 1186.85 52.7309C1186.92 52.5147 1186.99 52.2985 1187.2 52.1543C1187.42 52.0102 1187.63 52.0102 1187.84 52.0102C1188.13 52.0823 1188.27 52.1543 1188.41 52.3706Z" fill="#BBBBBB"/>
<path d="M1205.95 51.5057V49.92C1205.88 49.7758 1205.73 49.6317 1205.45 49.5596C1205.09 49.4875 1204.81 49.4875 1204.38 49.4875C1204.02 49.4875 1203.74 49.5596 1203.38 49.6317C1203.1 49.7038 1202.95 49.8479 1202.95 49.9921C1202.88 50.2083 1202.88 50.7128 1202.95 51.3615C1202.95 51.9381 1203.03 52.6589 1203.1 53.3075C1203.17 54.0283 1203.17 54.677 1203.31 55.2536C1203.38 55.8302 1203.52 56.1185 1203.6 56.1185C1203.81 56.2626 1204.24 56.2626 1204.74 56.2626C1205.31 56.2626 1205.59 56.1906 1205.66 56.0464C1205.73 55.9743 1205.8 55.686 1205.8 55.1815C1205.88 54.677 1205.95 54.1004 1205.95 53.4517V51.5057Z" fill="#BBBBBB"/>
<path d="M1181 38.5321C1180.08 38.3879 1179.36 38.6762 1178.65 39.2528C1178.01 39.8294 1177.58 40.5502 1177.44 41.343C1177.3 42.28 1177.51 43.1449 1178.01 43.8657C1178.58 44.5864 1179.36 45.0909 1180.22 45.2351C1181.22 45.3792 1182.07 45.163 1182.86 44.5864C1183.57 44.0819 1184 43.2891 1184.14 42.3521C1184.35 41.343 1184.14 40.4781 1183.5 39.7574C1182.93 39.0366 1182.07 38.6041 1181 38.5321ZM1181.5 41.343C1181.64 41.5592 1181.72 41.7755 1181.64 41.9917C1181.64 42.2079 1181.57 42.3521 1181.43 42.4962C1181.29 42.6404 1181.07 42.7125 1180.93 42.7125C1180.65 42.7845 1180.43 42.7125 1180.22 42.4962C1180 42.28 1179.93 41.9917 1179.93 41.7755C1180 41.5592 1180.08 41.343 1180.29 41.1989C1180.5 41.0547 1180.72 40.9826 1180.93 41.0547C1181.22 41.0547 1181.36 41.1989 1181.5 41.343Z" fill="#BBBBBB"/>
<path d="M1177.15 40.4781C1177.15 39.8294 1177.15 39.2528 1177.08 38.8204C1177.08 38.7483 1176.94 38.6762 1176.66 38.6041C1176.44 38.5321 1176.09 38.5321 1175.8 38.5321C1175.51 38.5321 1175.23 38.5321 1174.94 38.6762C1174.73 38.7483 1174.52 38.8204 1174.52 38.9645V39.5411C1174.52 39.7574 1174.52 40.0457 1174.59 40.334C1174.45 40.1177 1174.23 39.8294 1173.95 39.4691C1173.59 39.0366 1173.38 38.8204 1173.16 38.6762C1173.02 38.6762 1172.81 38.6041 1172.59 38.6041C1172.31 38.5321 1172.09 38.5321 1171.81 38.5321C1171.59 38.5321 1171.38 38.6041 1171.17 38.6041C1170.95 38.6762 1170.88 38.7483 1170.88 38.8204C1170.74 39.2528 1170.74 39.7574 1170.74 40.4781V42.4241C1170.74 43.0728 1170.74 43.6494 1170.81 44.154C1170.88 44.6585 1170.95 44.9468 1170.95 45.0909C1171.02 45.163 1171.31 45.2351 1171.88 45.3072C1172.38 45.3072 1172.74 45.2351 1172.95 45.163C1173.02 45.163 1173.09 44.9468 1173.16 44.5143C1173.16 44.154 1173.23 43.7215 1173.31 43.217C1173.31 43.217 1173.45 43.3611 1173.59 43.5774C1173.73 43.7936 1173.88 44.0098 1174.09 44.226C1174.3 44.4423 1174.52 44.5864 1174.73 44.8026C1174.87 45.0189 1175.09 45.163 1175.16 45.163C1175.23 45.2351 1175.3 45.2351 1175.51 45.2351C1175.73 45.3072 1175.94 45.3072 1176.09 45.3072C1176.3 45.2351 1176.51 45.2351 1176.73 45.2351C1176.87 45.163 1177.01 45.163 1177.01 45.0909C1177.08 44.9468 1177.08 44.7306 1177.15 44.226V40.4781Z" fill="#BBBBBB"/>
<path d="M1167.1 38.5321C1166.18 38.3879 1165.39 38.6762 1164.75 39.2528C1164.04 39.8294 1163.68 40.5502 1163.54 41.343C1163.33 42.28 1163.54 43.1449 1164.11 43.8657C1164.68 44.5864 1165.39 45.0909 1166.32 45.2351C1167.32 45.3792 1168.17 45.163 1168.89 44.5864C1169.6 44.0819 1170.1 43.2891 1170.24 42.3521C1170.38 41.343 1170.17 40.4781 1169.6 39.7574C1168.96 39.0366 1168.17 38.6041 1167.1 38.5321ZM1166.04 41.7755C1166.04 41.5592 1166.18 41.343 1166.32 41.1989C1166.53 41.0547 1166.75 40.9826 1166.96 41.0547C1167.25 41.0547 1167.46 41.1989 1167.6 41.343C1167.75 41.5592 1167.75 41.7755 1167.75 41.9917C1167.68 42.2079 1167.6 42.3521 1167.46 42.4962C1167.32 42.6404 1167.18 42.7125 1166.96 42.7125C1166.68 42.7845 1166.46 42.7125 1166.25 42.4962C1166.04 42.28 1165.96 41.9917 1166.04 41.7755Z" fill="#BBBBBB"/>
<path d="M1175.09 49.8479C1174.94 49.9921 1174.73 50.1362 1174.59 50.3525C1174.45 50.5687 1174.3 50.7128 1174.16 50.9291C1174.02 51.1453 1174.02 51.2894 1174.02 51.3615C1174.02 51.5057 1174.23 51.794 1174.66 52.2985C1175.02 52.7309 1175.51 53.2355 1176.01 53.74C1176.09 54.3887 1176.16 54.8932 1176.3 55.3977C1176.37 55.9023 1176.44 56.1185 1176.58 56.1906C1176.58 56.2626 1176.73 56.2626 1176.94 56.2626H1177.65C1177.87 56.2626 1178.08 56.2626 1178.29 56.1906C1178.51 56.1906 1178.58 56.1185 1178.65 56.1185C1178.72 56.0464 1178.72 55.7581 1178.86 55.2536C1178.94 54.7491 1179.01 54.1725 1179.01 53.5959C1179.51 53.0913 1179.93 52.6589 1180.36 52.1543C1180.72 51.7219 1180.86 51.4336 1180.93 51.2894C1180.93 51.2174 1180.86 51.0732 1180.79 50.857C1180.65 50.7128 1180.5 50.4966 1180.36 50.3525C1180.15 50.1362 1180 49.9921 1179.79 49.8479C1179.65 49.6317 1179.58 49.6317 1179.43 49.5596C1179.29 49.5596 1179.01 49.7038 1178.65 49.9921C1178.29 50.3525 1177.87 50.7128 1177.44 51.0732C1177.01 50.7128 1176.66 50.3525 1176.3 49.9921C1175.94 49.7038 1175.66 49.5596 1175.44 49.6317C1175.44 49.6317 1175.3 49.7038 1175.09 49.8479Z" fill="#BBBBBB"/>
</g>
<defs>
<clipPath id="clip0_163_204">
<rect width="1440" height="249" fill="white"/>
</clipPath>
<clipPath id="clip1_163_204">
<rect width="129" height="191" fill="white" transform="translate(1150 27)"/>
</clipPath>
</defs>
</svg>
