<svg width="1440" height="249" viewBox="0 0 1440 249" fill="none" xmlns="http://www.w3.org/2000/svg">
<g clip-path="url(#clip0_151_5315)">
<path d="M1172.75 1.59399H1106.59V247.406H1172.75V1.59399Z" fill="#F7F6F5"/>
<path d="M1064.82 1.59399H1041.81V247.406H1106.59V1.59399H1064.82Z" fill="#FBFBFA"/>
<path d="M1307.76 1.59399H1241.6V247.406H1307.76H1372.45V1.59399H1307.76Z" fill="#FBFBFA"/>
<path d="M1241.6 1.59399H1172.75V247.406H1241.6V1.59399Z" fill="#FBFBFA"/>
<path d="M1438.61 82.6811V1.59399H1372.45V247.406H1438.61V82.6811Z" fill="#F7F6F5"/>
<path d="M1041.81 247.406V1.59399H975.648V247.406H1041.81Z" fill="#F7F6F5"/>
<path d="M523.031 180.985V247.406H589.196V1.59399H523.031V180.985Z" fill="#FBFBFA"/>
<path d="M523.031 202.346V1.59399H454.095V247.406H523.031V202.346Z" fill="#F7F6F5"/>
<path d="M720.046 1.59399V247.406H786.211V1.59399H720.046Z" fill="#FBFBFA"/>
<path d="M653.882 1.59399V247.406H720.046V1.59399H653.882Z" fill="#F7F6F5"/>
<path d="M653.882 25.2931V1.59399H589.196V247.406H653.882V25.2931Z" fill="#FBFBFA"/>
<path d="M850.896 1.59399H786.211V247.406H850.896H917.061V1.59399H850.896Z" fill="#FBFBFA"/>
<path d="M975.648 1.59399H917.061V247.406H975.648V1.59399Z" fill="#F7F6F5"/>
<path d="M39.5508 1.59399H1.38611V247.406H67.5505V1.59399H39.5508Z" fill="#FBFBFA"/>
<path d="M198.493 1.59399H132.236V247.406H198.493V1.59399Z" fill="#FBFBFA"/>
<path d="M132.236 202.452V1.59399H67.5505V247.406H132.236V202.452Z" fill="#F7F6F5"/>
<path d="M257.08 1.59399H198.493V247.406H257.08V1.59399Z" fill="#F7F6F5"/>
<path d="M323.245 1.59399H257.08V247.406H323.245H387.93V1.59399H323.245Z" fill="#FBFBFA"/>
<path d="M454.095 247.406V1.59399H387.93V247.406H454.095Z" fill="#F7F6F5"/>
<path d="M323.245 50.2676C322.478 50.2676 321.858 49.5556 321.858 48.6735V1.59411C321.858 0.712036 322.478 0 323.245 0C324.012 0 324.631 0.712036 324.631 1.59411V48.6735C324.631 49.5556 324.012 50.2676 323.245 50.2676Z" fill="#E3E1E1"/>
<path d="M1064.82 3.18822H1041.81C1041.05 3.18822 1040.43 2.47618 1040.43 1.59411C1040.43 0.712036 1041.05 0 1041.81 0H1064.82C1065.59 0 1066.21 0.712036 1066.21 1.59411C1066.21 2.47618 1065.59 3.18822 1064.82 3.18822Z" fill="#E3E1E1"/>
<path d="M1106.59 3.18822H1082.75C1081.98 3.18822 1081.36 2.47618 1081.36 1.59411C1081.36 0.712036 1081.98 0 1082.75 0H1106.59C1107.36 0 1107.98 0.712036 1107.98 1.59411C1107.98 2.47618 1107.36 3.18822 1106.59 3.18822Z" fill="#E3E1E1"/>
<path d="M1307.76 180.985C1307 180.985 1306.38 180.273 1306.38 179.391V1.59411C1306.38 0.712036 1307 0 1307.76 0C1308.53 0 1309.15 0.712036 1309.15 1.59411V179.391C1309.15 180.273 1308.53 180.985 1307.76 180.985Z" fill="#E3E1E1"/>
<path d="M1307.76 3.18822H1241.6C1240.83 3.18822 1240.21 2.47618 1240.21 1.59411C1240.21 0.712036 1240.83 0 1241.6 0H1307.76C1308.53 0 1309.15 0.712036 1309.15 1.59411C1309.15 2.47618 1308.53 3.18822 1307.76 3.18822Z" fill="#E3E1E1"/>
<path d="M1241.6 3.18822H1172.75C1171.99 3.18822 1171.37 2.47618 1171.37 1.59411C1171.37 0.712036 1171.99 0 1172.75 0H1241.6C1242.37 0 1242.99 0.712036 1242.99 1.59411C1242.99 2.47618 1242.37 3.18822 1241.6 3.18822Z" fill="#E3E1E1"/>
<path d="M1438.61 64.0832C1437.85 64.0832 1437.23 63.3712 1437.23 62.4891V3.18822H1372.45C1371.68 3.18822 1371.06 2.47618 1371.06 1.59411C1371.06 0.712036 1371.68 0 1372.45 0H1438.61C1439.38 0 1440 0.712036 1440 1.59411V62.4891C1440 63.3712 1439.38 64.0832 1438.61 64.0832Z" fill="#E3E1E1"/>
<path d="M1372.45 3.18822H1307.76C1307 3.18822 1306.38 2.47618 1306.38 1.59411C1306.38 0.712036 1307 0 1307.76 0H1372.45C1373.22 0 1373.84 0.712036 1373.84 1.59411C1373.84 2.47618 1373.22 3.18822 1372.45 3.18822Z" fill="#E3E1E1"/>
<path d="M1438.61 249H1372.45C1371.68 249 1371.06 248.288 1371.06 247.406C1371.06 246.524 1371.68 245.812 1372.45 245.812H1437.23V82.6813C1437.23 81.7992 1437.85 81.0872 1438.61 81.0872C1439.38 81.0872 1440 81.7992 1440 82.6813V247.406C1440 248.288 1439.38 249 1438.61 249Z" fill="#E3E1E1"/>
<path d="M1307.76 249H1241.6C1240.83 249 1240.21 248.288 1240.21 247.406C1240.21 246.524 1240.83 245.812 1241.6 245.812H1307.76C1308.53 245.812 1309.15 246.524 1309.15 247.406C1309.15 248.288 1308.53 249 1307.76 249Z" fill="#E3E1E1"/>
<path d="M1172.75 249H1106.59C1105.82 249 1105.2 248.288 1105.2 247.406C1105.2 246.524 1105.82 245.812 1106.59 245.812H1172.75C1173.52 245.812 1174.14 246.524 1174.14 247.406C1174.14 248.288 1173.52 249 1172.75 249Z" fill="#E3E1E1"/>
<path d="M1106.59 249H1041.81C1041.05 249 1040.43 248.288 1040.43 247.406C1040.43 246.524 1041.05 245.812 1041.81 245.812H1106.59C1107.36 245.812 1107.98 246.524 1107.98 247.406C1107.98 248.288 1107.36 249 1106.59 249Z" fill="#E3E1E1"/>
<path d="M1241.6 249H1172.75C1171.99 249 1171.37 248.288 1171.37 247.406C1171.37 246.524 1171.99 245.812 1172.75 245.812H1241.6C1242.37 245.812 1242.99 246.524 1242.99 247.406C1242.99 248.288 1242.37 249 1241.6 249Z" fill="#E3E1E1"/>
<path d="M1372.45 249H1307.76C1307 249 1306.38 248.288 1306.38 247.406C1306.38 246.524 1307 245.812 1307.76 245.812H1372.45C1373.22 245.812 1373.84 246.524 1373.84 247.406C1373.84 248.288 1373.22 249 1372.45 249Z" fill="#E3E1E1"/>
<path d="M1372.45 249C1371.68 249 1371.06 248.288 1371.06 247.406V1.59411C1371.06 0.712036 1371.68 0 1372.45 0C1373.22 0 1373.84 0.712036 1373.84 1.59411V247.406C1373.84 248.288 1373.22 249 1372.45 249Z" fill="#E3E1E1"/>
<path d="M1172.75 249C1171.99 249 1171.37 248.288 1171.37 247.406V1.59411C1171.37 0.712036 1171.99 0 1172.75 0C1173.52 0 1174.14 0.712036 1174.14 1.59411V247.406C1174.14 248.288 1173.52 249 1172.75 249Z" fill="#E3E1E1"/>
<path d="M1241.6 249C1240.83 249 1240.21 248.288 1240.21 247.406V1.59411C1240.21 0.712036 1240.83 0 1241.6 0C1242.37 0 1242.99 0.712036 1242.99 1.59411V247.406C1242.99 248.288 1242.37 249 1241.6 249Z" fill="#E3E1E1"/>
<path d="M1041.81 249C1041.05 249 1040.43 248.288 1040.43 247.406V1.59411C1040.43 0.712036 1041.05 0 1041.81 0C1042.58 0 1043.2 0.712036 1043.2 1.59411V247.406C1043.2 248.288 1042.58 249 1041.81 249Z" fill="#E3E1E1"/>
<path d="M1106.59 249C1105.82 249 1105.2 248.288 1105.2 247.406V1.59411C1105.2 0.712036 1105.82 0 1106.59 0C1107.36 0 1107.98 0.712036 1107.98 1.59411V247.406C1107.98 248.288 1107.36 249 1106.59 249Z" fill="#E3E1E1"/>
<path d="M1307.76 249C1307 249 1306.38 248.288 1306.38 247.406V202.664C1306.38 201.782 1307 201.07 1307.76 201.07C1308.53 201.07 1309.15 201.782 1309.15 202.664V247.406C1309.15 248.288 1308.53 249 1307.76 249Z" fill="#E3E1E1"/>
<path d="M523.032 182.579C522.265 182.579 521.645 181.867 521.645 180.985V1.59411C521.645 0.712036 522.265 0 523.032 0C523.799 0 524.418 0.712036 524.418 1.59411V180.985C524.418 181.867 523.799 182.579 523.032 182.579Z" fill="#E3E1E1"/>
<path d="M523.032 3.18822H454.095C453.328 3.18822 452.709 2.47618 452.709 1.59411C452.709 0.712036 453.328 0 454.095 0H523.032C523.798 0 524.418 0.712036 524.418 1.59411C524.418 2.47618 523.798 3.18822 523.032 3.18822Z" fill="#E3E1E1"/>
<path d="M786.211 3.18822H720.046C719.279 3.18822 718.66 2.47618 718.66 1.59411C718.66 0.712036 719.279 0 720.046 0H786.211C786.978 0 787.597 0.712036 787.597 1.59411C787.597 2.47618 786.978 3.18822 786.211 3.18822Z" fill="#E3E1E1"/>
<path d="M653.882 26.8873C653.115 26.8873 652.496 26.1753 652.496 25.2932V1.59411C652.496 0.712036 653.115 0 653.882 0C654.649 0 655.268 0.712036 655.268 1.59411V25.2932C655.268 26.1753 654.649 26.8873 653.882 26.8873Z" fill="#E3E1E1"/>
<path d="M653.882 3.18822H589.196C588.429 3.18822 587.81 2.47618 587.81 1.59411C587.81 0.712036 588.429 0 589.196 0H653.882C654.649 0 655.268 0.712036 655.268 1.59411C655.268 2.47618 654.649 3.18822 653.882 3.18822Z" fill="#E3E1E1"/>
<path d="M720.046 3.18822H653.882C653.115 3.18822 652.496 2.47618 652.496 1.59411C652.496 0.712036 653.115 0 653.882 0H720.046C720.813 0 721.432 0.712036 721.432 1.59411C721.432 2.47618 720.813 3.18822 720.046 3.18822Z" fill="#E3E1E1"/>
<path d="M589.196 3.18822H523.032C522.265 3.18822 521.645 2.47618 521.645 1.59411C521.645 0.712036 522.265 0 523.032 0H589.196C589.963 0 590.582 0.712036 590.582 1.59411C590.582 2.47618 589.963 3.18822 589.196 3.18822Z" fill="#E3E1E1"/>
<path d="M850.896 200.114C850.129 200.114 849.51 199.402 849.51 198.52V1.59411C849.51 0.712036 850.129 0 850.896 0C851.663 0 852.283 0.712036 852.283 1.59411V198.52C852.283 199.402 851.663 200.114 850.896 200.114Z" fill="#E3E1E1"/>
<path d="M850.896 3.18822H786.211C785.444 3.18822 784.824 2.47618 784.824 1.59411C784.824 0.712036 785.444 0 786.211 0H850.896C851.663 0 852.283 0.712036 852.283 1.59411C852.283 2.47618 851.663 3.18822 850.896 3.18822Z" fill="#E3E1E1"/>
<path d="M975.648 3.18822H917.061C916.294 3.18822 915.675 2.47618 915.675 1.59411C915.675 0.712036 916.294 0 917.061 0H975.648C976.415 0 977.034 0.712036 977.034 1.59411C977.034 2.47618 976.415 3.18822 975.648 3.18822Z" fill="#E3E1E1"/>
<path d="M917.061 3.18822H850.896C850.129 3.18822 849.51 2.47618 849.51 1.59411C849.51 0.712036 850.129 0 850.896 0H917.061C917.828 0 918.447 0.712036 918.447 1.59411C918.447 2.47618 917.828 3.18822 917.061 3.18822Z" fill="#E3E1E1"/>
<path d="M67.5505 249H1.38613C0.619136 249 0 248.288 0 247.406V1.59411C0 0.712036 0.619136 0 1.38613 0H20.8843C21.6513 0 22.2704 0.712036 22.2704 1.59411C22.2704 2.47618 21.6513 3.18822 20.8843 3.18822H2.77225V245.812H67.5505C68.3175 245.812 68.9367 246.524 68.9367 247.406C68.9367 248.288 68.3175 249 67.5505 249Z" fill="#E3E1E1"/>
<path d="M67.5505 3.18822H39.5508C38.7838 3.18822 38.1647 2.47618 38.1647 1.59411C38.1647 0.712036 38.7838 0 39.5508 0H67.5505C68.3175 0 68.9367 0.712036 68.9367 1.59411C68.9367 2.47618 68.3175 3.18822 67.5505 3.18822Z" fill="#E3E1E1"/>
<path d="M198.493 3.18822H132.236C131.469 3.18822 130.85 2.47618 130.85 1.59411C130.85 0.712036 131.469 0 132.236 0H198.493C199.26 0 199.879 0.712036 199.879 1.59411C199.879 2.47618 199.26 3.18822 198.493 3.18822Z" fill="#E3E1E1"/>
<path d="M132.236 204.046C131.469 204.046 130.85 203.334 130.85 202.452V1.59411C130.85 0.712036 131.469 0 132.236 0C133.003 0 133.623 0.712036 133.623 1.59411V202.452C133.623 203.334 133.003 204.046 132.236 204.046Z" fill="#E3E1E1"/>
<path d="M257.08 3.18822H198.493C197.726 3.18822 197.107 2.47618 197.107 1.59411C197.107 0.712036 197.726 0 198.493 0H257.08C257.847 0 258.466 0.712036 258.466 1.59411C258.466 2.47618 257.847 3.18822 257.08 3.18822Z" fill="#E3E1E1"/>
<path d="M1172.75 3.18822H1106.59C1105.82 3.18822 1105.2 2.47618 1105.2 1.59411C1105.2 0.712036 1105.82 0 1106.59 0H1172.75C1173.52 0 1174.14 0.712036 1174.14 1.59411C1174.14 2.47618 1173.52 3.18822 1172.75 3.18822Z" fill="#E3E1E1"/>
<path d="M387.93 3.18822H323.245C322.478 3.18822 321.858 2.47618 321.858 1.59411C321.858 0.712036 322.478 0 323.245 0H387.93C388.697 0 389.317 0.712036 389.317 1.59411C389.317 2.47618 388.697 3.18822 387.93 3.18822Z" fill="#E3E1E1"/>
<path d="M323.245 3.18822H257.08C256.313 3.18822 255.694 2.47618 255.694 1.59411C255.694 0.712036 256.313 0 257.08 0H323.245C324.012 0 324.631 0.712036 324.631 1.59411C324.631 2.47618 324.012 3.18822 323.245 3.18822Z" fill="#E3E1E1"/>
<path d="M132.236 3.18822H67.5506C66.7836 3.18822 66.1644 2.47618 66.1644 1.59411C66.1644 0.712036 66.7836 0 67.5506 0H132.236C133.003 0 133.623 0.712036 133.623 1.59411C133.623 2.47618 133.003 3.18822 132.236 3.18822Z" fill="#E3E1E1"/>
<path d="M387.93 249H323.245C322.478 249 321.858 248.288 321.858 247.406C321.858 246.524 322.478 245.812 323.245 245.812H387.93C388.697 245.812 389.317 246.524 389.317 247.406C389.317 248.288 388.697 249 387.93 249Z" fill="#E3E1E1"/>
<path d="M132.236 249C131.469 249 130.85 248.288 130.85 247.406V225.195C130.85 224.313 131.469 223.601 132.236 223.601C133.003 223.601 133.623 224.313 133.623 225.195V247.406C133.623 248.288 133.003 249 132.236 249Z" fill="#E3E1E1"/>
<path d="M198.493 249H132.236C131.469 249 130.85 248.288 130.85 247.406C130.85 246.524 131.469 245.812 132.236 245.812H198.493C199.26 245.812 199.879 246.524 199.879 247.406C199.879 248.288 199.26 249 198.493 249Z" fill="#E3E1E1"/>
<path d="M257.08 249H198.493C197.726 249 197.107 248.288 197.107 247.406C197.107 246.524 197.726 245.812 198.493 245.812H257.08C257.847 245.812 258.466 246.524 258.466 247.406C258.466 248.288 257.847 249 257.08 249Z" fill="#E3E1E1"/>
<path d="M323.245 249H257.08C256.313 249 255.694 248.288 255.694 247.406C255.694 246.524 256.313 245.812 257.08 245.812H323.245C324.012 245.812 324.631 246.524 324.631 247.406C324.631 248.288 324.012 249 323.245 249Z" fill="#E3E1E1"/>
<path d="M132.236 249H67.5506C66.7836 249 66.1644 248.288 66.1644 247.406C66.1644 246.524 66.7836 245.812 67.5506 245.812H132.236C133.003 245.812 133.623 246.524 133.623 247.406C133.623 248.288 133.003 249 132.236 249Z" fill="#E3E1E1"/>
<path d="M975.648 249H917.061C916.294 249 915.675 248.288 915.675 247.406C915.675 246.524 916.294 245.812 917.061 245.812H975.648C976.415 245.812 977.034 246.524 977.034 247.406C977.034 248.288 976.415 249 975.648 249Z" fill="#E3E1E1"/>
<path d="M850.896 249C850.129 249 849.51 248.288 849.51 247.406V219.881C849.51 218.999 850.129 218.287 850.896 218.287C851.663 218.287 852.283 218.999 852.283 219.881V247.406C852.283 248.288 851.663 249 850.896 249Z" fill="#E3E1E1"/>
<path d="M850.896 249H786.211C785.444 249 784.824 248.288 784.824 247.406C784.824 246.524 785.444 245.812 786.211 245.812H850.896C851.663 245.812 852.283 246.524 852.283 247.406C852.283 248.288 851.663 249 850.896 249Z" fill="#E3E1E1"/>
<path d="M917.061 249H850.896C850.129 249 849.51 248.288 849.51 247.406C849.51 246.524 850.129 245.812 850.896 245.812H917.061C917.828 245.812 918.447 246.524 918.447 247.406C918.447 248.288 917.828 249 917.061 249Z" fill="#E3E1E1"/>
<path d="M786.211 249H720.046C719.279 249 718.66 248.288 718.66 247.406C718.66 246.524 719.279 245.812 720.046 245.812H786.211C786.978 245.812 787.597 246.524 787.597 247.406C787.597 248.288 786.978 249 786.211 249Z" fill="#E3E1E1"/>
<path d="M653.882 249H589.196C588.429 249 587.81 248.288 587.81 247.406C587.81 246.524 588.429 245.812 589.196 245.812H653.882C654.649 245.812 655.268 246.524 655.268 247.406C655.268 248.288 654.649 249 653.882 249Z" fill="#E3E1E1"/>
<path d="M720.046 249H653.882C653.115 249 652.496 248.288 652.496 247.406C652.496 246.524 653.115 245.812 653.882 245.812H720.046C720.813 245.812 721.432 246.524 721.432 247.406C721.432 248.288 720.813 249 720.046 249Z" fill="#E3E1E1"/>
<path d="M523.032 249H454.095C453.328 249 452.709 248.288 452.709 247.406C452.709 246.524 453.328 245.812 454.095 245.812H523.032C523.798 245.812 524.418 246.524 524.418 247.406C524.418 248.288 523.798 249 523.032 249Z" fill="#E3E1E1"/>
<path d="M589.196 249H523.032C522.265 249 521.645 248.288 521.645 247.406C521.645 246.524 522.265 245.812 523.032 245.812H589.196C589.963 245.812 590.582 246.524 590.582 247.406C590.582 248.288 589.963 249 589.196 249Z" fill="#E3E1E1"/>
<path d="M917.061 249C916.294 249 915.675 248.288 915.675 247.406V1.59411C915.675 0.712036 916.294 0 917.061 0C917.828 0 918.447 0.712036 918.447 1.59411V247.406C918.447 248.288 917.828 249 917.061 249Z" fill="#E3E1E1"/>
<path d="M975.648 249C974.881 249 974.262 248.288 974.262 247.406V1.59411C974.262 0.712036 974.881 0 975.648 0C976.415 0 977.034 0.712036 977.034 1.59411V247.406C977.034 248.288 976.415 249 975.648 249Z" fill="#E3E1E1"/>
<path d="M720.046 249C719.279 249 718.66 248.288 718.66 247.406V1.59411C718.66 0.712036 719.279 0 720.046 0C720.813 0 721.432 0.712036 721.432 1.59411V247.406C721.432 248.288 720.813 249 720.046 249Z" fill="#E3E1E1"/>
<path d="M786.211 249C785.444 249 784.824 248.288 784.824 247.406V1.59411C784.824 0.712036 785.444 0 786.211 0C786.978 0 787.597 0.712036 787.597 1.59411V247.406C787.597 248.288 786.978 249 786.211 249Z" fill="#E3E1E1"/>
<path d="M589.196 249C588.429 249 587.81 248.288 587.81 247.406V1.59411C587.81 0.712036 588.429 0 589.196 0C589.963 0 590.582 0.712036 590.582 1.59411V247.406C590.582 248.288 589.963 249 589.196 249Z" fill="#E3E1E1"/>
<path d="M454.095 249C453.328 249 452.709 248.288 452.709 247.406V1.59411C452.709 0.712036 453.328 0 454.095 0C454.862 0 455.481 0.712036 455.481 1.59411V247.406C455.481 248.288 454.862 249 454.095 249Z" fill="#E3E1E1"/>
<path d="M257.08 249C256.313 249 255.694 248.288 255.694 247.406V1.59411C255.694 0.712036 256.313 0 257.08 0C257.847 0 258.466 0.712036 258.466 1.59411V247.406C258.466 248.288 257.847 249 257.08 249Z" fill="#E3E1E1"/>
<path d="M387.93 249C387.163 249 386.544 248.288 386.544 247.406V1.59411C386.544 0.712036 387.163 0 387.93 0C388.697 0 389.317 0.712036 389.317 1.59411V247.406C389.317 248.288 388.697 249 387.93 249Z" fill="#E3E1E1"/>
<path d="M198.493 249C197.726 249 197.107 248.288 197.107 247.406V1.59411C197.107 0.712036 197.726 0 198.493 0C199.26 0 199.879 0.712036 199.879 1.59411V247.406C199.879 248.288 199.26 249 198.493 249Z" fill="#E3E1E1"/>
<path d="M67.5506 249C66.7836 249 66.1644 248.288 66.1644 247.406V1.59411C66.1644 0.712036 66.7836 0 67.5506 0C68.3175 0 68.9367 0.712036 68.9367 1.59411V247.406C68.9367 248.288 68.3175 249 67.5506 249Z" fill="#E3E1E1"/>
<path d="M323.245 249C322.478 249 321.858 248.288 321.858 247.406V69.078C321.858 68.1959 322.478 67.4839 323.245 67.4839C324.012 67.4839 324.631 68.1959 324.631 69.078V247.406C324.631 248.288 324.012 249 323.245 249Z" fill="#E3E1E1"/>
<path d="M653.882 249C653.115 249 652.496 248.288 652.496 247.406V47.8234C652.496 46.9413 653.115 46.2292 653.882 46.2292C654.649 46.2292 655.268 46.9413 655.268 47.8234V247.406C655.268 248.288 654.649 249 653.882 249Z" fill="#E3E1E1"/>
<path d="M523.032 249C522.265 249 521.645 248.288 521.645 247.406V202.346C521.645 201.464 522.265 200.752 523.032 200.752C523.799 200.752 524.418 201.464 524.418 202.346V247.406C524.418 248.288 523.799 249 523.032 249Z" fill="#E3E1E1"/>
<path d="M454.095 3.18822H387.93C387.163 3.18822 386.544 2.47618 386.544 1.59411C386.544 0.712036 387.163 0 387.93 0H454.095C454.862 0 455.481 0.712036 455.481 1.59411C455.481 2.47618 454.862 3.18822 454.095 3.18822Z" fill="#E3E1E1"/>
<path d="M454.095 249H387.93C387.163 249 386.544 248.288 386.544 247.406C386.544 246.524 387.163 245.812 387.93 245.812H454.095C454.862 245.812 455.481 246.524 455.481 247.406C455.481 248.288 454.862 249 454.095 249Z" fill="#E3E1E1"/>
<path d="M1041.81 3.18822H975.648C974.881 3.18822 974.262 2.47618 974.262 1.59411C974.262 0.712036 974.881 0 975.648 0H1041.81C1042.58 0 1043.2 0.712036 1043.2 1.59411C1043.2 2.47618 1042.58 3.18822 1041.81 3.18822Z" fill="#E3E1E1"/>
<path d="M1041.81 249H975.648C974.881 249 974.262 248.288 974.262 247.406C974.262 246.524 974.881 245.812 975.648 245.812H1041.81C1042.58 245.812 1043.2 246.524 1043.2 247.406C1043.2 248.288 1042.58 249 1041.81 249Z" fill="#E3E1E1"/>
</g>
<defs>
<clipPath id="clip0_151_5315">
<rect width="1440" height="249" fill="white"/>
</clipPath>
</defs>
</svg>
