<svg width="375" height="167" viewBox="0 0 375 167" fill="none" xmlns="http://www.w3.org/2000/svg">
<g clip-path="url(#clip0_213_845)">
<path d="M296.141 121.383V165.931H340.434V1.06909H296.141V121.383Z" fill="#FBFBFA"/>
<path d="M296.14 135.71V1.06909H249.991V165.931H296.14V135.71Z" fill="#F7F6F5"/>
<path d="M383.737 16.9637V1.06909H340.434V165.931H383.737V16.9637Z" fill="#FBFBFA"/>
<path d="M78.8802 1.06909H34.5249V165.931H78.8802V1.06909Z" fill="#FBFBFA"/>
<path d="M34.5249 135.781V1.06909H-8.77869V165.931H34.5249V135.781Z" fill="#F7F6F5"/>
<path d="M118.101 1.06909H78.8801V165.931H118.101V1.06909Z" fill="#F7F6F5"/>
<path d="M162.394 1.06909H118.101V165.931H162.394H205.698V1.06909H162.394Z" fill="#FBFBFA"/>
<path d="M249.991 165.931V1.06909H205.698V165.931H249.991Z" fill="#F7F6F5"/>
<path d="M162.394 33.7136C161.881 33.7136 161.466 33.2361 161.466 32.6445V1.06914C161.466 0.47755 161.881 0 162.394 0C162.908 0 163.322 0.47755 163.322 1.06914V32.6445C163.322 33.2361 162.908 33.7136 162.394 33.7136Z" fill="#E3E1E1"/>
<path d="M296.141 122.452C295.627 122.452 295.213 121.975 295.213 121.383V1.06914C295.213 0.47755 295.627 0 296.141 0C296.654 0 297.069 0.47755 297.069 1.06914V121.383C297.069 121.975 296.654 122.452 296.141 122.452Z" fill="#E3E1E1"/>
<path d="M296.141 2.13828H249.991C249.478 2.13828 249.063 1.66073 249.063 1.06914C249.063 0.47755 249.478 0 249.991 0H296.141C296.654 0 297.068 0.47755 297.068 1.06914C297.068 1.66073 296.654 2.13828 296.141 2.13828Z" fill="#E3E1E1"/>
<path d="M383.738 2.13828H340.434C339.92 2.13828 339.506 1.66073 339.506 1.06914C339.506 0.47755 339.92 0 340.434 0H383.738C384.251 0 384.665 0.47755 384.665 1.06914C384.665 1.66073 384.251 2.13828 383.738 2.13828Z" fill="#E3E1E1"/>
<path d="M340.434 2.13828H296.141C295.627 2.13828 295.213 1.66073 295.213 1.06914C295.213 0.47755 295.627 0 296.141 0H340.434C340.947 0 341.362 0.47755 341.362 1.06914C341.362 1.66073 340.947 2.13828 340.434 2.13828Z" fill="#E3E1E1"/>
<path d="M78.8802 2.13828H34.525C34.0115 2.13828 33.597 1.66073 33.597 1.06914C33.597 0.47755 34.0115 0 34.525 0H78.8802C79.3937 0 79.8082 0.47755 79.8082 1.06914C79.8082 1.66073 79.3937 2.13828 78.8802 2.13828Z" fill="#E3E1E1"/>
<path d="M34.525 136.85C34.0115 136.85 33.597 136.373 33.597 135.781V1.06914C33.597 0.47755 34.0115 0 34.525 0C35.0384 0 35.4529 0.47755 35.4529 1.06914V135.781C35.4529 136.373 35.0384 136.85 34.525 136.85Z" fill="#E3E1E1"/>
<path d="M118.101 2.13828H78.8802C78.3667 2.13828 77.9523 1.66073 77.9523 1.06914C77.9523 0.47755 78.3667 0 78.8802 0H118.101C118.614 0 119.029 0.47755 119.029 1.06914C119.029 1.66073 118.614 2.13828 118.101 2.13828Z" fill="#E3E1E1"/>
<path d="M205.698 2.13828H162.394C161.881 2.13828 161.466 1.66073 161.466 1.06914C161.466 0.47755 161.881 0 162.394 0H205.698C206.211 0 206.626 0.47755 206.626 1.06914C206.626 1.66073 206.211 2.13828 205.698 2.13828Z" fill="#E3E1E1"/>
<path d="M162.394 2.13828H118.101C117.587 2.13828 117.173 1.66073 117.173 1.06914C117.173 0.47755 117.587 0 118.101 0H162.394C162.908 0 163.322 0.47755 163.322 1.06914C163.322 1.66073 162.908 2.13828 162.394 2.13828Z" fill="#E3E1E1"/>
<path d="M34.5249 2.13828H-8.77873C-9.29219 2.13828 -9.70667 1.66073 -9.70667 1.06914C-9.70667 0.47755 -9.29219 0 -8.77873 0H34.5249C35.0383 0 35.4528 0.47755 35.4528 1.06914C35.4528 1.66073 35.0383 2.13828 34.5249 2.13828Z" fill="#E3E1E1"/>
<path d="M205.698 167H162.394C161.881 167 161.466 166.523 161.466 165.931C161.466 165.339 161.881 164.862 162.394 164.862H205.698C206.211 164.862 206.626 165.339 206.626 165.931C206.626 166.523 206.211 167 205.698 167Z" fill="#E3E1E1"/>
<path d="M34.525 167C34.0115 167 33.597 166.523 33.597 165.931V151.034C33.597 150.443 34.0115 149.965 34.525 149.965C35.0384 149.965 35.4529 150.443 35.4529 151.034V165.931C35.4529 166.523 35.0384 167 34.525 167Z" fill="#E3E1E1"/>
<path d="M78.8802 167H34.525C34.0115 167 33.597 166.523 33.597 165.931C33.597 165.339 34.0115 164.862 34.525 164.862H78.8802C79.3937 164.862 79.8082 165.339 79.8082 165.931C79.8082 166.523 79.3937 167 78.8802 167Z" fill="#E3E1E1"/>
<path d="M118.101 167H78.8802C78.3667 167 77.9523 166.523 77.9523 165.931C77.9523 165.339 78.3667 164.862 78.8802 164.862H118.101C118.614 164.862 119.029 165.339 119.029 165.931C119.029 166.523 118.614 167 118.101 167Z" fill="#E3E1E1"/>
<path d="M162.394 167H118.101C117.587 167 117.173 166.523 117.173 165.931C117.173 165.339 117.587 164.862 118.101 164.862H162.394C162.908 164.862 163.322 165.339 163.322 165.931C163.322 166.523 162.908 167 162.394 167Z" fill="#E3E1E1"/>
<path d="M34.5249 167H-8.77873C-9.29219 167 -9.70667 166.523 -9.70667 165.931C-9.70667 165.339 -9.29219 164.862 -8.77873 164.862H34.5249C35.0383 164.862 35.4528 165.339 35.4528 165.931C35.4528 166.523 35.0383 167 34.5249 167Z" fill="#E3E1E1"/>
<path d="M383.738 167H340.434C339.92 167 339.506 166.523 339.506 165.931C339.506 165.339 339.92 164.862 340.434 164.862H383.738C384.251 164.862 384.665 165.339 384.665 165.931C384.665 166.523 384.251 167 383.738 167Z" fill="#E3E1E1"/>
<path d="M296.141 167H249.991C249.478 167 249.063 166.523 249.063 165.931C249.063 165.339 249.478 164.862 249.991 164.862H296.141C296.654 164.862 297.068 165.339 297.068 165.931C297.068 166.523 296.654 167 296.141 167Z" fill="#E3E1E1"/>
<path d="M340.434 167H296.141C295.627 167 295.213 166.523 295.213 165.931C295.213 165.339 295.627 164.862 296.141 164.862H340.434C340.947 164.862 341.362 165.339 341.362 165.931C341.362 166.523 340.947 167 340.434 167Z" fill="#E3E1E1"/>
<path d="M340.434 167C339.92 167 339.506 166.522 339.506 165.931V1.06914C339.506 0.47755 339.92 0 340.434 0C340.947 0 341.362 0.47755 341.362 1.06914V165.931C341.362 166.522 340.947 167 340.434 167Z" fill="#E3E1E1"/>
<path d="M249.991 167C249.478 167 249.063 166.522 249.063 165.931V1.06914C249.063 0.47755 249.478 0 249.991 0C250.505 0 250.919 0.47755 250.919 1.06914V165.931C250.919 166.522 250.505 167 249.991 167Z" fill="#E3E1E1"/>
<path d="M118.101 167C117.587 167 117.173 166.522 117.173 165.931V1.06914C117.173 0.47755 117.587 0 118.101 0C118.614 0 119.029 0.47755 119.029 1.06914V165.931C119.029 166.522 118.614 167 118.101 167Z" fill="#E3E1E1"/>
<path d="M205.698 167C205.184 167 204.77 166.522 204.77 165.931V1.06914C204.77 0.47755 205.184 0 205.698 0C206.211 0 206.626 0.47755 206.626 1.06914V165.931C206.626 166.522 206.211 167 205.698 167Z" fill="#E3E1E1"/>
<path d="M78.8802 167C78.3667 167 77.9523 166.522 77.9523 165.931V1.06914C77.9523 0.47755 78.3667 0 78.8802 0C79.3937 0 79.8081 0.47755 79.8081 1.06914V165.931C79.8081 166.522 79.3937 167 78.8802 167Z" fill="#E3E1E1"/>
<path d="M162.394 167C161.881 167 161.466 166.522 161.466 165.931V46.3294C161.466 45.7378 161.881 45.2603 162.394 45.2603C162.908 45.2603 163.322 45.7378 163.322 46.3294V165.931C163.322 166.522 162.908 167 162.394 167Z" fill="#E3E1E1"/>
<path d="M296.141 167C295.627 167 295.213 166.522 295.213 165.931V135.71C295.213 135.118 295.627 134.641 296.141 134.641C296.654 134.641 297.069 135.118 297.069 135.71V165.931C297.069 166.522 296.654 167 296.141 167Z" fill="#E3E1E1"/>
<path d="M249.991 2.13828H205.698C205.184 2.13828 204.77 1.66073 204.77 1.06914C204.77 0.47755 205.184 0 205.698 0H249.991C250.505 0 250.919 0.47755 250.919 1.06914C250.919 1.66073 250.505 2.13828 249.991 2.13828Z" fill="#E3E1E1"/>
<path d="M249.991 167H205.698C205.184 167 204.77 166.523 204.77 165.931C204.77 165.339 205.184 164.862 205.698 164.862H249.991C250.505 164.862 250.919 165.339 250.919 165.931C250.919 166.523 250.505 167 249.991 167Z" fill="#E3E1E1"/>
</g>
<defs>
<clipPath id="clip0_213_845">
<rect width="964" height="167" fill="white" transform="translate(-54)"/>
</clipPath>
</defs>
</svg>
