<svg width="1013" height="1015" viewBox="0 0 1013 1015" fill="none" xmlns="http://www.w3.org/2000/svg">
<g opacity="0.5">
<path d="M994.548 607.846L621.972 976.888C621.221 975.711 620.513 974.758 619.976 973.724C617.027 967.957 613.609 962.478 610.213 956.961C608.018 953.403 605.57 950.036 603.323 946.515C600.796 942.561 597.748 938.932 594.923 935.17C592.223 931.594 589.553 928.004 586.801 924.48C585.407 922.684 583.841 921.014 582.38 919.27C580.439 916.938 578.52 914.583 576.594 912.236C576.402 911.998 576.211 911.759 576.004 911.535C571.558 906.823 567.142 902.081 562.651 897.413C559.387 894.013 556.107 890.628 552.693 887.375C548.4 883.295 543.965 879.369 539.59 875.385C537.454 873.437 535.319 871.49 533.16 869.579C532.081 868.624 530.942 867.743 529.811 866.839C526.188 863.957 522.564 861.089 518.918 858.229C516.774 856.541 514.615 854.854 512.455 853.195C509.682 851.067 506.946 848.901 504.098 846.876C498.653 842.99 493.149 839.193 487.66 835.382C485.78 834.081 483.841 832.884 481.955 831.591C479.203 829.708 476.48 827.78 473.728 825.881C472.411 824.984 471.132 824.006 469.71 823.287C465.001 820.904 460.927 817.552 456.449 814.821C451.261 811.656 446.185 808.292 441.072 805.009C435.884 801.682 430.704 798.361 425.517 795.033C418.28 790.397 411.035 785.768 403.805 781.109C400.416 778.926 397.027 776.742 393.675 774.521C390.575 772.466 387.52 770.336 384.419 768.294C382.71 767.165 380.889 766.192 379.172 765.07C373.378 761.294 367.569 757.548 361.835 753.683C353.763 748.248 345.743 742.747 337.731 737.238C332.345 733.546 326.989 729.794 321.64 726.05C317.157 722.911 312.689 719.773 308.228 716.597C305.254 714.489 302.295 712.367 299.366 710.201C294.973 706.944 290.624 703.642 286.245 700.355C283.028 697.942 279.788 695.552 276.593 693.117C272.851 690.264 269.109 687.41 265.434 684.476C261.759 681.541 258.159 678.503 254.528 675.509C250.906 672.508 247.268 669.522 243.675 666.476C240.548 663.826 237.54 661.028 234.368 658.423C230.428 655.19 226.8 651.603 222.964 648.266C210.39 637.347 199.039 625.187 187.316 613.411C184.11 610.189 181.299 606.561 178.309 603.125C177.955 602.722 177.556 602.364 177.201 601.961C174.47 598.801 171.754 595.626 169.03 592.459C167.443 590.618 165.841 588.792 164.269 586.936C163.088 585.55 161.84 584.2 160.823 582.696C158.656 579.479 156.206 576.469 153.852 573.422C148.6 566.612 143.787 559.501 139.1 552.323C135.902 547.424 133.114 542.252 130.161 537.198C128.969 535.158 127.724 533.156 126.672 531.05C124.18 526.087 121.747 521.095 119.373 516.074C117.426 511.945 115.568 507.772 113.747 503.577C112.749 501.271 111.869 498.922 111.034 496.557C109.503 492.252 107.92 487.969 106.598 483.606C105.027 478.44 103.641 473.222 102.285 468.005C101.061 463.294 99.8883 458.56 98.857 453.804C97.2012 446.136 96.1768 438.36 95.4123 430.563C94.9522 425.877 94.7075 421.155 94.4924 416.448C94.3111 412.432 94.1299 408.4 94.2455 404.385C94.3867 399.68 95.0252 394.984 95.1515 390.279C95.287 385.225 96.216 380.286 97.019 375.339C97.8067 370.466 99.1433 365.685 100.235 360.865C101.517 355.208 103.48 349.762 105.502 344.346C107.577 338.789 109.86 333.336 112.535 328.027C115.39 322.377 118.215 316.713 121.699 311.429C124.922 306.553 128.329 301.804 131.744 297.063C134.404 293.364 137.411 289.942 140.345 286.46C142.816 283.525 145.634 280.985 148.201 278.176C148.969 277.341 149.649 276.432 150.373 275.552C150.619 275.263 150.843 274.953 151.127 274.702C153.102 272.922 155.063 271.128 157.083 269.393C159.729 267.112 162.397 264.869 165.101 262.662C167.329 260.839 169.587 259.032 171.882 257.291C174.549 255.27 177.201 253.234 179.971 251.376C184.2 248.531 188.422 245.679 192.829 243.117C198.873 239.598 204.968 236.131 211.402 233.348C215.939 231.381 220.44 229.316 225.006 227.423C229.424 225.588 233.842 223.724 238.377 222.232C244.079 220.351 249.884 218.768 255.681 217.192C259.776 216.076 263.908 215.072 268.061 214.193C271.627 213.438 275.245 212.929 278.847 212.359C281.551 211.927 284.262 211.532 286.98 211.218C290.456 210.819 293.939 210.487 297.422 210.184C301.365 209.854 305.307 209.583 309.25 209.327C310.623 209.237 311.996 209.281 313.37 209.28C316.198 209.286 319.018 209.285 321.846 209.321C328.4 209.419 334.922 209.769 341.42 210.646C346.39 211.323 351.414 211.666 356.368 212.432C360.871 213.129 365.334 214.13 369.783 215.161C374.15 216.169 378.517 217.236 382.816 218.503C386.818 219.68 390.768 221.087 394.695 222.516C399.119 224.133 403.557 225.765 407.875 227.649C411.912 229.412 415.807 231.524 419.768 233.465C425.456 236.254 430.791 239.641 436 243.214C440.002 245.957 443.818 248.974 447.663 251.947C450.784 254.352 453.912 256.779 456.869 259.376C459.22 261.436 461.294 263.799 463.548 265.984C464.53 266.932 465.632 267.746 466.675 268.634C467.141 269.03 467.666 269.396 467.997 269.895C470.348 273.432 473.743 275.994 476.512 279.132C478.822 281.749 481.014 284.468 483.273 287.136C484.741 288.873 486.233 290.602 487.701 292.353C488.963 293.866 490.233 295.386 491.45 296.943C493.553 299.633 495.655 302.323 497.683 305.071C499.579 307.641 501.385 310.27 503.213 312.876C506.14 317.04 509.127 321.158 511.972 325.373C514.603 329.283 517.063 333.303 519.642 337.249C521.587 340.242 523.607 343.191 525.567 346.169C527.196 348.649 528.772 351.165 530.386 353.645C532.825 357.405 535.271 361.172 537.718 364.925C542.279 371.931 546.84 378.937 551.416 385.929C553.833 389.622 556.198 393.337 558.712 396.964C561.749 401.328 564.913 405.596 568.018 409.909C570.104 412.806 572.154 415.726 574.248 418.616C575.185 419.904 576.173 421.156 577.207 422.378C580.115 425.791 583.187 429.072 585.931 432.603C589.79 437.573 594.439 441.774 598.871 446.159C602.21 449.456 605.744 452.59 609.62 455.296C611.61 456.693 613.406 458.372 615.441 459.681C619.215 462.104 623.004 464.512 626.95 466.631C630.489 468.533 634.215 470.102 637.926 471.686C642.059 473.458 646.389 474.621 650.755 475.689C656.464 477.082 662.257 478.037 668.088 478.525C672.325 478.879 676.617 478.543 680.885 478.452C683.09 478.411 685.302 478.318 687.493 478.083C691.273 477.678 695.031 477.162 698.797 476.667C701.129 476.367 703.469 476.088 705.786 475.669C709.234 475.032 712.652 474.247 716.099 473.58C722.674 472.313 729.264 471.105 735.846 469.859C739.286 469.2 742.704 468.415 746.165 467.852C750.964 467.074 755.784 466.466 760.605 465.798C765.722 465.088 770.833 464.325 775.965 463.719C779.128 463.348 782.343 463.282 785.521 463.015C794.424 462.263 803.353 462.372 812.274 462.548C816.601 462.636 820.926 463.124 825.237 463.494C828.791 463.8 832.382 463.995 835.898 464.606C843.692 465.957 851.502 467.248 859.099 469.563C866.311 471.758 873.38 474.3 880.321 477.206C886.855 479.954 893.261 482.975 899.42 486.479C906.497 490.491 913.506 494.644 920 499.559C923.084 501.897 925.996 504.464 929.103 506.765C936.558 512.293 942.619 519.292 949.134 525.81C951.373 528.055 953.238 530.684 955.26 533.143C957.326 535.677 959.438 538.166 961.407 540.766C963.244 543.187 965.036 545.652 966.656 548.213C970.001 553.47 973.368 558.733 976.438 564.144C978.867 568.431 980.998 572.91 983.032 577.41C985.449 582.744 987.776 588.121 989.858 593.594C991.632 598.264 993.02 603.095 994.571 607.838L994.548 607.846Z" fill="#E3E3E2"/>
<mask id="mask0_213_828" style="mask-type:luminance" maskUnits="userSpaceOnUse" x="94" y="209" width="901" height="768">
<path d="M994.548 607.846L621.972 976.888C621.221 975.711 620.513 974.758 619.976 973.724C617.027 967.957 613.609 962.478 610.213 956.961C608.018 953.403 605.57 950.036 603.323 946.515C600.796 942.561 597.748 938.932 594.923 935.17C592.223 931.594 589.553 928.004 586.801 924.48C585.407 922.684 583.841 921.014 582.38 919.27C580.439 916.938 578.52 914.583 576.594 912.236C576.402 911.998 576.211 911.759 576.004 911.535C571.558 906.823 567.142 902.081 562.651 897.413C559.387 894.013 556.107 890.628 552.693 887.375C548.4 883.295 543.965 879.369 539.59 875.385C537.454 873.437 535.319 871.49 533.16 869.579C532.081 868.624 530.942 867.743 529.811 866.839C526.188 863.957 522.564 861.089 518.918 858.229C516.774 856.541 514.615 854.854 512.455 853.195C509.682 851.067 506.946 848.901 504.098 846.876C498.653 842.99 493.149 839.193 487.66 835.382C485.78 834.081 483.841 832.884 481.955 831.591C479.203 829.708 476.48 827.78 473.728 825.881C472.411 824.984 471.132 824.006 469.71 823.287C465.001 820.904 460.927 817.552 456.449 814.821C451.261 811.656 446.185 808.292 441.072 805.009C435.884 801.682 430.704 798.361 425.517 795.033C418.28 790.397 411.035 785.768 403.805 781.109C400.416 778.926 397.027 776.742 393.675 774.521C390.575 772.466 387.52 770.336 384.419 768.294C382.71 767.165 380.889 766.192 379.172 765.07C373.378 761.294 367.569 757.548 361.835 753.683C353.763 748.248 345.743 742.747 337.731 737.238C332.345 733.546 326.989 729.794 321.64 726.05C317.157 722.911 312.689 719.773 308.228 716.597C305.254 714.489 302.295 712.367 299.366 710.201C294.973 706.944 290.624 703.642 286.245 700.355C283.028 697.942 279.788 695.552 276.593 693.117C272.851 690.264 269.109 687.41 265.434 684.476C261.759 681.541 258.159 678.503 254.528 675.509C250.906 672.508 247.268 669.522 243.675 666.476C240.548 663.826 237.54 661.028 234.368 658.423C230.428 655.19 226.8 651.603 222.964 648.266C210.39 637.347 199.039 625.187 187.316 613.411C184.11 610.189 181.299 606.561 178.309 603.125C177.955 602.722 177.556 602.364 177.201 601.961C174.47 598.801 171.754 595.626 169.03 592.459C167.443 590.618 165.841 588.792 164.269 586.936C163.088 585.55 161.84 584.2 160.823 582.696C158.656 579.479 156.206 576.469 153.852 573.422C148.6 566.612 143.787 559.501 139.1 552.323C135.902 547.424 133.114 542.252 130.161 537.198C128.969 535.158 127.724 533.156 126.672 531.05C124.18 526.087 121.747 521.095 119.373 516.074C117.426 511.945 115.568 507.772 113.747 503.577C112.749 501.271 111.869 498.922 111.034 496.557C109.503 492.252 107.92 487.969 106.598 483.606C105.027 478.44 103.641 473.222 102.285 468.005C101.061 463.294 99.8883 458.56 98.857 453.804C97.2012 446.136 96.1768 438.36 95.4123 430.563C94.9522 425.877 94.7075 421.155 94.4924 416.448C94.3111 412.432 94.1299 408.4 94.2455 404.385C94.3867 399.68 95.0252 394.984 95.1515 390.279C95.287 385.225 96.216 380.286 97.019 375.339C97.8067 370.466 99.1433 365.685 100.235 360.865C101.517 355.208 103.48 349.762 105.502 344.346C107.577 338.789 109.86 333.336 112.535 328.027C115.39 322.377 118.215 316.713 121.699 311.429C124.922 306.553 128.329 301.804 131.744 297.063C134.404 293.364 137.411 289.942 140.345 286.46C142.816 283.525 145.634 280.985 148.201 278.176C148.969 277.341 149.649 276.432 150.373 275.552C150.619 275.263 150.843 274.953 151.127 274.702C153.102 272.922 155.063 271.128 157.083 269.393C159.729 267.112 162.397 264.869 165.101 262.662C167.329 260.839 169.587 259.032 171.882 257.291C174.549 255.27 177.201 253.234 179.971 251.376C184.2 248.531 188.422 245.679 192.829 243.117C198.873 239.598 204.968 236.131 211.402 233.348C215.939 231.381 220.44 229.316 225.006 227.423C229.424 225.588 233.842 223.724 238.377 222.232C244.079 220.351 249.884 218.768 255.681 217.192C259.776 216.076 263.908 215.072 268.061 214.193C271.627 213.438 275.245 212.929 278.847 212.359C281.551 211.927 284.262 211.532 286.98 211.218C290.456 210.819 293.939 210.487 297.422 210.184C301.365 209.854 305.307 209.583 309.25 209.327C310.623 209.237 311.996 209.281 313.37 209.28C316.198 209.286 319.018 209.285 321.846 209.321C328.4 209.419 334.922 209.769 341.42 210.646C346.39 211.323 351.414 211.666 356.368 212.432C360.871 213.129 365.334 214.13 369.783 215.161C374.15 216.169 378.517 217.236 382.816 218.503C386.818 219.68 390.768 221.087 394.695 222.516C399.119 224.133 403.557 225.765 407.875 227.649C411.912 229.412 415.807 231.524 419.768 233.465C425.456 236.254 430.791 239.641 436 243.214C440.002 245.957 443.818 248.974 447.663 251.947C450.784 254.352 453.912 256.779 456.869 259.376C459.22 261.436 461.294 263.799 463.548 265.984C464.53 266.932 465.632 267.746 466.675 268.634C467.141 269.03 467.666 269.396 467.997 269.895C470.348 273.432 473.743 275.994 476.512 279.132C478.822 281.749 481.014 284.468 483.273 287.136C484.741 288.873 486.233 290.602 487.701 292.353C488.963 293.866 490.233 295.386 491.45 296.943C493.553 299.633 495.655 302.323 497.683 305.071C499.579 307.641 501.385 310.27 503.213 312.876C506.14 317.04 509.127 321.158 511.972 325.373C514.603 329.283 517.063 333.303 519.642 337.249C521.587 340.242 523.607 343.191 525.567 346.169C527.196 348.649 528.772 351.165 530.386 353.645C532.825 357.405 535.271 361.172 537.718 364.925C542.279 371.931 546.84 378.937 551.416 385.929C553.833 389.622 556.198 393.337 558.712 396.964C561.749 401.328 564.913 405.596 568.018 409.909C570.104 412.806 572.154 415.726 574.248 418.616C575.185 419.904 576.173 421.156 577.207 422.378C580.115 425.791 583.187 429.072 585.931 432.603C589.79 437.573 594.439 441.774 598.871 446.159C602.21 449.456 605.744 452.59 609.62 455.296C611.61 456.693 613.406 458.372 615.441 459.681C619.215 462.104 623.004 464.512 626.95 466.631C630.489 468.533 634.215 470.102 637.926 471.686C642.059 473.458 646.389 474.621 650.755 475.689C656.464 477.082 662.257 478.037 668.088 478.525C672.325 478.879 676.617 478.543 680.885 478.452C683.09 478.411 685.302 478.318 687.493 478.083C691.273 477.678 695.031 477.162 698.797 476.667C701.129 476.367 703.469 476.088 705.786 475.669C709.234 475.032 712.652 474.247 716.099 473.58C722.674 472.313 729.264 471.105 735.846 469.859C739.286 469.2 742.704 468.415 746.165 467.852C750.964 467.074 755.784 466.466 760.605 465.798C765.722 465.088 770.833 464.325 775.965 463.719C779.128 463.348 782.343 463.282 785.521 463.015C794.424 462.263 803.353 462.372 812.274 462.548C816.601 462.636 820.926 463.124 825.237 463.494C828.791 463.8 832.382 463.995 835.898 464.606C843.692 465.957 851.502 467.248 859.099 469.563C866.311 471.758 873.38 474.3 880.321 477.206C886.855 479.954 893.261 482.975 899.42 486.479C906.497 490.491 913.506 494.644 920 499.559C923.084 501.897 925.996 504.464 929.103 506.765C936.558 512.293 942.619 519.292 949.134 525.81C951.373 528.055 953.238 530.684 955.26 533.143C957.326 535.677 959.438 538.166 961.407 540.766C963.244 543.187 965.036 545.652 966.656 548.213C970.001 553.47 973.368 558.733 976.438 564.144C978.867 568.431 980.998 572.91 983.032 577.41C985.449 582.744 987.776 588.121 989.858 593.594C991.632 598.264 993.02 603.095 994.571 607.838L994.548 607.846Z" fill="white"/>
</mask>
<g mask="url(#mask0_213_828)">
<path d="M720.783 1168.2C741.557 1148.38 750.083 1114.67 743.032 1080.22C736.605 1048.85 719.468 1020.53 701.888 994.593C604.233 850.478 467.647 735.883 335.541 625.065C217.489 526.035 95.4158 423.615 1.07637 300.24C-12.3565 282.681 -26.0052 263.696 -32.5144 241.791C-39.5057 218.265 -35.903 194.337 -23.1242 179.359C0.851039 151.268 47.5545 158.935 73.2698 165.998C170.897 192.843 265.598 254.471 371.283 359.945C450.823 439.323 522.914 527.587 585.569 622.286C599.645 643.566 613.561 665.626 627.021 686.956C675.186 763.326 724.993 842.295 793.363 903.07C793.71 903.376 794.05 903.675 794.39 903.988C812.994 920.429 840.159 937.86 863.939 927.471C880.712 920.135 888.482 901.697 892.046 887.515C903.94 840.127 888.778 792.854 873.956 761.542C857.304 726.369 833.712 694.332 810.909 663.345C808.195 659.665 805.496 655.986 802.797 652.306C751.993 582.908 704.234 510.139 660.861 436.026C640.275 400.849 636.299 375.385 648.718 358.165C659.731 342.897 680.908 339.769 697.005 343.446C716.29 347.85 732.426 360.545 744.333 371.105L744.488 371.262C780.395 403.157 808.178 443.631 824.874 488.32C831.074 504.917 835.823 522.331 840.412 539.165C846.488 561.454 852.769 584.501 862.509 605.999C881.35 647.574 913.71 685.494 958.689 718.687C993.415 744.319 1024.92 758.194 1054.99 761.12C1073.13 762.884 1091.52 760.708 1109.3 758.603C1130.92 756.041 1153.27 753.394 1174.88 757.98L1175.41 755.474C1153.39 750.797 1130.82 753.473 1109 756.056C1091.34 758.146 1073.09 760.309 1055.23 758.576C1025.63 755.696 994.555 741.979 960.213 716.631C915.596 683.699 883.502 646.122 864.852 604.949C855.193 583.637 848.934 560.686 842.887 538.501C838.283 521.608 833.52 504.149 827.275 487.434C810.44 442.365 782.407 401.533 746.197 369.347L746.035 369.183C733.89 358.429 717.422 345.488 697.566 340.954C680.646 337.088 658.325 340.448 646.624 356.677C633.556 374.808 637.483 401.192 658.628 437.336C702.045 511.524 749.849 584.367 800.704 653.833C803.403 657.512 806.102 661.192 808.816 664.871C831.553 695.761 855.064 727.701 871.613 762.651C886.258 793.577 901.252 840.247 889.54 886.894C886.12 900.521 878.724 918.203 862.896 925.12C840.366 934.966 814.126 918.022 796.077 902.066C795.737 901.768 795.389 901.462 795.057 901.156C726.953 840.619 677.256 761.822 629.187 685.593C615.728 664.248 601.804 642.181 587.706 620.878C524.955 526.038 452.746 437.639 373.087 358.143C267.07 252.333 172.022 190.503 73.9347 163.537C47.6636 156.286 -0.167554 148.509 -25.0609 177.688C-38.3996 193.323 -42.1921 218.163 -34.9524 242.521C-28.3191 264.85 -14.5081 284.044 -0.935182 301.804C93.5739 425.41 215.758 527.912 333.921 627.039C465.879 737.753 602.34 852.221 699.788 996.037C717.213 1021.76 734.218 1049.81 740.543 1080.74C747.42 1114.32 739.173 1147.12 719.033 1166.34L720.798 1168.2L720.783 1168.2Z" fill="white"/>
</g>
</g>
</svg>
