<svg width="344" height="262" viewBox="0 0 344 262" fill="none" xmlns="http://www.w3.org/2000/svg">
<g opacity="0.5">
<path d="M335.71 252.962L183.696 505.182C183.125 504.645 182.608 504.223 182.173 503.734C179.774 501.001 177.158 498.489 174.55 495.953C172.865 494.318 171.068 492.822 169.36 491.214C167.44 489.41 165.281 487.854 163.225 486.195C161.262 484.62 159.315 483.033 157.331 481.494C156.325 480.708 155.242 480.015 154.207 479.266C152.829 478.264 151.46 477.246 150.088 476.234C149.951 476.13 149.814 476.027 149.67 475.933C146.601 473.98 143.544 472.007 140.456 470.084C138.21 468.682 135.959 467.291 133.652 465.99C130.753 464.36 127.798 462.834 124.868 461.267C123.437 460.501 122.006 459.735 120.568 458.992C119.849 458.62 119.107 458.298 118.367 457.961C115.997 456.891 113.63 455.829 111.251 454.774C109.851 454.15 108.443 453.529 107.039 452.924C105.236 452.147 103.448 451.345 101.619 450.634C98.1199 449.269 94.6004 447.959 91.087 446.64C89.8849 446.191 88.6644 445.807 87.4593 445.362C85.7015 444.716 83.954 444.041 82.1942 443.387C81.3537 443.08 80.5224 442.723 79.6494 442.527C76.7574 441.879 74.0778 440.615 71.2641 439.745C68.0038 438.736 64.7772 437.604 61.5413 436.521C58.2589 435.423 54.9817 434.329 51.6993 433.232C47.1208 431.704 42.5392 430.182 37.9617 428.641C35.8159 427.919 33.6701 427.197 31.5396 426.45C29.5686 425.757 27.6119 425.019 25.6429 424.334C24.5569 423.955 23.4313 423.676 22.3422 423.302C18.668 422.044 14.9896 420.804 11.3357 419.49C6.19267 417.643 1.06898 415.752 -4.05169 413.857C-7.49243 412.588 -10.925 411.283 -14.3525 409.981C-17.2254 408.89 -20.0903 407.796 -22.9561 406.682C-24.8653 405.944 -26.7684 405.196 -28.6614 404.42C-31.5018 403.252 -34.324 402.053 -37.1603 400.867C-39.2441 399.996 -41.3371 399.141 -43.4118 398.255C-45.842 397.217 -48.2723 396.179 -50.6772 395.088C-53.082 393.996 -55.4605 392.838 -57.8491 391.708C-60.2347 390.573 -62.6263 389.448 -65.0017 388.285C-67.0691 387.273 -69.0918 386.164 -71.1774 385.182C-73.7681 383.965 -76.2369 382.511 -78.785 381.224C-87.134 377.011 -94.988 371.953 -102.992 367.157C-105.181 365.844 -107.211 364.256 -109.312 362.797C-109.56 362.627 -109.827 362.487 -110.075 362.316C-111.997 360.972 -113.913 359.618 -115.833 358.268C-116.95 357.485 -118.074 356.711 -119.185 355.917C-120.019 355.325 -120.884 354.762 -121.645 354.084C-123.268 352.631 -125.016 351.329 -126.717 349.994C-130.514 347.011 -134.114 343.802 -137.654 340.54C-140.07 338.313 -142.3 335.881 -144.603 333.536C-145.533 332.59 -146.487 331.671 -147.349 330.67C-149.39 328.311 -151.402 325.929 -153.385 323.522C-155.014 321.542 -156.6 319.526 -158.169 317.493C-159.031 316.375 -159.833 315.217 -160.613 314.045C-162.039 311.912 -163.491 309.798 -164.812 307.605C-166.379 305.009 -167.851 302.359 -169.308 299.706C-170.623 297.309 -171.914 294.893 -173.13 292.447C-175.087 288.5 -176.716 284.408 -178.206 280.268C-179.102 277.78 -179.885 275.243 -180.651 272.71C-181.302 270.549 -181.956 268.379 -182.446 266.177C-183.017 263.596 -183.316 260.952 -183.895 258.373C-184.518 255.603 -184.692 252.786 -184.936 249.982C-185.178 247.221 -185.109 244.434 -185.178 241.659C-185.26 238.403 -184.941 235.168 -184.586 231.941C-184.221 228.629 -183.73 225.347 -183.004 222.088C-182.228 218.619 -181.47 215.146 -180.301 211.79C-179.218 208.692 -178.017 205.637 -176.811 202.585C-175.872 200.205 -174.706 197.928 -173.588 195.628C-172.647 193.69 -171.463 191.919 -170.453 190.037C-170.149 189.477 -169.904 188.888 -169.631 188.309C-169.537 188.118 -169.458 187.918 -169.338 187.742C-168.508 186.502 -167.687 185.255 -166.827 184.032C-165.7 182.426 -164.557 180.837 -163.388 179.263C-162.426 177.964 -161.446 176.669 -160.436 175.405C-159.263 173.938 -158.099 172.464 -156.847 171.072C-154.936 168.94 -153.03 166.806 -150.984 164.804C-148.179 162.056 -145.337 159.329 -142.218 156.928C-140.019 155.232 -137.853 153.489 -135.628 151.829C-133.475 150.222 -131.327 148.599 -129.063 147.162C-126.218 145.353 -123.276 143.691 -120.337 142.035C-118.261 140.864 -116.15 139.748 -114.01 138.698C-112.172 137.796 -110.273 137.02 -108.39 136.214C-106.978 135.606 -105.556 135.017 -104.12 134.472C-102.282 133.776 -100.432 133.116 -98.5778 132.472C-96.4767 131.749 -94.3675 131.059 -92.2563 130.376C-91.5209 130.138 -90.7674 129.973 -90.02 129.783C-88.4795 129.397 -86.9442 129.008 -85.3997 128.638C-81.8183 127.789 -78.219 127.081 -74.5606 126.664C-71.7617 126.348 -68.9796 125.843 -66.1767 125.578C-63.6297 125.337 -61.0618 125.268 -58.498 125.216C-55.9816 125.163 -53.4573 125.143 -50.9423 125.241C-48.6011 125.331 -46.2572 125.553 -43.9224 125.79C-41.2915 126.061 -38.6505 126.338 -36.0401 126.769C-33.5995 127.173 -31.1886 127.787 -28.7644 128.298C-25.2842 129.033 -21.9129 130.142 -18.5853 131.37C-16.0285 132.312 -13.5357 133.429 -11.0328 134.518C-9.00257 135.397 -6.96528 136.288 -4.99798 137.295C-3.43463 138.093 -1.97986 139.093 -0.452064 139.973C0.213386 140.353 0.925508 140.645 1.61531 140.985C1.92334 141.136 2.25974 141.263 2.50899 141.489C4.27596 143.091 6.47694 144.018 8.4163 145.345C10.0346 146.452 11.6023 147.63 13.1993 148.772C14.2381 149.515 15.288 150.251 16.3288 151.002C17.2242 151.652 18.1246 152.305 19.0018 152.985C20.5169 154.16 22.032 155.334 23.5146 156.551C24.9003 157.689 26.2456 158.872 27.5999 160.039C29.7667 161.902 31.9598 163.734 34.0891 165.636C36.06 167.402 37.9528 169.252 39.9004 171.045C41.3716 172.407 42.8773 173.734 44.3546 175.086C45.5826 176.211 46.7874 177.364 48.0074 178.492C49.853 180.203 51.7037 181.917 53.5523 183.623C57.0003 186.809 60.4484 189.996 63.9025 193.172C65.7269 194.85 67.526 196.547 69.3941 198.175C71.6486 200.132 73.9589 202.02 76.2428 203.941C77.7779 205.231 79.2957 206.538 80.8338 207.823C81.5211 208.395 82.2317 208.941 82.9626 209.464C85.016 210.921 87.1403 212.284 89.1207 213.829C91.9055 216.003 95.0149 217.65 98.032 219.427C100.304 220.762 102.659 221.982 105.142 222.921C106.418 223.408 107.627 224.074 108.915 224.506C111.303 225.306 113.697 226.095 116.138 226.705C118.326 227.254 120.571 227.595 122.809 227.946C125.304 228.341 127.821 228.378 130.345 228.358C133.645 228.33 136.93 228.053 140.172 227.515C142.527 227.125 144.818 226.351 147.129 225.714C148.323 225.387 149.515 225.032 150.675 224.603C152.677 223.861 154.652 223.063 156.634 222.275C157.863 221.79 159.098 221.317 160.302 220.769C162.091 219.948 163.844 219.049 165.629 218.212C169.034 216.616 172.455 215.051 175.867 213.467C177.649 212.634 179.401 211.736 181.209 210.953C183.714 209.868 186.254 208.873 188.787 207.846C191.475 206.755 194.152 205.636 196.862 204.599C198.534 203.961 200.274 203.483 201.968 202.9C206.711 201.264 211.588 200.094 216.469 198.962C218.836 198.413 221.258 198.084 223.656 197.691C225.633 197.368 227.615 196.98 229.613 196.828C234.043 196.49 238.472 196.118 242.927 196.332C247.155 196.534 251.354 196.944 255.533 197.57C259.468 198.167 263.372 198.93 267.207 199.989C271.613 201.198 276.001 202.494 280.213 204.275C282.214 205.124 284.153 206.12 286.161 206.945C290.981 208.928 295.244 211.904 299.689 214.555C301.217 215.469 302.594 216.643 304.034 217.704C305.508 218.798 307 219.863 308.43 221.007C309.763 222.072 311.078 223.168 312.313 224.339C314.858 226.74 317.416 229.142 319.832 231.665C321.745 233.664 323.522 235.809 325.25 237.979C327.3 240.549 329.307 243.157 331.194 245.849C332.803 248.148 334.224 250.587 335.721 252.955L335.71 252.962Z" fill="#E3E3E2"/>
<mask id="mask0_213_835" style="mask-type:luminance" maskUnits="userSpaceOnUse" x="-186" y="125" width="522" height="381">
<path d="M335.71 252.962L183.696 505.182C183.125 504.645 182.608 504.223 182.173 503.734C179.774 501.001 177.158 498.489 174.55 495.953C172.865 494.318 171.068 492.822 169.36 491.214C167.44 489.41 165.281 487.854 163.225 486.195C161.262 484.62 159.315 483.033 157.331 481.494C156.325 480.708 155.242 480.015 154.207 479.266C152.829 478.264 151.46 477.246 150.088 476.234C149.951 476.13 149.814 476.027 149.67 475.933C146.601 473.98 143.544 472.007 140.456 470.084C138.21 468.682 135.959 467.291 133.652 465.99C130.753 464.36 127.798 462.834 124.868 461.267C123.437 460.501 122.006 459.735 120.568 458.992C119.849 458.62 119.107 458.298 118.367 457.961C115.997 456.891 113.63 455.829 111.251 454.774C109.851 454.15 108.443 453.529 107.039 452.924C105.236 452.147 103.448 451.345 101.619 450.634C98.1199 449.269 94.6004 447.959 91.087 446.64C89.8849 446.191 88.6644 445.807 87.4593 445.362C85.7015 444.716 83.954 444.041 82.1942 443.387C81.3537 443.08 80.5224 442.723 79.6494 442.527C76.7574 441.879 74.0778 440.615 71.2641 439.745C68.0038 438.736 64.7772 437.604 61.5413 436.521C58.2589 435.423 54.9817 434.329 51.6993 433.232C47.1208 431.704 42.5392 430.182 37.9617 428.641C35.8159 427.919 33.6701 427.197 31.5396 426.45C29.5686 425.757 27.6119 425.019 25.6429 424.334C24.5569 423.955 23.4313 423.676 22.3422 423.302C18.668 422.044 14.9896 420.804 11.3357 419.49C6.19267 417.643 1.06898 415.752 -4.05169 413.857C-7.49243 412.588 -10.925 411.283 -14.3525 409.981C-17.2254 408.89 -20.0903 407.796 -22.9561 406.682C-24.8653 405.944 -26.7684 405.196 -28.6614 404.42C-31.5018 403.252 -34.324 402.053 -37.1603 400.867C-39.2441 399.996 -41.3371 399.141 -43.4118 398.255C-45.842 397.217 -48.2723 396.179 -50.6772 395.088C-53.082 393.996 -55.4605 392.838 -57.8491 391.708C-60.2347 390.573 -62.6263 389.448 -65.0017 388.285C-67.0691 387.273 -69.0918 386.164 -71.1774 385.182C-73.7681 383.965 -76.2369 382.511 -78.785 381.224C-87.134 377.011 -94.988 371.953 -102.992 367.157C-105.181 365.844 -107.211 364.256 -109.312 362.797C-109.56 362.627 -109.827 362.487 -110.075 362.316C-111.997 360.972 -113.913 359.618 -115.833 358.268C-116.95 357.485 -118.074 356.711 -119.185 355.917C-120.019 355.325 -120.884 354.762 -121.645 354.084C-123.268 352.631 -125.016 351.329 -126.717 349.994C-130.514 347.011 -134.114 343.802 -137.654 340.54C-140.07 338.313 -142.3 335.881 -144.603 333.536C-145.533 332.59 -146.487 331.671 -147.349 330.67C-149.39 328.311 -151.402 325.929 -153.385 323.522C-155.014 321.542 -156.6 319.526 -158.169 317.493C-159.031 316.375 -159.833 315.217 -160.613 314.045C-162.039 311.912 -163.491 309.798 -164.812 307.605C-166.379 305.009 -167.851 302.359 -169.308 299.706C-170.623 297.309 -171.914 294.893 -173.13 292.447C-175.087 288.5 -176.716 284.408 -178.206 280.268C-179.102 277.78 -179.885 275.243 -180.651 272.71C-181.302 270.549 -181.956 268.379 -182.446 266.177C-183.017 263.596 -183.316 260.952 -183.895 258.373C-184.518 255.603 -184.692 252.786 -184.936 249.982C-185.178 247.221 -185.109 244.434 -185.178 241.659C-185.26 238.403 -184.941 235.168 -184.586 231.941C-184.221 228.629 -183.73 225.347 -183.004 222.088C-182.228 218.619 -181.47 215.146 -180.301 211.79C-179.218 208.692 -178.017 205.637 -176.811 202.585C-175.872 200.205 -174.706 197.928 -173.588 195.628C-172.647 193.69 -171.463 191.919 -170.453 190.037C-170.149 189.477 -169.904 188.888 -169.631 188.309C-169.537 188.118 -169.458 187.918 -169.338 187.742C-168.508 186.502 -167.687 185.255 -166.827 184.032C-165.7 182.426 -164.557 180.837 -163.388 179.263C-162.426 177.964 -161.446 176.669 -160.436 175.405C-159.263 173.938 -158.099 172.464 -156.847 171.072C-154.936 168.94 -153.03 166.806 -150.984 164.804C-148.179 162.056 -145.337 159.329 -142.218 156.928C-140.019 155.232 -137.853 153.489 -135.628 151.829C-133.475 150.222 -131.327 148.599 -129.063 147.162C-126.218 145.353 -123.276 143.691 -120.337 142.035C-118.261 140.864 -116.15 139.748 -114.01 138.698C-112.172 137.796 -110.273 137.02 -108.39 136.214C-106.978 135.606 -105.556 135.017 -104.12 134.472C-102.282 133.776 -100.432 133.116 -98.5778 132.472C-96.4767 131.749 -94.3675 131.059 -92.2563 130.376C-91.5209 130.138 -90.7674 129.973 -90.02 129.783C-88.4795 129.397 -86.9442 129.008 -85.3997 128.638C-81.8183 127.789 -78.219 127.081 -74.5606 126.664C-71.7617 126.348 -68.9796 125.843 -66.1767 125.578C-63.6297 125.337 -61.0618 125.268 -58.498 125.216C-55.9816 125.163 -53.4573 125.143 -50.9423 125.241C-48.6011 125.331 -46.2572 125.553 -43.9224 125.79C-41.2915 126.061 -38.6505 126.338 -36.0401 126.769C-33.5995 127.173 -31.1886 127.787 -28.7644 128.298C-25.2842 129.033 -21.9129 130.142 -18.5853 131.37C-16.0285 132.312 -13.5357 133.429 -11.0328 134.518C-9.00257 135.397 -6.96528 136.288 -4.99798 137.295C-3.43463 138.093 -1.97986 139.093 -0.452064 139.973C0.213386 140.353 0.925508 140.645 1.61531 140.985C1.92334 141.136 2.25974 141.263 2.50899 141.489C4.27596 143.091 6.47694 144.018 8.4163 145.345C10.0346 146.452 11.6023 147.63 13.1993 148.772C14.2381 149.515 15.288 150.251 16.3288 151.002C17.2242 151.652 18.1246 152.305 19.0018 152.985C20.5169 154.16 22.032 155.334 23.5146 156.551C24.9003 157.689 26.2456 158.872 27.5999 160.039C29.7667 161.902 31.9598 163.734 34.0891 165.636C36.06 167.402 37.9528 169.252 39.9004 171.045C41.3716 172.407 42.8773 173.734 44.3546 175.086C45.5826 176.211 46.7874 177.364 48.0074 178.492C49.853 180.203 51.7037 181.917 53.5523 183.623C57.0003 186.809 60.4484 189.996 63.9025 193.172C65.7269 194.85 67.526 196.547 69.3941 198.175C71.6486 200.132 73.9589 202.02 76.2428 203.941C77.7779 205.231 79.2957 206.538 80.8338 207.823C81.5211 208.395 82.2317 208.941 82.9626 209.464C85.016 210.921 87.1403 212.284 89.1207 213.829C91.9055 216.003 95.0149 217.65 98.032 219.427C100.304 220.762 102.659 221.982 105.142 222.921C106.418 223.408 107.627 224.074 108.915 224.506C111.303 225.306 113.697 226.095 116.138 226.705C118.326 227.254 120.571 227.595 122.809 227.946C125.304 228.341 127.821 228.378 130.345 228.358C133.645 228.33 136.93 228.053 140.172 227.515C142.527 227.125 144.818 226.351 147.129 225.714C148.323 225.387 149.515 225.032 150.675 224.603C152.677 223.861 154.652 223.063 156.634 222.275C157.863 221.79 159.098 221.317 160.302 220.769C162.091 219.948 163.844 219.049 165.629 218.212C169.034 216.616 172.455 215.051 175.867 213.467C177.649 212.634 179.401 211.736 181.209 210.953C183.714 209.868 186.254 208.873 188.787 207.846C191.475 206.755 194.152 205.636 196.862 204.599C198.534 203.961 200.274 203.483 201.968 202.9C206.711 201.264 211.588 200.094 216.469 198.962C218.836 198.413 221.258 198.084 223.656 197.691C225.633 197.368 227.615 196.98 229.613 196.828C234.043 196.49 238.472 196.118 242.927 196.332C247.155 196.534 251.354 196.944 255.533 197.57C259.468 198.167 263.372 198.93 267.207 199.989C271.613 201.198 276.001 202.494 280.213 204.275C282.214 205.124 284.153 206.12 286.161 206.945C290.981 208.928 295.244 211.904 299.689 214.555C301.217 215.469 302.594 216.643 304.034 217.704C305.508 218.798 307 219.863 308.43 221.007C309.763 222.072 311.078 223.168 312.313 224.339C314.858 226.74 317.416 229.142 319.832 231.665C321.745 233.664 323.522 235.809 325.25 237.979C327.3 240.549 329.307 243.157 331.194 245.849C332.803 248.148 334.224 250.587 335.721 252.955L335.71 252.962Z" fill="white"/>
</mask>
<g mask="url(#mask0_213_835)">
<path d="M263.835 595.728C272.415 582.075 272.414 562.549 263.833 544.767C256.014 528.575 242.783 515.515 229.641 503.815C156.63 438.805 66.49 395.228 -20.6912 353.089C-98.5979 315.433 -179.161 276.485 -247.511 222.309C-257.242 214.6 -267.287 206.144 -273.847 195.114C-280.893 183.269 -282.227 169.747 -277.332 159.833C-268.148 141.238 -241.667 138.981 -226.694 139.284C-169.848 140.455 -109.804 160.965 -37.7431 203.832C16.4911 236.093 67.8932 274.217 115.045 317.144C125.638 326.792 136.252 336.885 146.517 346.643C183.256 381.588 221.247 417.72 266.837 441.392C267.069 441.511 267.295 441.627 267.523 441.75C279.916 448.139 297.105 453.888 308.62 444.957C316.742 438.654 318.433 427.546 318.42 419.334C318.369 391.897 303.605 368.249 291.224 353.243C277.314 336.388 260.059 322.195 243.377 308.466C241.393 306.836 239.417 305.205 237.441 303.573C200.226 272.788 164.204 239.749 130.385 205.374C114.333 189.057 108.662 175.742 113.051 164.657C116.945 154.828 128.043 150.209 137.313 149.994C148.418 149.736 158.951 154.426 166.888 158.535L166.994 158.599C190.934 171.018 211.633 189.227 226.877 211.257C232.538 219.439 237.522 228.265 242.338 236.798C248.716 248.095 255.309 259.778 263.572 270.14C279.555 290.179 302.394 306.367 331.452 318.244C353.887 327.416 372.948 330.632 389.722 328.084C399.844 326.545 409.551 322.829 418.945 319.234C430.362 314.862 442.164 310.343 454.559 309.864L454.503 308.427C441.87 308.913 429.951 313.478 418.427 317.889C409.104 321.459 399.468 325.148 389.503 326.665C372.995 329.173 354.185 325.985 331.998 316.915C303.174 305.131 280.526 289.092 264.703 269.246C256.51 258.973 249.941 247.341 243.594 236.096C238.761 227.532 233.764 218.684 228.062 210.443C212.691 188.226 191.806 169.857 167.66 157.321L167.549 157.254C159.457 153.072 148.709 148.294 137.275 148.56C127.531 148.786 115.842 153.689 111.707 164.136C107.089 175.806 112.86 189.629 129.349 206.395C163.203 240.804 199.259 273.878 236.511 304.693C238.487 306.324 240.464 307.956 242.448 309.585C259.08 323.271 276.278 337.422 290.101 354.17C302.333 368.99 316.923 392.333 316.97 419.341C316.985 427.231 315.394 437.876 307.729 443.821C296.819 452.284 280.201 446.673 268.177 440.472C267.951 440.356 267.719 440.237 267.496 440.117C222.083 416.538 184.176 380.484 147.509 345.603C137.242 335.836 126.623 325.74 116.014 316.084C68.7911 273.093 17.3063 234.912 -37.0087 202.602C-109.297 159.598 -169.558 139.026 -226.671 137.853C-241.972 137.523 -269.083 139.876 -278.617 159.189C-283.726 169.538 -282.37 183.584 -275.074 195.848C-268.388 207.091 -258.225 215.638 -248.39 223.438C-179.916 277.716 -99.2818 316.693 -21.3014 354.387C65.7849 396.489 155.839 440.015 228.697 504.891C241.725 516.494 254.847 529.427 262.549 545.391C270.917 562.727 270.944 581.718 262.627 594.958L263.843 595.726L263.835 595.728Z" fill="white"/>
</g>
</g>
</svg>
