<svg width="129" height="191" viewBox="0 0 129 191" fill="none" xmlns="http://www.w3.org/2000/svg">
<g clip-path="url(#clip0_151_4528)">
<path d="M125.579 3.53162C123.94 1.94596 122.015 1.08105 119.735 1.08105H9.26519C6.98453 1.08105 5.06022 1.94596 3.49227 3.53162C1.85304 5.18936 1.06906 7.13539 1.06906 9.44181V181.558C1.06906 183.864 1.85304 185.883 3.49227 187.468C5.06022 189.126 6.98453 189.919 9.26519 189.919H119.735C122.015 189.919 123.94 189.126 125.579 187.468C127.147 185.883 127.931 183.864 127.931 181.558V9.44181C127.931 7.13539 127.147 5.18936 125.579 3.53162Z" fill="white"/>
<path d="M119.735 191H9.26519C6.67094 191 4.46867 190.063 2.72254 188.218C0.926519 186.488 0 184.232 0 181.558V9.44189C0 6.84717 0.919392 4.60562 2.7368 2.7677C4.5542 0.929774 6.74934 0 9.26519 0H119.735C122.215 0 124.432 0.922566 126.32 2.75328L126.356 2.78932C128.116 4.64887 129.007 6.89041 129.007 9.44909V181.565C129.007 184.167 128.088 186.474 126.342 188.24C124.524 190.077 122.308 191.007 119.742 191.007L119.735 191ZM9.26519 2.16226C7.33376 2.16226 5.65177 2.88302 4.24774 4.2957C2.82945 5.73 2.13812 7.41657 2.13812 9.44189V181.558C2.13812 183.619 2.8437 185.342 4.23348 186.69C5.61613 188.146 7.24823 188.838 9.26519 188.838H119.735C121.738 188.838 123.405 188.139 124.824 186.704C126.178 185.335 126.862 183.605 126.862 181.558V9.44189C126.862 7.43819 126.192 5.75162 124.824 4.2957C123.334 2.8614 121.666 2.16226 119.735 2.16226H9.26519Z" fill="#BBBBBB"/>
<path d="M115.886 53.3359C115.886 51.0294 115.102 49.0834 113.534 47.4257C111.895 45.84 109.971 44.9751 107.69 44.9751H22.4503C20.1696 44.9751 18.174 45.84 16.6061 47.4257C14.9668 49.0834 14.1829 51.0294 14.1829 53.3359V125.339C14.1829 127.574 14.9668 129.592 16.6061 131.177C18.174 132.835 20.1696 133.628 22.4503 133.628H107.69C109.971 133.628 111.895 132.835 113.534 131.177C115.173 129.52 115.886 127.574 115.886 125.339V53.3359Z" fill="#F1F1EF"/>
<path d="M49.4619 150.277L49.3906 150.205V150.061H47.4663V150.205C47.395 150.205 47.3238 150.205 47.3238 150.277C47.2525 151.358 47.2525 152.44 47.2525 153.521C47.2525 154.025 47.1812 154.241 47.1099 154.097C46.5398 153.665 45.8271 153.449 45.0431 153.304C44.0453 153.232 43.19 153.377 42.6199 153.809C41.8359 154.313 41.2657 155.106 40.9094 156.115V156.764H40.7668C40.7668 157.557 40.8381 158.422 40.8381 159.215H40.9094C41.0519 161.233 42.0497 162.458 43.9028 162.746H44.0453C44.2591 162.89 44.6867 162.89 45.1856 162.818V162.746C46.1121 162.674 46.8249 162.314 47.2525 161.737C47.1812 162.242 47.3238 162.602 47.7514 162.602C48.0365 162.818 48.4641 162.818 48.963 162.674V162.602C49.6044 162.602 49.8895 162.098 49.747 161.233C49.6757 160.728 49.6044 160.296 49.6044 159.791C49.6044 157.124 49.6044 154.458 49.6757 151.791C49.747 151.142 49.6044 150.71 49.4619 150.277ZM45.6133 155.178H45.7558C46.326 155.323 46.7536 155.683 47.0387 156.187C47.0387 156.236 47.0624 156.26 47.1099 156.26C47.2525 157.124 47.2525 158.133 47.1812 159.215V159.359C46.9674 159.863 46.611 160.296 46.2547 160.656H46.1121C45.542 160.872 44.9718 160.872 44.4017 160.728C44.4017 160.656 44.3304 160.656 44.2591 160.656C43.7602 160.296 43.4039 159.647 43.3326 158.854V156.692C43.4039 156.404 43.5464 156.115 43.6889 155.971C43.7602 155.971 43.7602 155.899 43.7602 155.827C44.1166 155.323 44.758 155.106 45.6133 155.178Z" fill="#BBBBBB"/>
<path d="M54.0232 149.845C53.2392 149.701 52.5265 149.701 51.8851 149.845V150.205H51.7426C51.7426 150.638 51.8138 151.142 51.8138 151.647H51.8851C51.8851 151.719 51.9564 151.791 52.0276 151.863C52.0752 151.911 52.1227 151.935 52.1702 151.935C52.6691 152.079 53.3105 152.079 54.0232 152.007V151.935C54.0945 151.863 54.1658 151.791 54.237 151.719C54.3083 151.719 54.3083 151.647 54.3083 151.647H54.3796C54.4508 150.998 54.4508 150.566 54.3083 150.205C54.237 149.917 54.1658 149.845 54.0232 149.845Z" fill="#BBBBBB"/>
<path d="M52.1701 153.521C52.0989 153.521 52.0276 153.521 52.0276 153.593C51.9563 153.593 51.8851 153.665 51.8851 153.665C51.8851 156.332 51.8138 158.999 51.8138 161.665C51.8138 162.098 51.8851 162.314 52.0276 162.458C52.2414 162.602 52.5978 162.674 53.0967 162.602C53.453 162.602 53.8094 162.53 54.1657 162.458V162.314C54.3083 161.809 54.3795 161.161 54.3795 160.44C54.3083 158.494 54.3083 156.476 54.3083 154.53V154.386C54.3795 153.881 54.3083 153.665 54.0232 153.521C53.3817 153.449 52.7403 153.449 52.1701 153.449V153.521Z" fill="#BBBBBB"/>
<path d="M34.21 155.251V155.179C35.7066 155.107 36.4193 155.611 36.4906 156.908V157.053C36.4906 158.854 36.5619 160.584 36.5619 162.314H36.6332C36.7044 162.458 36.7757 162.458 36.847 162.602H36.9182C37.3459 162.819 37.9873 162.819 38.6287 162.674L38.7 162.602C38.9138 162.602 39.0564 162.458 39.0564 162.17V159.503C39.1276 158.206 39.0564 157.053 38.8426 155.971C38.6287 154.89 38.1298 154.097 37.2033 153.593C37.1321 153.521 36.9895 153.521 36.9182 153.521C35.5641 153.161 34.4238 153.161 33.5685 153.665C33.3547 153.809 33.2834 153.881 33.2122 153.953C32.8558 154.602 32.642 154.53 32.642 153.809C32.5707 153.593 32.4282 153.521 32.2144 153.521C31.5017 153.377 30.8602 153.449 30.3613 153.521V153.665H30.2188C30.2188 156.332 30.2188 158.999 30.1475 161.665C30.1475 161.954 30.2188 162.17 30.3613 162.314C30.7177 162.602 31.2166 162.819 32.0006 162.747C32.2856 162.674 32.4995 162.602 32.642 162.458C32.7845 161.593 32.8558 160.656 32.8558 159.647C32.7845 158.566 32.7845 157.557 32.7845 156.476C32.9984 155.899 33.4972 155.467 34.21 155.251Z" fill="#BBBBBB"/>
<path d="M48.0364 167.575V167.72C47.9414 167.72 47.8939 167.744 47.8939 167.792C47.0387 169.666 46.326 171.612 45.6132 173.558C44.8293 175.432 44.1166 177.378 43.3326 179.252C43.3326 179.468 43.4039 179.684 43.4039 179.9H43.4751C43.7602 180.045 44.1878 180.117 44.6867 179.972V179.9C45.1856 179.18 45.6132 178.315 45.8271 177.306C45.8983 177.306 45.8983 177.234 45.8983 177.234H51.6713C52.0276 178.098 52.384 179.035 52.7403 179.828C52.7403 179.9 52.8116 179.9 52.8116 179.9C53.0967 180.045 53.5243 180.117 54.0232 179.972V179.9C54.1657 179.828 54.237 179.756 54.1657 179.54C53.5243 177.522 52.8116 175.504 52.0989 173.63C52.0276 173.63 52.0276 173.486 52.0276 173.414C51.6 172.549 51.2436 171.54 50.8873 170.531C50.6022 169.521 50.1033 168.584 49.6044 167.72V167.648C49.1055 167.648 48.5353 167.575 48.0364 167.575ZM48.6779 169.666V169.521C49.4619 171.323 50.2458 173.269 50.8873 175.215C50.9585 175.36 51.0298 175.504 51.1011 175.576C49.9608 175.576 48.7492 175.576 47.6088 175.648C47.1812 175.648 46.8248 175.576 46.5398 175.432V175.288C47.3237 173.414 47.9652 171.54 48.6779 169.666Z" fill="#BBBBBB"/>
<path d="M71.8409 155.034H71.9834C72.4823 155.106 72.7674 155.611 72.7674 156.26C72.7674 156.692 72.6961 156.836 72.3398 156.908C70.1304 156.98 68.4912 157.485 67.2796 158.566C67.2083 158.566 67.2083 158.638 67.2083 158.638C67.0657 158.926 66.9945 159.143 66.8519 159.359V160.656C66.9945 161.017 67.137 161.233 67.2083 161.521C67.2083 161.521 67.2083 161.593 67.2796 161.665C67.7784 162.17 68.4912 162.53 69.4177 162.746H69.5602C69.774 162.891 70.2016 162.891 70.7005 162.818L70.7718 162.746C71.6983 162.602 72.3398 162.314 72.7674 161.737C72.6961 162.242 72.9099 162.602 73.2663 162.602C73.6939 162.818 74.2641 162.818 74.9055 162.674V162.602C74.9768 162.602 75.0481 162.53 75.1193 162.458V162.314C75.1668 162.266 75.1906 162.218 75.1906 162.17C75.2619 160.872 75.2619 159.503 75.3331 158.134C75.4044 157.557 75.2619 157.124 75.1193 156.764V155.611C74.6204 154.169 73.4801 153.377 71.6983 153.232C70.9856 153.232 70.3442 153.304 69.8453 153.449C69.774 153.449 69.7028 153.449 69.6315 153.521C68.5624 153.809 67.8497 154.386 67.3508 155.323C67.3508 155.611 67.3508 155.755 67.4934 155.899L67.5646 155.971C68.0635 156.115 68.6337 156.115 69.4177 156.043V155.827C69.7028 155.611 70.1304 155.251 70.4867 155.034H71.8409ZM72.3398 158.422H72.4823C72.7674 158.422 72.8387 158.566 72.7674 158.926V159.071C72.6961 159.071 72.6961 159.215 72.6961 159.215C72.6249 160.296 72.126 160.8 71.1282 161.017H69.9166C69.3464 160.8 69.0613 160.296 69.1326 159.503C69.3464 159.287 69.6315 159.071 69.9166 158.926V158.854C70.7718 158.638 71.5558 158.566 72.3398 158.422Z" fill="#BBBBBB"/>
<path d="M56.589 153.521V154.097H56.4464C56.4464 156.764 56.3752 159.431 56.3752 162.098C56.3039 162.242 56.4464 162.314 56.589 162.314C56.589 162.53 56.7315 162.602 57.0166 162.602H57.0879C57.4442 162.818 57.8718 162.818 58.442 162.674V162.602C58.9409 162.53 59.1547 162.17 59.0834 161.521C59.0122 160.656 58.9409 159.791 59.0122 158.926V156.476C59.226 155.899 59.7249 155.467 60.4376 155.251V155.178C61.863 155.106 62.647 155.611 62.7183 156.908V157.052C62.7183 158.854 62.7183 160.584 62.7895 162.314H62.8608C62.8608 162.53 63.0033 162.602 63.2171 162.602H63.3597C63.7873 162.818 64.2862 162.818 64.8564 162.674V162.602C65.0702 162.602 65.2127 162.458 65.2127 162.17C65.284 161.377 65.284 160.512 65.3553 159.647C65.6404 156.62 64.9276 154.602 63.3597 153.521C63.2171 153.521 63.0746 153.449 62.8608 153.449C61.5779 153.16 60.5089 153.232 59.6536 153.809C59.5823 153.881 59.4398 153.881 59.4398 154.025C59.0834 154.602 58.8696 154.53 58.8696 153.809C58.7984 153.809 58.7271 153.665 58.7271 153.665C58.6558 153.593 58.5845 153.521 58.5845 153.521C57.8006 153.377 57.1591 153.449 56.589 153.521Z" fill="#BBBBBB"/>
<path d="M56.3039 167.575V167.72C56.2564 167.72 56.2089 167.744 56.1613 167.792C56.1613 167.864 56.0901 167.864 56.0188 167.864V175.864C56.0188 177.089 56.0901 178.387 56.0901 179.612C56.0901 179.684 56.1613 179.756 56.1613 179.756C56.3039 179.9 56.589 179.972 57.0166 179.9H57.0879C57.658 180.045 57.8718 179.612 57.8718 178.675C57.8006 177.45 57.7293 176.224 57.8006 175.071H60.8652C61.7205 176.729 62.647 178.315 63.716 179.828C63.716 179.876 63.7398 179.9 63.7873 179.9C64.0724 180.045 64.4287 180.117 64.9276 179.972L64.9989 179.9C65.0702 179.396 64.9276 178.891 64.6426 178.387C63.8586 177.234 63.0746 175.936 62.4332 174.639C63.7873 174.351 64.5713 173.558 64.8564 172.188V172.044H64.9276C64.9989 171.468 64.9989 171.107 64.8564 170.747V170.603C64.5713 169.017 63.716 168.152 62.1481 167.864C62.0055 167.72 61.863 167.72 61.6492 167.72H61.5066V167.648C59.7962 167.648 58.0144 167.575 56.3039 167.575ZM57.8718 173.558C57.8006 172.116 57.7293 170.675 57.8006 169.233H61.7917C62.5044 169.521 63.0033 170.026 63.2171 170.747V172.044C63.0746 172.404 62.7895 172.765 62.4332 173.053C62.1481 173.269 61.7205 173.414 61.2216 173.414C60.295 173.486 59.2973 173.558 58.2995 173.558H57.8718Z" fill="#BBBBBB"/>
<path d="M66.353 167.72H66.2105C65.9967 168.585 66.1392 169.017 66.6381 169.233H69.1326C69.4889 169.161 69.774 169.233 69.9165 169.377V169.522H69.774C69.774 172.188 69.774 174.783 69.7027 177.45C69.7027 178.315 69.774 178.963 69.9165 179.54C69.9165 179.684 69.9878 179.756 70.1304 179.828C70.1304 179.876 70.1541 179.9 70.2016 179.9C70.4867 180.045 70.7718 180.117 71.2707 179.972V179.9C71.4845 179.972 71.5558 179.9 71.5558 179.756V179.612C71.6983 179.684 71.7696 179.54 71.7696 179.396C71.6983 176.729 71.6983 174.062 71.7696 171.396C71.7696 170.603 71.6983 170.026 71.5558 169.522V169.233H74.3353C75.2619 169.305 75.5469 168.801 75.2619 167.792C75.2143 167.744 75.1668 167.72 75.1193 167.72C74.9768 167.575 74.6204 167.503 74.1928 167.503C71.5558 167.575 68.9188 167.575 66.353 167.575V167.72Z" fill="#BBBBBB"/>
<path d="M22.2365 150.277C21.8801 150.205 21.7376 150.349 21.6663 150.566C20.8823 152.44 20.2409 154.386 19.5282 156.332C18.8867 158.278 18.1028 160.224 17.3188 162.098C17.2475 162.386 17.3188 162.53 17.5326 162.602H17.6751C18.174 162.819 18.7442 162.819 19.3856 162.674V162.602C19.9558 162.026 20.3121 161.233 20.526 160.296H20.5972C20.8823 160.152 21.3099 160.08 21.8088 160.08C23.0917 160.152 24.3746 160.152 25.7287 160.152C26.0138 160.872 26.2989 161.593 26.584 162.458C26.6552 162.602 26.7978 162.602 27.0116 162.602C27.4392 162.819 28.0094 162.819 28.6508 162.674V162.602C28.7934 162.602 28.9359 162.602 28.9359 162.458V162.242C28.7221 161.737 28.5083 161.089 28.2945 160.44C28.0094 159.647 27.7243 158.926 27.5105 158.134C26.7978 156.116 26.0851 154.169 25.3724 152.296C25.3011 152.007 25.1586 151.719 25.0873 151.503C24.9447 150.926 24.6597 150.566 24.232 150.277V150.205H22.2365V150.277ZM23.0917 152.872H23.163C23.8044 154.53 24.3746 156.188 25.016 157.845V157.989H21.3099V157.773C21.9514 156.188 22.5215 154.53 23.0917 152.872Z" fill="#BBBBBB"/>
<path d="M97.2846 147.394C96.1442 147.322 95.1464 147.322 94.2199 147.466C93.2934 147.61 92.3669 147.755 91.5829 148.043C89.9437 148.475 88.5183 149.124 87.2354 149.989C86.0238 150.782 84.8122 151.791 83.8144 152.872C82.8166 153.953 81.8901 155.25 81.1061 156.548C80.3221 157.845 79.8232 159.431 79.4669 161.233C79.4669 161.377 79.3956 161.665 79.3956 161.881C79.3243 162.458 79.2531 162.89 79.1105 163.251C78.968 165.485 79.1105 167.503 79.4669 169.089C79.9658 170.819 80.5359 172.332 81.3199 173.702C82.1039 175.071 83.0304 176.224 84.0282 177.234C84.8122 178.098 85.6674 178.819 86.594 179.468C87.8056 180.333 89.1597 181.054 90.7277 181.63C91.084 181.774 91.5116 181.918 91.9393 181.99C92.5807 182.135 93.1509 182.279 93.7923 182.351C94.1487 182.351 94.505 182.423 94.8614 182.423C95.2177 182.495 95.5028 182.495 95.7879 182.639V182.495H97.4984C99.1376 182.423 100.634 182.135 101.917 181.702C103.485 181.198 104.839 180.477 106.122 179.684C107.405 178.819 108.545 177.81 109.543 176.729C110.47 175.576 111.325 174.35 112.038 172.909C112.75 171.467 113.249 169.954 113.606 168.224C113.962 166.278 114.033 164.332 113.748 162.458C113.463 160.512 113.035 158.926 112.394 157.485C111.681 156.043 110.897 154.746 109.899 153.593C108.973 152.44 107.833 151.43 106.621 150.566C105.409 149.701 103.984 148.98 102.487 148.403C100.991 147.755 99.2801 147.466 97.2846 147.394ZM103.057 158.638V158.71C102.63 158.494 102.274 158.494 101.846 158.71H101.775C100.919 160.007 100.064 161.305 99.3514 162.674C98.5674 163.972 97.8547 165.413 97.142 166.783C96.5006 167.936 95.7879 169.089 95.0039 170.098C94.7901 170.458 94.4337 170.747 93.9348 170.891C92.5807 170.963 91.7967 170.386 91.5829 169.305H91.5116V168.44C92.2243 166.999 93.0083 165.701 93.7923 164.332C94.0061 164.044 94.2199 163.683 94.4337 163.395C95.289 162.098 96.0017 160.728 96.7857 159.431C97.2133 158.71 97.6409 158.134 98.2111 157.629C98.7812 157.052 99.5652 156.836 100.492 156.908C101.133 157.052 101.703 157.197 102.06 157.629C102.416 157.917 102.772 158.278 103.057 158.638ZM108.973 169.089V169.161C108.902 169.377 108.83 169.738 108.759 170.026V170.098C108.403 170.603 107.975 170.891 107.405 171.107H106.407C105.98 170.891 105.552 170.603 105.267 170.242C105.124 170.098 105.053 169.954 104.982 169.738C104.839 169.666 104.839 169.521 104.768 169.377C104.055 168.152 103.343 166.855 102.701 165.629C102.63 165.485 102.559 165.413 102.487 165.341H102.416C102.06 164.476 101.632 163.683 101.204 162.963H105.623C106.051 163.611 106.55 164.332 106.977 165.053V165.197C107.049 165.341 107.12 165.485 107.191 165.629C107.548 166.062 107.833 166.566 108.118 166.999C108.474 167.647 108.759 168.296 108.973 169.089ZM91.1553 159.791H91.2978C91.7255 160.007 92.1531 160.296 92.5094 160.512C92.5569 160.512 92.5807 160.536 92.5807 160.584C92.652 160.8 92.7232 161.017 92.8658 161.377H92.937V162.458C92.2243 163.755 91.4404 165.125 90.6564 166.422C90.2288 167.143 89.8011 167.792 89.4448 168.44C89.0884 168.945 88.8033 169.449 88.447 170.026C88.1619 170.458 87.7343 170.819 87.2354 171.107H86.0951C85.3824 170.819 84.8835 170.386 84.6696 169.666L84.5984 169.594V168.584C85.3111 167.287 86.1663 165.918 86.9503 164.62C87.3067 163.9 87.7343 163.251 88.0906 162.602C88.447 161.881 88.8746 161.233 89.1597 160.584C89.6586 160.08 90.3 159.791 91.1553 159.791Z" fill="#E1DEDC"/>
<path d="M103.057 158.71V158.638C102.772 158.278 102.416 157.917 102.06 157.629C101.703 157.196 101.133 157.052 100.492 156.908C99.5652 156.836 98.7812 157.052 98.2111 157.629C97.6409 158.133 97.2133 158.71 96.7856 159.431C96.0017 160.728 95.2889 162.098 94.4337 163.395C94.2199 163.683 94.0061 164.044 93.7923 164.332C93.0083 165.701 92.2243 166.999 91.5116 168.44V169.305H91.5829C91.7967 170.386 92.5807 170.963 93.9348 170.891C94.4337 170.747 94.7901 170.458 95.0039 170.098C95.7878 169.089 96.5006 167.936 97.142 166.782C97.8547 165.413 98.5674 163.972 99.3514 162.674C100.064 161.305 100.919 160.007 101.775 158.71H101.846C102.273 158.494 102.63 158.494 103.057 158.71Z" fill="#FBFDFE"/>
<path d="M108.973 169.161V169.089C108.759 168.296 108.474 167.648 108.118 166.999C107.833 166.566 107.548 166.062 107.191 165.629H103.271V165.701L103.2 165.774C103.057 165.846 103.057 165.774 103.129 165.629H102.701C103.343 166.855 104.055 168.152 104.768 169.377C104.839 169.521 104.839 169.666 104.982 169.738C105.053 169.954 105.124 170.098 105.267 170.242C105.552 170.603 105.98 170.891 106.407 171.107H107.405C107.975 170.891 108.403 170.603 108.759 170.098V170.026C108.83 169.738 108.902 169.377 108.973 169.161Z" fill="#FBFDFE"/>
<path d="M106.977 165.197V165.053C106.55 164.332 106.051 163.611 105.623 162.963H101.204C101.632 163.683 102.06 164.476 102.416 165.341H102.487C102.559 165.413 102.63 165.485 102.701 165.629H103.129C103.058 165.774 103.058 165.846 103.2 165.774L103.271 165.702V165.629H107.191C107.12 165.485 107.049 165.341 106.977 165.197Z" fill="#F1F1EF"/>
<path d="M91.2978 159.791H91.1553C90.3 159.791 89.6586 160.08 89.1597 160.584C88.8746 161.233 88.447 161.881 88.0907 162.602C87.7343 163.251 87.3067 163.9 86.9503 164.62C86.1663 165.918 85.3111 167.287 84.5984 168.584V169.594L84.6697 169.666C84.8835 170.386 85.3824 170.819 86.0951 171.107H87.2354C87.7343 170.819 88.1619 170.458 88.447 170.026C88.8034 169.449 89.0884 168.945 89.4448 168.44C89.8012 167.792 90.2288 167.143 90.6564 166.422C91.4404 165.125 92.2244 163.755 92.9371 162.458V161.377H92.8658C92.7233 161.017 92.652 160.8 92.5807 160.584C92.5807 160.536 92.557 160.512 92.5094 160.512C92.1531 160.296 91.7255 160.007 91.2978 159.791Z" fill="#F1F1EF"/>
<path d="M97.4983 182.495H95.7878V182.639H97.4983V182.495Z" fill="#A5C6E0"/>
<path d="M64.5712 34.0916H63.8585C61.2928 34.0916 59.0834 35.0285 57.3016 36.9025C55.9475 38.1999 55.1635 39.7134 54.7359 41.3712C51.4574 42.6685 48.3928 44.6146 45.6845 47.2093C44.1878 48.5787 42.9762 49.9482 41.9784 51.4617L40.6956 53.4799C38.7 56.9395 37.6309 60.9036 37.5596 65.1561H41.0519H35.5641C34.5663 65.1561 33.711 65.5165 33.0696 66.2372C32.3569 66.8859 32.0005 67.7508 32.0005 68.6878C32.0005 69.6968 32.3569 70.5617 33.0696 71.2825C33.711 71.9312 34.7801 72.4357 36.2768 72.724H51.3862H41.9784V72.8682H38.9851C37.0608 72.8682 35.4215 73.5168 33.9961 74.9583C32.642 76.3278 31.9293 77.9855 31.9293 80.0036C31.9293 81.8776 32.642 83.6074 33.9961 84.9768C35.4215 86.3463 37.0608 87.067 38.9851 87.067H41.9784V76.6882V87.1391C42.0497 87.6436 42.121 88.2202 42.1922 88.7248C42.8337 93.1214 44.9005 97.0134 48.3215 100.257C49.3193 101.194 50.3171 101.987 51.3862 102.707V110.636C51.8138 120.654 56.3038 125.339 64.9276 124.835C71.9834 125.555 76.1884 121.159 77.6851 111.645V103.14C79.0392 102.347 80.2508 101.41 81.3911 100.257C85.311 96.581 87.4491 92.1844 87.8055 87.067H90.3712C92.2956 87.067 93.9348 86.3463 95.2889 84.9768C96.7143 83.6074 97.3558 81.8776 97.3558 80.0036C97.3558 77.9855 96.7143 76.3278 95.2889 74.9583C94.3624 74.0214 93.3646 73.3727 92.153 73.0844H92.0817L89.1596 72.8682H87.8055L87.3779 72.724H53.6668H87.8055L90.3712 72.8682C90.9414 72.8682 91.5116 72.9402 92.0817 73.0844H92.153C92.2956 73.0844 92.5806 73.0123 93.0795 72.7961C93.6497 72.5799 94.2911 72.0753 95.0751 71.3546C95.7878 70.5617 96.2154 69.6968 96.2154 68.6878C96.1442 67.7508 95.7878 66.8859 95.1464 66.2372C94.5762 65.5885 93.8635 65.3002 93.0795 65.1561C93.0083 59.6063 91.2265 54.6331 87.8055 50.3085C86.9502 49.2274 86.0237 48.2183 84.9547 47.2093C81.6049 43.9659 77.7563 41.8036 73.4801 40.5783L71.1994 36.9025C69.3464 35.0285 67.137 34.0916 64.5712 34.0916Z" fill="white"/>
<path d="M19.8132 130.745C19.1718 133.484 18.8154 136.439 18.7442 139.682H32.7132V129.375V135.069H64.9276V124.835C56.3038 125.339 51.8138 120.654 51.3862 110.636C43.8315 109.987 37.6309 110.852 32.7132 113.086C27.9381 115.321 24.3746 118.924 22.0939 123.898C21.0961 125.988 20.3834 128.222 19.8132 130.745Z" fill="white"/>
<path d="M96.9994 135.069V139.682H111.04C111.254 126.42 106.55 117.771 96.9994 113.879V135.069Z" fill="white"/>
<path d="M96.9994 139.682V135.069H64.9276V139.682H96.9994Z" fill="white"/>
<path d="M96.9994 135.069V113.879C91.9392 111.789 85.5249 111.068 77.6851 111.645C76.1884 121.159 71.9834 125.555 64.9276 124.835V135.069H96.9994Z" fill="white"/>
<path d="M32.7133 135.069V139.682H64.9276V135.069H32.7133Z" fill="white"/>
<path d="M18.7442 140.763C18.7442 140.763 18.7299 140.763 18.7228 140.763C18.1313 140.749 17.6609 140.259 17.6751 139.661C17.7464 136.338 18.1099 133.34 18.7727 130.5C19.3927 127.747 20.1482 125.498 21.1318 123.429C23.4979 118.269 27.2468 114.456 32.2642 112.106C32.7988 111.854 33.4331 112.092 33.6825 112.632C33.932 113.173 33.6968 113.814 33.1622 114.067C28.6152 116.193 25.2156 119.653 23.0632 124.352C22.1438 126.283 21.4453 128.381 20.8538 130.983C20.2195 133.686 19.8845 136.533 19.8132 139.704C19.799 140.295 19.3215 140.763 18.7442 140.763Z" fill="#BBBBBB"/>
<path d="M54.6646 54.6332C54.1301 54.6332 53.6739 54.2368 53.6027 53.689L53.5813 53.5304C53.5171 52.9971 53.453 52.4854 53.453 51.8943V43.6057C53.453 42.7552 53.5314 41.9551 53.6882 41.1623C53.8022 40.5785 54.3653 40.1965 54.9497 40.3118C55.527 40.4271 55.9047 40.9965 55.7907 41.5875C55.6624 42.2506 55.5983 42.8921 55.5983 43.6129V51.9015C55.5983 52.3556 55.6481 52.7737 55.7123 53.2638L55.7337 53.4295C55.8049 54.0206 55.3916 54.5611 54.8071 54.6404C54.7644 54.6404 54.7145 54.6476 54.6717 54.6476L54.6646 54.6332Z" fill="#BBBBBB"/>
<path d="M73.8364 54.6332C73.7937 54.6332 73.7438 54.6332 73.701 54.626C73.1166 54.5539 72.7032 54.0133 72.7745 53.4151C72.8386 52.9034 72.8386 52.4565 72.8386 51.8943V43.6056C72.8386 42.6398 72.7104 41.7245 72.4609 40.8956C72.2899 40.3262 72.6035 39.7208 73.1665 39.5406C73.7367 39.3604 74.3282 39.6847 74.5064 40.2541C74.82 41.292 74.9839 42.4164 74.9839 43.5984V51.8871C74.9839 52.4781 74.9839 53.0331 74.9055 53.6818C74.8342 54.2296 74.3781 54.626 73.8436 54.626L73.8364 54.6332Z" fill="#BBBBBB"/>
<path d="M41.9785 52.5429C41.7718 52.5429 41.5651 52.4853 41.3869 52.3627C40.8951 52.0312 40.7597 51.3609 41.0876 50.8636C42.0996 49.3284 43.3682 47.8724 44.9647 46.4093C47.7086 43.7785 50.873 41.7388 54.3439 40.3694C54.8927 40.1531 55.5128 40.427 55.7266 40.982C55.9404 41.537 55.6696 42.1641 55.1208 42.3803C51.9065 43.6488 48.9772 45.5444 46.4115 47.995C44.9077 49.3716 43.7816 50.6618 42.8622 52.06C42.6555 52.3699 42.3206 52.5429 41.9713 52.5429H41.9785Z" fill="#BBBBBB"/>
<path d="M41.0519 66.2372H37.5597C36.9681 66.2372 36.4906 65.7543 36.4906 65.1561C36.4906 64.5579 36.9681 64.075 37.5597 64.075H41.0519C41.6435 64.075 42.121 64.5579 42.121 65.1561C42.121 65.7543 41.6435 66.2372 41.0519 66.2372Z" fill="#BBBBBB"/>
<path d="M41.9784 73.8051H36.2768C36.2126 73.8051 36.1413 73.8051 36.0772 73.7835C34.4023 73.4592 33.1337 72.8754 32.3141 72.0465C31.3947 71.1167 30.9315 69.9923 30.9315 68.6878C30.9315 67.3832 31.4232 66.3021 32.3141 65.4732C33.148 64.5579 34.2741 64.075 35.5641 64.075H37.5596C38.1512 64.075 38.6287 64.5579 38.6287 65.1561C38.6287 65.7543 38.1512 66.2372 37.5596 66.2372H35.5641C34.8513 66.2372 34.2954 66.4751 33.8678 66.958C33.8393 66.9868 33.8179 67.0156 33.7894 67.0373C33.319 67.4625 33.0767 68.0319 33.0767 68.6806C33.0767 69.4085 33.319 69.9923 33.8322 70.5113C34.1743 70.8573 34.9012 71.3329 36.3837 71.6357H41.9855C42.5771 71.6357 43.0546 72.1186 43.0546 72.7168C43.0546 73.315 42.5771 73.7979 41.9855 73.7979L41.9784 73.8051Z" fill="#BBBBBB"/>
<path d="M41.9785 88.1483H38.9851C36.8327 88.1483 34.9084 87.3483 33.2621 85.7626C31.687 84.1698 30.8602 82.1877 30.8602 80.0038C30.8602 77.8199 31.6585 75.7946 33.2407 74.1945C34.8229 72.5945 36.7187 71.7872 38.9851 71.7872H41.4439C41.6007 71.6935 41.786 71.6431 41.9785 71.6431C42.57 71.6431 43.0475 72.126 43.0475 72.7242V72.8683C43.0475 73.4666 42.57 73.9495 41.9785 73.9495H38.9851C37.296 73.9495 35.949 74.5117 34.7516 75.7225C33.5543 76.9334 32.9984 78.3173 32.9984 80.0038C32.9984 81.5967 33.6042 83.0526 34.7516 84.213C35.9846 85.4023 37.3815 85.9861 38.9851 85.9861H41.9785C42.57 85.9861 43.0475 86.469 43.0475 87.0672C43.0475 87.6654 42.57 88.1483 41.9785 88.1483Z" fill="#BBBBBB"/>
<path d="M51.3862 73.8053H41.9784C41.3869 73.8053 40.9094 73.3224 40.9094 72.7242C40.9094 72.126 41.3869 71.6431 41.9784 71.6431H51.3862C51.9777 71.6431 52.4552 72.126 52.4552 72.7242C52.4552 73.3224 51.9777 73.8053 51.3862 73.8053Z" fill="#BBBBBB"/>
<path d="M68.8475 66.2372H65.9254C65.3338 66.2372 64.8563 65.7543 64.8563 65.1561C64.8563 64.5579 65.3338 64.075 65.9254 64.075H68.8475C69.439 64.075 69.9165 64.5579 69.9165 65.1561C69.9165 65.7543 69.439 66.2372 68.8475 66.2372Z" fill="#BBBBBB"/>
<path d="M37.5597 66.2373H37.5383C36.9467 66.2301 36.4764 65.7328 36.4906 65.1346C36.5619 60.6803 37.6666 56.5792 39.7691 52.9322C40.0684 52.4133 40.7241 52.2403 41.2301 52.543C41.7433 52.8457 41.9143 53.5088 41.615 54.0205C39.6978 57.3432 38.6929 61.0911 38.6216 65.1706C38.6145 65.7616 38.137 66.2301 37.5525 66.2301L37.5597 66.2373Z" fill="#BBBBBB"/>
<path d="M93.0795 66.2374C92.4951 66.2374 92.0176 65.7617 92.0105 65.1706C91.9463 59.9019 90.2501 55.1233 86.9716 50.9862C86.1449 49.9411 85.2469 48.9681 84.2277 48.0023C81.0918 44.9679 77.3786 42.82 73.1879 41.6236C72.6177 41.4578 72.2899 40.8596 72.4538 40.2902C72.6177 39.7136 73.2092 39.382 73.7723 39.5478C78.3051 40.8452 82.3105 43.166 85.6959 46.4382C86.7863 47.4689 87.7485 48.5212 88.6394 49.6456C92.2171 54.1719 94.0702 59.3902 94.1486 65.1562C94.1557 65.7545 93.6853 66.2446 93.0938 66.2518H93.0795V66.2374Z" fill="#BBBBBB"/>
<path d="M92.153 74.1655C91.5615 74.1655 91.084 73.6826 91.084 73.0844C91.084 72.4862 91.533 72.0321 92.1032 72.0033C92.1459 71.9961 92.3098 71.9528 92.6591 71.8014C93.1651 71.6068 93.8065 71.0591 94.3197 70.5906C94.8756 69.9635 95.1393 69.3725 95.1464 68.731C95.0823 68.0391 94.8257 67.4409 94.3909 67.0084C94.0061 66.5688 93.5713 66.3525 92.8871 66.23C92.3027 66.1219 91.9178 65.5597 92.0248 64.9759C92.1317 64.3849 92.6947 64.0029 93.2649 64.1038C94.4195 64.3128 95.2747 64.7669 95.9375 65.5309C96.7001 66.3021 97.1776 67.3832 97.2774 68.6157C97.2774 68.6445 97.2774 68.6734 97.2774 68.695C97.2774 69.9203 96.8141 71.0302 95.8591 72.0897C95.8377 72.1186 95.8092 72.1402 95.7878 72.1618C94.7758 73.0916 94.0987 73.5673 93.4502 73.8124C92.7303 74.1295 92.374 74.1727 92.1459 74.1727L92.153 74.1655ZM92.153 72.0033C92.153 72.0033 92.1388 72.0033 92.1317 72.0033C92.1388 72.0033 92.153 72.0033 92.1602 72.0033H92.153Z" fill="#BBBBBB"/>
<path d="M93.0796 66.2372H91.369C90.7775 66.2372 90.3 65.7543 90.3 65.1561C90.3 64.5579 90.7775 64.075 91.369 64.075H93.0796C93.6711 64.075 94.1486 64.5579 94.1486 65.1561C94.1486 65.7543 93.6711 66.2372 93.0796 66.2372Z" fill="#BBBBBB"/>
<path d="M87.8055 73.9493C87.6915 73.9493 87.5774 73.9349 87.4705 73.8916L87.0429 73.7475C86.4799 73.5601 86.1805 72.9475 86.3658 72.3781C86.5511 71.8087 87.1569 71.506 87.72 71.6934L88.1476 71.8375C88.7106 72.0249 89.01 72.6375 88.8247 73.2069C88.675 73.661 88.2616 73.9493 87.8126 73.9493H87.8055Z" fill="#BBBBBB"/>
<path d="M87.8055 73.8053H87.3779C86.7864 73.8053 86.3088 73.3224 86.3088 72.7242C86.3088 72.126 86.7864 71.6431 87.3779 71.6431H87.8055C88.3971 71.6431 88.8746 72.126 88.8746 72.7242C88.8746 73.3224 88.3971 73.8053 87.8055 73.8053Z" fill="#BBBBBB"/>
<path d="M89.1597 73.9494H87.8055C87.214 73.9494 86.7365 73.4665 86.7365 72.8682C86.7365 72.27 87.214 71.7871 87.8055 71.7871H89.1597C89.7512 71.7871 90.2287 72.27 90.2287 72.8682C90.2287 73.4665 89.7512 73.9494 89.1597 73.9494Z" fill="#BBBBBB"/>
<path d="M87.8055 73.9495C87.214 73.9495 86.7365 73.4666 86.7365 72.8683V72.7242C86.7365 72.126 87.214 71.6431 87.8055 71.6431C88.3971 71.6431 88.8746 72.126 88.8746 72.7242V72.8683C88.8746 73.4666 88.3971 73.9495 87.8055 73.9495Z" fill="#BBBBBB"/>
<path d="M89.1596 73.9493C89.124 73.9493 89.0812 73.9493 89.0456 73.9493L87.6915 73.8052C87.107 73.7403 86.6794 73.2142 86.7436 72.6159C86.8077 72.0249 87.3351 71.5925 87.9195 71.6573L89.2737 71.8015C89.8581 71.8663 90.2857 72.3925 90.2216 72.9907C90.1645 73.5457 89.7013 73.9565 89.1596 73.9565V73.9493Z" fill="#BBBBBB"/>
<path d="M92.0817 74.1655C91.9962 74.1655 91.9107 74.1583 91.818 74.1294C91.3334 74.0069 90.8487 73.942 90.3641 73.942H89.1525C88.5609 73.942 88.0834 73.4591 88.0834 72.8609C88.0834 72.2627 88.5609 71.7798 89.1525 71.7798H90.3641C91.0198 71.7798 91.6826 71.8663 92.3312 72.0321C92.9013 72.1762 93.2506 72.7672 93.108 73.3438C92.9869 73.8339 92.5521 74.1655 92.0746 74.1655H92.0817Z" fill="#BBBBBB"/>
<path d="M92.153 74.1657C91.5615 74.1657 91.0483 73.6828 91.0483 73.0845C91.0483 72.4863 91.4902 72.0034 92.0818 72.0034H92.153C92.7446 72.0034 93.2221 72.4863 93.2221 73.0845C93.2221 73.6828 92.7446 74.1657 92.153 74.1657Z" fill="#BBBBBB"/>
<path d="M90.3713 88.1482H87.8055C87.214 88.1482 86.7365 87.6653 86.7365 87.0671C86.7365 86.4689 87.214 85.986 87.8055 85.986H90.3713C91.9891 85.986 93.3504 85.4094 94.5335 84.2129C95.7023 83.0885 96.2867 81.6759 96.2867 80.0037C96.2867 78.2306 95.7379 76.8756 94.5548 75.744C93.6853 74.8647 92.8515 74.3602 91.9107 74.1368C91.3334 73.9998 90.9771 73.416 91.1125 72.8394C91.2479 72.2556 91.8181 71.9024 92.3953 72.0322C93.721 72.3493 94.9183 73.0556 96.0444 74.1944C97.6409 75.7296 98.4249 77.6324 98.4249 80.0037C98.4249 82.375 97.5981 84.2562 96.023 85.7625C94.4622 87.341 92.5521 88.1482 90.3713 88.1482Z" fill="#BBBBBB"/>
<path d="M92.0818 74.1655C92.0818 74.1655 92.0319 74.1655 92.0034 74.1655L89.0813 73.9493C88.4897 73.906 88.0479 73.3871 88.0906 72.7889C88.1334 72.1906 88.6537 71.7582 89.2381 71.787L92.1602 72.0032C92.7517 72.0465 93.1936 72.5654 93.1508 73.1636C93.1081 73.733 92.6377 74.1655 92.0889 74.1655H92.0818Z" fill="#BBBBBB"/>
<path d="M87.7801 74.1623H54.0691C53.4775 74.1623 53 73.6794 53 73.0811C53 72.4829 53.4775 72 54.0691 72H87.7801C88.3717 72 88.8492 72.4829 88.8492 73.0811C88.8492 73.6794 88.3717 74.1623 87.7801 74.1623Z" fill="#BBBBBB"/>
<path d="M78.6116 66.2372H77.1149C76.5234 66.2372 76.0458 65.7543 76.0458 65.1561C76.0458 64.5579 76.5234 64.075 77.1149 64.075H78.6116C79.2031 64.075 79.6806 64.5579 79.6806 65.1561C79.6806 65.7543 79.2031 66.2372 78.6116 66.2372Z" fill="#BBBBBB"/>
<path d="M54.7359 42.4524C54.6504 42.4524 54.5577 42.438 54.465 42.4163C53.8949 42.265 53.5528 41.674 53.7025 41.0974C54.2156 39.1009 55.1564 37.472 56.5675 36.117C58.5132 34.07 60.9792 33.0105 63.8585 33.0105H64.5712C67.4221 33.0105 69.9023 34.0628 71.9549 36.1386C73.0667 37.263 73.8934 38.5963 74.485 40.2036C74.6917 40.7658 74.4066 41.3857 73.8507 41.5947C73.2948 41.8037 72.6818 41.5154 72.4752 40.9532C71.9977 39.6414 71.3348 38.5675 70.4439 37.6666C68.7833 35.9872 66.8662 35.1728 64.5712 35.1728H63.8585C61.585 35.1728 59.6393 36.0088 58.0714 37.6522C56.9239 38.7549 56.1827 40.0451 55.7693 41.6451C55.641 42.128 55.2134 42.4524 54.7359 42.4524Z" fill="#BBBBBB"/>
<path d="M87.8055 88.1482C87.214 88.1482 86.7365 87.6652 86.7365 87.067V76.9044C86.7365 76.3061 87.214 75.8232 87.8055 75.8232C88.3971 75.8232 88.8746 76.3061 88.8746 76.9044V87.067C88.8746 87.6652 88.3971 88.1482 87.8055 88.1482Z" fill="#BBBBBB"/>
<path d="M77.6851 104.221C77.3145 104.221 76.9581 104.026 76.7586 103.68C76.4592 103.161 76.6374 102.506 77.1506 102.203C78.4334 101.453 79.5738 100.567 80.6357 99.4928C84.3631 95.9972 86.4015 91.8024 86.7365 86.9949C86.7792 86.3967 87.2924 85.9426 87.8768 85.9931C88.4683 86.0363 88.9102 86.5481 88.8675 87.1463C88.4897 92.5231 86.2233 97.2008 82.111 101.05C80.9493 102.232 79.6593 103.226 78.2125 104.077C78.0414 104.178 77.8561 104.221 77.678 104.221H77.6851Z" fill="#BBBBBB"/>
<path d="M96.9994 141.917C96.4079 141.917 95.9304 141.434 95.9304 140.835V135.069C95.9304 134.471 96.4079 133.988 96.9994 133.988C97.591 133.988 98.0685 134.471 98.0685 135.069V140.835C98.0685 141.434 97.591 141.917 96.9994 141.917Z" fill="#BBBBBB"/>
<path d="M96.9994 136.151C96.4079 136.151 95.9304 135.668 95.9304 135.069V113.879C95.9304 113.281 96.4079 112.798 96.9994 112.798C97.591 112.798 98.0685 113.281 98.0685 113.879V135.069C98.0685 135.668 97.591 136.151 96.9994 136.151Z" fill="#BBBBBB"/>
<path d="M111.04 141.917C110.448 141.917 109.971 141.434 109.971 140.835V139.682C110.177 126.918 105.68 118.578 96.6003 114.881C96.0515 114.658 95.7878 114.031 96.0088 113.476C96.2297 112.921 96.8497 112.654 97.3985 112.877C107.384 116.942 112.33 125.973 112.109 139.704V140.843C112.109 141.441 111.631 141.924 111.04 141.924V141.917Z" fill="#BBBBBB"/>
<path d="M67.2083 107.392C66.6381 107.392 66.1606 106.931 66.1392 106.347C66.1178 105.749 66.5811 105.252 67.1655 105.23C70.9999 105.086 74.2498 104.106 77.1006 102.232C77.5924 101.907 78.2552 102.044 78.5831 102.549C78.9038 103.046 78.7684 103.716 78.2695 104.048C75.0908 106.145 71.4845 107.241 67.251 107.392C67.2368 107.392 67.2225 107.392 67.2083 107.392Z" fill="#BBBBBB"/>
<path d="M77.6851 112.726C77.0935 112.726 76.616 112.243 76.616 111.645V103.14C76.616 102.542 77.0935 102.059 77.6851 102.059C78.2766 102.059 78.7541 102.542 78.7541 103.14V111.645C78.7541 112.243 78.2766 112.726 77.6851 112.726Z" fill="#BBBBBB"/>
<path d="M51.3862 103.789C51.1795 103.789 50.9728 103.731 50.7946 103.609C49.6614 102.845 48.6137 102.008 47.5946 101.05C43.9883 97.6263 41.8145 93.5396 41.1374 88.8835C41.1018 88.6168 41.059 88.3285 41.0234 88.0474L40.9236 87.2906C40.9236 87.2402 40.9165 87.1897 40.9165 87.1393V87.0672C40.9165 86.469 41.394 85.9861 41.9856 85.9861C42.5771 85.9861 43.0546 86.469 43.0546 87.0672L43.1473 87.7591C43.1829 88.033 43.2185 88.3141 43.2542 88.5664C43.86 92.7179 45.8128 96.3866 49.0556 99.4642C49.9893 100.336 50.9443 101.108 51.9848 101.807C52.4766 102.138 52.612 102.809 52.2842 103.306C52.0775 103.616 51.7425 103.789 51.3933 103.789H51.3862Z" fill="#BBBBBB"/>
<path d="M51.3862 111.717C50.7947 111.717 50.3171 111.234 50.3171 110.636V102.708C50.3171 102.109 50.7947 101.626 51.3862 101.626C51.9777 101.626 52.4553 102.109 52.4553 102.708V110.636C52.4553 111.234 51.9777 111.717 51.3862 111.717Z" fill="#BBBBBB"/>
<path d="M41.9784 88.1483C41.3869 88.1483 40.9094 87.6654 40.9094 87.0672V76.6883C40.9094 76.0901 41.3869 75.6072 41.9784 75.6072C42.57 75.6072 43.0475 76.0901 43.0475 76.6883V87.0672C43.0475 87.6654 42.57 88.1483 41.9784 88.1483Z" fill="#BBBBBB"/>
<path d="M32.7132 127.141C32.1217 127.141 31.6442 126.658 31.6442 126.06V113.086C31.6442 112.488 32.1217 112.005 32.7132 112.005C33.3048 112.005 33.7823 112.488 33.7823 113.086V126.06C33.7823 126.658 33.3048 127.141 32.7132 127.141Z" fill="#BBBBBB"/>
<path d="M32.7132 141.917C32.1217 141.917 31.6442 141.434 31.6442 140.835V135.069C31.6442 134.471 32.1217 133.988 32.7132 133.988C33.3048 133.988 33.7823 134.471 33.7823 135.069V140.835C33.7823 141.434 33.3048 141.917 32.7132 141.917Z" fill="#BBBBBB"/>
<path d="M32.7132 136.15C32.1217 136.15 31.6442 135.668 31.6442 135.069V129.375C31.6442 128.777 32.1217 128.294 32.7132 128.294H54.237C54.8285 128.294 55.306 128.777 55.306 129.375C55.306 129.974 54.8285 130.456 54.237 130.456H33.7823V135.069C33.7823 135.668 33.3048 136.15 32.7132 136.15Z" fill="#BBBBBB"/>
<path d="M64.9276 141.917C64.3361 141.917 63.8586 141.434 63.8586 140.835V135.069C63.8586 134.471 64.3361 133.988 64.9276 133.988C65.5192 133.988 65.9967 134.471 65.9967 135.069V140.835C65.9967 141.434 65.5192 141.917 64.9276 141.917Z" fill="#BBBBBB"/>
<path d="M64.9276 136.15C64.3361 136.15 63.8586 135.667 63.8586 135.069V124.835C63.8586 124.236 64.3361 123.753 64.9276 123.753C65.5192 123.753 65.9967 124.236 65.9967 124.835V135.069C65.9967 135.667 65.5192 136.15 64.9276 136.15Z" fill="#BBBBBB"/>
<path d="M32.7132 114.167C32.307 114.167 31.915 113.93 31.7368 113.526C31.4945 112.978 31.7368 112.344 32.2714 112.099C37.4171 109.756 43.8814 108.906 51.4717 109.555C52.0632 109.605 52.498 110.131 52.4481 110.722C52.3982 111.313 51.8708 111.753 51.2935 111.71C44.0667 111.09 37.9588 111.883 33.148 114.066C33.0054 114.131 32.8558 114.16 32.7132 114.16V114.167Z" fill="#BBBBBB"/>
<path d="M64.9276 136.151H32.7132C32.1217 136.151 31.6442 135.668 31.6442 135.069C31.6442 134.471 32.1217 133.988 32.7132 133.988H64.9276C65.5191 133.988 65.9967 134.471 65.9967 135.069C65.9967 135.668 65.5191 136.151 64.9276 136.151Z" fill="#BBBBBB"/>
<path d="M63.0746 107.392H63.0603C58.4776 107.32 54.4651 106.081 50.7946 103.608C50.3029 103.277 50.1674 102.607 50.4953 102.109C50.8231 101.612 51.486 101.482 51.9777 101.807C55.2918 104.041 58.9266 105.158 63.0888 105.23C63.6804 105.237 64.1508 105.735 64.1436 106.326C64.1365 106.917 63.659 107.392 63.0746 107.392Z" fill="#BBBBBB"/>
<path d="M66.3958 125.995C65.8827 125.995 65.3553 125.966 64.8207 125.909C64.2363 125.851 63.8087 125.318 63.8657 124.727C63.9227 124.136 64.4572 123.696 65.0345 123.761C67.3865 123.999 74.542 124.734 76.6303 111.479C76.7229 110.888 77.2788 110.492 77.8561 110.578C78.4406 110.672 78.8397 111.227 78.747 111.818C77.2646 121.238 73.1166 125.995 66.4029 125.995H66.3958Z" fill="#BBBBBB"/>
<path d="M63.716 125.952C60.0028 125.952 57.0237 124.943 54.8285 122.939C52.0704 120.424 50.5523 116.301 50.3171 110.686C50.2886 110.088 50.7519 109.583 51.3363 109.562C51.9207 109.533 52.4267 110.001 52.4481 110.592C52.6619 115.609 53.9448 119.22 56.2611 121.339C58.2567 123.162 61.1431 123.977 64.8635 123.761C65.455 123.732 65.961 124.179 65.9895 124.777C66.018 125.375 65.5762 125.887 64.9846 125.916C64.5499 125.945 64.1294 125.952 63.7089 125.952H63.716Z" fill="#BBBBBB"/>
<path d="M96.9995 136.151H64.9276C64.3361 136.151 63.8586 135.668 63.8586 135.069C63.8586 134.471 64.3361 133.988 64.9276 133.988H96.9995C97.591 133.988 98.0685 134.471 98.0685 135.069C98.0685 135.668 97.591 136.151 96.9995 136.151Z" fill="#BBBBBB"/>
<path d="M90.5138 130.168H73.8365C73.2449 130.168 72.7674 129.685 72.7674 129.087C72.7674 128.489 73.2449 128.006 73.8365 128.006H90.5138C91.1054 128.006 91.5829 128.489 91.5829 129.087C91.5829 129.685 91.1054 130.168 90.5138 130.168Z" fill="#BBBBBB"/>
<path d="M96.9995 114.96C96.864 114.96 96.7286 114.931 96.5932 114.881C91.6969 112.856 85.5391 112.149 77.7635 112.726C77.2005 112.769 76.6659 112.322 76.6232 111.724C76.5804 111.126 77.0223 110.614 77.6138 110.571C85.7244 109.973 92.1958 110.729 97.4128 112.885C97.9616 113.108 98.2182 113.742 97.9972 114.297C97.8262 114.715 97.4271 114.968 97.0066 114.968L96.9995 114.96Z" fill="#BBBBBB"/>
<path d="M103.913 11.8924V13.8385C103.699 13.8385 103.414 13.8385 103.2 13.9105C103.129 13.4781 103.129 13.1177 103.129 12.8294C103.129 12.469 103.057 12.1807 103.057 11.8924C103.057 11.7483 102.844 11.6762 102.63 11.6041C102.345 11.5321 102.06 11.5321 101.703 11.5321C101.418 11.5321 101.062 11.6041 100.777 11.6762C100.563 11.7483 100.42 11.8924 100.349 12.0366C100.349 12.2528 100.349 12.7573 100.42 13.406C100.42 13.9826 100.492 14.7034 100.563 15.3521C100.634 16.0728 100.706 16.7215 100.777 17.226C100.848 17.8026 100.991 18.163 101.062 18.163C101.276 18.2351 101.632 18.3071 102.131 18.3071C102.63 18.2351 102.844 18.163 102.915 18.0909C102.986 18.0188 102.986 17.8026 103.057 17.5864C103.057 17.2981 103.057 17.0098 103.129 16.5773C103.271 16.5773 103.414 16.5773 103.556 16.5053C103.77 16.5053 103.913 16.5053 104.055 16.4332C104.127 16.8656 104.198 17.226 104.198 17.5143C104.269 17.8026 104.34 17.9468 104.34 18.0188C104.412 18.163 104.697 18.2351 105.196 18.2351C105.694 18.3071 106.051 18.2351 106.265 18.163C106.336 18.0909 106.407 17.8026 106.478 17.226C106.55 16.6494 106.55 16.0007 106.621 15.3521C106.621 14.6313 106.692 13.9826 106.692 13.3339V12.0366C106.621 11.8924 106.478 11.7483 106.193 11.6762C105.908 11.5321 105.623 11.5321 105.267 11.5321C104.911 11.46 104.625 11.5321 104.412 11.6041C104.127 11.6762 103.984 11.7483 103.913 11.8924Z" fill="#BBBBBB"/>
<path d="M108.189 12.2529C107.476 12.8295 107.12 13.5502 106.977 14.343C106.835 15.28 106.977 16.1449 107.548 16.8657C108.118 17.5864 108.83 18.091 109.757 18.2351C110.755 18.3793 111.61 18.163 112.323 17.5864C113.035 17.0819 113.534 16.2891 113.677 15.3521C113.819 14.343 113.606 13.4781 113.035 12.7574C112.394 12.0366 111.61 11.6042 110.541 11.5321C109.614 11.3879 108.83 11.6762 108.189 12.2529ZM109.472 14.7755C109.472 14.5593 109.614 14.343 109.757 14.1989C109.971 14.0547 110.185 13.9827 110.47 14.0547C110.683 14.0547 110.897 14.1989 111.04 14.343C111.182 14.5593 111.182 14.7755 111.182 14.9917C111.111 15.2079 111.04 15.3521 110.897 15.4962C110.826 15.6404 110.612 15.7125 110.398 15.7125C110.113 15.7845 109.899 15.7125 109.686 15.4962C109.472 15.28 109.401 14.9917 109.472 14.7755Z" fill="#BBBBBB"/>
<path d="M98.8525 13.8385H99.2088C99.3514 13.8385 99.4226 13.7664 99.4939 13.6944C99.7077 13.4781 99.779 13.1898 99.6364 12.7574C99.5652 12.3249 99.4939 12.0366 99.3514 11.8204C99.2088 11.6762 98.995 11.5321 98.8525 11.5321C97.7121 11.3879 96.7856 11.6762 96.0016 12.2529C95.2889 12.9015 94.8613 13.7664 94.79 14.8476C94.6475 15.5683 94.79 16.217 95.1464 16.7215C95.4315 17.2261 95.9304 17.6585 96.5005 17.9468C96.9994 18.163 97.4983 18.3072 98.0685 18.3072C98.6387 18.3072 99.1376 18.163 99.6364 18.0189C99.779 17.9468 99.9215 17.8747 99.9928 17.6585C100.064 17.4423 100.064 17.154 100.064 16.7936C99.9928 16.4332 99.9215 16.217 99.779 16.0008C99.6364 15.8566 99.5652 15.7125 99.4226 15.7125C99.3514 15.6404 99.2088 15.6404 99.0663 15.7125C98.9237 15.7125 98.6387 15.7125 98.3536 15.7845C98.0685 15.7845 97.7834 15.7125 97.6409 15.5683C97.4983 15.4962 97.4271 15.3521 97.3558 15.2079C97.3558 14.8476 97.4271 14.5593 97.7121 14.343C97.926 14.1268 98.211 13.9106 98.4961 13.9106C98.6387 13.8385 98.7099 13.8385 98.8525 13.8385Z" fill="#BBBBBB"/>
<path d="M101.204 22.4154C100.777 22.3433 100.42 22.3433 100.064 22.4154C99.6365 22.4875 99.2801 22.6316 98.995 22.8478C98.4249 23.2803 98.1398 23.7848 98.1398 24.4335C98.0685 24.866 98.0685 25.2263 98.2111 25.5146C98.3536 25.8029 98.5674 26.0192 98.7099 26.1633C99.0663 26.3795 99.3514 26.5237 99.7077 26.5958C100.064 26.5958 100.42 26.6678 100.706 26.812C100.848 26.812 100.991 26.8841 100.991 26.9561C101.062 27.1003 100.991 27.1724 100.848 27.2444C100.706 27.3165 100.563 27.3165 100.492 27.2444C100.42 27.2444 100.278 27.1724 100.278 27.1003V27.0282C100.278 26.9561 100.135 26.8841 99.9215 26.812C99.779 26.7399 99.5652 26.6678 99.2801 26.6678C99.1376 26.7399 98.995 26.7399 98.8525 26.7399C98.7099 26.812 98.5674 26.812 98.4249 26.8841C98.1398 27.0282 97.9972 27.1724 98.0685 27.4607C98.2111 27.9652 98.4961 28.3976 98.9238 28.758C99.4939 29.1184 100.207 29.3346 100.991 29.2626C101.703 29.1184 102.345 28.8301 102.772 28.3256C103.2 27.8931 103.343 27.3886 103.271 26.812C103.2 26.2354 102.915 25.8029 102.416 25.4426C102.06 25.1543 101.561 24.938 100.848 24.7939H100.706C100.658 24.7939 100.611 24.7698 100.563 24.7218C100.135 24.6497 100.064 24.5776 100.278 24.4335C100.492 24.2173 100.706 24.2173 100.848 24.3614C100.896 24.4095 100.919 24.4575 100.919 24.5056C100.919 24.5776 100.991 24.5776 100.991 24.6497C101.062 24.6497 101.133 24.7218 101.204 24.7218C101.276 24.7218 101.418 24.6497 101.632 24.6497C101.846 24.5776 101.988 24.5776 102.202 24.5056C102.416 24.4335 102.559 24.2893 102.701 24.2173C102.844 24.0731 102.844 24.001 102.844 23.8569C102.701 23.4244 102.487 23.1361 102.202 22.9199C101.917 22.6316 101.561 22.4875 101.204 22.4154Z" fill="#BBBBBB"/>
<path d="M93.9348 11.6761C93.8635 11.6041 93.6497 11.6041 93.2221 11.532H91.7967C91.2978 11.532 90.7989 11.532 90.3713 11.6041C89.9436 11.6041 89.7298 11.6761 89.5873 11.6761C89.516 11.7482 89.516 11.8203 89.4447 12.0365C89.4447 12.1807 89.3735 12.3969 89.3735 12.6131V14.1267C89.3735 14.7033 89.3735 15.352 89.4447 15.8565C89.4447 16.5052 89.516 17.0097 89.5873 17.4422C89.5873 17.8746 89.7298 18.1629 89.8011 18.1629C89.9436 18.235 90.2287 18.235 90.7276 18.3071C91.2265 18.3071 91.7254 18.3071 92.2956 18.235C92.7945 18.235 93.2934 18.1629 93.721 18.1629C94.1486 18.0909 94.3624 17.9467 94.4337 17.8746V16.7935C94.4337 16.289 94.3624 16.0007 94.2199 16.0007C94.2199 15.8565 93.9348 15.8565 93.5784 15.8565C93.1508 15.9286 92.6519 15.9286 92.153 15.9286V15.7124C92.3668 15.7124 92.5094 15.7124 92.6519 15.6403C92.7945 15.6403 92.937 15.6403 93.0083 15.5682C93.0796 15.5682 93.0795 15.4961 93.1508 15.352V14.8475C93.0795 14.6312 93.0796 14.4871 93.0083 14.2708C93.0083 14.1267 92.937 14.0546 92.8657 14.0546C92.6519 13.9825 92.4381 13.9825 92.0818 13.9105V13.6942C92.5807 13.6942 93.0083 13.6942 93.3646 13.6222C93.7923 13.6222 94.0061 13.5501 94.0061 13.4059C94.0773 13.2618 94.0773 12.9014 94.0773 12.469C94.0773 12.0365 94.0773 11.7482 93.9348 11.6761Z" fill="#BBBBBB"/>
<path d="M87.663 12.1086C87.2354 11.8203 86.8077 11.6041 86.3088 11.4599C85.7387 11.3879 85.2398 11.3158 84.6696 11.4599C84.1707 11.532 83.7431 11.6762 83.3867 11.8203C83.3155 11.8203 83.2442 12.1807 83.2442 12.8294C83.2442 13.478 83.3155 14.1988 83.3155 14.9196C83.3867 15.7124 83.3867 16.3611 83.458 17.0818C83.5293 17.6584 83.6006 18.0188 83.6718 18.163C83.7431 18.163 83.7431 18.235 83.8144 18.235C83.8856 18.3071 84.1707 18.3071 84.5271 18.3071C84.8834 18.3071 85.1685 18.235 85.4536 18.235C85.7387 18.163 85.8812 18.163 85.8812 18.0188C85.9525 17.9467 85.9525 17.7305 85.9525 17.5143C85.9525 17.4422 86.095 17.3701 86.3088 17.4422C86.5227 17.5143 86.8077 17.6584 87.1641 17.9467C87.5204 18.163 87.8055 18.235 88.0193 18.235L88.2332 18.0188C88.3757 17.8747 88.447 17.7305 88.5895 17.5863C88.732 17.4422 88.8746 17.226 88.9459 17.0818C89.0171 16.9377 89.0884 16.7935 89.0884 16.7214C89.0884 16.5773 88.9459 16.3611 88.732 16.2169C88.5182 15.9286 88.2332 15.7124 87.9481 15.4241C88.3757 15.0637 88.5182 14.4871 88.447 13.6222C88.3757 12.9735 88.0906 12.469 87.663 12.1086ZM85.7387 14.6313C85.5249 14.6313 85.3823 14.4871 85.311 14.0547C85.2398 13.6222 85.3823 13.406 85.5961 13.406C85.8812 13.406 86.095 13.406 86.2376 13.5501C86.3801 13.6222 86.4514 13.7663 86.4514 13.9105C86.4514 14.0547 86.3801 14.1988 86.3088 14.343C86.1663 14.4871 85.9525 14.5592 85.7387 14.6313Z" fill="#BBBBBB"/>
<path d="M96.358 25.2985C96.2867 25.1543 96.2155 25.0823 96.2155 25.0102C96.0016 25.0102 95.7166 24.9381 95.4315 24.9381V24.794C95.3602 24.794 95.3602 24.7219 95.3602 24.7219C95.8591 24.6498 96.2867 24.6498 96.7143 24.6498C97.0707 24.5777 97.2845 24.5777 97.3558 24.4336C97.3558 24.2174 97.4271 23.857 97.3558 23.4245C97.3558 22.9921 97.3558 22.7038 97.2845 22.6317C97.2132 22.6317 96.9994 22.5596 96.5005 22.5596C96.0729 22.4875 95.6453 22.4875 95.0751 22.4875C94.5762 22.4875 94.1486 22.5596 93.721 22.5596C93.2221 22.6317 93.0083 22.6317 92.937 22.7038C92.8657 22.7038 92.7945 22.8479 92.7945 22.9921C92.7232 23.2083 92.7232 23.3525 92.7232 23.5687C92.6519 24.0011 92.6519 24.4336 92.6519 25.0823C92.6519 25.7309 92.7232 26.3075 92.7232 26.8842C92.7945 27.4608 92.8657 27.9653 92.8657 28.3977C92.937 28.9023 93.0083 29.1185 93.0795 29.1185C93.2221 29.1906 93.5784 29.2626 94.0773 29.2626H95.574C96.1442 29.1906 96.5718 29.1906 96.9994 29.1185C97.4271 29.0464 97.7121 28.9743 97.7121 28.9023C97.7834 28.686 97.7834 28.3257 97.7121 27.8211C97.7121 27.3166 97.6409 27.0283 97.5696 26.9562C97.4983 26.8842 97.2845 26.8842 96.8569 26.8842C96.4293 26.8842 95.9304 26.8842 95.4315 26.9562V26.6679H95.9304C96.1442 26.5959 96.2155 26.5959 96.2867 26.5959C96.358 26.5959 96.4293 26.5238 96.4293 26.3075C96.5005 26.1634 96.5005 26.0192 96.4293 25.803C96.4293 25.6589 96.358 25.4426 96.358 25.2985Z" fill="#BBBBBB"/>
<path d="M92.3669 24.4336C92.3669 23.7849 92.2956 23.2804 92.2956 22.8479C92.2243 22.7038 92.1531 22.6317 91.868 22.5596C91.5829 22.4875 91.2978 22.4875 91.0127 22.4875C90.6564 22.4875 90.4426 22.5596 90.1575 22.6317C89.8724 22.7038 89.7299 22.8479 89.7299 22.9921V24.3615C89.5873 24.1453 89.3735 23.857 89.0884 23.4245C88.8033 23.0642 88.5182 22.7759 88.3757 22.7038C88.2332 22.6317 88.0194 22.6317 87.8055 22.5596C87.5205 22.5596 87.3066 22.4875 87.0216 22.5596C86.7365 22.5596 86.5227 22.5596 86.3089 22.6317C86.1663 22.6317 86.0238 22.7038 86.0238 22.8479C85.9525 23.2083 85.9525 23.7849 85.9525 24.4336C85.8812 25.0823 85.8812 25.803 85.9525 26.4517C85.9525 27.1004 85.9525 27.677 86.0238 28.1815C86.0238 28.686 86.095 28.9743 86.1663 29.0464C86.2376 29.1906 86.5227 29.2626 87.0216 29.2626C87.5205 29.2626 87.9481 29.2626 88.1619 29.1185C88.2332 29.1185 88.3044 28.9023 88.3044 28.5419C88.3757 28.1815 88.3757 27.7491 88.447 27.1725C88.5182 27.2445 88.5895 27.3887 88.7321 27.5328C88.8746 27.7491 89.0884 27.9653 89.3022 28.1815C89.516 28.3977 89.6586 28.614 89.8724 28.8302C90.0862 28.9743 90.2287 29.1185 90.3 29.1906C90.3713 29.1906 90.5138 29.1906 90.7276 29.2626H91.2978C91.5116 29.2626 91.7254 29.2626 91.868 29.1906C92.0818 29.1906 92.1531 29.1185 92.2243 29.0464C92.2243 28.9743 92.2956 28.686 92.2956 28.1815C92.3669 27.677 92.3669 27.1004 92.3669 26.4517V24.4336Z" fill="#BBBBBB"/>
<path d="M81.6763 14.8475C81.6763 14.6312 81.605 14.4871 81.605 14.2708C81.5337 14.1267 81.4625 14.0546 81.4625 14.0546C81.2486 13.9825 80.9636 13.9825 80.6072 13.9105V13.6942C81.1061 13.6942 81.5337 13.6942 81.9614 13.6222C82.3177 13.6222 82.5315 13.5501 82.5315 13.4059C82.6028 13.2618 82.6741 12.9014 82.6028 12.469C82.6028 12.0365 82.6028 11.7482 82.5315 11.6761C82.4603 11.6041 82.1752 11.6041 81.7475 11.532H80.3221C79.8232 11.532 79.3956 11.532 78.8967 11.6041C78.4691 11.6041 78.2553 11.6761 78.184 11.6761C78.0415 11.7482 78.0415 11.8203 78.0415 12.0365C77.9702 12.1807 77.9702 12.3969 77.9702 12.6131C77.8989 12.9735 77.8989 13.478 77.8989 14.1267C77.8989 14.7033 77.9702 15.352 77.9702 15.8565C78.0415 16.5052 78.0415 17.0097 78.1127 17.4422C78.184 17.8746 78.2553 18.1629 78.3265 18.1629C78.4691 18.235 78.7542 18.235 79.2531 18.3071C79.752 18.3071 80.2509 18.3071 80.821 18.235C81.3199 18.235 81.8188 18.1629 82.2464 18.1629C82.6741 18.0909 82.8879 17.9467 82.9591 17.8746C83.0304 17.6584 83.0304 17.298 82.9591 16.7935C82.9591 16.289 82.8879 16.0007 82.8166 16.0007C82.7453 15.8565 82.5315 15.8565 82.1039 15.8565C81.6763 15.9286 81.1774 15.9286 80.6785 15.9286V15.7124C80.8923 15.7124 81.0348 15.7124 81.1774 15.6403C81.3199 15.6403 81.4625 15.6403 81.5337 15.5682C81.605 15.5682 81.6763 15.4961 81.6763 15.352V14.8475Z" fill="#BBBBBB"/>
<path d="M76.1171 12.2528C75.6895 11.8925 75.1193 11.6762 74.5492 11.5321C73.9077 11.46 73.3376 11.46 72.7674 11.5321C72.411 11.6042 72.126 11.6762 71.9834 11.7483C71.8409 11.8204 71.7696 12.2528 71.6983 12.9015C71.6271 13.5502 71.5558 14.271 71.6271 14.9917C71.6271 15.7125 71.6983 16.4332 71.8409 17.0819C71.9121 17.6585 72.0547 18.0189 72.1972 18.091C72.3398 18.163 72.4823 18.163 72.6961 18.2351C72.9812 18.2351 73.195 18.3072 73.4801 18.3072C74.2641 18.3072 74.9768 18.163 75.6895 17.8747C76.3309 17.5864 76.8298 17.0819 77.1862 16.2891C77.4713 15.6404 77.4713 14.8476 77.3287 14.1268C77.1149 13.334 76.6873 12.6853 76.1171 12.2528ZM74.0503 14.1268H74.3353C74.5492 14.1268 74.763 14.271 74.9055 14.4151C75.1193 14.5593 75.1906 14.7755 75.1906 14.9917C75.1193 15.2079 75.048 15.3521 74.9055 15.4962C74.763 15.5683 74.5492 15.6404 74.3353 15.6404C74.1928 15.6404 74.1215 15.6404 74.0503 15.5683C73.979 15.4962 73.9077 15.3521 73.9077 15.0638C73.8364 14.7034 73.8364 14.4872 73.9077 14.343C73.9077 14.271 73.979 14.1989 74.0503 14.1268Z" fill="#BBBBBB"/>
<path d="M67.4934 13.2618C67.6359 13.1177 67.7072 12.9735 67.6359 12.8294C67.4934 12.469 67.3508 12.1086 66.9945 11.8924C66.7094 11.6761 66.4243 11.532 65.9967 11.4599C65.6403 11.3158 65.284 11.3158 64.8564 11.4599C64.5 11.532 64.1437 11.6761 63.7873 11.8924C63.2884 12.2528 63.0033 12.7573 62.9321 13.406C62.8608 13.8384 62.9321 14.2709 63.0746 14.4871C63.2171 14.7754 63.3597 14.9916 63.5735 15.1358C63.8586 15.352 64.2149 15.4961 64.5 15.5682C64.8564 15.6403 65.2127 15.7124 65.5691 15.7844C65.7116 15.8565 65.7829 15.8565 65.7829 15.9286C65.8542 16.0728 65.7829 16.2169 65.6403 16.2169C65.4978 16.289 65.4265 16.289 65.284 16.289C65.2127 16.2169 65.1414 16.2169 65.0702 16.0728V16.0007C65.0702 15.9286 64.9276 15.8565 64.7851 15.7844C64.5713 15.7124 64.3575 15.7124 64.1437 15.7124C64.0011 15.7124 63.8586 15.7124 63.716 15.7844C63.5022 15.7844 63.3597 15.8565 63.2171 15.8565C62.932 16.0007 62.8608 16.2169 62.8608 16.4331C63.0033 17.0097 63.2884 17.4422 63.7873 17.8026C64.3575 18.1629 64.9989 18.3071 65.7829 18.235C66.5669 18.1629 67.137 17.8746 67.6359 17.3701C67.9923 16.9377 68.2061 16.3611 68.0635 15.8565C67.9923 15.2799 67.7785 14.7754 67.2796 14.415C66.8519 14.1267 66.353 13.9105 65.7116 13.8384C65.6403 13.8384 65.5691 13.8384 65.4978 13.7663H65.4265C64.9989 13.6943 64.9276 13.5501 65.0702 13.406C65.3553 13.2618 65.4978 13.2618 65.6403 13.3339C65.7116 13.406 65.7829 13.478 65.7829 13.478C65.7829 13.5501 65.7829 13.6222 65.8542 13.6222C65.9017 13.6702 65.9492 13.6943 65.9967 13.6943C66.1392 13.6943 66.2818 13.6943 66.4956 13.6222C66.6381 13.6222 66.8519 13.5501 66.9945 13.478C67.2083 13.406 67.3508 13.3339 67.4934 13.2618Z" fill="#BBBBBB"/>
<path d="M62.3619 11.9645C62.3619 11.8203 62.1481 11.7483 61.9343 11.6762H60.3663C60.0812 11.7483 60.0099 11.8203 60.0099 11.8924C59.9387 12.1086 59.9387 12.3969 60.0099 12.9015C60.0099 13.2618 60.0099 13.6943 59.9387 14.1267C59.9387 14.5592 59.7961 14.9196 59.7249 15.28C59.5823 15.5683 59.3685 15.7124 59.0834 15.7124C58.7983 15.6403 58.5845 15.4962 58.5133 15.1358C58.3707 14.8475 58.3707 14.4871 58.2995 14.0547C58.2995 13.6943 58.2995 13.2618 58.3707 12.8294V11.8924C58.3707 11.8203 58.2995 11.7483 58.0856 11.6762C57.8718 11.6762 57.5867 11.6041 57.3017 11.6041C57.0879 11.532 56.8028 11.532 56.5177 11.6041C56.2326 11.6041 56.0901 11.6762 56.0188 11.7483C55.9475 11.8203 55.805 12.1086 55.805 12.469C55.7337 12.8294 55.7337 13.2618 55.7337 13.6943C55.7337 14.1267 55.7337 14.5592 55.805 14.9917C55.805 15.4241 55.8762 15.7845 55.9475 16.0007C56.2326 16.7215 56.6602 17.226 57.3017 17.7305C57.9431 18.163 58.6558 18.3071 59.4398 18.3071C60.0812 18.235 60.5801 18.0188 61.079 17.6584C61.5066 17.3701 61.863 16.9377 62.1481 16.3611C62.2193 16.0728 62.2906 15.7845 62.3619 15.352C62.4332 14.9196 62.5044 14.4871 62.5044 13.9826V12.7573C62.4332 12.3969 62.4332 12.1086 62.3619 11.9645Z" fill="#BBBBBB"/>
<path d="M72.126 26.1632C72.126 25.8749 72.1973 25.5866 72.4823 25.2983C72.6961 25.0821 72.9812 24.9379 73.2663 24.8659H73.6227C73.7652 24.7938 73.9078 24.7938 74.0503 24.7938C74.1216 24.7938 74.1928 24.7938 74.2641 24.7217C74.4779 24.5055 74.5492 24.2172 74.4066 23.7126C74.3354 23.2802 74.2641 22.9919 74.1216 22.8477C73.979 22.6315 73.7652 22.5594 73.6227 22.4874C72.4823 22.4153 71.5558 22.6315 70.7718 23.2802C70.0591 23.8568 69.6315 24.7217 69.5602 25.8749C69.4177 26.5236 69.5602 27.1723 69.9166 27.7489C70.2729 28.2534 70.7006 28.6859 71.2707 28.9742C71.7696 29.1183 72.2685 29.2625 72.8387 29.2625C73.4089 29.2625 73.9078 29.1904 74.4066 28.9742C74.5492 28.9742 74.6917 28.9021 74.763 28.6859C74.8343 28.4696 74.8343 28.1813 74.8343 27.8209C74.763 27.4606 74.6917 27.1723 74.5492 26.956C74.4066 26.8119 74.3354 26.7398 74.2641 26.6677H73.9078C73.6939 26.6677 73.4089 26.7398 73.1238 26.7398C72.8387 26.7398 72.5536 26.6677 72.4111 26.5236C72.2685 26.4515 72.1973 26.3074 72.126 26.1632Z" fill="#BBBBBB"/>
<path d="M68.6337 25.5867C68.4199 24.9381 68.2061 24.3615 67.9923 23.8569C67.7785 23.2803 67.5647 22.9199 67.4221 22.7758C67.2796 22.7037 67.0658 22.6316 66.7807 22.5596H65.9254C65.5691 22.6316 65.3553 22.6316 65.0702 22.7037C64.7851 22.7758 64.6426 22.8479 64.6426 22.992C64.5 23.2082 64.3575 23.5686 64.1437 24.0732C64.0011 24.6498 63.7873 25.2264 63.6448 25.803C63.5022 26.4516 63.3597 27.0282 63.2884 27.6049C63.2171 28.1815 63.1459 28.6139 63.1459 28.9022C63.1459 28.9743 63.1459 29.0464 63.2171 29.1184C63.2884 29.1905 63.5022 29.2626 64.0011 29.2626H64.7851C64.8564 29.1905 64.9276 29.1905 64.9276 29.1905C64.9989 29.1184 65.0702 28.9743 65.1415 28.7581C65.284 28.5418 65.3553 28.3256 65.4265 28.1094C65.5691 27.9652 65.7116 27.8932 65.9254 27.8932H66.6381C66.7094 27.8932 66.7807 27.9652 66.852 28.0373C66.9232 28.1094 66.9945 28.3256 67.137 28.686C67.2083 28.9743 67.3508 29.1184 67.4221 29.1905C67.4221 29.2626 67.4934 29.2626 67.4934 29.2626H68.2061C68.6337 29.1905 68.9188 29.1905 69.2039 29.1184C69.3464 29.1184 69.4177 29.1184 69.489 28.9743C69.5602 28.9743 69.5602 28.8301 69.5602 28.6139C69.489 28.3977 69.3464 27.9652 69.2039 27.3886C69.0613 26.812 68.8475 26.2354 68.6337 25.5867ZM65.7829 25.7309C65.8542 25.5147 65.9254 25.2984 65.9967 25.2264C66.1392 25.0822 66.2818 25.2264 66.4956 25.5147C66.7094 25.875 66.7807 26.0913 66.7807 26.1633C66.7094 26.3075 66.4956 26.3796 66.2105 26.3796C65.8542 26.4516 65.7116 26.3796 65.6403 26.2354C65.5691 26.1633 65.6404 25.9471 65.7829 25.7309Z" fill="#BBBBBB"/>
<path d="M62.7182 25.9472C62.6469 25.8751 62.5757 25.803 62.3619 25.7309H61.5779C61.2928 25.803 61.0077 25.803 60.7939 25.8751C60.5801 25.9472 60.4376 26.0913 60.4376 26.1634C60.4376 26.3075 60.4376 26.5238 60.3663 26.6679C60.3663 26.8842 60.2237 26.9562 59.9387 26.9562C59.5823 26.8842 59.3685 26.8121 59.1547 26.6679C58.9409 26.4517 58.8696 26.2355 58.8696 26.0192C58.7983 25.803 58.8696 25.5147 59.0121 25.2985C59.0834 25.0823 59.2972 24.9381 59.5823 24.794C59.7961 24.7219 60.0099 24.7219 60.295 24.7219C60.3663 24.7219 60.4376 24.794 60.3663 24.866C60.3663 24.9381 60.4376 25.0102 60.5801 25.0102C60.6514 25.0823 60.7939 25.0823 61.0077 25.0102C61.2215 25.0102 61.4353 24.9381 61.6492 24.9381C61.863 24.866 62.0055 24.794 62.1481 24.7219C62.3619 24.6498 62.4331 24.5777 62.3619 24.4336C62.3619 23.7128 62.1481 23.2083 61.6492 22.92C61.1503 22.6317 60.5088 22.4875 59.9387 22.4875C58.9409 22.5596 58.1569 22.8479 57.5155 23.4245C56.9453 24.0011 56.5177 24.794 56.4464 25.803C56.3751 26.74 56.5889 27.5328 57.1591 28.1815C57.8005 28.8302 58.5132 29.1906 59.4398 29.2626C59.9387 29.2626 60.4376 29.2626 60.9365 29.1185C61.0077 29.1185 61.0077 29.1906 61.079 29.1906C61.2215 29.2626 61.5066 29.2626 61.9342 29.2626C62.3619 29.2626 62.647 29.1906 62.647 29.1185C62.7182 29.1185 62.7182 28.9743 62.7895 28.686V26.8121C62.7895 26.5238 62.7182 26.1634 62.7182 25.9472Z" fill="#BBBBBB"/>
<path d="M79.253 27.8932C79.8232 28.6139 80.6072 29.0464 81.4624 29.1905C82.4602 29.3347 83.3155 29.1905 84.0282 28.6139C84.8122 28.0373 85.2398 27.3166 85.3823 26.3796C85.5961 25.2984 85.3823 24.4335 84.7409 23.7128C84.1707 22.992 83.3155 22.5596 82.2464 22.4875C81.3199 22.4154 80.6072 22.6316 79.8945 23.2083C79.253 23.7849 78.8254 24.5056 78.6829 25.3705C78.5403 26.3075 78.7541 27.1003 79.253 27.8932ZM82.7453 25.3705C82.8878 25.5147 82.9591 25.7309 82.8879 26.0192C82.8879 26.1633 82.8166 26.3075 82.674 26.5237C82.5315 26.6679 82.3177 26.6679 82.1751 26.7399C81.8901 26.7399 81.6762 26.6679 81.4624 26.4516C81.2486 26.2354 81.1774 26.0192 81.1774 25.7309C81.2486 25.5147 81.3199 25.2984 81.5337 25.1543C81.7475 25.0101 81.9613 25.0101 82.1751 25.0101C82.4602 25.0822 82.6028 25.1543 82.7453 25.3705Z" fill="#BBBBBB"/>
<path d="M78.2553 22.92C78.2553 22.7758 78.1127 22.6317 77.7564 22.5596C77.4713 22.4875 77.1862 22.4875 76.7586 22.4875C76.4022 22.4875 76.1172 22.5596 75.7608 22.6317C75.4757 22.7038 75.3332 22.8479 75.2619 22.9921V24.3615C75.3332 24.9381 75.3332 25.6589 75.4044 26.3075C75.4757 27.0283 75.547 27.677 75.6183 28.2536C75.7608 28.8302 75.8321 29.1185 75.9746 29.1185C76.1884 29.2626 76.5448 29.2626 77.1149 29.2626C77.6851 29.2626 77.9702 29.1906 78.0415 29.0464C78.0415 28.9743 78.1127 28.686 78.184 28.1815C78.2553 27.677 78.2553 27.1004 78.3265 26.4517V24.5057C78.3265 23.857 78.3265 23.3525 78.2553 22.92Z" fill="#BBBBBB"/>
<path d="M116.171 11.4599C115.744 11.532 115.387 11.6761 115.102 11.8924C114.532 12.2528 114.247 12.7573 114.247 13.406C114.176 13.8384 114.176 14.2709 114.318 14.4871C114.461 14.7754 114.603 14.9916 114.817 15.1358C115.102 15.352 115.459 15.4961 115.815 15.5682C116.171 15.6403 116.456 15.7124 116.813 15.7844C116.955 15.8565 117.027 15.8565 117.098 15.9286C117.169 16.0728 117.098 16.2169 116.955 16.2169C116.813 16.289 116.67 16.289 116.599 16.289C116.456 16.2169 116.385 16.2169 116.385 16.0728V16.0007C116.314 15.9286 116.243 15.8565 116.029 15.7844C115.815 15.7124 115.601 15.7124 115.387 15.7124C115.245 15.7124 115.102 15.7124 114.96 15.7844C114.746 15.7844 114.603 15.8565 114.532 15.8565C114.247 16.0007 114.104 16.2169 114.104 16.4331C114.247 17.0097 114.603 17.4422 115.031 17.8026C115.601 18.1629 116.314 18.3071 117.027 18.235C117.811 18.1629 118.452 17.8746 118.88 17.3701C119.236 16.9377 119.45 16.3611 119.378 15.8565C119.307 15.2799 119.022 14.7754 118.523 14.415C118.167 14.1267 117.668 13.9105 116.955 13.8384C116.884 13.8384 116.813 13.8384 116.813 13.7663H116.67C116.243 13.6943 116.171 13.5501 116.385 13.406C116.599 13.2618 116.813 13.2618 116.955 13.3339C117.027 13.406 117.027 13.478 117.027 13.478C117.027 13.5501 117.027 13.6222 117.098 13.6222C117.169 13.6943 117.24 13.6943 117.312 13.6943C117.383 13.6943 117.525 13.6943 117.739 13.6222C117.953 13.6222 118.096 13.5501 118.309 13.478C118.523 13.406 118.666 13.3339 118.737 13.2618C118.88 13.1177 118.951 12.9735 118.88 12.8294C118.808 12.469 118.594 12.1086 118.309 11.8924C118.024 11.6761 117.668 11.532 117.312 11.4599C116.884 11.3158 116.528 11.3158 116.171 11.4599Z" fill="#BBBBBB"/>
<path d="M9.19393 12.2529C8.48122 12.9015 8.0536 13.7664 7.98233 14.8476C7.83978 15.5683 7.98233 16.217 8.33868 16.7215C8.69503 17.2261 9.12266 17.6585 9.69282 17.9468C10.1917 18.163 10.6906 18.3072 11.2608 18.3072C11.8309 18.3072 12.3298 18.163 12.8287 18.0189C12.9713 17.9468 13.1138 17.8747 13.1851 17.6585C13.2564 17.4423 13.2564 17.154 13.2564 16.7936C13.1851 16.4332 13.1138 16.217 12.9713 16.0008C12.8287 15.8566 12.7575 15.7125 12.6149 15.7125C12.5437 15.6404 12.4011 15.6404 12.3298 15.7125C12.116 15.7125 11.8309 15.7125 11.5459 15.7845C11.2608 15.7845 10.9757 15.7125 10.8332 15.5683C10.6906 15.4962 10.6193 15.3521 10.5481 15.2079C10.5481 14.8476 10.6193 14.5593 10.9044 14.343C11.1182 14.1268 11.4033 13.9106 11.6884 13.9106C11.8309 13.8385 11.9735 13.8385 12.0448 13.8385H12.4724C12.5437 13.8385 12.6149 13.7664 12.6862 13.6944C12.9 13.4781 12.9713 13.1898 12.8287 12.7574C12.7575 12.3249 12.6862 12.0366 12.5437 11.8204C12.4011 11.6762 12.1873 11.5321 12.0448 11.5321C10.9044 11.3879 9.97791 11.6762 9.19393 12.2529Z" fill="#BBBBBB"/>
<path d="M55.3773 12.9014C55.4486 12.6131 55.3773 12.2527 55.3061 12.0365C55.2348 11.7482 55.0923 11.6041 54.9497 11.6041C54.5934 11.532 54.0232 11.532 53.3818 11.532H51.4574C50.816 11.6041 50.2459 11.6041 49.747 11.6761C49.3193 11.6761 49.0342 11.7482 48.8917 11.8203C48.8917 11.8203 48.8204 11.9644 48.8204 12.1807V12.9014C48.8204 13.1176 48.8917 13.4059 48.8917 13.6222C48.8917 13.9105 48.963 14.0546 49.0342 14.1267C49.0342 14.2709 49.2481 14.2708 49.5331 14.3429C49.8895 14.3429 50.2458 14.415 50.6022 14.415C50.6735 15.2078 50.7447 16.0727 50.8873 16.8656C50.9586 17.6584 51.1011 18.0909 51.1724 18.1629C51.3149 18.1629 51.4575 18.235 51.6713 18.235C51.8851 18.3071 52.1702 18.3071 52.3127 18.3071C52.5978 18.235 52.8116 18.235 52.9541 18.1629C53.168 18.1629 53.2392 18.1629 53.2392 18.0909C53.3818 17.9467 53.453 17.5142 53.453 16.7214C53.5243 16.0007 53.5243 15.1358 53.5956 14.3429C53.8807 14.3429 54.1657 14.3429 54.3796 14.2708H54.8784C55.021 14.2708 55.1635 14.1267 55.2348 13.8384C55.3061 13.5501 55.3773 13.2618 55.3773 12.9014Z" fill="#BBBBBB"/>
<path d="M43.3326 10.9554C43.9028 10.6671 44.1879 10.4508 44.473 10.2346C44.5442 10.2346 44.5442 10.0905 44.473 9.94632C44.4017 9.80217 44.3304 9.58594 44.1879 9.44179C44.1166 9.29764 44.0453 9.15349 43.9028 9.00934C43.7603 8.86519 43.689 8.79311 43.6177 8.86519C43.5464 8.86519 43.4039 8.93727 43.1901 9.08142C42.9763 9.15349 42.7625 9.29764 42.5487 9.44179C42.3348 9.58594 42.121 9.7301 41.9785 9.94632C41.8359 10.0905 41.7647 10.1625 41.8359 10.2346C41.8359 10.3788 41.9785 10.595 42.121 10.8112C42.2636 11.0275 42.4061 11.1716 42.4774 11.1716C42.5486 11.2437 42.8337 11.1716 43.3326 10.9554Z" fill="#BBBBBB"/>
<path d="M44.3304 13.6222C44.6867 13.6222 44.9005 13.5501 44.9005 13.4059C44.9718 13.2618 44.9718 12.9014 44.9718 12.469C44.9718 12.0365 44.9005 11.7482 44.8293 11.6761C44.758 11.6041 44.5442 11.6041 44.1166 11.532H42.6911C42.1923 11.532 41.6934 11.532 41.2657 11.6041C40.8381 11.6041 40.6243 11.6761 40.553 11.6761C40.4105 11.8203 40.3392 12.1807 40.2679 12.8293V14.9916C40.3392 15.7844 40.4105 16.5052 40.4105 17.0818C40.553 17.8025 40.6243 18.1629 40.6956 18.1629C40.8381 18.235 41.1232 18.235 41.6221 18.3071C42.121 18.3071 42.6199 18.3071 43.19 18.235C43.6889 18.235 44.1878 18.1629 44.6155 18.1629C45.0431 18.0909 45.2569 17.9467 45.2569 17.8746C45.3282 17.6584 45.3994 17.298 45.3282 16.7935C45.3282 16.289 45.2569 16.0007 45.1856 16.0007C45.0431 15.8565 44.8293 15.8565 44.4016 15.8565C44.0453 15.9286 43.5464 15.9286 43.0475 15.9286V15.7124C43.4751 15.6403 43.7602 15.6403 43.9027 15.5682C43.974 15.5682 44.0453 15.4961 44.0453 15.352V14.8475C44.0453 14.6312 43.974 14.4871 43.974 14.2708C43.9028 14.1267 43.8315 14.0546 43.8315 14.0546C43.6177 13.9825 43.3326 13.9825 42.9762 13.9105V13.6942C43.4751 13.6942 43.9028 13.6942 44.3304 13.6222Z" fill="#BBBBBB"/>
<path d="M39.1276 13.8385C39.1989 13.8385 39.3414 13.7664 39.4127 13.6944C39.6265 13.4781 39.6265 13.1898 39.5552 12.7574C39.484 12.3249 39.4127 12.0366 39.1989 11.8204C39.0564 11.6762 38.9138 11.5321 38.7 11.5321C37.6309 11.3879 36.6332 11.6762 35.9204 12.2529C35.2077 12.9015 34.7088 13.7664 34.6376 14.8476C34.5663 15.5683 34.7088 16.217 35.0652 16.7215C35.3503 17.2261 35.7779 17.6585 36.4193 17.9468C36.847 18.163 37.4171 18.3072 37.9873 18.3072C38.5575 18.3072 39.0564 18.163 39.5552 18.0189C39.6978 17.9468 39.7691 17.8747 39.9116 17.6585C39.9829 17.4423 39.9829 17.154 39.9116 16.7936C39.9116 16.4332 39.7691 16.217 39.6265 16.0008C39.5552 15.8566 39.484 15.7125 39.3414 15.7125C39.1989 15.6404 39.1276 15.6404 38.9851 15.7125C38.7713 15.7125 38.5575 15.7125 38.2011 15.7845C37.916 15.7845 37.7022 15.7125 37.4884 15.5683C37.4171 15.4962 37.3459 15.3521 37.2746 15.2079C37.2033 14.8476 37.3459 14.5593 37.5597 14.343C37.8448 14.1268 38.0586 13.9106 38.4149 13.9106C38.5575 13.8385 38.6287 13.8385 38.7713 13.8385H39.1276Z" fill="#BBBBBB"/>
<path d="M46.9674 23.0642C46.8962 23.2804 46.8962 23.7128 46.8249 24.3615C46.8249 25.0102 46.8249 25.6589 46.8962 26.3796C46.8962 27.0283 46.8962 27.677 46.9674 28.2536C47.0387 28.8302 47.11 29.1185 47.1812 29.1185C47.3238 29.1906 47.5376 29.1906 47.8227 29.2626H50.3884C50.8873 29.1906 51.3149 28.9743 51.6713 28.686C52.0277 28.3257 52.2415 27.8932 52.384 27.4608C52.4553 27.0283 52.4553 26.6679 52.3127 26.3075C52.1702 25.9472 51.9564 25.6589 51.6 25.3706H51.5288C51.8138 24.9381 51.8851 24.4336 51.7426 23.857C51.6 23.3525 51.2437 22.9921 50.7448 22.7759C50.3884 22.6317 49.9608 22.4875 49.5332 22.4875H48.3216C47.9652 22.4875 47.6801 22.6317 47.3951 22.7038C47.11 22.7759 46.9674 22.92 46.9674 23.0642ZM49.1768 24.9381C49.1056 24.9381 49.0343 24.794 49.0343 24.5777C48.963 24.4336 49.0343 24.2174 49.0343 24.0732C49.0343 24.0011 49.1768 24.0011 49.3194 24.0011C49.5332 24.0011 49.6757 24.0732 49.747 24.1453C49.8895 24.2174 49.8895 24.2894 49.8895 24.4336C49.8895 24.5777 49.8183 24.7219 49.6757 24.866C49.5332 24.9381 49.3194 25.0102 49.1768 24.9381ZM49.0343 26.8842C49.0343 26.5958 49.0343 26.4517 49.1768 26.3796C49.3906 26.3075 49.5332 26.3075 49.8183 26.4517C50.0321 26.5238 50.1746 26.74 50.1746 26.9562C50.2459 27.2445 50.1033 27.4608 49.747 27.5328C49.3906 27.6049 49.1768 27.6049 49.1056 27.4608C49.0343 27.3166 49.0343 27.1004 49.0343 26.8842Z" fill="#BBBBBB"/>
<path d="M44.2591 25.803V23.5687C44.2591 23.2083 44.2591 22.92 44.1879 22.7759C44.1879 22.7038 44.0453 22.6317 43.8315 22.5596C43.5464 22.5596 43.2613 22.4875 42.905 22.4875C42.6199 22.4875 42.3348 22.5596 42.0497 22.6317C41.7647 22.6317 41.6221 22.7038 41.6221 22.8479C41.6221 23.0642 41.5508 23.4966 41.5508 24.0732C41.5508 24.7219 41.5508 25.3706 41.6221 26.0913C41.6221 26.74 41.6221 27.3887 41.6934 27.9653C41.7647 28.5419 41.8359 28.9023 41.9072 28.9743C41.9785 29.1185 42.2636 29.1906 42.6912 29.1906C43.1188 29.2626 43.5464 29.2626 44.0453 29.2626C44.5442 29.2626 45.0431 29.2626 45.4707 29.1906C45.9696 29.1906 46.2547 29.1185 46.3973 29.1185C46.4685 29.0464 46.5398 28.9743 46.5398 28.686C46.6111 28.3977 46.6111 28.1094 46.6111 27.8211C46.5398 27.4608 46.5398 27.1725 46.4685 26.8842C46.3972 26.6679 46.326 26.5238 46.1834 26.4517H45.1857C44.9718 26.5238 44.758 26.5238 44.6155 26.5238C44.4017 26.4517 44.3304 26.4517 44.3304 26.3796C44.3304 26.3075 44.3304 26.1634 44.2591 25.803Z" fill="#BBBBBB"/>
<path d="M41.0519 26.3796C41.2658 25.2984 41.0519 24.4335 40.4105 23.7128C39.8403 22.992 38.9851 22.5596 37.916 22.4875C36.9895 22.4154 36.2768 22.6316 35.5641 23.2083C34.9227 23.7849 34.495 24.5056 34.3525 25.3705C34.21 26.3075 34.4238 27.1003 34.9227 27.8932C35.4928 28.6139 36.2768 29.0464 37.132 29.1905C38.1298 29.3347 38.9851 29.1905 39.6978 28.6139C40.4818 28.0373 40.9094 27.3166 41.0519 26.3796ZM38.4149 25.3705C38.5575 25.5147 38.6287 25.7309 38.5575 26.0192C38.5575 26.1633 38.4862 26.3075 38.3437 26.5237C38.2011 26.6679 37.9873 26.6679 37.8448 26.7399C37.5597 26.7399 37.3459 26.6679 37.132 26.4516C36.9182 26.2354 36.847 26.0192 36.847 25.7309C36.9182 25.5147 36.9895 25.2984 37.2033 25.1543C37.4171 25.0101 37.6309 25.0101 37.8448 25.0101C38.1298 25.0822 38.2724 25.1543 38.4149 25.3705Z" fill="#BBBBBB"/>
<path d="M55.9475 24.5057V22.92C55.8762 22.7758 55.7337 22.6317 55.4486 22.5596C55.0923 22.4875 54.8072 22.4875 54.3796 22.4875C54.0232 22.4875 53.7381 22.5596 53.3818 22.6317C53.0967 22.7038 52.9541 22.8479 52.9541 22.9921C52.8829 23.2083 52.8829 23.7128 52.9541 24.3615C52.9541 24.9381 53.0254 25.6589 53.0967 26.3075C53.168 27.0283 53.168 27.677 53.3105 28.2536C53.3818 28.8302 53.5243 29.1185 53.5956 29.1185C53.8094 29.2626 54.237 29.2626 54.7359 29.2626C55.3061 29.2626 55.5912 29.1906 55.6624 29.0464C55.7337 28.9743 55.805 28.686 55.805 28.1815C55.8762 27.677 55.9475 27.1004 55.9475 26.4517V24.5057Z" fill="#BBBBBB"/>
<path d="M31.0028 11.5321C30.0762 11.3879 29.3635 11.6762 28.6508 12.2529C28.0094 12.8295 27.5818 13.5502 27.4392 14.343C27.2967 15.28 27.5105 16.1449 28.0094 16.8657C28.5796 17.5864 29.3635 18.091 30.2188 18.2351C31.2166 18.3793 32.0718 18.163 32.8558 17.5864C33.5685 17.0819 33.9961 16.2891 34.1387 15.3521C34.3525 14.343 34.1387 13.4781 33.4972 12.7574C32.9271 12.0366 32.0718 11.6042 31.0028 11.5321ZM31.5017 14.343C31.6442 14.5593 31.7155 14.7755 31.6442 14.9917C31.6442 15.2079 31.5729 15.3521 31.4304 15.4962C31.2878 15.6404 31.074 15.7125 30.9315 15.7125C30.6464 15.7845 30.4326 15.7125 30.2188 15.4962C30.005 15.28 29.9337 14.9917 29.9337 14.7755C30.005 14.5593 30.0762 14.343 30.2901 14.1989C30.5039 14.0547 30.7177 13.9827 30.9315 14.0547C31.2166 14.0547 31.3591 14.1989 31.5017 14.343Z" fill="#BBBBBB"/>
<path d="M27.1541 13.478C27.1541 12.8293 27.1541 12.2527 27.0829 11.8203C27.0829 11.7482 26.9403 11.6761 26.6552 11.6041C26.4414 11.532 26.0851 11.532 25.8 11.532C25.5149 11.532 25.2298 11.532 24.9447 11.6761C24.7309 11.7482 24.5171 11.8203 24.5171 11.9644V12.541C24.5171 12.7573 24.5171 13.0456 24.5884 13.3339C24.4459 13.1176 24.232 12.8293 23.947 12.469C23.5906 12.0365 23.3768 11.8203 23.163 11.6761C23.0204 11.6761 22.8066 11.6041 22.5928 11.6041C22.3077 11.532 22.0939 11.532 21.8088 11.532C21.595 11.532 21.3812 11.6041 21.1674 11.6041C20.9536 11.6761 20.8823 11.7482 20.8823 11.8203C20.7398 12.2527 20.7398 12.7573 20.7398 13.478V15.4241C20.7398 16.0727 20.7398 16.6493 20.811 17.1539C20.8823 17.6584 20.9536 17.9467 20.9536 18.0909C21.0249 18.1629 21.3099 18.235 21.8801 18.3071C22.379 18.3071 22.7354 18.235 22.9492 18.1629C23.0204 18.1629 23.0917 17.9467 23.163 17.5142C23.163 17.1539 23.2343 16.7214 23.3055 16.2169C23.3055 16.2169 23.4481 16.361 23.5906 16.5773C23.7331 16.7935 23.8757 17.0097 24.0895 17.2259C24.3033 17.4422 24.5171 17.5863 24.7309 17.8025C24.8735 18.0188 25.0873 18.1629 25.1586 18.1629C25.2298 18.235 25.3011 18.235 25.5149 18.235C25.7287 18.3071 25.9425 18.3071 26.0851 18.3071C26.2989 18.235 26.5127 18.235 26.7265 18.235C26.8691 18.1629 27.0116 18.1629 27.0116 18.0909C27.0829 17.9467 27.0829 17.7305 27.1541 17.2259V13.478Z" fill="#BBBBBB"/>
<path d="M17.105 11.5321C16.1785 11.3879 15.3945 11.6762 14.753 12.2529C14.0403 12.8295 13.684 13.5502 13.5414 14.343C13.3276 15.28 13.5414 16.1449 14.1116 16.8657C14.6818 17.5864 15.3945 18.091 16.321 18.2351C17.3188 18.3793 18.174 18.163 18.8867 17.5864C19.5995 17.0819 20.0983 16.2891 20.2409 15.3521C20.3834 14.343 20.1696 13.4781 19.5995 12.7574C18.958 12.0366 18.174 11.6042 17.105 11.5321ZM16.0359 14.7755C16.0359 14.5593 16.1785 14.343 16.321 14.1989C16.5348 14.0547 16.7486 13.9827 16.9624 14.0547C17.2475 14.0547 17.4613 14.1989 17.6039 14.343C17.7464 14.5593 17.7464 14.7755 17.7464 14.9917C17.6751 15.2079 17.6039 15.3521 17.4613 15.4962C17.3188 15.6404 17.1762 15.7125 16.9624 15.7125C16.6774 15.7845 16.4635 15.7125 16.2497 15.4962C16.0359 15.28 15.9646 14.9917 16.0359 14.7755Z" fill="#BBBBBB"/>
<path d="M25.0873 22.8479C24.9448 22.992 24.731 23.1362 24.5884 23.3524C24.4459 23.5686 24.3033 23.7128 24.1608 23.929C24.0183 24.1452 24.0182 24.2894 24.0182 24.3615C24.0182 24.5056 24.2321 24.7939 24.6597 25.2984C25.016 25.7309 25.5149 26.2354 26.0138 26.7399C26.0851 27.3886 26.1564 27.8932 26.2989 28.3977C26.3702 28.9022 26.4415 29.1184 26.584 29.1905C26.584 29.2626 26.7265 29.2626 26.9403 29.2626H27.6531C27.8669 29.2626 28.0807 29.2626 28.2945 29.1905C28.5083 29.1905 28.5796 29.1184 28.6508 29.1184C28.7221 29.0464 28.7221 28.7581 28.8647 28.2535C28.9359 27.749 29.0072 27.1724 29.0072 26.5958C29.5061 26.0913 29.9337 25.6588 30.3613 25.1543C30.7177 24.7218 30.8602 24.4335 30.9315 24.2894C30.9315 24.2173 30.8602 24.0732 30.789 23.8569C30.6464 23.7128 30.5039 23.4966 30.3613 23.3524C30.1475 23.1362 30.005 22.992 29.7912 22.8479C29.6486 22.6316 29.5774 22.6316 29.4348 22.5596C29.2923 22.5596 29.0072 22.7037 28.6508 22.992C28.2945 23.3524 27.8669 23.7128 27.4392 24.0732C27.0116 23.7128 26.6553 23.3524 26.2989 22.992C25.9426 22.7037 25.6575 22.5596 25.4437 22.6316C25.4437 22.6316 25.3011 22.7037 25.0873 22.8479Z" fill="#BBBBBB"/>
</g>
<defs>
<clipPath id="clip0_151_4528">
<rect width="129" height="191" fill="white"/>
</clipPath>
</defs>
</svg>
