<svg width="183" height="73" viewBox="0 0 183 73" fill="none" xmlns="http://www.w3.org/2000/svg">
<g clip-path="url(#clip0_159_761)">
<path d="M182.542 42.3394C185.802 22.4415 172.161 3.69265 152.072 0.462758C131.983 -2.76714 113.054 10.745 109.793 30.6429C106.532 50.5409 120.174 69.2897 140.263 72.5196C160.352 75.7495 179.281 62.2374 182.542 42.3394Z" fill="#25A3B6"/>
<path d="M171.847 42.9491L169.978 39.7246C169.13 38.2554 168.264 36.7672 167.378 35.2789C167.378 35.2789 162.157 26.7883 160.385 24.0217C159.614 22.9723 157.534 22.6861 156.205 24.804L153.893 28.7917C156.513 33.3137 160.944 40.9839 162.793 44.1893H162.812L164.527 47.1276C165.682 49.131 168.264 49.7988 170.286 48.654C172.309 47.5092 172.983 44.9525 171.827 42.9491H171.847Z" fill="url(#paint0_linear_159_761)"/>
<path d="M148.48 22.4571C148.48 22.4571 147.806 23.4111 147.691 23.6019C146.053 26.1968 136.248 42.5102 136.248 42.5102C135.093 44.5136 135.767 47.0512 137.789 48.2151C139.812 49.379 142.374 48.6921 143.549 46.6887L156.244 24.8231C157.553 22.7052 159.653 22.9723 160.424 24.0408C156.571 18.6793 151.89 18.5457 148.519 22.4571H148.48Z" fill="white"/>
<path d="M136.364 26.5403C134.341 25.3955 131.779 26.0633 130.604 28.0666L121.647 42.9681C120.491 44.9715 121.165 47.5091 123.188 48.673C125.21 49.8178 127.772 49.15 128.948 47.1466L137.905 32.2452C139.061 30.2418 138.386 27.7041 136.364 26.5403Z" fill="#057794"/>
<path d="M43.9585 60.3116C43.8429 60.1971 43.7852 60.0636 43.7852 59.9109L43.8429 59.5866L51.0859 40.8882C51.24 40.4684 51.5482 40.2585 52.0105 40.2585H53.8791C54.3414 40.2585 54.6496 40.4684 54.8037 40.8882L62.0466 59.5866L62.1044 59.9109C62.1044 60.0636 62.0466 60.1971 61.9118 60.3116C61.7769 60.4261 61.6421 60.4833 61.488 60.4833H60.1203C59.9277 60.4833 59.7736 60.4261 59.6387 60.3307C59.5039 60.2353 59.4268 60.1208 59.3883 60.0063L57.7509 55.8469H48.0808L46.482 60.0063C46.3279 60.3307 46.0775 60.5024 45.75 60.5024H44.3438C44.1897 60.5024 44.0548 60.4452 43.9393 60.3307L43.9585 60.3116ZM48.9477 53.4237H56.9419L52.9352 43.0442L48.9284 53.4237H48.9477Z" fill="#707070"/>
<path d="M65.4369 60.2928C65.3213 60.1592 65.2635 60.0066 65.2635 59.8158V40.9457C65.2635 40.7358 65.3213 40.5641 65.4369 40.4305C65.5525 40.297 65.7066 40.2397 65.8992 40.2397H73.0266C75.2419 40.2397 76.9755 40.7549 78.2277 41.7852C79.4798 42.8155 80.1154 44.3229 80.1154 46.2881C80.1154 47.7573 79.7494 48.9593 78.9982 49.8942C78.2662 50.8482 77.226 51.4969 75.8968 51.8595L80.3851 59.5868C80.4429 59.7013 80.4814 59.8158 80.4814 59.9112C80.4814 60.0638 80.4237 60.1974 80.3081 60.3119C80.1925 60.4264 80.0577 60.4836 79.9035 60.4836H78.6129C78.324 60.4836 78.0928 60.4073 77.9194 60.2737C77.7461 60.1402 77.6112 59.9494 77.4764 59.7013L73.1807 52.2983H67.9797V59.8158C67.9797 60.0066 67.9219 60.1592 67.7678 60.2928C67.6329 60.4264 67.4595 60.4836 67.2669 60.4836H65.8607C65.6681 60.4836 65.514 60.4264 65.3984 60.2928H65.4369ZM72.911 49.9324C75.8583 49.9324 77.3223 48.7113 77.3223 46.269C77.3223 43.8268 75.8583 42.6057 72.911 42.6057H67.9989V49.9515H72.911V49.9324Z" fill="#707070"/>
<path d="M88.7453 60.2928C88.6105 60.1592 88.5527 60.0066 88.5527 59.8158V42.7392H82.9279C82.7352 42.7392 82.5811 42.682 82.4463 42.5484C82.3114 42.4149 82.2537 42.2622 82.2537 42.0714V40.9457C82.2537 40.7358 82.3114 40.5641 82.4463 40.4305C82.5811 40.297 82.7352 40.2397 82.9279 40.2397H96.9322C97.1441 40.2397 97.3175 40.297 97.433 40.4305C97.5486 40.5641 97.6064 40.7167 97.6064 40.9457V42.0714C97.6064 42.2622 97.5486 42.4149 97.4138 42.5484C97.2789 42.682 97.1248 42.7392 96.9322 42.7392H91.3266V59.8158C91.3266 60.0066 91.2496 60.1592 91.1147 60.2928C90.9799 60.4264 90.8065 60.4836 90.6139 60.4836H89.2077C89.015 60.4836 88.8609 60.4264 88.7261 60.2928H88.7453Z" fill="#707070"/>
<path d="M0.173368 31.711C0.0577895 31.5965 0 31.4439 0 31.2722L0.0577895 31.005L7.10811 12.2685C7.30074 11.7915 7.64747 11.5435 8.16758 11.5435H11.4038C11.9046 11.5435 12.2706 11.7915 12.4633 12.2685L19.5136 31.0241L19.5714 31.2912C19.5714 31.463 19.5136 31.6156 19.3787 31.7301C19.2439 31.8446 19.1091 31.9018 18.9549 31.9018H16.3352C15.9306 31.9018 15.6417 31.711 15.4876 31.3485L14.1392 27.8378H5.43221L4.08379 31.3485C3.92968 31.711 3.64074 31.9018 3.23621 31.9018H0.616421C0.443053 31.9018 0.288947 31.8446 0.173368 31.7301V31.711ZM6.45316 24.4415H13.0797L9.76642 15.493L6.45316 24.4415Z" fill="#707070"/>
<path d="M22.0948 31.6919C21.96 31.5583 21.8829 31.3866 21.8829 31.1958V17.4773C21.8829 17.2674 21.96 17.0957 22.0948 16.9621C22.2297 16.8285 22.403 16.7713 22.5957 16.7713H25.0228C25.2347 16.7713 25.4081 16.8285 25.5429 16.9621C25.6778 17.0957 25.7356 17.2483 25.7356 17.4773V18.6602C26.9299 17.2101 28.5673 16.4851 30.6284 16.4851C32.4199 16.4851 33.8646 17.0575 34.9048 18.2214C35.945 19.3853 36.4844 20.988 36.4844 23.0105V31.1767C36.4844 31.3675 36.4266 31.5392 36.2918 31.6728C36.1569 31.8063 36.0028 31.8826 35.7717 31.8826H33.1326C32.94 31.8826 32.7666 31.8063 32.6318 31.6728C32.4969 31.5392 32.4199 31.3675 32.4199 31.1767V23.1822C32.4199 22.0565 32.1502 21.1788 31.5916 20.5491C31.0329 19.9195 30.2431 19.5951 29.2029 19.5951C28.1627 19.5951 27.4115 19.9195 26.795 20.5491C26.1979 21.1788 25.8897 22.0565 25.8897 23.1631V31.1576C25.8897 31.3484 25.8319 31.5201 25.697 31.6537C25.5622 31.7873 25.4081 31.8636 25.1769 31.8636H22.5571C22.3645 31.8636 22.1911 31.7873 22.0563 31.6537L22.0948 31.6919Z" fill="#707070"/>
<path d="M41.3387 30.2991C40.2793 29.0399 39.7014 27.3799 39.6051 25.2811L39.5665 24.3271L39.6051 23.3731C39.6821 21.3125 40.26 19.6525 41.3195 18.3932C42.3789 17.134 43.9007 16.4852 45.8848 16.4852C47.8689 16.4852 49.2559 17.1149 50.3732 18.4123V11.9633C50.3732 11.7534 50.4502 11.5817 50.5851 11.4481C50.7199 11.3146 50.8933 11.2573 51.0859 11.2573H53.6479C53.8598 11.2573 54.0332 11.3146 54.168 11.4481C54.3028 11.5817 54.3606 11.7343 54.3606 11.9633V31.1959C54.3606 31.3867 54.3028 31.5584 54.168 31.692C54.0332 31.8255 53.8791 31.9019 53.6479 31.9019H51.2785C51.0859 31.9019 50.9125 31.8255 50.7777 31.692C50.6428 31.5584 50.5658 31.3867 50.5658 31.1959V30.1274C49.4871 31.5012 47.9267 32.1881 45.9041 32.1881C43.8815 32.1881 42.4175 31.5584 41.358 30.3182L41.3387 30.2991ZM49.4871 27.9714C50.0264 27.2654 50.3154 26.3877 50.3732 25.3383C50.3732 25.1094 50.4117 24.7278 50.4117 24.2317C50.4117 23.7356 50.4117 23.335 50.3732 23.106C50.3346 22.1329 50.0264 21.3125 49.4678 20.6447C48.9092 19.9578 48.0808 19.6334 47.0021 19.6334C44.9024 19.6334 43.7852 20.9118 43.6503 23.4685L43.6118 24.3462L43.6503 25.2239C43.7852 27.7806 44.9024 29.0589 47.0021 29.0589C48.1194 29.0589 48.9477 28.6964 49.4871 27.9905V27.9714Z" fill="#707070"/>
<path d="M58.3288 14.1002C58.194 13.9667 58.1169 13.7949 58.1169 13.6041V11.4863C58.1169 11.2764 58.194 11.1047 58.3288 10.9711C58.4637 10.8376 58.6371 10.7612 58.8297 10.7612H61.5265C61.7384 10.7612 61.9118 10.8376 62.0466 10.9711C62.1815 11.1047 62.2585 11.2764 62.2585 11.4863V13.6041C62.2585 13.7949 62.1815 13.9667 62.0466 14.1002C61.8925 14.2338 61.7192 14.3101 61.5265 14.3101H58.8297C58.6371 14.3101 58.4637 14.2338 58.3288 14.1002ZM58.4444 31.692C58.3096 31.5584 58.2325 31.3867 58.2325 31.1959V17.4774C58.2325 17.2675 58.3096 17.0958 58.4444 16.9622C58.5793 16.8287 58.7526 16.7714 58.9453 16.7714H61.4302C61.6228 16.7714 61.7962 16.8477 61.9311 16.9813C62.0659 17.1149 62.1429 17.2866 62.1429 17.4774V31.1959C62.1429 31.3867 62.0659 31.5584 61.9311 31.692C61.7962 31.8255 61.6228 31.9018 61.4302 31.9018H58.9453C58.7526 31.9018 58.5793 31.8255 58.4444 31.692Z" fill="#707070"/>
<path d="M66.2268 31.6919C66.0919 31.5583 66.0149 31.3866 66.0149 31.1958V17.4773C66.0149 17.2674 66.0919 17.0957 66.2268 16.9621C66.3616 16.8285 66.535 16.7713 66.7276 16.7713H69.1548C69.3667 16.7713 69.54 16.8285 69.6749 16.9621C69.8097 17.0957 69.8675 17.2483 69.8675 17.4773V18.6602C71.0618 17.2101 72.6992 16.4851 74.7604 16.4851C76.5518 16.4851 77.9966 17.0575 79.0368 18.2214C80.077 19.3853 80.6164 20.988 80.6164 23.0105V31.1767C80.6164 31.3675 80.5586 31.5392 80.4237 31.6728C80.2889 31.8063 80.1348 31.8826 79.9036 31.8826H77.2646C77.0719 31.8826 76.8986 31.8063 76.7637 31.6728C76.6289 31.5392 76.5518 31.3675 76.5518 31.1767V23.1822C76.5518 22.0565 76.2822 21.1788 75.7235 20.5491C75.1649 19.9195 74.3751 19.5951 73.3349 19.5951C72.2947 19.5951 71.5434 19.9195 70.927 20.5491C70.3298 21.1788 70.0216 22.0565 70.0216 23.1631V31.1576C70.0216 31.3484 69.9638 31.5201 69.829 31.6537C69.6942 31.7873 69.54 31.8636 69.3089 31.8636H66.6891C66.4965 31.8636 66.3231 31.7873 66.1883 31.6537L66.2268 31.6919Z" fill="#707070"/>
<path d="M86.0485 31.5774C85.2202 31.1767 84.5653 30.6425 84.0837 29.9556C83.6021 29.2687 83.371 28.5246 83.371 27.7233C83.371 26.4067 83.9103 25.3383 84.9891 24.5178C86.0678 23.6974 87.5511 23.1441 89.4196 22.8579L93.4456 22.2855V21.6749C93.4456 20.8354 93.2337 20.2057 92.8099 19.786C92.3861 19.3662 91.6927 19.1563 90.7488 19.1563C90.1131 19.1563 89.593 19.2708 89.1884 19.4998C88.7839 19.7287 88.4757 19.9768 88.2253 20.2057L87.7437 20.6827C87.6667 20.9117 87.5126 21.0262 87.3007 21.0262H85.0083C84.835 21.0262 84.6809 20.9689 84.546 20.8545C84.4112 20.74 84.3534 20.5873 84.3534 20.3965C84.3534 19.9195 84.6038 19.3662 85.0661 18.7557C85.5284 18.1451 86.2412 17.6109 87.1851 17.1529C88.1482 16.695 89.3233 16.4661 90.7295 16.4661C93.0411 16.4661 94.717 16.9812 95.7765 18.0115C96.8359 19.0419 97.356 20.3775 97.356 22.0565V31.1767C97.356 31.3675 97.2982 31.5392 97.1634 31.6728C97.0286 31.8064 96.8744 31.8827 96.6433 31.8827H94.2161C94.0235 31.8827 93.8501 31.8064 93.7153 31.6728C93.5805 31.5392 93.5034 31.3675 93.5034 31.1767V30.051C93.0796 30.6806 92.4632 31.1767 91.6927 31.5774C90.9029 31.9781 89.9397 32.1689 88.7647 32.1689C87.763 32.1689 86.8576 31.9781 86.0293 31.5774H86.0485ZM92.4247 28.3338C93.1181 27.6279 93.4456 26.6357 93.4456 25.3192V24.7277L90.5176 25.1856C88.2638 25.5291 87.1466 26.2732 87.1466 27.418C87.1466 28.0476 87.397 28.5246 87.9171 28.849C88.4372 29.1924 89.0536 29.3641 89.7856 29.3641C90.8643 29.3641 91.7504 29.0207 92.4247 28.3147V28.3338Z" fill="#707070"/>
</g>
<defs>
<linearGradient id="paint0_linear_159_761" x1="163.159" y1="49.2073" x2="163.159" y2="23.2204" gradientUnits="userSpaceOnUse">
<stop offset="0.16" stop-color="white"/>
<stop offset="0.24" stop-color="#F6FBFC"/>
<stop offset="0.37" stop-color="#E0F2F4"/>
<stop offset="0.52" stop-color="#BBE2E8"/>
<stop offset="0.7" stop-color="#89CDD7"/>
<stop offset="0.89" stop-color="#48B2C2"/>
<stop offset="0.99" stop-color="#25A3B6"/>
</linearGradient>
<clipPath id="clip0_159_761">
<rect width="183" height="73" fill="white"/>
</clipPath>
</defs>
</svg>
