<svg width="75" height="62" viewBox="0 0 75 62" fill="none" xmlns="http://www.w3.org/2000/svg">
<path d="M21.945 61.85C18.035 61.85 14.72 61.255 12 60.065C9.33667 58.8183 7.155 57.1183 5.455 54.965C3.755 52.8117 2.50833 50.3467 1.715 47.57C0.978333 44.7933 0.553333 41.8467 0.44 38.73C0.383333 37.2 0.326667 35.585 0.27 33.885C0.27 32.185 0.27 30.4567 0.27 28.7C0.326667 26.9433 0.383333 25.2717 0.44 23.685C0.496667 20.5683 0.921667 17.6217 1.715 14.845C2.565 12.0683 3.84 9.63167 5.54 7.535C7.24 5.38166 9.42167 3.71 12.085 2.52C14.805 1.27333 18.0917 0.649997 21.945 0.649997C25.855 0.649997 29.1417 1.27333 31.805 2.52C34.525 3.71 36.735 5.38166 38.435 7.535C40.135 9.63167 41.3817 12.0683 42.175 14.845C43.025 17.6217 43.4783 20.5683 43.535 23.685C43.5917 25.2717 43.62 26.9433 43.62 28.7C43.6767 30.4567 43.6767 32.185 43.62 33.885C43.62 35.585 43.5917 37.2 43.535 38.73C43.4783 41.8467 43.025 44.7933 42.175 47.57C41.3817 50.3467 40.135 52.8117 38.435 54.965C36.7917 57.1183 34.61 58.8183 31.89 60.065C29.2267 61.255 25.9117 61.85 21.945 61.85ZM21.945 54.54C26.365 54.54 29.6233 53.095 31.72 50.205C33.8733 47.315 34.9783 43.3483 35.035 38.305C35.1483 36.6617 35.205 35.075 35.205 33.545C35.205 31.9583 35.205 30.4 35.205 28.87C35.205 27.2833 35.1483 25.725 35.035 24.195C34.9783 19.265 33.8733 15.3267 31.72 12.38C29.6233 9.37667 26.365 7.875 21.945 7.875C17.5817 7.875 14.3233 9.37667 12.17 12.38C10.0733 15.3267 8.96833 19.265 8.855 24.195C8.855 25.725 8.82667 27.2833 8.77 28.87C8.77 30.4 8.77 31.9583 8.77 33.545C8.82667 35.075 8.855 36.6617 8.855 38.305C8.96833 43.3483 10.1017 47.315 12.255 50.205C14.4083 53.095 17.6383 54.54 21.945 54.54ZM67.7401 61C67.1734 61 66.6917 60.83 66.2951 60.49C65.9551 60.0933 65.7851 59.6117 65.7851 59.045V11.445L51.6751 22.325C51.2217 22.665 50.7401 22.8067 50.2301 22.75C49.7201 22.6933 49.2951 22.4383 48.9551 21.985L46.7451 19.18C46.4051 18.67 46.2634 18.16 46.3201 17.65C46.4334 17.14 46.7167 16.715 47.1701 16.375L65.7001 2.095C66.0967 1.81167 66.4651 1.64166 66.8051 1.58499C67.1451 1.52833 67.5134 1.5 67.9101 1.5H72.2451C72.8117 1.5 73.2651 1.69833 73.6051 2.095C74.0017 2.435 74.2001 2.88833 74.2001 3.455V59.045C74.2001 59.6117 74.0017 60.0933 73.6051 60.49C73.2651 60.83 72.8117 61 72.2451 61H67.7401Z" fill="#5AD0C8"/>
</svg>
