<svg width="90" height="62" viewBox="0 0 90 62" fill="none" xmlns="http://www.w3.org/2000/svg">
<path d="M21.945 61.85C18.035 61.85 14.72 61.255 12 60.065C9.33667 58.8183 7.155 57.1183 5.455 54.965C3.755 52.8117 2.50833 50.3467 1.715 47.57C0.978333 44.7933 0.553333 41.8467 0.44 38.73C0.383333 37.2 0.326667 35.585 0.27 33.885C0.27 32.185 0.27 30.4567 0.27 28.7C0.326667 26.9433 0.383333 25.2717 0.44 23.685C0.496667 20.5683 0.921667 17.6217 1.715 14.845C2.565 12.0683 3.84 9.63167 5.54 7.535C7.24 5.38166 9.42167 3.71 12.085 2.52C14.805 1.27333 18.0917 0.649997 21.945 0.649997C25.855 0.649997 29.1417 1.27333 31.805 2.52C34.525 3.71 36.735 5.38166 38.435 7.535C40.135 9.63167 41.3817 12.0683 42.175 14.845C43.025 17.6217 43.4783 20.5683 43.535 23.685C43.5917 25.2717 43.62 26.9433 43.62 28.7C43.6767 30.4567 43.6767 32.185 43.62 33.885C43.62 35.585 43.5917 37.2 43.535 38.73C43.4783 41.8467 43.025 44.7933 42.175 47.57C41.3817 50.3467 40.135 52.8117 38.435 54.965C36.7917 57.1183 34.61 58.8183 31.89 60.065C29.2267 61.255 25.9117 61.85 21.945 61.85ZM21.945 54.54C26.365 54.54 29.6233 53.095 31.72 50.205C33.8733 47.315 34.9783 43.3483 35.035 38.305C35.1483 36.6617 35.205 35.075 35.205 33.545C35.205 31.9583 35.205 30.4 35.205 28.87C35.205 27.2833 35.1483 25.725 35.035 24.195C34.9783 19.265 33.8733 15.3267 31.72 12.38C29.6233 9.37667 26.365 7.875 21.945 7.875C17.5817 7.875 14.3233 9.37667 12.17 12.38C10.0733 15.3267 8.96833 19.265 8.855 24.195C8.855 25.725 8.82667 27.2833 8.77 28.87C8.77 30.4 8.77 31.9583 8.77 33.545C8.82667 35.075 8.855 36.6617 8.855 38.305C8.96833 43.3483 10.1017 47.315 12.255 50.205C14.4083 53.095 17.6383 54.54 21.945 54.54ZM50.4001 61C49.8334 61 49.3517 60.83 48.9551 60.49C48.6151 60.0933 48.4451 59.6117 48.4451 59.045V56.325C48.4451 55.815 48.5867 55.2483 48.8701 54.625C49.1534 54.0017 49.7201 53.3217 50.5701 52.585L68.5901 34.565C71.4801 32.1283 73.7467 30.06 75.3901 28.36C77.0901 26.6033 78.2801 24.9317 78.9601 23.345C79.6967 21.7583 80.0651 20.115 80.0651 18.415C80.0651 15.185 79.1584 12.635 77.3451 10.765C75.5317 8.83833 72.8401 7.875 69.2701 7.875C67.0034 7.875 65.0484 8.35667 63.4051 9.32C61.7617 10.2267 60.4867 11.5017 59.5801 13.145C58.6734 14.7317 58.0501 16.545 57.7101 18.585C57.5967 19.3217 57.2851 19.8317 56.7751 20.115C56.3217 20.3983 55.8967 20.54 55.5001 20.54H51.0801C50.5701 20.54 50.1451 20.3983 49.8051 20.115C49.4651 19.775 49.2951 19.3783 49.2951 18.925C49.3517 16.7717 49.8051 14.6183 50.6551 12.465C51.5051 10.255 52.7517 8.27166 54.3951 6.515C56.0951 4.70166 58.1634 3.25666 60.6001 2.18C63.0934 1.10333 65.9834 0.564998 69.2701 0.564998C73.7467 0.564998 77.4017 1.38666 80.2351 3.03C83.1251 4.61666 85.2501 6.74166 86.6101 9.405C87.9701 12.0683 88.6501 14.9867 88.6501 18.16C88.6501 20.6533 88.2251 22.9483 87.3751 25.045C86.5251 27.085 85.2784 29.0967 83.6351 31.08C82.0484 33.0067 80.0651 34.99 77.6851 37.03L61.3651 53.605H87.8851C88.5084 53.605 88.9901 53.775 89.3301 54.115C89.7267 54.455 89.9251 54.9367 89.9251 55.56V59.045C89.9251 59.6117 89.7267 60.0933 89.3301 60.49C88.9901 60.83 88.5084 61 87.8851 61H50.4001Z" fill="#5AD0C8"/>
</svg>
