<svg width="175" height="107" viewBox="0 0 175 107" fill="none" xmlns="http://www.w3.org/2000/svg">
<g id="barbijo">
<g id="Group">
<g id="Group_2">
<path id="Vector" d="M81.741 105.069C63.2027 104.639 43.1103 95.626 27.3692 77.0602C18.7399 66.8861 10.9973 56.1909 5.93311 43.768C2.79768 36.0711 0.649498 28.164 1.59104 19.6901C2.30405 13.3096 5.7777 8.96751 11.3447 8.08082C14.5807 7.55977 17.5881 8.63843 20.4767 10.0005C23.5573 11.4539 26.254 13.5564 29.1152 15.3755C30.075 15.9879 30.9068 16.0519 32.086 15.9514C42.507 15.0647 51.895 10.8597 61.3104 6.84676C78.9621 -0.676439 96.4766 -0.383921 114.028 7.1667C121.377 10.3296 128.699 13.6478 136.67 15.0647C138.864 15.4578 141.067 15.796 143.252 16.1891C144.038 16.3353 144.55 15.8874 145.135 15.5035C147.128 14.1871 149.139 12.8891 151.141 11.591C152.768 10.5398 154.487 9.68053 156.315 9.04064C165.081 5.96006 171.937 10.3935 172.879 19.681C173.756 28.3103 171.599 36.3637 168.281 44.1702C161.361 60.469 151.068 74.4824 138.023 86.302C124.33 98.7066 106.267 105.051 81.741 105.078V105.069ZM31.2359 48.558H31.2268C31.2268 56.6571 31.2633 64.7562 31.1902 72.8553C31.1719 74.5098 31.6016 75.7622 32.7442 76.9871C45.5967 90.7172 61.283 98.8437 80.059 100.535C104.375 102.72 124.887 94.657 141.707 77.0237C142.859 75.817 143.298 74.5647 143.289 72.901C143.234 57.3153 143.252 41.7387 143.252 26.1529C143.252 24.9189 143.298 23.6848 143.206 22.4508C143.097 20.9973 142.429 19.9644 140.82 19.8181C131.78 19.0228 123.498 15.668 115.262 12.1761C106.925 8.64757 98.4328 5.75896 89.2459 5.40245C78.9712 5.00938 69.4552 7.86143 60.1586 11.8013C52.0687 15.2292 43.9513 18.6115 35.1209 19.6993C31.6381 20.1289 31.2451 20.5311 31.2451 24.0231C31.2451 32.2044 31.2451 40.3766 31.2451 48.558H31.2359ZM27.1224 69.3999C27.1224 68.5681 27.1224 67.7362 27.1224 66.9044C27.1224 59.7377 27.0218 52.571 27.1498 45.4043C27.2961 36.9487 26.5922 28.4748 27.5429 20.0284C27.5886 19.6079 27.4789 19.2514 27.1224 19.032C23.1551 16.5638 19.5809 13.337 14.8092 12.3772C10.3757 11.4905 7.53281 13.2822 6.26219 17.6791C5.21095 21.3081 5.36635 25.0194 5.92396 28.6851C7.34999 37.9634 11.1344 46.355 15.8604 54.3718C19.0233 59.7377 22.5426 64.8476 27.1224 69.409V69.3999ZM147.795 69.8113C148.91 68.367 149.87 67.1695 150.784 65.9354C158.618 55.423 165.191 44.2708 168.08 31.2994C169.039 26.9848 169.442 22.6062 168.381 18.2458C167.12 13.081 163.756 11.1705 158.692 12.5874C156.05 13.3279 153.838 14.8544 151.507 16.2073C148.545 17.9259 147.018 19.6536 147.164 23.7671C147.676 38.0822 147.356 52.4247 147.375 66.7581C147.375 67.6448 147.146 68.5772 147.786 69.8021L147.795 69.8113Z" fill="#5AD0C8"/>
<path id="Vector_2" d="M81.7227 106.44H81.7044C61.4567 105.974 41.2729 95.5894 26.318 77.9469C19.197 69.5461 10.3026 58.1379 4.66249 44.2799C2.03897 37.8354 -0.840505 29.1878 0.229014 19.5347C1.0243 12.3772 5.00071 7.70601 11.1253 6.71876C14.8183 6.12458 18.2189 7.41349 21.0618 8.74811C23.3014 9.79934 25.3307 11.1797 27.2869 12.5051C28.1371 13.081 28.9781 13.6569 29.8465 14.2054C30.4315 14.5802 30.9068 14.6625 31.9672 14.571C41.6477 13.7483 50.6335 9.8999 59.3359 6.18857L60.762 5.57611C78.441 -1.96537 96.5406 -1.85567 114.558 5.89605L116.13 6.5725C122.776 9.44284 129.65 12.4137 136.899 13.7026C137.904 13.8855 138.919 14.05 139.925 14.2145C141.113 14.4156 142.301 14.6167 143.49 14.827C143.609 14.8544 143.718 14.7904 144.148 14.4979L144.367 14.3517C146.031 13.2456 147.713 12.1669 149.386 11.0791L150.382 10.4301C152.11 9.30572 153.947 8.40074 155.849 7.73343C160.465 6.11544 164.853 6.38968 168.198 8.51958C171.581 10.6678 173.729 14.5802 174.232 19.5256C175.027 27.2773 173.528 35.2758 169.533 44.6913C162.714 60.7523 152.412 75.0948 138.937 87.3075C124.759 100.151 106.047 106.413 81.7318 106.44H81.7136H81.7227ZM13.0267 9.31486C12.5422 9.31486 12.0577 9.35142 11.5641 9.43369C6.74668 10.2107 3.61125 14.0043 2.96223 19.8455C2.17609 26.8934 3.48328 34.1149 7.21288 43.2561C12.7067 56.7485 21.4274 67.9373 28.4204 76.1826C42.8635 93.2127 62.3068 103.25 81.7593 103.707C105.353 103.67 123.461 97.6462 137.109 85.2781C150.291 73.3306 160.355 59.3172 167.028 43.6217C170.84 34.6451 172.266 27.0762 171.526 19.7998C171.105 15.7046 169.414 12.5143 166.754 10.8323C164.085 9.14118 160.639 8.96749 156.781 10.3204C155.09 10.9146 153.444 11.7281 151.9 12.7337L150.903 13.3827C149.23 14.4613 147.567 15.5491 145.903 16.6461L145.711 16.7741C145.135 17.1671 144.267 17.7613 143.014 17.5328C141.835 17.3225 140.665 17.1214 139.486 16.9295C138.471 16.7558 137.457 16.5912 136.433 16.4084C128.873 15.0647 121.843 12.0298 115.051 9.09547L113.479 8.41902C95.9372 0.868401 79.0443 0.767848 61.8406 8.09908L60.4146 8.71154C51.5202 12.5143 42.315 16.445 32.2049 17.3134C30.7971 17.4322 29.6636 17.35 28.3839 16.5364C27.4972 15.9696 26.6288 15.3846 25.7604 14.7904C23.8041 13.465 21.9485 12.2035 19.9009 11.2437C17.7435 10.229 15.44 9.324 13.0267 9.324V9.31486ZM87.6736 102.262C85.1324 102.262 82.5546 102.144 79.931 101.906C61.283 100.233 45.0757 92.1614 31.7387 77.9286C30.3858 76.4843 29.8008 74.9212 29.819 72.8461C29.8739 66.8678 29.8647 60.7889 29.8556 54.9111V47.1868V41.7478C29.8556 35.8426 29.8556 29.9374 29.8556 24.0322C29.8556 19.8729 30.7606 18.8674 34.9381 18.3555C43.7776 17.2677 52.1875 13.7026 59.6102 10.5581C67.3253 7.29466 77.6457 3.60162 89.2825 4.04953C99.2189 4.43347 108.25 7.74258 115.774 10.9328C124.458 14.6076 132.347 17.7156 140.921 18.4743C143.06 18.6663 144.386 20.0832 144.55 22.3685C144.623 23.3557 144.614 24.3247 144.605 25.2754V26.1712V37.552C144.605 49.143 144.605 61.1271 144.642 72.9101C144.642 74.9852 144.047 76.5483 142.676 77.9835C127.282 94.1177 108.799 102.272 87.6553 102.272L87.6736 102.262ZM32.598 49.9292V54.9111C32.6071 60.798 32.6162 66.8861 32.5614 72.8735C32.5523 74.2447 32.8813 75.1314 33.7406 76.0547C46.6023 89.7847 62.2245 97.5639 80.1778 99.1727C103.689 101.293 124.065 93.5235 140.711 76.0821C141.579 75.168 141.917 74.2813 141.917 72.9192C141.872 61.1271 141.872 49.143 141.881 37.5429V25.2388C141.89 24.3064 141.899 23.4289 141.835 22.5604C141.753 21.3812 141.268 21.2441 140.693 21.1984C131.716 20.4031 123.617 17.222 114.713 13.4467C107.419 10.357 98.6705 7.1484 89.1819 6.78275C80.5252 6.44453 71.7497 8.3916 60.6797 13.081C53.0925 16.2987 44.4906 19.9369 35.2763 21.0704C33.4968 21.2898 32.6071 22.2771 32.6071 24.0322C32.6071 29.9374 32.6071 35.8426 32.6071 41.7478V49.9292H32.598ZM28.4936 72.6999L26.1534 70.3689C22.0399 66.2736 18.5022 61.5476 14.6812 55.0574C9.06854 45.5322 5.85999 37.2229 4.57108 28.8861C3.86721 24.2973 3.98604 20.6134 4.94587 17.2951C6.43588 12.1669 9.93696 10.0004 15.0834 11.0334C18.9319 11.8104 22.0033 13.9129 24.9742 15.9514C25.9158 16.6004 26.8847 17.2677 27.8537 17.8619C28.6398 18.3555 29.0238 19.1965 28.9141 20.1746C28.3016 25.6684 28.393 31.2994 28.4844 36.7567C28.5301 39.5905 28.585 42.5248 28.5301 45.4226C28.4479 50.3679 28.4661 55.4047 28.4844 60.277C28.4844 62.48 28.5027 64.6922 28.5027 66.8952V72.6999H28.4936ZM12.6976 13.5198C10.0741 13.5198 8.46522 14.9733 7.56939 18.0538C6.71012 21.0156 6.6187 24.2333 7.26773 28.4656C8.49265 36.4459 11.6007 44.4536 17.0305 53.6588C19.9831 58.6681 22.7438 62.5806 25.7421 65.9445C25.7421 64.0614 25.7329 62.1692 25.7238 60.2861C25.7055 55.3956 25.6781 50.3497 25.7695 45.3677C25.8152 42.5248 25.7695 39.6088 25.7238 36.8024C25.6324 31.3177 25.541 25.6502 26.1534 20.0375C25.2119 19.4433 24.2978 18.8126 23.4111 18.2001C20.5407 16.2347 17.8349 14.3699 14.535 13.7026C13.8768 13.5655 13.2643 13.5015 12.6976 13.5015V13.5198ZM147.576 72.3433L146.579 70.4603C145.885 69.1531 145.949 68.0561 145.985 67.2608C145.985 67.0963 146.004 66.9409 146.004 66.7764C146.004 62.6446 146.022 58.5127 146.049 54.3809C146.104 44.3622 146.159 33.9961 145.802 23.8311C145.629 19.0319 147.594 16.9112 150.821 15.0372C151.26 14.7813 151.689 14.5253 152.119 14.2694C154.03 13.1176 156.013 11.9292 158.335 11.2802C161.251 10.4666 163.719 10.6403 165.685 11.7921C167.65 12.9439 169.003 15.0098 169.716 17.935C170.694 21.9571 170.602 26.2992 169.414 31.6102C166.855 43.0916 161.443 53.933 151.872 66.7764C151.26 67.5991 150.62 68.4126 149.934 69.2993L147.567 72.3525L147.576 72.3433ZM161.708 13.5198C160.913 13.5198 160.035 13.6569 159.075 13.922C157.11 14.4705 155.373 15.5126 153.536 16.6187C153.097 16.8838 152.649 17.1489 152.21 17.4048C149.578 18.9314 148.426 20.2112 148.554 23.7305C148.92 33.9504 148.856 44.3439 148.801 54.3901C148.782 58.3756 148.755 62.3703 148.755 66.3559C149.075 65.9445 149.386 65.5332 149.697 65.1218C159.021 52.6075 164.286 42.086 166.754 31.0069C167.842 26.1255 167.942 22.1765 167.065 18.5749C166.535 16.3993 165.611 14.9093 164.313 14.1505C163.591 13.7209 162.714 13.5107 161.717 13.5107L161.708 13.5198Z" fill="#5AD0C8"/>
</g>
<g id="Group_3">
<path id="Vector_3" d="M91.5861 85.2415C73.843 85.1958 61.1368 82.1884 49.7925 74.4367C48.7139 73.6962 47.6992 72.8644 46.6845 72.0325C45.615 71.1641 45.03 70.058 46.0081 68.8514C47.0776 67.5259 48.2842 67.9738 49.436 68.9245C54.1712 72.8735 59.5462 75.753 65.3966 77.5629C85.0775 83.6418 104 82.3712 121.816 71.3378C122.986 70.6065 124.074 69.7289 125.153 68.8605C126.24 67.983 127.346 67.5442 128.388 68.7691C129.403 69.9575 128.9 71.0453 127.858 71.9777C124.312 75.1314 120.244 77.4807 115.938 79.3912C106.87 83.4224 97.3359 85.3147 91.5952 85.2507L91.5861 85.2415Z" fill="#5AD0C8"/>
<path id="Vector_4" d="M91.8694 86.6127C91.7689 86.6127 91.6683 86.6127 91.5769 86.6127C73.0203 86.567 60.2866 83.2671 49.0155 75.5702C47.9643 74.848 46.977 74.0436 46.0264 73.2666L45.8161 73.0929C43.5948 71.2738 43.9056 69.2628 44.9477 67.983C45.5876 67.1877 46.3554 66.7489 47.2147 66.6667C48.202 66.5661 49.2258 66.9683 50.3136 67.8733C54.8567 71.6578 60.0672 74.4824 65.7988 76.2558C86.211 82.5632 104.301 80.5704 121.094 70.1769C122.172 69.5096 123.215 68.6686 124.22 67.855C126.898 65.6794 128.635 66.9409 129.431 67.8824C130.802 69.5004 130.555 71.4109 128.763 73.0015C125.445 75.945 121.432 78.4497 116.487 80.6435C106.55 85.0679 97.0982 86.6219 91.8694 86.6219V86.6127ZM47.4981 69.3999H47.4798C47.3793 69.409 47.233 69.5279 47.0776 69.7198C46.8673 69.9758 46.6571 70.2409 47.5529 70.9813L47.7632 71.155C48.7139 71.932 49.6097 72.6633 50.5695 73.3214C61.3561 80.6801 73.6236 83.843 91.5952 83.8887H91.6043C96.8514 83.9526 106.276 82.1975 115.381 78.148C120.061 76.0638 123.845 73.7145 126.953 70.9539C127.803 70.1952 127.602 69.9575 127.346 69.665C127.081 69.3633 126.944 69.1896 126.012 69.9392C124.869 70.8625 123.754 71.7674 122.538 72.517C105.28 83.2031 85.9185 85.3513 64.9943 78.8884C58.9063 77.0054 53.3759 74.0162 48.5585 69.9941C47.9186 69.4547 47.5986 69.409 47.4981 69.409V69.3999Z" fill="#5AD0C8"/>
</g>
<g id="Group_4">
<path id="Vector_5" d="M83.1305 27.5058C77.4355 27.579 70.0951 30.2299 62.6999 32.634C58.1567 34.1149 53.5404 35.3307 48.7413 35.6506C47.2787 35.7512 45.7704 35.8152 45.6242 33.8772C45.4779 32.0033 46.9039 31.6285 48.3939 31.5371C54.226 31.1623 59.6924 29.2792 65.1589 27.4327C73.0203 24.7818 81.0097 22.917 89.3739 23.246C96.9154 23.5477 104.064 25.6776 111.157 28.0726C116.121 29.7454 121.14 31.2263 126.423 31.5737C127.886 31.6742 129.047 32.2501 128.855 33.9687C128.681 35.6141 127.438 35.7603 126.112 35.6872C120.043 35.349 114.32 33.5299 108.625 31.6102C101.065 29.069 93.4234 27.0579 83.1396 27.5058H83.1305Z" fill="#5AD0C8"/>
<path id="Vector_6" d="M126.505 37.0675C126.35 37.0675 126.195 37.0675 126.03 37.0492C119.887 36.7019 114.083 34.8919 108.177 32.8991C100.087 30.1751 92.747 28.4474 83.1853 28.8679H83.1396C78.3039 28.9319 72.1428 30.9612 65.6342 33.1002C64.7932 33.3745 63.9614 33.6487 63.1204 33.9229C59.2811 35.1753 54.1895 36.647 48.8236 37.0035C47.5255 37.0858 44.4998 37.2869 44.2438 33.9687C44.1616 32.9448 44.4175 32.0947 44.9843 31.4365C45.8618 30.4219 47.2147 30.2116 48.2934 30.1476C53.8147 29.7911 59.1714 27.9812 64.3453 26.2352L64.711 26.1072C74.3092 22.8712 81.9421 21.5549 89.4196 21.8566C97.4364 22.1765 105.069 24.5532 111.587 26.7471C117.008 28.5753 121.624 29.8643 126.505 30.1842C127.858 30.2756 128.873 30.7052 129.513 31.464C129.915 31.9393 130.354 32.7712 130.217 34.0875C130.006 36.0528 128.763 37.0492 126.505 37.0492V37.0675ZM86.0191 26.0707C94.6026 26.0707 101.523 27.7709 109.064 30.3122C114.777 32.241 120.399 33.9961 126.195 34.3252C127.438 34.3891 127.456 34.2337 127.502 33.8315C127.529 33.5573 127.502 33.347 127.429 33.2648C127.328 33.1368 126.981 32.9905 126.341 32.954C120.856 32.5975 115.6 31.0252 110.728 29.3798C104.384 27.2407 96.9794 24.928 89.3282 24.6264C82.1981 24.3338 74.8668 25.6136 65.5977 28.7399L65.232 28.8587C59.8844 30.6595 54.3631 32.5335 48.4762 32.9083C47.4158 32.9723 47.1325 33.1734 47.0593 33.2556C46.9953 33.3288 46.9679 33.5299 46.9862 33.7767C47.0228 34.2886 47.0319 34.3983 48.6499 34.2886C53.7141 33.9504 58.5864 32.5335 62.2794 31.336C63.1204 31.0618 63.9523 30.7875 64.7841 30.5133C71.4937 28.3011 77.8377 26.2169 83.0939 26.1438C84.0903 26.0981 85.0684 26.0798 86.0191 26.0798V26.0707Z" fill="#5AD0C8"/>
</g>
<g id="Group_5">
<path id="Vector_7" d="M86.9423 57.7357C73.9893 57.5529 61.0911 56.8765 48.4579 53.6313C47.9369 53.4942 47.4067 53.3754 46.9222 53.156C45.7704 52.6441 45.2494 51.7117 45.743 50.5325C46.2001 49.4447 47.0502 48.9053 48.3574 49.2801C56.1731 51.5014 64.1899 52.4887 72.2616 53.028C90.1692 54.2347 107.985 53.7319 125.527 49.4538C127.036 49.0882 128.251 49.1247 128.754 50.6148C129.357 52.3881 128.014 53.1103 126.579 53.4942C118.37 55.7064 109.96 56.7211 101.504 57.2513C96.6594 57.5529 91.8146 57.9003 86.9515 57.7266L86.9423 57.7357Z" fill="#5AD0C8"/>
<path id="Vector_8" d="M89.6481 59.1617C88.734 59.1617 87.8199 59.1435 86.9058 59.116C74.4555 58.9424 61.1276 58.3208 48.1106 54.9659L47.9186 54.9202C47.4341 54.8014 46.8856 54.6551 46.3555 54.4175C44.445 53.5673 43.7045 51.8305 44.4632 50.0114C45.222 48.1923 46.8217 47.4336 48.7139 47.9729C55.4601 49.8834 62.7456 51.0261 72.3347 51.6751C92.8293 53.0554 109.622 51.9311 125.18 48.1375C127.73 47.5159 129.357 48.2106 130.034 50.1942C130.454 51.4192 130.198 52.315 129.906 52.8543C129.165 54.2346 127.474 54.6917 126.917 54.838C119.586 56.8125 111.532 58.0191 101.568 58.6407L100.325 58.7138C96.824 58.9332 93.2315 59.1617 89.6299 59.1617H89.6481ZM47.5804 50.5416C47.3061 50.5416 47.1599 50.697 47.0045 51.0718C46.8948 51.346 46.7851 51.602 47.4798 51.9128C47.7998 52.059 48.1928 52.1505 48.6042 52.2601L48.8053 52.315C61.5481 55.5967 74.6749 56.2091 86.9698 56.3737H86.9972C91.3758 56.5382 95.855 56.2549 100.179 55.9806L101.422 55.9075C111.194 55.3042 119.074 54.125 126.222 52.1962C127.273 51.9128 127.474 51.6203 127.502 51.5654C127.548 51.4832 127.529 51.3003 127.447 51.0718C127.328 50.7153 127.237 50.4593 125.838 50.7976C109.996 54.6551 92.939 55.8069 72.161 54.4083C62.3708 53.7502 54.9116 52.5801 47.9735 50.6056C47.8181 50.5599 47.6901 50.5325 47.5804 50.5325V50.5416Z" fill="#5AD0C8"/>
</g>
</g>
</g>
</svg>
