<svg width="72" height="72" viewBox="0 0 72 72" fill="none" xmlns="http://www.w3.org/2000/svg">
<g id="Capa_1" clip-path="url(#clip0_22_9101)">
<path id="Vector" d="M36 72C55.8822 72 72 55.8822 72 36C72 16.1177 55.8822 0 36 0C16.1177 0 0 16.1177 0 36C0 55.8822 16.1177 72 36 72Z" fill="#4DFFF5"/>
<g id="IAtfqQ">
<g id="Group">
<path id="Vector_2" d="M37.0491 41.7808C36.6537 41.8157 36.2555 41.8292 35.852 41.8184C29.7888 41.6463 25.0087 36.6564 25.2481 30.7438C25.4875 24.8178 30.4129 20.1695 36.3147 20.3067C42.1816 20.4412 46.9401 25.4257 46.8083 31.3006C46.7545 33.7001 45.8964 35.9112 44.503 37.6812C44.0054 38.3134 44.4411 39.2387 45.2454 39.2387H45.3073C45.5951 39.2387 45.8722 39.1123 46.0498 38.8864C47.7122 36.764 48.7182 34.0955 48.7613 31.1634C48.8689 24.2502 43.1069 18.421 36.1183 18.3699C29.1163 18.3215 23.3705 23.9812 23.3087 30.9886C23.2468 37.9744 28.9711 43.766 35.9408 43.7714C36.3443 43.7714 36.7397 43.7525 37.1325 43.7176C38.3456 43.61 38.2676 41.8077 37.0491 41.8077V41.7808Z" fill="white" stroke="white" stroke-miterlimit="10"/>
<path id="Vector_3" d="M55.6557 51.2576C54.9455 46.0417 50.7814 42.2085 45.4284 41.8104C45.3988 41.8104 45.3719 41.8077 45.3423 41.8077H37.0491V41.762C36.7343 41.762 36.4223 41.7647 36.1076 41.7647C33.1351 41.7647 30.1627 41.7055 27.193 41.7754C21.388 41.9126 16.5891 46.3995 16.3174 51.8709C16.2824 52.5784 16.1641 53.4284 17.1217 53.5817C18.1573 53.7485 18.1385 52.8931 18.2542 52.1803C19.158 46.5663 22.5043 43.7176 28.2017 43.7041C32.9818 43.6934 37.7619 43.6934 42.542 43.7041C49.8103 43.723 52.0403 45.4849 53.8399 52.6133C53.8722 52.7371 53.8803 52.8689 53.9206 52.9899C54.0632 53.3961 54.3483 53.6382 54.7841 53.6302C55.2118 53.6221 55.575 53.3854 55.6341 52.9792C55.7148 52.4143 55.731 51.8198 55.653 51.2549L55.6557 51.2576Z" fill="white" stroke="white" stroke-miterlimit="10"/>
</g>
</g>
</g>
<defs>
<clipPath id="clip0_22_9101">
<rect width="72" height="72" fill="white"/>
</clipPath>
</defs>
</svg>
