<svg width="27" height="32" viewBox="0 0 27 32" fill="none" xmlns="http://www.w3.org/2000/svg">
<g id="Capa_2">
<path id="Vector" d="M26.6181 31.9539C26.848 31.8617 27 31.6389 27 31.3931V13.0942C27 7.98175 24.3659 4.85128 22.1525 3.12279C19.686 1.19842 16.3699 0 13.5019 0C10.634 0 7.3686 1.25603 4.83966 3.28028C2.63025 5.04333 0 8.18149 0 13.0942C0 17.2733 1.44177 20.688 4.16943 22.9735C6.79579 25.1706 10.6301 26.3344 15.2554 26.3344C15.5945 26.3344 15.8711 26.0617 15.8711 25.7275C15.8711 25.3934 15.5945 25.1206 15.2554 25.1206C6.34377 25.1206 1.23135 20.738 1.23135 13.0942C1.23135 8.65778 3.61611 5.82307 5.6151 4.22134C7.93361 2.3661 10.9535 1.21378 13.4981 1.21378C15.5399 1.21378 18.6845 1.96663 21.3888 4.07538C23.3878 5.63486 25.7648 8.46573 25.7648 13.0904V29.922L21.1121 25.3357C20.8744 25.0976 20.4809 25.0976 20.2432 25.3357C20.0016 25.5739 20.0016 25.958 20.2432 26.1961L25.9479 31.8195C26.0648 31.9347 26.2246 31.9962 26.3843 31.9962C26.4662 31.9962 26.5441 31.9808 26.622 31.9501" fill="white"/>
<path id="Vector_2" d="M9.34031 12.5027C8.7714 12.5027 8.30769 12.9598 8.30769 13.5206C8.30769 14.0814 8.7714 14.5385 9.34031 14.5385C9.90922 14.5385 10.3729 14.0852 10.3729 13.5206C10.3729 12.9559 9.91312 12.5027 9.34031 12.5027Z" fill="white"/>
<path id="Vector_3" d="M13.6227 12.5027C13.0538 12.5027 12.5901 12.9598 12.5901 13.5206C12.5901 14.0814 13.0538 14.5385 13.6227 14.5385C14.1917 14.5385 14.6554 14.0852 14.6554 13.5206C14.6554 12.9559 14.1917 12.5027 13.6227 12.5027Z" fill="white"/>
<path id="Vector_4" d="M17.9013 12.5027C17.3324 12.5027 16.8687 12.9598 16.8687 13.5206C16.8687 14.0814 17.3285 14.5385 17.9013 14.5385C18.4741 14.5385 18.9339 14.0852 18.9339 13.5206C18.9339 12.9559 18.4702 12.5027 17.9013 12.5027Z" fill="white"/>
</g>
</svg>
