<svg width="20" height="22" viewBox="0 0 20 22" fill="none" xmlns="http://www.w3.org/2000/svg">
<path d="M14.6357 4.34212C15.0212 5.00149 15.7367 5.44444 16.5556 5.44444C17.7829 5.44444 18.7778 4.44952 18.7778 3.22222C18.7778 1.99492 17.7829 1 16.5556 1C15.3283 1 14.3333 1.99492 14.3333 3.22222C14.3333 3.63062 14.4435 4.01328 14.6357 4.34212ZM14.6357 4.34212L5.14204 9.88011M5.14204 9.88011C4.75658 9.22073 4.04113 8.77778 3.22222 8.77778C1.99492 8.77778 1 9.7727 1 11C1 12.2273 1.99492 13.2222 3.22222 13.2222C4.04113 13.2222 4.75658 12.7793 5.14204 12.1199M5.14204 9.88011C5.33428 10.2089 5.44444 10.5916 5.44444 11C5.44444 11.4084 5.33428 11.7911 5.14204 12.1199M5.14204 12.1199L14.6357 17.6579M14.6357 17.6579C15.0212 16.9985 15.7367 16.5556 16.5556 16.5556C17.7829 16.5556 18.7778 17.5505 18.7778 18.7778C18.7778 20.0051 17.7829 21 16.5556 21C15.3283 21 14.3333 20.0051 14.3333 18.7778C14.3333 18.3694 14.4435 17.9867 14.6357 17.6579Z" stroke="#48B2C2" stroke-width="2" stroke-linecap="round" stroke-linejoin="round"/>
</svg>
