<svg width="335" height="67" viewBox="0 0 335 67" fill="none" xmlns="http://www.w3.org/2000/svg">
<mask id="mask0_144_553" style="mask-type:alpha" maskUnits="userSpaceOnUse" x="278" y="8" width="48" height="46">
<path d="M305.683 11.7082C304.485 8.02296 299.272 8.02296 298.074 11.7082L295.34 20.1224C294.805 21.7705 293.269 22.8864 291.536 22.8864H282.689C278.814 22.8864 277.203 27.8448 280.338 30.1224L287.495 35.3227C288.897 36.3413 289.484 38.1468 288.948 39.7949L286.214 48.2091C285.017 51.8943 289.235 54.9588 292.37 52.6812L299.527 47.4809C300.929 46.4624 302.828 46.4624 304.23 47.4809L311.387 52.6812C314.522 54.9588 318.74 51.8943 317.543 48.2091L314.809 39.7949C314.273 38.1468 314.86 36.3413 316.262 35.3227L323.419 30.1224C326.554 27.8448 324.943 22.8864 321.068 22.8864H312.221C310.488 22.8864 308.952 21.7705 308.417 20.1224L305.683 11.7082Z" fill="#5AD0C8"/>
</mask>
<g mask="url(#mask0_144_553)">
<rect width="34.6987" height="61.1959" transform="matrix(-1 0 0 1 336.262 0)" fill="#D9D9D9"/>
</g>
<path d="M29.3172 11.7082C30.5146 8.02296 35.7283 8.02296 36.9257 11.7082L39.6596 20.1224C40.1951 21.7705 41.731 22.8864 43.4639 22.8864H52.3111C56.186 22.8864 57.7971 27.8448 54.6623 30.1224L47.5047 35.3227C46.1027 36.3413 45.5161 38.1468 46.0516 39.7949L48.7855 48.2091C49.983 51.8943 45.765 54.9588 42.6302 52.6812L35.4726 47.4809C34.0707 46.4624 32.1723 46.4624 30.7703 47.4809L23.6128 52.6812C20.4779 54.9588 16.26 51.8943 17.4574 48.2091L20.1913 39.7949C20.7268 38.1468 20.1402 36.3413 18.7382 35.3227L11.5807 30.1224C8.44582 27.8448 10.0569 22.8864 13.9318 22.8864H22.7791C24.512 22.8864 26.0478 21.7705 26.5833 20.1224L29.3172 11.7082Z" fill="#5AD0C8"/>
<path d="M97.4528 11.7082C98.6502 8.02296 103.864 8.02296 105.061 11.7082L107.795 20.1224C108.331 21.7705 109.867 22.8864 111.599 22.8864H120.447C124.322 22.8864 125.933 27.8448 122.798 30.1224L115.64 35.3227C114.238 36.3413 113.652 38.1468 114.187 39.7949L116.921 48.2091C118.119 51.8943 113.901 54.9588 110.766 52.6812L103.608 47.4809C102.206 46.4624 100.308 46.4624 98.9059 47.4809L91.7483 52.6812C88.6135 54.9588 84.3956 51.8943 85.593 48.2091L88.3269 39.7949C88.8624 38.1468 88.2758 36.3413 86.8738 35.3227L79.7163 30.1224C76.5814 27.8448 78.1925 22.8864 82.0674 22.8864H90.9147C92.6476 22.8864 94.1834 21.7705 94.7189 20.1224L97.4528 11.7082Z" fill="#5AD0C8"/>
<path d="M165.588 11.7082C166.786 8.02296 171.999 8.02296 173.197 11.7082L175.931 20.1224C176.466 21.7705 178.002 22.8864 179.735 22.8864H188.582C192.457 22.8864 194.068 27.8448 190.933 30.1224L183.776 35.3227C182.374 36.3413 181.787 38.1468 182.323 39.7949L185.057 48.2091C186.254 51.8943 182.036 54.9588 178.901 52.6812L171.744 47.4809C170.342 46.4624 168.443 46.4624 167.042 47.4809L159.884 52.6812C156.749 54.9588 152.531 51.8943 153.729 48.2091L156.463 39.7949C156.998 38.1468 156.411 36.3413 155.009 35.3227L147.852 30.1224C144.717 27.8448 146.328 22.8864 150.203 22.8864H159.05C160.783 22.8864 162.319 21.7705 162.854 20.1224L165.588 11.7082Z" fill="#5AD0C8"/>
<path d="M231.831 11.7082C233.029 8.02296 238.242 8.02296 239.44 11.7082L242.174 20.1224C242.709 21.7705 244.245 22.8864 245.978 22.8864H254.825C258.7 22.8864 260.311 27.8448 257.176 30.1224L250.019 35.3227C248.617 36.3413 248.03 38.1468 248.566 39.7949L251.3 48.2091C252.497 51.8943 248.279 54.9588 245.144 52.6812L237.987 47.4809C236.585 46.4624 234.686 46.4624 233.284 47.4809L226.127 52.6812C222.992 54.9588 218.774 51.8943 219.972 48.2091L222.705 39.7949C223.241 38.1468 222.654 36.3413 221.252 35.3227L214.095 30.1224C210.96 27.8448 212.571 22.8864 216.446 22.8864H225.293C227.026 22.8864 228.562 21.7705 229.097 20.1224L231.831 11.7082Z" fill="#5AD0C8"/>
<mask id="mask1_144_553" style="mask-type:alpha" maskUnits="userSpaceOnUse" x="278" y="8" width="48" height="46">
<path d="M298.074 11.7082C299.272 8.02296 304.485 8.02296 305.683 11.7082L308.417 20.1224C308.952 21.7705 310.488 22.8864 312.221 22.8864H321.068C324.943 22.8864 326.554 27.8448 323.419 30.1224L316.262 35.3227C314.86 36.3413 314.273 38.1468 314.809 39.7949L317.543 48.2091C318.74 51.8943 314.522 54.9588 311.387 52.6812L304.23 47.4809C302.828 46.4624 300.929 46.4624 299.527 47.4809L292.37 52.6812C289.235 54.9588 285.017 51.8943 286.214 48.2091L288.948 39.7949C289.484 38.1468 288.897 36.3413 287.495 35.3227L280.338 30.1224C277.203 27.8448 278.814 22.8864 282.689 22.8864H291.536C293.269 22.8864 294.805 21.7705 295.34 20.1224L298.074 11.7082Z" fill="#5AD0C8"/>
</mask>
<g mask="url(#mask1_144_553)">
<rect x="267.495" width="34.6987" height="61.1959" fill="#5AD0C8"/>
</g>
</svg>
