<svg width="33" height="33" viewBox="0 0 33 33" fill="none" xmlns="http://www.w3.org/2000/svg">
<path d="M22.7648 16.5291C22.7648 17.2601 23.3574 17.8526 24.0883 17.8526C24.8193 17.8526 25.4119 17.2601 25.4119 16.5291C25.4119 15.7981 24.8193 15.2056 24.0883 15.2056C23.3574 15.2056 22.7648 15.7981 22.7648 16.5291Z" fill="#707070"/>
<path d="M14.8236 16.5291C14.8236 17.2601 15.4162 17.8526 16.1472 17.8526C16.8781 17.8526 17.4707 17.2601 17.4707 16.5291C17.4707 15.7981 16.8781 15.2056 16.1472 15.2056C15.4162 15.2056 14.8236 15.7981 14.8236 16.5291Z" fill="#707070"/>
<path d="M6.88245 16.5291C6.88245 17.2601 7.47501 17.8526 8.20598 17.8526C8.93694 17.8526 9.52951 17.2601 9.52951 16.5291C9.52951 15.7981 8.93694 15.2056 8.20598 15.2056C7.47501 15.2056 6.88245 15.7981 6.88245 16.5291Z" fill="#707070"/>
<path d="M22.7648 16.5291C22.7648 17.2601 23.3574 17.8526 24.0883 17.8526C24.8193 17.8526 25.4119 17.2601 25.4119 16.5291C25.4119 15.7981 24.8193 15.2056 24.0883 15.2056C23.3574 15.2056 22.7648 15.7981 22.7648 16.5291Z" stroke="#707070" stroke-linecap="round" stroke-linejoin="round"/>
<path d="M14.8236 16.5291C14.8236 17.2601 15.4162 17.8526 16.1472 17.8526C16.8781 17.8526 17.4707 17.2601 17.4707 16.5291C17.4707 15.7981 16.8781 15.2056 16.1472 15.2056C15.4162 15.2056 14.8236 15.7981 14.8236 16.5291Z" stroke="#707070" stroke-linecap="round" stroke-linejoin="round"/>
<path d="M6.88245 16.5291C6.88245 17.2601 7.47501 17.8526 8.20598 17.8526C8.93694 17.8526 9.52951 17.2601 9.52951 16.5291C9.52951 15.7981 8.93694 15.2056 8.20598 15.2056C7.47501 15.2056 6.88245 15.7981 6.88245 16.5291Z" stroke="#707070" stroke-linecap="round" stroke-linejoin="round"/>
</svg>
