<svg width="19" height="19" viewBox="0 0 19 19" fill="none" xmlns="http://www.w3.org/2000/svg">
<path d="M15.9191 16.8089C15.9191 17.479 16.4623 18.0222 17.1323 18.0222C17.8024 18.0222 18.3456 17.479 18.3456 16.8089C18.3456 16.1389 17.8024 15.5957 17.1323 15.5957C16.4623 15.5957 15.9191 16.1389 15.9191 16.8089Z" fill="#706E6F"/>
<path d="M8.6397 16.8089C8.6397 17.479 9.18289 18.0222 9.85294 18.0222C10.523 18.0222 11.0662 17.479 11.0662 16.8089C11.0662 16.1389 10.523 15.5957 9.85294 15.5957C9.18289 15.5957 8.6397 16.1389 8.6397 16.8089Z" fill="#706E6F"/>
<path d="M1.36029 16.8089C1.36029 17.479 1.90347 18.0222 2.57353 18.0222C3.24358 18.0222 3.78676 17.479 3.78676 16.8089C3.78676 16.1389 3.24358 15.5957 2.57353 15.5957C1.90347 15.5957 1.36029 16.1389 1.36029 16.8089Z" fill="#706E6F"/>
<path d="M15.9191 9.52951C15.9191 10.1996 16.4623 10.7427 17.1323 10.7427C17.8024 10.7427 18.3456 10.1996 18.3456 9.52951C18.3456 8.85946 17.8024 8.31628 17.1323 8.31628C16.4623 8.31628 15.9191 8.85946 15.9191 9.52951Z" fill="#706E6F"/>
<path d="M8.6397 9.52951C8.6397 10.1996 9.18289 10.7427 9.85294 10.7427C10.523 10.7427 11.0662 10.1996 11.0662 9.52951C11.0662 8.85946 10.523 8.31628 9.85294 8.31628C9.18289 8.31628 8.6397 8.85946 8.6397 9.52951Z" fill="#706E6F"/>
<path d="M1.36029 9.52951C1.36029 10.1996 1.90347 10.7427 2.57353 10.7427C3.24358 10.7427 3.78676 10.1996 3.78676 9.52951C3.78676 8.85946 3.24358 8.31628 2.57353 8.31628C1.90347 8.31628 1.36029 8.85946 1.36029 9.52951Z" fill="#706E6F"/>
<path d="M15.9191 2.2501C15.9191 2.92015 16.4623 3.46334 17.1323 3.46334C17.8024 3.46334 18.3456 2.92015 18.3456 2.2501C18.3456 1.58005 17.8024 1.03687 17.1323 1.03687C16.4623 1.03687 15.9191 1.58005 15.9191 2.2501Z" fill="#706E6F"/>
<path d="M8.6397 2.2501C8.6397 2.92015 9.18289 3.46334 9.85294 3.46334C10.523 3.46334 11.0662 2.92015 11.0662 2.2501C11.0662 1.58005 10.523 1.03687 9.85294 1.03687C9.18289 1.03687 8.6397 1.58005 8.6397 2.2501Z" fill="#706E6F"/>
<path d="M1.36029 2.2501C1.36029 2.92015 1.90347 3.46334 2.57353 3.46334C3.24358 3.46334 3.78676 2.92015 3.78676 2.2501C3.78676 1.58005 3.24358 1.03687 2.57353 1.03687C1.90347 1.03687 1.36029 1.58005 1.36029 2.2501Z" fill="#706E6F"/>
<path d="M15.9191 16.8089C15.9191 17.479 16.4623 18.0222 17.1323 18.0222C17.8024 18.0222 18.3456 17.479 18.3456 16.8089C18.3456 16.1389 17.8024 15.5957 17.1323 15.5957C16.4623 15.5957 15.9191 16.1389 15.9191 16.8089Z" stroke="#707070" stroke-linecap="round" stroke-linejoin="round"/>
<path d="M8.6397 16.8089C8.6397 17.479 9.18289 18.0222 9.85294 18.0222C10.523 18.0222 11.0662 17.479 11.0662 16.8089C11.0662 16.1389 10.523 15.5957 9.85294 15.5957C9.18289 15.5957 8.6397 16.1389 8.6397 16.8089Z" stroke="#707070" stroke-linecap="round" stroke-linejoin="round"/>
<path d="M1.36029 16.8089C1.36029 17.479 1.90347 18.0222 2.57353 18.0222C3.24358 18.0222 3.78676 17.479 3.78676 16.8089C3.78676 16.1389 3.24358 15.5957 2.57353 15.5957C1.90347 15.5957 1.36029 16.1389 1.36029 16.8089Z" stroke="#707070" stroke-linecap="round" stroke-linejoin="round"/>
<path d="M15.9191 9.52951C15.9191 10.1996 16.4623 10.7427 17.1323 10.7427C17.8024 10.7427 18.3456 10.1996 18.3456 9.52951C18.3456 8.85946 17.8024 8.31628 17.1323 8.31628C16.4623 8.31628 15.9191 8.85946 15.9191 9.52951Z" stroke="#707070" stroke-linecap="round" stroke-linejoin="round"/>
<path d="M8.6397 9.52951C8.6397 10.1996 9.18289 10.7427 9.85294 10.7427C10.523 10.7427 11.0662 10.1996 11.0662 9.52951C11.0662 8.85946 10.523 8.31628 9.85294 8.31628C9.18289 8.31628 8.6397 8.85946 8.6397 9.52951Z" stroke="#707070" stroke-linecap="round" stroke-linejoin="round"/>
<path d="M1.36029 9.52951C1.36029 10.1996 1.90347 10.7427 2.57353 10.7427C3.24358 10.7427 3.78676 10.1996 3.78676 9.52951C3.78676 8.85946 3.24358 8.31628 2.57353 8.31628C1.90347 8.31628 1.36029 8.85946 1.36029 9.52951Z" stroke="#707070" stroke-linecap="round" stroke-linejoin="round"/>
<path d="M15.9191 2.2501C15.9191 2.92015 16.4623 3.46334 17.1323 3.46334C17.8024 3.46334 18.3456 2.92015 18.3456 2.2501C18.3456 1.58005 17.8024 1.03687 17.1323 1.03687C16.4623 1.03687 15.9191 1.58005 15.9191 2.2501Z" stroke="#707070" stroke-linecap="round" stroke-linejoin="round"/>
<path d="M8.6397 2.2501C8.6397 2.92015 9.18289 3.46334 9.85294 3.46334C10.523 3.46334 11.0662 2.92015 11.0662 2.2501C11.0662 1.58005 10.523 1.03687 9.85294 1.03687C9.18289 1.03687 8.6397 1.58005 8.6397 2.2501Z" stroke="#707070" stroke-linecap="round" stroke-linejoin="round"/>
<path d="M1.36029 2.2501C1.36029 2.92015 1.90347 3.46334 2.57353 3.46334C3.24358 3.46334 3.78676 2.92015 3.78676 2.2501C3.78676 1.58005 3.24358 1.03687 2.57353 1.03687C1.90347 1.03687 1.36029 1.58005 1.36029 2.2501Z" stroke="#707070" stroke-linecap="round" stroke-linejoin="round"/>
</svg>
