<svg width="40" height="41" viewBox="0 0 40 41" fill="none" xmlns="http://www.w3.org/2000/svg">
<g id="Group">
<g id="Group_2">
<path id="Vector" d="M39.5206 20.4718C39.5206 31.4007 30.678 40.1439 19.8484 40.1439C9.01883 40.1439 0.17627 31.3014 0.17627 20.4718C0.17627 9.54282 9.01883 0.799657 19.8484 0.799657C30.678 0.700303 39.5206 9.54282 39.5206 20.4718Z" fill="#07CEC7"/>
</g>
<g id="Group_3">
<path id="Vector_2" d="M21.6368 27.6252C20.3452 27.6252 19.1529 27.6252 17.9606 27.6252C17.9606 23.6511 17.9606 19.6769 17.9606 15.6034C19.1529 15.6034 20.3451 15.6034 21.5374 15.6034C21.5374 16.1002 21.5374 16.6963 21.5374 17.1931C21.8354 16.895 22.0342 16.5969 22.2329 16.2989C22.9284 15.7028 23.7232 15.4047 24.6174 15.3053C25.4123 15.206 26.207 15.3053 26.9025 15.504C28.0948 15.9015 28.8896 16.7956 29.1877 17.9879C29.3864 18.7827 29.4857 19.5776 29.4857 20.4718C29.4857 22.7569 29.4857 25.1414 29.4857 27.4265V27.5259C28.2934 27.5259 27.0019 27.5259 25.8096 27.5259C25.8096 27.4265 25.8096 27.3272 25.8096 27.2278C25.8096 25.2407 25.8096 23.2537 25.8096 21.2666C25.8096 20.8692 25.8097 20.4718 25.7103 20.0743C25.5116 18.8821 24.7167 18.3853 23.5244 18.584C22.5309 18.6834 21.9348 19.2795 21.7361 20.4718C21.6368 20.8692 21.6368 21.2666 21.6368 21.7634C21.6368 23.6511 21.6368 25.5388 21.6368 27.4265C21.6368 27.4265 21.6368 27.5259 21.6368 27.6252Z" fill="white"/>
<path id="Vector_3" d="M11.9001 15.6035C13.0923 15.6035 14.3839 15.6035 15.5761 15.6035C15.5761 19.5777 15.5761 23.5518 15.5761 27.6254C14.3839 27.6254 13.0923 27.6254 11.9001 27.6254C11.9001 23.6512 11.9001 19.677 11.9001 15.6035Z" fill="white"/>
<path id="Vector_4" d="M15.8742 11.8279C15.8742 13.0201 14.8807 14.0137 13.6885 14.0137C12.4962 14.0137 11.5026 13.0201 11.5026 11.8279C11.5026 10.6356 12.4962 9.64209 13.6885 9.64209C14.8807 9.64209 15.8742 10.6356 15.8742 11.8279Z" fill="white"/>
</g>
</g>
</svg>
