<svg width="112" height="45" viewBox="0 0 112 45" fill="none" xmlns="http://www.w3.org/2000/svg">
<g id="Logo 1" clip-path="url(#clip0_1_1883)">
<g id="Capa 1">
<g id="Group">
<g id="Group_2">
<path id="Vector" d="M111.719 26.0997C113.715 13.8339 105.366 2.27637 93.0712 0.285339C80.7763 -1.70569 69.1914 6.6237 67.1957 18.8896C65.1999 31.1554 73.549 42.7129 85.8439 44.704C98.1388 46.695 109.724 38.3656 111.719 26.0997Z" fill="#25A3B6"/>
<path id="Vector_2" d="M105.174 26.4754L104.03 24.4877C103.512 23.582 102.981 22.6646 102.439 21.7472C102.439 21.7472 99.2438 16.5133 98.1592 14.8079C97.6876 14.161 96.4143 13.9845 95.6008 15.2901L94.1861 17.7483C95.7895 20.5358 98.501 25.2639 99.6328 27.2399H99.6446L100.694 29.0512C101.401 30.2862 102.981 30.6978 104.219 29.9921C105.457 29.2864 105.869 27.7104 105.162 26.4754H105.174Z" fill="url(#paint0_linear_1_1883)"/>
<path id="Vector_3" d="M90.8733 13.8436C90.8733 13.8436 90.4606 14.4317 90.3899 14.5493C89.3878 16.1489 83.3869 26.2051 83.3869 26.2051C82.6796 27.44 83.0922 29.0043 84.3301 29.7218C85.568 30.4392 87.136 30.0158 87.8551 28.7808L95.6244 15.302C96.4261 13.9965 97.7112 14.1611 98.1827 14.8198C95.8248 11.5148 92.96 11.4324 90.8968 13.8436H90.8733Z" fill="white"/>
<path id="Vector_4" d="M83.4577 16.3605C82.2198 15.6548 80.6518 16.0665 79.9327 17.3015L74.4505 26.4873C73.7432 27.7223 74.1558 29.2866 75.3937 30.004C76.6316 30.7097 78.1996 30.2981 78.9188 29.0631L84.4009 19.8773C85.1082 18.6423 84.6956 17.078 83.4577 16.3605Z" fill="#057794"/>
</g>
<g id="Group_3">
<path id="Vector_5" d="M26.9036 37.1786C26.8329 37.108 26.7975 37.0257 26.7975 36.9316L26.8329 36.7317L31.2657 25.2053C31.36 24.9465 31.5486 24.8171 31.8316 24.8171H32.9752C33.2581 24.8171 33.4467 24.9465 33.5411 25.2053L37.9739 36.7317L38.0093 36.9316C38.0093 37.0257 37.9739 37.108 37.8914 37.1786C37.8089 37.2492 37.7263 37.2845 37.632 37.2845H36.795C36.6771 37.2845 36.5827 37.2492 36.5002 37.1904C36.4177 37.1316 36.3705 37.061 36.347 36.9904L35.3449 34.4264H29.4265L28.448 36.9904C28.3537 37.1904 28.2004 37.2962 28 37.2962H27.1394C27.0451 37.2962 26.9625 37.2609 26.8918 37.1904L26.9036 37.1786ZM29.9571 32.9327H34.8497L32.3975 26.5343L29.9453 32.9327H29.9571Z" fill="#707070"/>
<path id="Vector_6" d="M40.0489 37.1669C39.9781 37.0846 39.9427 36.9905 39.9427 36.8729V25.2406C39.9427 25.1112 39.9781 25.0054 40.0489 24.923C40.1196 24.8407 40.2139 24.8054 40.3318 24.8054H44.6939C46.0497 24.8054 47.1107 25.123 47.8771 25.7581C48.6434 26.3932 49.0324 27.3224 49.0324 28.5339C49.0324 29.4395 48.8084 30.1805 48.3486 30.7568C47.9006 31.3449 47.264 31.7448 46.4505 31.9683L49.1975 36.7317C49.2329 36.8023 49.2564 36.8729 49.2564 36.9317C49.2564 37.0258 49.2211 37.1081 49.1503 37.1787C49.0796 37.2492 48.9971 37.2845 48.9027 37.2845H48.1129C47.936 37.2845 47.7945 37.2375 47.6884 37.1551C47.5823 37.0728 47.4998 36.9552 47.4173 36.8023L44.7882 32.2388H41.6051V36.8729C41.6051 36.9905 41.5697 37.0846 41.4754 37.1669C41.3929 37.2492 41.2867 37.2845 41.1689 37.2845H40.3082C40.1903 37.2845 40.096 37.2492 40.0253 37.1669H40.0489ZM44.6232 30.7803C46.427 30.7803 47.323 30.0276 47.323 28.5221C47.323 27.0166 46.427 26.2639 44.6232 26.2639H41.6169V30.7921H44.6232V30.7803Z" fill="#707070"/>
<path id="Vector_7" d="M54.3141 37.1669C54.2316 37.0846 54.1962 36.9905 54.1962 36.8729V26.3462H50.7537C50.6358 26.3462 50.5415 26.3109 50.459 26.2286C50.3764 26.1462 50.3411 26.0522 50.3411 25.9345V25.2406C50.3411 25.1112 50.3764 25.0054 50.459 24.923C50.5415 24.8407 50.6358 24.8054 50.7537 24.8054H59.3246C59.4543 24.8054 59.5604 24.8407 59.6312 24.923C59.7019 25.0054 59.7373 25.0995 59.7373 25.2406V25.9345C59.7373 26.0522 59.7019 26.1462 59.6194 26.2286C59.5369 26.3109 59.4425 26.3462 59.3246 26.3462H55.8939V36.8729C55.8939 36.9905 55.8467 37.0846 55.7642 37.1669C55.6817 37.2492 55.5756 37.2845 55.4577 37.2845H54.5971C54.4792 37.2845 54.3849 37.2492 54.3023 37.1669H54.3141Z" fill="#707070"/>
</g>
<g id="Group_4">
<path id="Vector_8" d="M0.106105 19.5478C0.0353684 19.4772 0 19.3831 0 19.2772L0.0353684 19.1126L4.35032 7.56266C4.46821 7.26862 4.68042 7.11572 4.99874 7.11572H6.97937C7.2859 7.11572 7.50989 7.26862 7.62779 7.56266L11.9427 19.1243L11.9781 19.289C11.9781 19.3949 11.9427 19.489 11.8602 19.5595C11.7777 19.6301 11.6952 19.6654 11.6008 19.6654H9.99747C9.7499 19.6654 9.57305 19.5478 9.47874 19.3243L8.65347 17.1602H3.32463L2.49937 19.3243C2.40505 19.5478 2.22821 19.6654 1.98063 19.6654H0.377263C0.271158 19.6654 0.176842 19.6301 0.106105 19.5595V19.5478ZM3.94947 15.0666H8.00505L5.97726 9.55038L3.94947 15.0666Z" fill="#707070"/>
<path id="Vector_9" d="M13.5225 19.5361C13.44 19.4538 13.3928 19.3479 13.3928 19.2303V10.7737C13.3928 10.6443 13.44 10.5385 13.5225 10.4562C13.605 10.3738 13.7111 10.3385 13.829 10.3385H15.3145C15.4442 10.3385 15.5503 10.3738 15.6328 10.4562C15.7153 10.5385 15.7507 10.6326 15.7507 10.7737V11.5029C16.4817 10.6091 17.4838 10.1621 18.7452 10.1621C19.8417 10.1621 20.7259 10.515 21.3625 11.2324C21.9991 11.9499 22.3292 12.9379 22.3292 14.1846V19.2186C22.3292 19.3362 22.2939 19.442 22.2113 19.5244C22.1288 19.6067 22.0345 19.6537 21.893 19.6537H20.2779C20.16 19.6537 20.0539 19.6067 19.9714 19.5244C19.8888 19.442 19.8417 19.3362 19.8417 19.2186V14.2904C19.8417 13.5965 19.6766 13.0555 19.3347 12.6673C18.9928 12.2792 18.5095 12.0793 17.8728 12.0793C17.2362 12.0793 16.7764 12.2792 16.3991 12.6673C16.0337 13.0555 15.845 13.5965 15.845 14.2787V19.2068C15.845 19.3244 15.8097 19.4303 15.7271 19.5126C15.6446 19.5949 15.5503 19.642 15.4088 19.642H13.8055C13.6876 19.642 13.5815 19.5949 13.4989 19.5126L13.5225 19.5361Z" fill="#707070"/>
<path id="Vector_10" d="M25.3002 18.6776C24.6518 17.9013 24.2981 16.878 24.2392 15.5843L24.2156 14.9962L24.2392 14.4081C24.2863 13.1378 24.64 12.1146 25.2884 11.3383C25.9368 10.562 26.8682 10.1621 28.0825 10.1621C29.2968 10.1621 30.1457 10.5503 30.8295 11.3501V7.37463C30.8295 7.24526 30.8766 7.1394 30.9592 7.05707C31.0417 6.97474 31.1478 6.93945 31.2657 6.93945H32.8337C32.9634 6.93945 33.0695 6.97474 33.152 7.05707C33.2345 7.1394 33.2699 7.23349 33.2699 7.37463V19.2304C33.2699 19.348 33.2345 19.4538 33.152 19.5362C33.0695 19.6185 32.9752 19.6655 32.8337 19.6655H31.3836C31.2657 19.6655 31.1596 19.6185 31.077 19.5362C30.9945 19.4538 30.9474 19.348 30.9474 19.2304V18.5717C30.2872 19.4185 29.3322 19.842 28.0943 19.842C26.8564 19.842 25.9604 19.4538 25.312 18.6893L25.3002 18.6776ZM30.2872 17.2426C30.6173 16.8075 30.7941 16.2664 30.8295 15.6195C30.8295 15.4784 30.853 15.2432 30.853 14.9374C30.853 14.6316 30.853 14.3846 30.8295 14.2434C30.8059 13.6436 30.6173 13.1378 30.2754 12.7262C29.9335 12.3028 29.4265 12.1028 28.7663 12.1028C27.4813 12.1028 26.7975 12.8908 26.7149 14.4669L26.6914 15.0079L26.7149 15.549C26.7975 17.125 27.4813 17.9131 28.7663 17.9131C29.4501 17.9131 29.957 17.6896 30.2872 17.2544V17.2426Z" fill="#707070"/>
<path id="Vector_11" d="M35.6985 8.69183C35.616 8.6095 35.5688 8.50364 35.5688 8.38603V7.08049C35.5688 6.95111 35.616 6.84525 35.6985 6.76292C35.7811 6.68059 35.8872 6.63354 36.0051 6.63354H37.6556C37.7853 6.63354 37.8914 6.68059 37.9739 6.76292C38.0564 6.84525 38.1036 6.95111 38.1036 7.08049V8.38603C38.1036 8.50364 38.0564 8.6095 37.9739 8.69183C37.8796 8.77416 37.7735 8.82121 37.6556 8.82121H36.0051C35.8872 8.82121 35.7811 8.77416 35.6985 8.69183ZM35.7693 19.5361C35.6867 19.4537 35.6396 19.3479 35.6396 19.2303V10.7736C35.6396 10.6443 35.6867 10.5384 35.7693 10.4561C35.8518 10.3737 35.9579 10.3385 36.0758 10.3385H37.5966C37.7145 10.3385 37.8206 10.3855 37.9032 10.4678C37.9857 10.5502 38.0328 10.656 38.0328 10.7736V19.2303C38.0328 19.3479 37.9857 19.4537 37.9032 19.5361C37.8206 19.6184 37.7145 19.6654 37.5966 19.6654H36.0758C35.9579 19.6654 35.8518 19.6184 35.7693 19.5361Z" fill="#707070"/>
<path id="Vector_12" d="M40.5322 19.5361C40.4497 19.4538 40.4025 19.3479 40.4025 19.2303V10.7737C40.4025 10.6443 40.4497 10.5385 40.5322 10.4562C40.6147 10.3738 40.7208 10.3385 40.8387 10.3385H42.3242C42.4539 10.3385 42.56 10.3738 42.6425 10.4562C42.7251 10.5385 42.7604 10.6326 42.7604 10.7737V11.5029C43.4914 10.6091 44.4935 10.1621 45.7549 10.1621C46.8514 10.1621 47.7356 10.515 48.3722 11.2324C49.0088 11.9499 49.3389 12.9379 49.3389 14.1846V19.2186C49.3389 19.3362 49.3036 19.442 49.2211 19.5244C49.1385 19.6067 49.0442 19.6537 48.9027 19.6537H47.2876C47.1697 19.6537 47.0636 19.6067 46.9811 19.5244C46.8985 19.442 46.8514 19.3362 46.8514 19.2186V14.2904C46.8514 13.5965 46.6863 13.0555 46.3444 12.6673C46.0025 12.2792 45.5192 12.0793 44.8825 12.0793C44.2459 12.0793 43.7861 12.2792 43.4088 12.6673C43.0434 13.0555 42.8547 13.5965 42.8547 14.2787V19.2068C42.8547 19.3244 42.8194 19.4303 42.7368 19.5126C42.6543 19.5949 42.56 19.642 42.4185 19.642H40.8152C40.6973 19.642 40.5912 19.5949 40.5086 19.5126L40.5322 19.5361Z" fill="#707070"/>
<path id="Vector_13" d="M52.6636 19.4656C52.1566 19.2186 51.7558 18.8893 51.4611 18.4659C51.1663 18.0424 51.0248 17.5837 51.0248 17.0898C51.0248 16.2782 51.3549 15.6195 52.0152 15.1138C52.6754 14.608 53.5832 14.267 54.7267 14.0905L57.1907 13.7377V13.3613C57.1907 12.8438 57.0611 12.4557 56.8017 12.1969C56.5423 11.9382 56.1179 11.8088 55.5402 11.8088C55.1512 11.8088 54.8328 11.8794 54.5853 12.0205C54.3377 12.1616 54.1491 12.3145 53.9958 12.4557L53.7011 12.7497C53.6539 12.8909 53.5596 12.9614 53.4299 12.9614H52.0269C51.9208 12.9614 51.8265 12.9261 51.744 12.8556C51.6615 12.785 51.6261 12.6909 51.6261 12.5733C51.6261 12.2792 51.7794 11.9382 52.0623 11.5618C52.3453 11.1854 52.7815 10.8561 53.3592 10.5738C53.9486 10.2915 54.6678 10.1504 55.5284 10.1504C56.9432 10.1504 57.9688 10.468 58.6173 11.1031C59.2657 11.7382 59.584 12.5615 59.584 13.5965V19.2186C59.584 19.3362 59.5486 19.4421 59.4661 19.5244C59.3836 19.6067 59.2893 19.6538 59.1478 19.6538H57.6623C57.5444 19.6538 57.4383 19.6067 57.3558 19.5244C57.2733 19.4421 57.2261 19.3362 57.2261 19.2186V18.5247C56.9667 18.9128 56.5895 19.2186 56.1179 19.4656C55.6345 19.7126 55.0451 19.8302 54.3259 19.8302C53.7128 19.8302 53.1587 19.7126 52.6518 19.4656H52.6636ZM56.5659 17.4661C56.9903 17.0309 57.1907 16.4193 57.1907 15.6078V15.2432L55.3987 15.5255C54.0194 15.7372 53.3356 16.1959 53.3356 16.9016C53.3356 17.2897 53.4888 17.5837 53.8072 17.7837C54.1255 17.9954 54.5027 18.1013 54.9507 18.1013C55.6109 18.1013 56.1533 17.8895 56.5659 17.4544V17.4661Z" fill="#707070"/>
</g>
</g>
</g>
</g>
<defs>
<linearGradient id="paint0_linear_1_1883" x1="99.8568" y1="30.3332" x2="99.8568" y2="14.3139" gradientUnits="userSpaceOnUse">
<stop offset="0.16" stop-color="white"/>
<stop offset="0.24" stop-color="#F6FBFC"/>
<stop offset="0.37" stop-color="#E0F2F4"/>
<stop offset="0.52" stop-color="#BBE2E8"/>
<stop offset="0.7" stop-color="#89CDD7"/>
<stop offset="0.89" stop-color="#48B2C2"/>
<stop offset="0.99" stop-color="#25A3B6"/>
</linearGradient>
<clipPath id="clip0_1_1883">
<rect width="112" height="45" fill="white"/>
</clipPath>
</defs>
</svg>
