<svg width="41" height="41" viewBox="0 0 41 41" fill="none" xmlns="http://www.w3.org/2000/svg">
<g id="Group">
<path id="Vector" d="M40.1203 20.4718C40.1203 31.4007 31.2777 40.1439 20.4481 40.1439C9.6185 40.1439 0.776062 31.3014 0.776062 20.4718C0.776062 9.54282 9.6185 0.799657 20.4481 0.799657C31.2777 0.700303 40.1203 9.54282 40.1203 20.4718Z" fill="#07CEC7"/>
<path id="Vector_2" d="M30.4829 28.4201H10.4133C9.51915 28.4201 8.8237 27.7246 8.8237 26.8304V14.0137C8.8237 13.1196 9.51915 12.4241 10.4133 12.4241H28.6945C29.39 12.4241 29.8868 12.8215 30.1848 13.4176C30.4829 14.0137 30.2841 14.7092 29.8867 15.206L21.8391 23.2537C21.541 23.5517 21.0443 23.7504 20.5475 23.7504C20.0508 23.7504 19.6533 23.5517 19.2559 23.2537L11.705 15.7028C11.5063 15.5041 11.5063 15.3053 11.705 15.1066C11.9037 14.9079 12.1024 14.9079 12.3011 15.1066L19.852 22.6575C20.2494 23.055 20.8455 23.055 21.243 22.6575L29.2906 14.6099C29.4893 14.4112 29.5888 14.0137 29.4894 13.7157C29.39 13.4176 29.0919 13.2189 28.6945 13.2189H10.4133C10.0159 13.2189 9.61858 13.6163 9.61858 14.0137V26.7311C9.61858 27.1285 10.0159 27.5259 10.4133 27.5259H30.4829C30.8804 27.5259 31.2777 27.1285 31.2777 26.7311V16.0008C31.2777 15.8021 31.4764 15.6034 31.6751 15.6034C31.8739 15.6034 32.0726 15.8021 32.0726 16.0008V26.8304C32.0726 27.7246 31.3771 28.4201 30.4829 28.4201Z" fill="white"/>
</g>
</svg>
