<svg width="30" height="23" viewBox="0 0 30 23" fill="none" xmlns="http://www.w3.org/2000/svg">
<g id="Capa_2">
<path id="Vector" d="M27.692 23H2.30796C1.03509 23 0 21.9628 0 20.6874V2.31261C0 1.03717 1.03509 0 2.30796 0H27.2899C28.2411 0 29.0593 0.546618 29.423 1.42611C29.7867 2.30911 29.5944 3.2727 28.923 3.94546L17.3657 15.5296C16.8866 16.0096 16.2501 16.2724 15.5717 16.2724C14.8933 16.2724 14.2569 16.0096 13.7778 15.5296L2.87796 4.61121C2.65416 4.38696 2.65416 4.02255 2.87796 3.79829C3.10176 3.57404 3.46544 3.57404 3.68924 3.79829L14.5891 14.7201C15.1136 15.2457 16.0298 15.2457 16.5544 14.7201L28.1117 3.13604C28.4544 2.79266 28.5488 2.31962 28.3634 1.86761C28.1781 1.4191 27.776 1.1493 27.2899 1.1493H2.30796C1.66803 1.1493 1.14699 1.67139 1.14699 2.31261V20.6839C1.14699 21.3251 1.66803 21.8472 2.30796 21.8472H27.692C28.332 21.8472 28.853 21.3251 28.853 20.6839V8.54616C28.853 8.2273 29.1118 7.97151 29.4265 7.97151C29.7412 7.97151 30 8.2308 30 8.54616V20.6839C30 21.9593 28.9649 22.9965 27.692 22.9965" fill="white"/>
</g>
</svg>
