<svg width="159" height="68" viewBox="0 0 159 68" fill="none" xmlns="http://www.w3.org/2000/svg">
<path d="M92.3307 65.4314C90.5307 65.4314 88.7307 65.4314 86.9307 65.4314C79.8307 65.5349 72.8307 65.4314 65.7307 65.8454C61.1307 66.1558 56.5307 65.7419 51.9307 66.1558C48.3307 66.4663 44.7307 66.1558 41.2307 66.4663C37.9307 66.7768 34.6307 66.6733 31.3307 66.7768C30.7307 66.7768 30.0307 67.0872 29.4307 67.0872C25.7307 66.7768 22.0307 67.0872 18.5307 65.7419C16.9307 65.121 15.3307 64.2931 14.1307 62.9477C13.3307 62.1198 12.4307 61.4989 11.7307 60.671C9.83073 59.0152 8.33072 56.9454 7.53073 54.6687C6.33072 51.564 5.93073 48.3559 6.33073 44.9408C6.63073 42.1466 7.43073 39.4559 8.43073 36.8687C8.93073 35.4198 9.83073 34.178 10.7307 33.0396C14.5307 28.4861 19.6307 26.5199 25.0307 25.1745C25.6307 25.071 26.2307 24.8641 26.8307 24.7606C28.3307 24.5536 29.3307 23.6222 29.7307 22.1734C30.2307 20.5176 31.0307 18.9652 31.0307 17.1024C31.0307 15.7571 31.7307 14.6187 32.5307 13.5838C35.3307 9.85827 38.5307 6.54665 42.7307 4.26991C45.7307 2.6141 48.8307 1.26876 52.1307 0.544338C57.8307 -0.594031 63.2307 -0.0765898 68.2307 3.33852C69.7307 4.3734 71.1307 5.61526 72.0307 7.27107C73.6307 10.3757 74.0307 13.2734 71.3307 16.2745C69.5307 18.3443 67.6307 20.4141 65.7307 22.3803C64.5307 23.6222 63.2307 24.8641 62.1307 26.2094C60.5307 28.0722 59.4307 30.142 59.4307 32.7292C59.4307 34.385 60.1307 35.6268 61.2307 36.7652C63.2307 38.7315 65.6307 39.8698 68.1307 40.8012C70.7307 41.8361 73.5307 42.457 76.4307 42.3536C78.4307 42.2501 80.3307 41.7326 82.1307 41.2152C84.7307 40.3873 87.3307 39.3524 90.0307 38.628C93.7307 37.5931 97.5307 37.6966 101.331 38.628C106.231 39.7664 110.931 41.5257 115.331 44.0094C118.631 45.7687 121.531 47.9419 123.831 50.9431C124.731 52.0814 125.231 53.5303 125.631 54.8756C126.031 56.5314 125.231 57.9803 124.131 59.1186C122.631 60.7745 120.831 61.9128 118.831 62.6372C115.731 63.8791 112.631 64.3965 109.331 64.707C103.631 65.3279 98.0307 65.4314 92.3307 65.4314Z" fill="#F3F3F3"/>
<path d="M8.83072 57.0488C9.03071 57.8767 9.63072 58.1872 10.1307 58.1872C11.8307 58.3942 13.5307 58.4977 15.1307 58.4977C17.0307 58.3942 18.9307 58.0837 20.8307 57.9802C25.0307 57.6698 29.3307 57.5663 33.5307 57.2558C40.9307 56.6349 48.4307 57.0488 55.8307 57.0488C60.8307 57.0488 65.8307 57.2558 70.8307 57.3593C73.9307 57.4628 77.1307 57.5663 80.2307 57.6698C81.9307 57.7733 83.7307 57.8768 85.4307 57.9802C85.7307 57.9802 86.1307 58.0837 86.4307 58.1872C87.3307 58.4977 87.8307 59.2221 87.7307 59.843C87.6307 60.5674 86.9307 61.2919 86.1307 61.2919C84.9307 61.3953 83.6307 61.2919 82.3307 61.2919C79.9307 61.1884 77.5307 61.0849 75.1307 60.9814C69.6307 60.8779 64.1307 60.8779 58.6307 60.5674C50.9307 60.05 43.2307 60.3605 35.4307 60.3605C33.0307 60.3605 30.6307 60.7744 28.3307 60.8779C26.7307 60.9814 25.1307 61.0849 23.4307 61.1884C21.2307 61.2919 19.0307 61.3953 16.7307 61.6023C15.4307 61.7058 14.1307 61.9128 12.8307 61.9128C11.6307 61.9128 10.4307 61.7058 9.33072 61.4988C7.13072 60.9814 5.73072 59.5326 4.93072 57.3593C4.93072 56.9454 4.83072 56.4279 4.63072 55.9105C4.23072 55.7035 3.83072 55.393 3.43072 55.1861C1.03072 54.0477 -0.769285 50.5291 0.330715 47.321C1.43072 44.1128 3.53072 41.6291 6.03072 39.4559C11.5307 34.7989 17.9307 32.1082 24.8307 30.4524C28.3307 29.6245 31.8307 29.107 35.4307 29.2105C35.8307 29.2105 36.1307 29.107 36.6307 29.107C36.6307 28.6931 36.8307 28.2791 36.7307 27.9687C35.6307 21.035 37.8307 15.1361 42.5307 10.3757C46.1307 6.75359 50.5307 4.58034 55.4307 3.54546C58.5307 2.92453 61.7307 2.61407 64.8307 2.92453C69.4307 3.44197 73.5307 5.20127 77.2307 7.99545C81.7307 11.4106 84.6307 16.0675 86.7307 21.2419C86.9307 21.7594 87.1307 22.1733 87.3307 22.5873C87.4307 22.6908 87.5307 22.8977 87.5307 23.0012C87.8307 22.8977 87.9307 22.8977 88.1307 22.7943C91.5307 20.5175 95.3307 20.1036 99.2307 20.621C102.531 21.035 105.631 22.0698 108.531 23.4152C112.131 25.1745 114.831 27.9687 116.831 31.4873C117.331 32.4187 117.931 33.3501 118.431 34.2814C119.331 34.0745 120.231 33.764 121.031 33.557C126.431 32.4187 131.831 32.8326 137.131 34.0745C141.431 35.1094 145.631 36.4547 149.531 38.6279C152.231 40.0768 154.731 41.9396 156.631 44.4233C158.031 46.2861 159.131 49.7012 157.531 52.2884C156.431 54.0477 154.931 54.9791 153.031 55.4965C151.531 55.9105 150.031 56.1175 148.531 56.2209C144.931 56.6349 141.431 56.9454 137.831 57.1523C135.531 57.3593 133.231 57.4628 131.031 57.4628C126.831 57.5663 122.531 57.5663 118.331 57.4628C114.331 57.3593 110.431 57.2558 106.431 57.1523C102.631 56.9454 98.8307 56.7384 95.0307 56.5314C92.5307 56.4279 89.9307 56.4279 87.4307 56.2209C74.3307 55.0826 61.1307 55.7035 47.9307 55.6C43.9307 55.6 40.0307 55.807 36.0307 55.9105C32.4307 56.1175 28.8307 56.2209 25.3307 56.6349C20.6307 57.0488 16.0307 57.3593 11.3307 57.2558C10.7307 57.2558 9.83072 57.1523 8.83072 57.0488ZM40.3307 28.7966C40.3307 28.5896 40.3307 28.3826 40.3307 28.1756C40.3307 22.6908 42.5307 18.3443 46.0307 14.4117C47.4307 12.8594 49.2307 11.8245 51.0307 10.9966C52.1307 10.3757 53.4307 10.0652 54.7307 9.75475C55.4307 9.54777 56.0307 9.96173 56.3307 10.6861C56.6307 11.4106 56.3307 12.135 55.7307 12.5489C55.3307 12.8594 54.8307 12.9629 54.4307 13.1699C51.3307 14.4117 48.6307 16.0675 46.7307 18.9652C44.5307 22.3803 43.1307 25.8989 43.9307 30.0384C44.1307 31.0733 44.0307 32.0047 43.2307 32.6256C42.8307 32.9361 42.1307 33.0396 41.5307 33.3501C41.6307 33.764 41.7307 34.178 41.8307 34.5919C42.2307 35.9373 41.5307 36.9721 40.2307 37.0756C38.9307 37.1791 37.5307 37.2826 36.1307 37.3861C33.6307 37.5931 31.0307 37.8 28.5307 38.1105C24.8307 38.5245 21.3307 39.6628 18.0307 41.6291C14.6307 43.6989 11.6307 46.1826 9.53072 49.5977C8.93072 50.6326 8.23072 51.771 8.23072 53.2198C9.33072 53.6337 10.4307 53.8407 11.6307 53.9442C16.0307 54.0477 20.4307 53.7372 24.8307 53.3233C28.7307 53.0128 32.6307 52.8058 36.5307 52.5989C40.1307 52.3919 43.8307 52.2884 47.4307 52.2884C60.8307 52.2884 74.2307 51.7709 87.6307 52.8058C91.8307 53.1163 95.9307 53.2198 100.131 53.5302C104.431 53.8407 108.731 54.1512 112.931 54.1512C121.331 54.2547 129.731 54.3582 138.031 53.8407C138.231 53.8407 138.331 53.8407 138.531 53.8407C140.931 53.6337 143.331 53.4268 145.631 53.2198C147.231 53.1163 148.831 53.0128 150.331 52.8058C151.531 52.5989 152.731 52.0814 153.831 51.564C154.931 51.0465 155.431 49.8047 155.031 48.5628C154.831 47.9419 154.631 47.321 154.231 46.7C153.431 45.2512 152.131 44.3198 150.831 43.3884C147.631 41.0082 143.931 39.4559 140.231 38.421C137.231 37.5931 134.231 36.8687 131.131 36.5582C127.131 36.2477 123.131 36.1442 119.231 37.8C117.131 38.7314 116.031 37.8 115.431 36.1442C115.331 35.9373 115.331 35.7303 115.231 35.5233C113.631 32.2117 111.631 29.107 108.431 27.2443C104.431 24.9675 100.131 23.6222 95.4307 23.8291C92.9307 23.9326 90.6307 24.657 88.7307 26.4163C88.4307 26.7268 88.1307 26.8303 87.7307 27.0373C86.3307 27.7617 85.5307 27.4512 84.9307 26.0024C84.6307 25.3815 84.4307 24.7605 84.2307 24.1396C82.2307 18.6547 79.3307 13.7908 74.7307 10.3757C71.6307 8.09894 68.2307 6.65011 64.5307 6.33964C60.4307 6.02918 56.3307 6.44313 52.3307 7.89196C48.2307 9.44429 44.8307 11.928 42.3307 15.6536C39.7307 19.6896 39.1307 24.1396 40.3307 28.7966ZM4.73072 52.1849C5.83072 49.5977 6.83072 47.2175 8.63072 45.2512C9.93072 43.9058 11.2307 42.457 12.6307 41.3186C15.6307 38.8349 18.9307 36.9721 22.6307 35.8338C27.0307 34.5919 31.4307 34.0745 35.9307 33.971C36.5307 33.971 37.1307 33.8675 37.8307 33.764C37.7307 32.7291 37.2307 32.5221 36.5307 32.6256C33.8307 32.7291 31.2307 32.7291 28.5307 33.1431C24.8307 33.6605 21.2307 34.7989 17.7307 36.2477C13.2307 38.1105 9.03072 40.4907 5.73072 44.2163C4.93072 45.3547 3.93072 46.5965 3.43072 48.2523C2.93072 49.9082 3.13072 50.7361 4.73072 52.1849Z" fill="#E3E3E3"/>
<path d="M62.8307 7.68506C63.9307 7.89203 64.7307 7.99552 65.5307 8.30599C66.4307 8.61645 66.9307 9.54785 66.7307 10.2723C66.5307 11.1002 65.6307 11.5141 64.6307 11.4106C63.5307 11.3071 62.4307 11.3071 61.4307 11.3071C61.0307 11.3071 60.6307 11.4106 60.3307 11.2037C59.9307 10.8932 59.5307 10.4792 59.3307 10.0653C59.1307 9.44436 59.3307 8.82343 60.0307 8.51297C61.0307 8.2025 62.0307 7.99552 62.8307 7.68506Z" fill="#E3E3E3"/>
</svg>
