<svg width="210" height="89" viewBox="0 0 210 89" fill="none" xmlns="http://www.w3.org/2000/svg">
<path d="M121.758 86.1219C119.358 86.1219 117.058 86.1219 114.658 86.1219C105.358 86.2253 96.0577 86.1219 86.7577 86.6393C80.6577 86.9498 74.5577 86.5358 68.5577 87.0533C63.8577 87.4672 59.0578 87.0533 54.3578 87.4672C49.9578 87.8812 45.6577 87.6742 41.2577 87.8812C40.4577 87.8812 39.5577 88.2951 38.7577 88.1916C33.9577 87.7777 28.9578 88.1916 24.3578 86.4323C22.2578 85.6044 20.1577 84.466 18.5577 82.8102C17.5577 81.7754 16.3578 80.844 15.3578 79.9126C13.0578 77.6358 11.1578 75.0486 9.95776 71.944C8.35776 67.8045 7.85778 63.5614 8.35778 59.1114C8.85778 55.3859 9.85777 51.8673 11.1578 48.4522C11.8578 46.5894 12.9577 44.9336 14.2577 43.3812C19.2577 37.3789 25.9577 34.7917 33.0577 33.0324C33.8577 32.8254 34.5578 32.6185 35.3578 32.515C37.3578 32.2045 38.6577 31.0661 39.2577 29.0999C39.9577 26.9266 40.9578 24.8569 40.8578 22.4766C40.8578 20.7173 41.8578 19.165 42.8578 17.9232C46.5578 12.9557 50.8577 8.60922 56.2577 5.60806C60.1577 3.43481 64.2578 1.67551 68.6578 0.744114C76.1578 -0.808208 83.3578 -0.0837912 89.8578 4.3662C91.8578 5.71155 93.6578 7.36736 94.8578 9.43712C97.0578 13.4732 97.4578 17.4057 93.9578 21.3383C91.5578 24.029 89.0577 26.7196 86.5577 29.4103C84.9577 31.0661 83.2577 32.6185 81.7577 34.4813C79.7577 36.965 78.2577 39.6557 78.2577 43.0708C78.2577 45.244 79.2578 46.8998 80.6578 48.3487C83.2578 50.9359 86.4577 52.3847 89.7577 53.7301C93.2577 55.0754 96.8578 55.9033 100.658 55.7998C103.258 55.6963 105.758 55.0754 108.158 54.2475C111.658 53.1091 115.058 51.7638 118.558 50.8324C123.458 49.487 128.458 49.5905 133.458 50.7289C139.958 52.1777 146.058 54.558 151.958 57.7661C156.258 60.0428 160.158 62.9405 163.258 66.8731C164.358 68.3219 165.158 70.1847 165.558 72.0475C166.058 74.2207 165.058 76.0835 163.558 77.6358C161.658 79.8091 159.258 81.2579 156.558 82.2928C152.558 83.9486 148.358 84.673 144.058 85.087C136.558 85.9149 129.158 86.2253 121.758 86.1219Z" fill="#F3F3F3"/>
<path d="M11.6578 75.1523C11.8578 76.2907 12.6578 76.6011 13.3578 76.7046C15.5578 76.9116 17.7577 77.1186 19.9577 77.1186C22.4577 77.0151 24.9577 76.6011 27.4577 76.3941C33.0577 75.9802 38.5578 75.8767 44.1578 75.3593C53.9578 74.6348 63.7577 75.0488 73.5577 75.0488C80.1577 75.0488 86.7578 75.2558 93.3578 75.4628C97.4578 75.5662 101.658 75.7732 105.758 75.8767C108.058 75.9802 110.358 76.1872 112.658 76.2907C113.058 76.2907 113.558 76.3941 113.958 76.4976C115.158 76.9116 115.858 77.843 115.658 78.7744C115.558 79.7058 114.558 80.6372 113.558 80.7407C111.958 80.8441 110.258 80.8441 108.658 80.7407C105.558 80.6372 102.358 80.4302 99.2577 80.3267C92.0577 80.1197 84.7577 80.2232 77.5577 79.8093C67.3577 79.1883 57.1577 79.4988 47.0577 79.4988C43.9577 79.4988 40.7578 80.0162 37.6578 80.2232C35.5578 80.4302 33.3577 80.5337 31.2577 80.7407C28.3577 80.9476 25.3577 81.0511 22.4577 81.2581C20.7577 81.3616 19.0578 81.672 17.3578 81.5686C15.7578 81.5686 14.2578 81.3616 12.6578 80.9476C9.75776 80.3267 7.85777 78.3604 6.85777 75.5662C6.65777 74.9453 6.45775 74.3244 6.15775 73.6C5.65775 73.2895 5.05772 72.979 4.55772 72.6686C1.35772 71.1162 -1.04226 66.5628 0.457742 62.3198C1.95774 58.0767 4.65774 54.7651 7.95774 51.9709C15.1577 45.7616 23.6578 42.3465 32.6578 40.1733C37.2578 39.0349 41.9578 38.414 46.6578 38.5175C47.1578 38.5175 47.6577 38.414 48.2577 38.414C48.3577 37.8965 48.4578 37.3791 48.3578 36.9652C46.8578 27.7547 49.7577 20.0966 56.0577 13.7838C60.7577 9.02335 66.5577 6.12569 73.0577 4.78034C77.1577 3.95243 81.3577 3.53848 85.4577 3.95243C91.4577 4.57336 96.9578 6.95359 101.858 10.6792C107.758 15.1292 111.558 21.235 114.358 28.1687C114.658 28.7896 114.858 29.4105 115.158 30.0315C115.258 30.2384 115.358 30.4454 115.458 30.5489C115.858 30.4454 116.058 30.3419 116.258 30.2384C120.758 27.2373 125.658 26.7198 130.958 27.3408C135.258 27.8582 139.358 29.2035 143.258 31.0663C148.058 33.3431 151.558 37.0686 154.258 41.7256C154.958 42.9675 155.658 44.1058 156.358 45.3477C157.558 45.0372 158.658 44.7268 159.758 44.4163C166.858 42.864 173.958 43.3814 181.058 45.0372C186.758 46.3826 192.258 48.1419 197.458 51.0395C201.058 53.0058 204.258 55.386 206.858 58.6977C208.658 61.0779 210.158 65.6314 208.058 69.0465C206.658 71.3232 204.558 72.5651 202.158 73.186C200.258 73.7035 198.258 74.0139 196.258 74.2209C191.558 74.7383 186.858 75.1523 182.158 75.4628C179.158 75.6697 176.158 75.8767 173.158 75.9802C167.558 76.0837 161.958 76.0837 156.358 75.9802C151.158 75.8767 145.858 75.7732 140.658 75.4628C135.658 75.2558 130.658 74.8418 125.658 74.6348C122.258 74.4279 118.958 74.4279 115.558 74.1174C98.2577 72.6686 80.8577 73.393 63.5577 73.2895C58.3577 73.2895 53.0578 73.4965 47.8578 73.7035C43.1578 73.9104 38.4577 74.2209 33.7577 74.6348C27.6577 75.1523 21.4578 75.5662 15.3578 75.4628C14.0578 75.3593 12.9578 75.1523 11.6578 75.1523ZM53.1578 37.8965C53.1578 37.5861 53.2577 37.2756 53.2577 37.0686C53.1577 29.928 56.1577 24.0291 60.7577 18.9582C62.5577 16.8885 64.9578 15.6466 67.3578 14.4047C68.8578 13.5768 70.5577 13.1629 72.2577 12.7489C73.1577 12.542 73.9578 13.0594 74.3578 13.9908C74.7578 14.9222 74.3577 15.9571 73.5577 16.4745C73.0577 16.785 72.3577 16.9919 71.7577 17.3024C67.7577 18.8547 64.1578 21.028 61.6578 24.857C58.7578 29.307 56.8577 33.964 57.9577 39.4489C58.2577 40.7942 58.0577 42.0361 56.9577 42.864C56.3577 43.3814 55.5577 43.4849 54.7577 43.7954C54.8577 44.3128 55.0578 44.9337 55.1578 45.4512C55.6578 47.314 54.8577 48.5558 53.0577 48.7628C51.2577 48.9698 49.4577 48.9698 47.7577 49.1768C44.4577 49.4872 41.0577 49.6942 37.7577 50.1082C32.8577 50.6256 28.1577 52.0744 23.9577 54.6616C19.5577 57.3523 15.5577 60.6639 12.7577 65.2174C11.8577 66.6663 10.9578 68.2186 10.8578 70.1849C12.3578 70.8058 13.7577 71.1162 15.2577 71.1162C21.0577 71.2197 26.8578 70.8058 32.6578 70.2884C37.7578 69.8744 42.9577 69.5639 48.0577 69.3569C52.8577 69.15 57.6577 68.943 62.4577 68.943C80.1577 69.0465 97.8577 68.3221 115.558 69.6674C121.058 70.0814 126.558 70.1849 132.058 70.5988C137.658 71.0128 143.358 71.4267 148.958 71.5302C159.958 71.7372 171.058 71.8407 182.058 71.1162C182.258 71.1162 182.458 71.1162 182.658 71.0128C185.758 70.7023 188.958 70.4953 192.058 70.1849C194.158 69.9779 196.258 69.9779 198.258 69.5639C199.858 69.2535 201.458 68.6325 202.858 67.9081C204.358 67.1837 204.958 65.6314 204.458 63.9756C204.258 63.1477 203.858 62.3198 203.458 61.4918C202.358 59.5256 200.658 58.3872 198.958 57.1453C194.758 53.9372 189.858 52.0744 184.958 50.5221C181.058 49.3837 177.058 48.4523 172.958 48.1419C167.658 47.7279 162.458 47.6244 157.358 49.6942C154.558 50.8326 153.158 49.6942 152.358 47.5209C152.258 47.2105 152.158 46.9 152.058 46.693C149.958 42.3465 147.358 38.3105 143.158 35.8268C137.858 32.7221 132.158 31.0663 126.058 31.3768C122.758 31.5838 119.658 32.4117 117.158 34.7919C116.758 35.1024 116.358 35.4128 115.858 35.6198C114.058 36.6547 112.958 36.2407 112.158 34.171C111.858 33.3431 111.558 32.5152 111.258 31.6873C108.558 24.5466 104.858 18.1303 98.6578 13.4733C94.6578 10.4722 90.0578 8.6094 85.1578 8.19545C79.6578 7.7815 74.2577 8.29894 69.0577 10.2652C63.6577 12.335 59.1578 15.6466 55.8578 20.5105C52.2578 25.7884 51.5578 31.6873 53.1578 37.8965ZM6.25773 68.6325C7.65773 65.2174 8.95777 62.0093 11.3578 59.5256C13.0578 57.7663 14.7578 55.9035 16.6578 54.3512C20.6578 51.143 24.9578 48.5558 29.8578 47.2105C35.6578 45.5547 41.4577 44.8303 47.4577 44.7268C48.2577 44.7268 49.0577 44.6233 49.9577 44.5198C49.8577 43.071 49.1577 42.9675 48.2577 42.9675C44.7577 43.1744 41.2577 43.071 37.7577 43.5884C32.8577 44.3128 28.0577 45.7617 23.5577 47.6244C17.6577 50.1082 12.1577 53.2128 7.75773 58.0767C6.35773 59.6291 5.05774 61.3884 4.45774 63.4581C3.85774 65.7349 4.15773 66.7697 6.25773 68.6325Z" fill="#E3E3E3"/>
<path d="M82.7578 10.0581C84.1578 10.3686 85.2578 10.4721 86.3578 10.886C87.5578 11.3 88.2578 12.4383 87.9578 13.3697C87.6578 14.4046 86.5578 15.0255 85.2578 14.922C83.8578 14.8186 82.4578 14.8186 80.9578 14.8186C80.4578 14.8186 79.8578 14.922 79.4578 14.7151C78.9578 14.4046 78.3578 13.7837 78.1578 13.1628C77.8578 12.3348 78.1578 11.5069 79.0578 11.1965C80.4578 10.7825 81.6578 10.3686 82.7578 10.0581Z" fill="#E3E3E3"/>
</svg>
