<svg width="67" height="60" viewBox="0 0 67 60" fill="none" xmlns="http://www.w3.org/2000/svg">
<path d="M35.0862 39.3197C34.4558 39.3754 33.8212 39.3968 33.178 39.3797C23.5127 39.1053 15.8927 31.1509 16.2744 21.7257C16.656 12.279 24.5075 4.86922 33.9155 5.08791C43.2678 5.30231 50.8535 13.2481 50.6433 22.6133C50.5576 26.4383 49.1897 29.9631 46.9685 32.7846C46.1752 33.7923 46.8698 35.2674 48.152 35.2674H48.2506C48.7094 35.2674 49.1511 35.0659 49.4341 34.7057C52.0841 31.3224 53.6879 27.0686 53.7565 22.3946C53.928 11.3742 44.7429 2.08197 33.6025 2.00049C22.4406 1.92331 13.2813 10.9454 13.1827 22.1159C13.0841 33.252 22.2091 42.4843 33.3195 42.4928C33.9627 42.4928 34.5931 42.4628 35.2191 42.4071C37.153 42.2355 37.0287 39.3625 35.0862 39.3625V39.3197Z" fill="#5AD0C8" stroke="#5AD0C8" stroke-width="3" stroke-miterlimit="10"/>
<path d="M64.7468 54.4265C63.6148 46.1119 56.9768 40.0014 48.4436 39.3668C48.3964 39.3668 48.3535 39.3625 48.3063 39.3625H35.0862V39.2896C34.5845 39.2896 34.0871 39.2939 33.5854 39.2939C28.847 39.2939 24.1087 39.1996 19.3747 39.311C10.121 39.5297 2.47105 46.6823 2.03796 55.4042C1.98221 56.532 1.79354 57.887 3.32009 58.1314C4.971 58.3973 4.94099 57.0337 5.12537 55.8973C6.56617 46.9481 11.9005 42.407 20.9827 42.3856C28.6026 42.3684 36.2225 42.3684 43.8424 42.3856C55.4288 42.4156 58.9837 45.2243 61.8524 56.5877C61.9038 56.785 61.9167 56.9951 61.981 57.1881C62.2083 57.8356 62.6628 58.2215 63.3575 58.2086C64.0393 58.1958 64.6182 57.8184 64.7125 57.1709C64.8412 56.2704 64.8669 55.3227 64.7425 54.4222L64.7468 54.4265Z" fill="#5AD0C8" stroke="#5AD0C8" stroke-width="3" stroke-miterlimit="10"/>
</svg>
