<svg width="40" height="41" viewBox="0 0 40 41" fill="none" xmlns="http://www.w3.org/2000/svg">
<g id="Group">
<path id="Vector" d="M39.6206 20.4718C39.6206 31.3014 30.7782 40.1439 19.9486 40.1439C9.11899 40.1439 0.276428 31.3014 0.276428 20.4718C0.276428 9.54282 9.11899 0.799657 19.9486 0.799657C30.7782 0.700303 39.6206 9.54282 39.6206 20.4718Z" fill="#07CEC7"/>
<path id="Vector_2" d="M19.9486 33.6857C12.0002 33.6857 6.6351 26.8303 6.6351 20.4716C6.6351 14.9078 10.7086 7.05884 19.7498 7.05884C30.8775 7.05884 33.1626 17.491 33.1626 20.1736C33.1626 22.5581 32.6658 24.7439 31.7716 26.3335C29.9832 29.5129 25.6117 30.109 22.333 29.2148C18.9549 28.3206 16.7692 24.8432 15.6763 23.1542C14.186 20.7697 13.3911 17.7891 13.3911 16.0007C13.3911 13.1194 14.5834 12.3246 15.577 12.1259C16.9679 11.8278 18.5576 11.8278 18.6569 11.8278C18.8556 11.8278 19.0544 11.9272 19.0544 12.2253L20.1472 16.5968C20.1472 16.6962 20.1473 16.8949 20.0479 16.9943C19.9486 17.0936 19.8491 17.193 19.7498 17.193C19.3524 17.2923 18.3589 17.491 17.9615 18.0871C17.5641 18.5839 18.2595 19.8755 18.5576 20.6704L18.7563 21.0678C19.1537 21.7632 19.7499 23.1542 20.4453 23.2536C20.8428 23.3529 21.8363 22.6574 22.4324 22.26C22.6311 22.0613 22.9292 22.0613 23.0285 22.26L26.0092 25.34C26.1085 25.4393 26.1085 25.5387 26.1085 25.6381C26.1085 25.8368 26.1085 26.4329 25.0156 27.8238C24.8169 28.0226 24.6182 28.0226 24.4195 27.9232C24.2208 27.7245 24.2207 27.5258 24.3201 27.3271C24.9162 26.5322 25.1149 26.1348 25.2143 25.8368L22.7304 23.2536C22.1343 23.651 21.1407 24.3465 20.3459 24.1477C19.253 23.949 18.5576 22.4587 18.0608 21.4652L17.862 21.0678C17.3653 19.9749 16.5705 18.5839 17.2659 17.5904C17.7627 16.8949 18.5576 16.5968 19.1537 16.4975L18.2595 12.9207C17.6634 12.9207 16.6698 13.0201 15.6763 13.2188C14.6828 13.4175 14.186 14.411 14.186 16.1994C14.186 17.7891 14.9808 20.6703 16.3717 22.8561C17.3653 24.4458 19.4518 27.7245 22.4324 28.5193C25.5124 29.3142 29.3872 28.718 30.8775 26.0355C31.6724 24.6445 32.1691 22.5581 32.1691 20.3723C32.1691 17.7891 30.0826 8.15174 19.6505 8.15174C11.2054 8.15174 7.42986 15.4046 7.42986 20.571C7.42986 25.7374 11.7021 32.7915 19.8491 32.7915C23.8233 32.7915 26.6053 30.7051 26.6053 30.6058C26.804 30.4071 27.102 30.5064 27.2014 30.7051C27.4001 30.9038 27.3007 31.2019 27.102 31.3012C27.2014 31.4999 24.2208 33.6857 19.9486 33.6857Z" fill="white"/>
</g>
</svg>
