<svg width="40" height="41" viewBox="0 0 40 41" fill="none" xmlns="http://www.w3.org/2000/svg">
<g id="Group">
<path id="Vector" d="M39.8705 20.4718C39.8705 31.3014 31.0279 40.1439 20.1983 40.1439C9.26939 40.1439 0.526184 31.3014 0.526184 20.4718C0.526184 9.54282 9.36875 0.799657 20.1983 0.799657C31.0279 0.700303 39.8705 9.54282 39.8705 20.4718Z" fill="#07CEC7"/>
<path id="Vector_2" d="M20.099 33.8847C19.9003 33.8847 19.8009 33.7853 19.7016 33.686L12.6474 23.2538C12.5481 23.0551 12.5481 22.757 12.7468 22.6577C12.9455 22.5583 13.2435 22.5583 13.3429 22.757L19.9997 32.5931C21.788 30.2086 28.8421 20.4719 28.8421 16.7958C28.8421 9.74163 22.7816 7.8539 19.6022 7.8539C16.2242 7.8539 11.3558 10.3378 11.3558 15.9016C11.3558 17.69 12.3494 19.379 14.0384 20.5712C16.0255 21.8628 18.5093 22.1609 20.6951 21.3661C22.8809 20.4719 24.1725 18.7829 24.1725 16.8951C24.1725 14.8087 22.7815 12.5235 19.8009 12.5235C17.6151 12.5235 15.8267 14.908 15.8267 16.8951C15.8267 17.1932 15.628 17.3919 15.33 17.3919C15.0319 17.3919 14.8332 17.1932 14.8332 16.8951C14.8332 14.5106 17.019 11.6294 19.8009 11.6294C23.2783 11.6294 25.166 14.3119 25.166 16.8951C25.166 19.2796 23.6758 21.2667 21.0925 22.2602C18.6087 23.2538 15.8268 22.9557 13.641 21.3661C11.7533 20.0745 10.561 18.0874 10.561 16.0009C10.561 9.84099 15.9261 6.95972 19.7016 6.95972C23.7751 6.95972 29.8356 9.54292 29.8356 16.7958C29.8356 21.2667 20.7944 33.1892 20.397 33.686C20.2976 33.8847 20.1984 33.8847 20.099 33.8847Z" fill="white"/>
</g>
</svg>
