<svg width="104" height="136" viewBox="0 0 104 136" fill="none" xmlns="http://www.w3.org/2000/svg">
<g id="Modo_de_aislamiento" clip-path="url(#clip0_52_70)">
<g id="Group">
<path id="Vector" d="M42.6231 17.3962V16.9511H23.4067C18.0688 16.684 15.6667 19.3548 16.2005 24.9636L3.0337 128.148C2.85577 131.442 4.813 133.044 8.72746 133.133H84.5256C88.8849 133.311 90.8421 131.62 90.5752 128.059L101.874 25.6759C104.009 19.2658 101.251 16.3279 93.511 16.9511H80.3442L78.476 27.9906C78.387 31.6408 76.3408 33.1543 72.1595 32.7091H46.6265C42.979 32.7091 41.0217 31.1956 40.7548 27.9906L42.6231 17.3962Z" fill="#E8E7E5"/>
<path id="Vector_2" d="M42.6231 17.3072V17.3962L40.7548 27.9906C41.0217 31.1956 42.979 32.7091 46.6265 32.7091H72.1595C76.3408 33.1543 78.387 31.6408 78.476 27.9906L80.3442 16.9511L80.6111 15.3486C81.4118 11.6094 80.878 9.5617 78.8318 9.20558H56.8575C55.1672 9.47267 53.9216 9.47267 53.2989 9.02753C46.2707 9.02753 42.801 11.1642 42.89 15.4376L42.6231 16.9511V17.3072Z" fill="#F6F6F5"/>
<path id="Vector_3" d="M53.2989 9.0275L62.8181 9.20556H72.6932L73.405 5.19927C73.6719 2.35036 72.2484 1.19299 69.1346 1.72716L57.0354 1.63813C54.7223 1.46008 53.2099 2.70648 52.6761 5.19927L52.4092 6.62373C52.1423 7.87013 52.4092 8.67139 53.2989 9.0275Z" fill="#E8E7E5"/>
</g>
<g id="Group_2">
<path id="Vector_4" d="M71.8926 9.82874L70.6471 17.5742" stroke="#BEBBBA" stroke-width="5" stroke-linecap="round" stroke-linejoin="round"/>
<path id="Vector_5" d="M71.8926 9.82873L72.6043 5.82244C72.8712 2.97353 71.4477 1.81616 68.334 2.35033L56.2347 2.2613C53.9217 2.08324 52.4093 3.24062 51.8755 5.82244L51.6086 7.2469C51.3417 8.4933 51.6086 9.29456 52.4982 9.65067L71.8926 9.82873Z" stroke="#BEBBBA" stroke-width="5" stroke-linecap="round" stroke-linejoin="round"/>
<path id="Vector_6" d="M41.8224 17.5742L39.9542 28.6138C40.2211 31.7298 42.1783 33.3323 45.8258 33.3323H71.3588C75.5401 33.7774 77.5863 32.1749 77.6753 28.6138L79.5436 17.5742" stroke="#BEBBBA" stroke-width="5" stroke-linecap="round" stroke-linejoin="round"/>
<path id="Vector_7" d="M71.8926 133.756H83.7249C88.0842 133.934 90.0414 132.243 89.7745 128.682L101.073 26.299C103.208 19.7999 100.45 16.951 92.7104 17.5742H79.5436" stroke="#BEBBBA" stroke-width="5" stroke-linecap="round" stroke-linejoin="round"/>
<path id="Vector_8" d="M42.0893 16.0607L41.8224 17.5742" stroke="#BEBBBA" stroke-width="5" stroke-linecap="round" stroke-linejoin="round"/>
<path id="Vector_9" d="M70.2912 133.757H7.92678C4.01233 133.667 2.0551 131.976 2.23303 128.771L15.3998 25.5868C14.866 19.978 17.2681 17.3072 22.606 17.5742H41.8224" stroke="#BEBBBA" stroke-width="5" stroke-linecap="round" stroke-linejoin="round"/>
<path id="Vector_10" d="M79.5436 17.5742L79.8104 15.9717C80.6111 12.2325 80.0773 10.1848 78.0311 9.82874H71.8926" stroke="#BEBBBA" stroke-width="5" stroke-linecap="round" stroke-linejoin="round"/>
</g>
<path id="play" d="M33.4708 37.8141C51.1566 50.1956 68.8425 62.5604 86.5283 74.9418C68.8425 83.6954 51.1566 92.449 33.4708 101.186V37.8141ZM33.4708 25C31.4787 25 29.4704 25.4993 27.6403 26.4811C23.5589 28.7111 21 33.0712 21 37.8141V101.186C21 105.596 23.2026 109.69 26.8305 112.036C28.855 113.334 31.1548 114 33.4708 114C35.3171 114 37.1634 113.584 38.8802 112.735L65.409 99.6049L91.9377 86.4746C95.9543 84.4942 98.6266 80.4503 98.9667 75.8904C99.2906 71.3306 97.2338 66.9205 93.5573 64.3411L67.0285 45.7855L40.4836 27.23C38.3781 25.7489 35.9326 25 33.4708 25Z" fill="#5AD0C8" fill-opacity="0.3"/>
</g>
<defs>
<clipPath id="clip0_52_70">
<rect width="104" height="136" fill="white"/>
</clipPath>
</defs>
</svg>
