<svg width="78" height="89" viewBox="0 0 78 89" fill="none" xmlns="http://www.w3.org/2000/svg">
<path id="play" d="M12.4708 12.8141C30.1566 25.1956 47.8425 37.5604 65.5283 49.9418C47.8425 58.6954 30.1566 67.449 12.4708 76.1859V12.8141ZM12.4708 0C10.4787 0 8.47042 0.499252 6.64029 1.48111C2.55894 3.71111 0 8.07124 0 12.8141V76.1859C0 80.5959 2.20263 84.6898 5.8305 87.0363C7.85498 88.3343 10.1548 89 12.4708 89C14.3171 89 16.1634 88.584 17.8802 87.7352L44.409 74.6049L70.9377 61.4746C74.9543 59.4942 77.6266 55.4503 77.9667 50.8904C78.2906 46.3306 76.2338 41.9205 72.5573 39.3411L46.0285 20.7855L19.4836 2.22999C17.3781 0.748878 14.9326 0 12.4708 0Z" fill="#5AD0C8" fill-opacity="0.3"/>
</svg>
