<svg width="155" height="103" viewBox="0 0 155 103" fill="none" xmlns="http://www.w3.org/2000/svg">
<path d="M133.554 102.99H21.4363C9.62179 102.99 0 92.9936 0 80.6965V22.2931C0 9.99596 9.61178 0 21.4363 0H133.564C145.378 0 155 9.99596 155 22.2931V80.7069C155 92.9936 145.388 103 133.564 103L133.554 102.99ZM21.4363 8.32996C14.0372 8.32996 8.00982 14.5878 8.00982 22.2931V80.7069C8.00982 88.4017 14.0272 94.67 21.4363 94.67H133.564C140.963 94.67 146.99 88.4122 146.99 80.7069V22.2931C146.99 14.5983 140.973 8.32996 133.564 8.32996H21.4363Z" fill="#5AD0C8"/>
</svg>
