<svg width="51" height="51" viewBox="0 0 51 51" fill="none" xmlns="http://www.w3.org/2000/svg">
<circle cx="25.5" cy="25.5" r="25.5" fill="#5AD0C8"/>
<path d="M25 42C15.4313 42 9 33.7875 9 26.1118C9 19.4247 13.9117 10 24.8391 10C38.2559 10 41 22.511 41 25.8613C41 28.7241 40.3922 31.4213 39.3374 33.2642C37.143 37.0976 31.8872 37.7596 27.9408 36.7531C23.8737 35.7154 21.2369 31.4705 19.9721 29.4353C18.2022 26.5815 17.2369 22.936 17.2011 20.8023C17.143 17.3805 18.5955 16.3472 19.8291 16.0788C21.4961 15.7165 23.467 15.712 23.552 15.712C23.8067 15.712 24.0257 15.8865 24.0883 16.1325L25.3754 21.3704C25.4112 21.5225 25.3844 21.6791 25.2994 21.8088C25.2145 21.9385 25.0804 22.0235 24.924 22.0503C24.4905 22.1219 23.2615 22.4439 22.7966 23.1015C22.3363 23.7501 23.1006 25.262 23.5609 26.1655L23.8022 26.6441C24.2402 27.5253 25.0536 29.1669 25.7821 29.3145C26.3184 29.4263 27.5073 28.6525 28.1374 28.0978C28.3564 27.901 28.6961 27.9145 28.9017 28.1292L32.4369 31.8105C32.5218 31.8999 32.5754 32.0117 32.5888 32.1325C32.6112 32.3338 32.5844 33.1255 31.2749 34.7984C31.0872 35.04 30.7385 35.0802 30.5017 34.8924C30.2603 34.7045 30.2201 34.3556 30.4078 34.1185C31.1318 33.1881 31.3732 32.6335 31.4536 32.3785L28.4637 29.2653C27.8022 29.7797 26.5508 30.5938 25.5721 30.4015C24.3117 30.151 23.4492 28.411 22.8235 27.1406L22.5866 26.6665C21.943 25.3961 21.0626 23.6517 21.9117 22.4574C22.4749 21.6701 23.5207 21.272 24.1821 21.0886L23.1318 16.8303C22.4749 16.8527 21.1788 16.9242 20.0749 17.1613C18.8726 17.4252 18.2827 18.6419 18.3184 20.7845C18.3497 22.7168 19.2749 26.2013 20.9196 28.8538C22.1084 30.7727 24.5888 34.7582 28.2223 35.6841C31.8916 36.6234 36.5665 35.9033 38.3899 32.7185C39.3553 31.0411 39.905 28.5407 39.905 25.8658C39.905 22.7481 37.3486 11.1093 24.848 11.1093C14.676 11.1048 10.1039 19.8809 10.1039 26.1118C10.1039 32.3427 15.2793 40.8952 25 40.8952C29.7866 40.8952 33.1475 38.3455 33.1832 38.3187C33.4246 38.1308 33.7732 38.1756 33.9564 38.4171C34.1397 38.6587 34.0994 39.0031 33.8581 39.1909C33.7106 39.3072 30.1754 41.9955 25 41.9955" fill="white"/>
</svg>
