<svg width="267" height="51" viewBox="0 0 267 51" fill="none" xmlns="http://www.w3.org/2000/svg">
<rect x="25" width="217" height="51" fill="#5AD0C8"/>
<circle cx="25.5" cy="25.5" r="25.5" fill="#5AD0C8"/>
<g clip-path="url(#clip0_38_10032)">
<path d="M25 42C15.4313 42 9 33.7875 9 26.1118C9 19.4247 13.9117 10 24.8391 10C38.2559 10 41 22.511 41 25.8613C41 28.7241 40.3922 31.4213 39.3374 33.2642C37.143 37.0976 31.8872 37.7596 27.9408 36.7531C23.8737 35.7154 21.2369 31.4705 19.9721 29.4353C18.2022 26.5815 17.2369 22.936 17.2011 20.8023C17.143 17.3805 18.5955 16.3472 19.8291 16.0788C21.4961 15.7165 23.467 15.712 23.552 15.712C23.8067 15.712 24.0257 15.8865 24.0883 16.1325L25.3754 21.3704C25.4112 21.5225 25.3844 21.6791 25.2994 21.8088C25.2145 21.9385 25.0804 22.0235 24.924 22.0503C24.4905 22.1219 23.2615 22.4439 22.7966 23.1015C22.3363 23.7501 23.1006 25.262 23.5609 26.1655L23.8022 26.6441C24.2402 27.5253 25.0536 29.1669 25.7821 29.3145C26.3184 29.4263 27.5073 28.6525 28.1374 28.0978C28.3564 27.901 28.6961 27.9145 28.9017 28.1292L32.4369 31.8105C32.5218 31.8999 32.5754 32.0117 32.5888 32.1325C32.6112 32.3338 32.5844 33.1255 31.2749 34.7984C31.0872 35.04 30.7385 35.0802 30.5017 34.8924C30.2603 34.7045 30.2201 34.3556 30.4078 34.1185C31.1318 33.1881 31.3732 32.6335 31.4536 32.3785L28.4637 29.2653C27.8022 29.7797 26.5508 30.5938 25.5721 30.4015C24.3117 30.151 23.4492 28.411 22.8235 27.1406L22.5866 26.6665C21.943 25.3961 21.0626 23.6517 21.9117 22.4574C22.4749 21.6701 23.5207 21.272 24.1821 21.0886L23.1318 16.8303C22.4749 16.8527 21.1788 16.9242 20.0749 17.1613C18.8726 17.4252 18.2827 18.6419 18.3184 20.7845C18.3497 22.7168 19.2749 26.2013 20.9196 28.8538C22.1084 30.7727 24.5888 34.7582 28.2223 35.6841C31.8916 36.6234 36.5665 35.9033 38.3899 32.7185C39.3553 31.0411 39.905 28.5407 39.905 25.8658C39.905 22.7481 37.3486 11.1093 24.848 11.1093C14.676 11.1048 10.1039 19.8809 10.1039 26.1118C10.1039 32.3427 15.2793 40.8952 25 40.8952C29.7866 40.8952 33.1475 38.3455 33.1832 38.3187C33.4246 38.1308 33.7732 38.1756 33.9564 38.4171C34.1397 38.6587 34.0994 39.0031 33.8581 39.1909C33.7106 39.3072 30.1754 41.9955 25 41.9955" fill="white"/>
</g>
<circle cx="241.5" cy="25.5" r="25.5" fill="#5AD0C8"/>
<path d="M60.56 33.2C59.6133 33.2 58.8067 33.06 58.14 32.78C57.4733 32.5 56.9267 32.1133 56.5 31.62C56.0733 31.1267 55.7533 30.56 55.54 29.92C55.3267 29.2667 55.2 28.5733 55.16 27.84C55.1467 27.48 55.1333 27.0867 55.12 26.66C55.12 26.22 55.12 25.78 55.12 25.34C55.1333 24.9 55.1467 24.4933 55.16 24.12C55.1867 23.3867 55.3133 22.7 55.54 22.06C55.7667 21.4067 56.0933 20.84 56.52 20.36C56.96 19.88 57.5133 19.5 58.18 19.22C58.8467 18.94 59.64 18.8 60.56 18.8C61.4933 18.8 62.2933 18.94 62.96 19.22C63.6267 19.5 64.1733 19.88 64.6 20.36C65.04 20.84 65.3667 21.4067 65.58 22.06C65.8067 22.7 65.9333 23.3867 65.96 24.12C65.9867 24.4933 66 24.9 66 25.34C66 25.78 66 26.22 66 26.66C66 27.0867 65.9867 27.48 65.96 27.84C65.9333 28.5733 65.8133 29.2667 65.6 29.92C65.3867 30.56 65.0667 31.1267 64.64 31.62C64.2133 32.1133 63.66 32.5 62.98 32.78C62.3133 33.06 61.5067 33.2 60.56 33.2ZM60.56 30.9C61.4267 30.9 62.06 30.62 62.46 30.06C62.8733 29.4867 63.0867 28.7133 63.1 27.74C63.1267 27.3533 63.14 26.9667 63.14 26.58C63.14 26.18 63.14 25.78 63.14 25.38C63.14 24.98 63.1267 24.6 63.1 24.24C63.0867 23.2933 62.8733 22.5333 62.46 21.96C62.06 21.3733 61.4267 21.08 60.56 21.08C59.7067 21.08 59.0733 21.3733 58.66 21.96C58.26 22.5333 58.0467 23.2933 58.02 24.24C58.02 24.6 58.0133 24.98 58 25.38C58 25.78 58 26.18 58 26.58C58.0133 26.9667 58.02 27.3533 58.02 27.74C58.0467 28.7133 58.2667 29.4867 58.68 30.06C59.0933 30.62 59.72 30.9 60.56 30.9ZM73.7045 33.2C72.8245 33.2 72.0379 33.0933 71.3445 32.88C70.6512 32.6667 70.0645 32.3667 69.5845 31.98C69.1179 31.5933 68.7579 31.14 68.5045 30.62C68.2645 30.1 68.1445 29.52 68.1445 28.88C68.1445 28.1067 68.3312 27.44 68.7045 26.88C69.0912 26.3067 69.5912 25.8667 70.2045 25.56C69.7112 25.2533 69.3245 24.86 69.0445 24.38C68.7779 23.9 68.6445 23.34 68.6445 22.7C68.6445 21.9267 68.8379 21.2533 69.2245 20.68C69.6245 20.0933 70.1979 19.6333 70.9445 19.3C71.7045 18.9667 72.6245 18.8 73.7045 18.8C74.7845 18.8 75.6979 18.9667 76.4445 19.3C77.1912 19.62 77.7579 20.0733 78.1445 20.66C78.5312 21.2333 78.7245 21.9067 78.7245 22.68C78.7245 23.32 78.5912 23.88 78.3245 24.36C78.0579 24.84 77.6845 25.24 77.2045 25.56C77.8312 25.8533 78.3312 26.2933 78.7045 26.88C79.0779 27.4533 79.2645 28.1267 79.2645 28.9C79.2645 29.74 79.0445 30.4867 78.6045 31.14C78.1779 31.78 77.5445 32.2867 76.7045 32.66C75.8779 33.02 74.8779 33.2 73.7045 33.2ZM73.7045 31.12C74.2245 31.12 74.6912 31.0333 75.1045 30.86C75.5312 30.6733 75.8645 30.4133 76.1045 30.08C76.3579 29.7467 76.4845 29.3533 76.4845 28.9C76.4845 28.4333 76.3579 28.04 76.1045 27.72C75.8645 27.3867 75.5312 27.1333 75.1045 26.96C74.6912 26.7733 74.2245 26.68 73.7045 26.68C73.1845 26.68 72.7112 26.7733 72.2845 26.96C71.8712 27.1333 71.5379 27.3867 71.2845 27.72C71.0445 28.04 70.9245 28.4333 70.9245 28.9C70.9245 29.3533 71.0445 29.7467 71.2845 30.08C71.5379 30.4133 71.8712 30.6733 72.2845 30.86C72.7112 31.0333 73.1845 31.12 73.7045 31.12ZM73.7045 24.7C74.1445 24.6867 74.5445 24.6 74.9045 24.44C75.2779 24.28 75.5712 24.0667 75.7845 23.8C76.0112 23.52 76.1245 23.1867 76.1245 22.8C76.1245 22.4133 76.0179 22.08 75.8045 21.8C75.6045 21.5067 75.3179 21.28 74.9445 21.12C74.5845 20.96 74.1712 20.88 73.7045 20.88C73.2379 20.88 72.8179 20.96 72.4445 21.12C72.0845 21.28 71.7979 21.5067 71.5845 21.8C71.3845 22.08 71.2845 22.4133 71.2845 22.8C71.2845 23.1867 71.3845 23.52 71.5845 23.8C71.7979 24.08 72.0845 24.3 72.4445 24.46C72.8179 24.62 73.2379 24.7 73.7045 24.7ZM86.8295 33.2C85.8829 33.2 85.0762 33.06 84.4095 32.78C83.7429 32.5 83.1962 32.1133 82.7695 31.62C82.3429 31.1267 82.0229 30.56 81.8095 29.92C81.5962 29.2667 81.4695 28.5733 81.4295 27.84C81.4162 27.48 81.4029 27.0867 81.3895 26.66C81.3895 26.22 81.3895 25.78 81.3895 25.34C81.4029 24.9 81.4162 24.4933 81.4295 24.12C81.4562 23.3867 81.5829 22.7 81.8095 22.06C82.0362 21.4067 82.3629 20.84 82.7895 20.36C83.2295 19.88 83.7829 19.5 84.4495 19.22C85.1162 18.94 85.9095 18.8 86.8295 18.8C87.7629 18.8 88.5629 18.94 89.2295 19.22C89.8962 19.5 90.4429 19.88 90.8695 20.36C91.3095 20.84 91.6362 21.4067 91.8495 22.06C92.0762 22.7 92.2029 23.3867 92.2295 24.12C92.2562 24.4933 92.2695 24.9 92.2695 25.34C92.2695 25.78 92.2695 26.22 92.2695 26.66C92.2695 27.0867 92.2562 27.48 92.2295 27.84C92.2029 28.5733 92.0829 29.2667 91.8695 29.92C91.6562 30.56 91.3362 31.1267 90.9095 31.62C90.4829 32.1133 89.9295 32.5 89.2495 32.78C88.5829 33.06 87.7762 33.2 86.8295 33.2ZM86.8295 30.9C87.6962 30.9 88.3295 30.62 88.7295 30.06C89.1429 29.4867 89.3562 28.7133 89.3695 27.74C89.3962 27.3533 89.4095 26.9667 89.4095 26.58C89.4095 26.18 89.4095 25.78 89.4095 25.38C89.4095 24.98 89.3962 24.6 89.3695 24.24C89.3562 23.2933 89.1429 22.5333 88.7295 21.96C88.3295 21.3733 87.6962 21.08 86.8295 21.08C85.9762 21.08 85.3429 21.3733 84.9295 21.96C84.5295 22.5333 84.3162 23.2933 84.2895 24.24C84.2895 24.6 84.2829 24.98 84.2695 25.38C84.2695 25.78 84.2695 26.18 84.2695 26.58C84.2829 26.9667 84.2895 27.3533 84.2895 27.74C84.3162 28.7133 84.5362 29.4867 84.9495 30.06C85.3629 30.62 85.9895 30.9 86.8295 30.9ZM99.9741 33.2C99.0274 33.2 98.2207 33.06 97.5541 32.78C96.8874 32.5 96.3407 32.1133 95.9141 31.62C95.4874 31.1267 95.1674 30.56 94.9541 29.92C94.7407 29.2667 94.6141 28.5733 94.5741 27.84C94.5607 27.48 94.5474 27.0867 94.5341 26.66C94.5341 26.22 94.5341 25.78 94.5341 25.34C94.5474 24.9 94.5607 24.4933 94.5741 24.12C94.6007 23.3867 94.7274 22.7 94.9541 22.06C95.1807 21.4067 95.5074 20.84 95.9341 20.36C96.3741 19.88 96.9274 19.5 97.5941 19.22C98.2607 18.94 99.0541 18.8 99.9741 18.8C100.907 18.8 101.707 18.94 102.374 19.22C103.041 19.5 103.587 19.88 104.014 20.36C104.454 20.84 104.781 21.4067 104.994 22.06C105.221 22.7 105.347 23.3867 105.374 24.12C105.401 24.4933 105.414 24.9 105.414 25.34C105.414 25.78 105.414 26.22 105.414 26.66C105.414 27.0867 105.401 27.48 105.374 27.84C105.347 28.5733 105.227 29.2667 105.014 29.92C104.801 30.56 104.481 31.1267 104.054 31.62C103.627 32.1133 103.074 32.5 102.394 32.78C101.727 33.06 100.921 33.2 99.9741 33.2ZM99.9741 30.9C100.841 30.9 101.474 30.62 101.874 30.06C102.287 29.4867 102.501 28.7133 102.514 27.74C102.541 27.3533 102.554 26.9667 102.554 26.58C102.554 26.18 102.554 25.78 102.554 25.38C102.554 24.98 102.541 24.6 102.514 24.24C102.501 23.2933 102.287 22.5333 101.874 21.96C101.474 21.3733 100.841 21.08 99.9741 21.08C99.1207 21.08 98.4874 21.3733 98.0741 21.96C97.6741 22.5333 97.4607 23.2933 97.4341 24.24C97.4341 24.6 97.4274 24.98 97.4141 25.38C97.4141 25.78 97.4141 26.18 97.4141 26.58C97.4274 26.9667 97.4341 27.3533 97.4341 27.74C97.4607 28.7133 97.6807 29.4867 98.0941 30.06C98.5074 30.62 99.1341 30.9 99.9741 30.9ZM108.299 28.14C108.152 28.14 108.032 28.0933 107.939 28C107.859 27.9067 107.819 27.7933 107.819 27.66V26.34C107.819 26.2067 107.859 26.0933 107.939 26C108.032 25.9067 108.152 25.86 108.299 25.86H114.439C114.572 25.86 114.685 25.9067 114.779 26C114.872 26.0933 114.919 26.2067 114.919 26.34V27.66C114.919 27.7933 114.872 27.9067 114.779 28C114.685 28.0933 114.572 28.14 114.439 28.14H108.299ZM124.068 33C123.935 33 123.821 32.9533 123.728 32.86C123.635 32.7667 123.588 32.6533 123.588 32.52V29.96H117.248C117.101 29.96 116.981 29.9133 116.888 29.82C116.808 29.7267 116.768 29.6133 116.768 29.48V28.12C116.768 28.04 116.781 27.9467 116.808 27.84C116.848 27.72 116.908 27.6133 116.988 27.52L122.888 19.34C123.061 19.1133 123.308 19 123.628 19H125.808C125.941 19 126.055 19.0467 126.148 19.14C126.241 19.2333 126.288 19.3467 126.288 19.48V27.6H128.068C128.228 27.6 128.348 27.6467 128.428 27.74C128.521 27.82 128.568 27.9333 128.568 28.08V29.48C128.568 29.6133 128.521 29.7267 128.428 29.82C128.335 29.9133 128.221 29.96 128.088 29.96H126.288V32.52C126.288 32.6533 126.241 32.7667 126.148 32.86C126.055 32.9533 125.941 33 125.808 33H124.068ZM119.548 27.68H123.648V21.9L119.548 27.68ZM137.115 33C136.982 33 136.868 32.9533 136.775 32.86C136.682 32.7667 136.635 32.6533 136.635 32.52V29.96H130.295C130.148 29.96 130.028 29.9133 129.935 29.82C129.855 29.7267 129.815 29.6133 129.815 29.48V28.12C129.815 28.04 129.828 27.9467 129.855 27.84C129.895 27.72 129.955 27.6133 130.035 27.52L135.935 19.34C136.108 19.1133 136.355 19 136.675 19H138.855C138.988 19 139.102 19.0467 139.195 19.14C139.288 19.2333 139.335 19.3467 139.335 19.48V27.6H141.115C141.275 27.6 141.395 27.6467 141.475 27.74C141.568 27.82 141.615 27.9333 141.615 28.08V29.48C141.615 29.6133 141.568 29.7267 141.475 29.82C141.382 29.9133 141.268 29.96 141.135 29.96H139.335V32.52C139.335 32.6533 139.288 32.7667 139.195 32.86C139.102 32.9533 138.988 33 138.855 33H137.115ZM132.595 27.68H136.695V21.9L132.595 27.68ZM150.162 33C150.028 33 149.915 32.9533 149.822 32.86C149.728 32.7667 149.682 32.6533 149.682 32.52V29.96H143.342C143.195 29.96 143.075 29.9133 142.982 29.82C142.902 29.7267 142.862 29.6133 142.862 29.48V28.12C142.862 28.04 142.875 27.9467 142.902 27.84C142.942 27.72 143.002 27.6133 143.082 27.52L148.982 19.34C149.155 19.1133 149.402 19 149.722 19H151.902C152.035 19 152.148 19.0467 152.242 19.14C152.335 19.2333 152.382 19.3467 152.382 19.48V27.6H154.162C154.322 27.6 154.442 27.6467 154.522 27.74C154.615 27.82 154.662 27.9333 154.662 28.08V29.48C154.662 29.6133 154.615 29.7267 154.522 29.82C154.428 29.9133 154.315 29.96 154.182 29.96H152.382V32.52C152.382 32.6533 152.335 32.7667 152.242 32.86C152.148 32.9533 152.035 33 151.902 33H150.162ZM145.642 27.68H149.742V21.9L145.642 27.68ZM157.049 28.14C156.902 28.14 156.782 28.0933 156.689 28C156.609 27.9067 156.569 27.7933 156.569 27.66V26.34C156.569 26.2067 156.609 26.0933 156.689 26C156.782 25.9067 156.902 25.86 157.049 25.86H163.189C163.322 25.86 163.435 25.9067 163.529 26C163.622 26.0933 163.669 26.2067 163.669 26.34V27.66C163.669 27.7933 163.622 27.9067 163.529 28C163.435 28.0933 163.322 28.14 163.189 28.14H157.049ZM172.818 33C172.685 33 172.571 32.9533 172.478 32.86C172.385 32.7667 172.338 32.6533 172.338 32.52V29.96H165.998C165.851 29.96 165.731 29.9133 165.638 29.82C165.558 29.7267 165.518 29.6133 165.518 29.48V28.12C165.518 28.04 165.531 27.9467 165.558 27.84C165.598 27.72 165.658 27.6133 165.738 27.52L171.638 19.34C171.811 19.1133 172.058 19 172.378 19H174.558C174.691 19 174.805 19.0467 174.898 19.14C174.991 19.2333 175.038 19.3467 175.038 19.48V27.6H176.818C176.978 27.6 177.098 27.6467 177.178 27.74C177.271 27.82 177.318 27.9333 177.318 28.08V29.48C177.318 29.6133 177.271 29.7267 177.178 29.82C177.085 29.9133 176.971 29.96 176.838 29.96H175.038V32.52C175.038 32.6533 174.991 32.7667 174.898 32.86C174.805 32.9533 174.691 33 174.558 33H172.818ZM168.298 27.68H172.398V21.9L168.298 27.68ZM184.525 33.2C183.578 33.2 182.772 33.06 182.105 32.78C181.438 32.5 180.892 32.1133 180.465 31.62C180.038 31.1267 179.718 30.56 179.505 29.92C179.292 29.2667 179.165 28.5733 179.125 27.84C179.112 27.48 179.098 27.0867 179.085 26.66C179.085 26.22 179.085 25.78 179.085 25.34C179.098 24.9 179.112 24.4933 179.125 24.12C179.152 23.3867 179.278 22.7 179.505 22.06C179.732 21.4067 180.058 20.84 180.485 20.36C180.925 19.88 181.478 19.5 182.145 19.22C182.812 18.94 183.605 18.8 184.525 18.8C185.458 18.8 186.258 18.94 186.925 19.22C187.592 19.5 188.138 19.88 188.565 20.36C189.005 20.84 189.332 21.4067 189.545 22.06C189.772 22.7 189.898 23.3867 189.925 24.12C189.952 24.4933 189.965 24.9 189.965 25.34C189.965 25.78 189.965 26.22 189.965 26.66C189.965 27.0867 189.952 27.48 189.925 27.84C189.898 28.5733 189.778 29.2667 189.565 29.92C189.352 30.56 189.032 31.1267 188.605 31.62C188.178 32.1133 187.625 32.5 186.945 32.78C186.278 33.06 185.472 33.2 184.525 33.2ZM184.525 30.9C185.392 30.9 186.025 30.62 186.425 30.06C186.838 29.4867 187.052 28.7133 187.065 27.74C187.092 27.3533 187.105 26.9667 187.105 26.58C187.105 26.18 187.105 25.78 187.105 25.38C187.105 24.98 187.092 24.6 187.065 24.24C187.052 23.2933 186.838 22.5333 186.425 21.96C186.025 21.3733 185.392 21.08 184.525 21.08C183.672 21.08 183.038 21.3733 182.625 21.96C182.225 22.5333 182.012 23.2933 181.985 24.24C181.985 24.6 181.978 24.98 181.965 25.38C181.965 25.78 181.965 26.18 181.965 26.58C181.978 26.9667 181.985 27.3533 181.985 27.74C182.012 28.7133 182.232 29.4867 182.645 30.06C183.058 30.62 183.685 30.9 184.525 30.9ZM199.009 33C198.876 33 198.763 32.9533 198.669 32.86C198.576 32.7667 198.529 32.6533 198.529 32.52V29.96H192.189C192.043 29.96 191.923 29.9133 191.829 29.82C191.749 29.7267 191.709 29.6133 191.709 29.48V28.12C191.709 28.04 191.723 27.9467 191.749 27.84C191.789 27.72 191.849 27.6133 191.929 27.52L197.829 19.34C198.003 19.1133 198.249 19 198.569 19H200.749C200.883 19 200.996 19.0467 201.089 19.14C201.183 19.2333 201.229 19.3467 201.229 19.48V27.6H203.009C203.169 27.6 203.289 27.6467 203.369 27.74C203.463 27.82 203.509 27.9333 203.509 28.08V29.48C203.509 29.6133 203.463 29.7267 203.369 29.82C203.276 29.9133 203.163 29.96 203.029 29.96H201.229V32.52C201.229 32.6533 201.183 32.7667 201.089 32.86C200.996 32.9533 200.883 33 200.749 33H199.009ZM194.489 27.68H198.589V21.9L194.489 27.68ZM210.716 33.2C209.77 33.2 208.963 33.06 208.296 32.78C207.63 32.5 207.083 32.1133 206.656 31.62C206.23 31.1267 205.91 30.56 205.696 29.92C205.483 29.2667 205.356 28.5733 205.316 27.84C205.303 27.48 205.29 27.0867 205.276 26.66C205.276 26.22 205.276 25.78 205.276 25.34C205.29 24.9 205.303 24.4933 205.316 24.12C205.343 23.3867 205.47 22.7 205.696 22.06C205.923 21.4067 206.25 20.84 206.676 20.36C207.116 19.88 207.67 19.5 208.336 19.22C209.003 18.94 209.796 18.8 210.716 18.8C211.65 18.8 212.45 18.94 213.116 19.22C213.783 19.5 214.33 19.88 214.756 20.36C215.196 20.84 215.523 21.4067 215.736 22.06C215.963 22.7 216.09 23.3867 216.116 24.12C216.143 24.4933 216.156 24.9 216.156 25.34C216.156 25.78 216.156 26.22 216.156 26.66C216.156 27.0867 216.143 27.48 216.116 27.84C216.09 28.5733 215.97 29.2667 215.756 29.92C215.543 30.56 215.223 31.1267 214.796 31.62C214.37 32.1133 213.816 32.5 213.136 32.78C212.47 33.06 211.663 33.2 210.716 33.2ZM210.716 30.9C211.583 30.9 212.216 30.62 212.616 30.06C213.03 29.4867 213.243 28.7133 213.256 27.74C213.283 27.3533 213.296 26.9667 213.296 26.58C213.296 26.18 213.296 25.78 213.296 25.38C213.296 24.98 213.283 24.6 213.256 24.24C213.243 23.2933 213.03 22.5333 212.616 21.96C212.216 21.3733 211.583 21.08 210.716 21.08C209.863 21.08 209.23 21.3733 208.816 21.96C208.416 22.5333 208.203 23.2933 208.176 24.24C208.176 24.6 208.17 24.98 208.156 25.38C208.156 25.78 208.156 26.18 208.156 26.58C208.17 26.9667 208.176 27.3533 208.176 27.74C208.203 28.7133 208.423 29.4867 208.836 30.06C209.25 30.62 209.876 30.9 210.716 30.9Z" fill="white"/>
<defs>
<clipPath id="clip0_38_10032">
<rect width="32" height="32" fill="white" transform="translate(9 10)"/>
</clipPath>
</defs>
</svg>
