<svg width="41" height="41" viewBox="0 0 41 41" fill="none" xmlns="http://www.w3.org/2000/svg">
<g id="Group">
<path id="Vector" d="M40.2707 20.4718C40.2707 31.3014 31.4282 40.1439 20.5986 40.1439C9.66969 40.1439 0.926483 31.3014 0.926483 20.4718C0.926483 9.54282 9.76905 0.799657 20.5986 0.799657C31.5276 0.700303 40.2707 9.54282 40.2707 20.4718Z" fill="#07CEC7"/>
<g id="Group_2">
<path id="Vector_2" fill-rule="evenodd" clip-rule="evenodd" d="M31.2295 20.1736C31.2295 25.9362 26.5598 30.5065 20.7973 30.5065C19.0089 30.5065 17.2206 30.0097 15.7303 29.2149L9.96768 31.0032L11.8554 25.4394C10.8619 23.8497 10.3651 22.0614 10.3651 20.0743C10.3651 14.3117 15.0348 9.74146 20.7973 9.74146C26.5598 9.84081 31.2295 14.4111 31.2295 20.1736ZM20.7973 11.4305C15.929 11.4305 12.0541 15.3053 12.0541 20.1736C12.0541 22.0614 12.6503 23.8497 13.7432 25.2407L12.6503 28.5194L16.0283 27.4265C17.4192 28.3207 19.1083 28.8174 20.8966 28.8174C25.765 28.8174 29.6398 24.9426 29.6398 20.0743C29.5405 15.4046 25.6657 11.4305 20.7973 11.4305ZM26.0631 22.5581C25.9638 22.4588 25.8644 22.3594 25.5663 22.2601C25.2683 22.1607 24.076 21.5646 23.7779 21.4652C23.5792 21.3659 23.3805 21.3659 23.1818 21.5646C22.9831 21.8627 22.4863 22.3594 22.3869 22.5581C22.2876 22.7568 22.0889 22.7568 21.7908 22.6575C21.4928 22.5581 20.698 22.2601 19.7044 21.3659C18.9096 20.6704 18.4128 19.8756 18.3134 19.5775C18.2141 19.2794 18.3134 19.1801 18.4128 19.0807C18.5121 18.9814 18.7109 18.7827 18.8102 18.6833C18.9096 18.584 19.009 18.3853 19.1083 18.2859C19.2077 18.0872 19.1083 17.9878 19.1083 17.8885C19.009 17.7891 18.5122 16.4975 18.3134 16.0008C18.1147 15.504 17.9161 15.504 17.7173 15.504C17.618 15.504 17.3199 15.504 17.3199 15.504C17.3199 15.504 16.8231 15.6033 16.525 15.8021C16.3263 16.1001 15.6309 16.6962 15.6309 17.8885C15.6309 19.1801 16.5251 20.3723 16.6245 20.4717C16.7238 20.6704 18.4128 23.2536 20.996 24.3465C23.5792 25.34 23.5793 25.042 24.076 24.9426C24.5728 24.9426 25.5663 24.3465 25.765 23.7504C26.1624 23.1543 26.1625 22.6575 26.0631 22.5581Z" fill="white"/>
</g>
</g>
</svg>
