<svg width="41" height="41" viewBox="0 0 41 41" fill="none" xmlns="http://www.w3.org/2000/svg">
<path d="M40.3001 20.3008C40.3001 31.3008 31.4 40.1008 20.5 40.1008C9.60005 40.1008 0.699997 31.2008 0.699997 20.3008C0.699997 9.30084 9.60005 0.500835 20.5 0.500835C31.4 0.400835 40.3001 9.30084 40.3001 20.3008Z" fill="#07CEC7"/>
<g clip-path="url(#clip0_492_3)">
<path d="M18.139 16.7968C20.1796 18.0488 22.2203 19.2992 24.261 20.5513C22.2203 21.4365 20.1796 22.3217 18.139 23.2052V16.7968ZM18.139 15.501C17.9091 15.501 17.6774 15.5515 17.4662 15.6508C16.9953 15.8763 16.7 16.3172 16.7 16.7968V23.2052C16.7 23.6511 16.9541 24.0651 17.3728 24.3024C17.6064 24.4337 17.8717 24.501 18.139 24.501C18.352 24.501 18.565 24.4589 18.7631 24.3731L21.8242 23.0453L24.8852 21.7175C25.3487 21.5172 25.657 21.1083 25.6963 20.6472C25.7336 20.1861 25.4963 19.7401 25.0721 19.4793L22.011 17.6029L18.9481 15.7265C18.7052 15.5767 18.423 15.501 18.139 15.501Z" fill="white"/>
</g>
<path d="M9.3349 20.5564C9.3349 21.5379 9.29526 22.5209 9.34659 23.4992C9.39182 24.3602 9.47873 25.2279 9.65306 26.0701C9.99155 27.7048 10.8418 28.4645 12.4718 28.571C14.2587 28.6879 16.0508 28.7307 17.8408 28.7927C18.7958 28.8256 19.7518 28.8261 20.7073 28.8507C21.1433 28.8621 21.4833 29.2394 21.4813 29.684C21.4793 30.1416 21.1316 30.5026 20.6661 30.4985C19.61 30.4896 18.5539 30.4812 17.4982 30.4458C15.877 30.3915 14.2562 30.3221 12.6359 30.2443C11.6083 30.1948 10.6487 29.9083 9.79638 29.2926C9.27036 28.9128 8.90646 28.3957 8.63709 27.8097C8.25235 26.9717 7.89709 26.1207 7.83458 25.1783C7.7868 24.4604 7.71158 23.7424 7.70752 23.0239C7.69685 21.0526 7.68973 19.0808 7.73446 17.1105C7.7619 15.9083 7.92352 14.7228 8.42464 13.6026C8.89426 12.5517 9.53566 11.6876 10.5689 11.1789C11.1127 10.9112 11.686 10.7604 12.2939 10.7395C14.3634 10.668 16.432 10.5579 18.502 10.5183C20.3266 10.4833 22.1527 10.512 23.9783 10.5345C25.1869 10.5491 26.3955 10.5861 27.6031 10.6451C28.3603 10.6816 29.1293 10.7035 29.8668 10.8621C31.0459 11.1162 31.976 11.7951 32.565 12.9044C32.9818 13.6886 33.3802 14.4974 33.4554 15.3933C33.5739 16.8006 33.6247 18.2146 33.6775 19.6266C33.7065 20.3993 33.7085 21.1752 33.673 21.9475C33.612 23.254 33.6348 24.5835 33.3939 25.8582C33.1363 27.2222 32.6153 28.5345 31.4301 29.4053C30.6205 30.0002 29.7087 30.261 28.7207 30.2407C28.339 30.2329 28.0229 29.8728 28.002 29.47C27.9812 29.0756 28.2678 28.7061 28.6561 28.6388C28.9799 28.5825 29.3123 28.5647 29.6284 28.4797C30.5646 28.2271 31.2014 27.6344 31.5333 26.6853C31.8311 25.8337 31.9378 24.954 31.9602 24.0607C32.0049 22.2897 32.0624 20.5188 32.0568 18.7479C32.0537 17.7706 31.9307 16.7938 31.8672 15.8165C31.8265 15.1888 31.6603 14.5966 31.4184 14.0226C31.0489 13.1465 30.3765 12.6466 29.4927 12.4671C28.9585 12.3586 28.4061 12.3242 27.8597 12.3028C26.1464 12.2365 24.4322 12.1692 22.7179 12.1457C21.0503 12.1228 19.3818 12.1379 17.7142 12.1645C16.2952 12.187 14.8762 12.2365 13.4577 12.2997C12.887 12.3252 12.3076 12.3659 11.7521 12.4917C10.7051 12.7291 10.0322 13.4408 9.75674 14.4865C9.57276 15.1836 9.44824 15.9088 9.39792 16.6284C9.30695 17.9349 9.29119 19.2467 9.24393 20.5564C9.27391 20.5564 9.30339 20.5574 9.33338 20.5579L9.3349 20.5564Z" fill="white"/>
<defs>
<clipPath id="clip0_492_3">
<rect width="9" height="9" fill="white" transform="translate(16.7 15.501)"/>
</clipPath>
</defs>
</svg>
